<svg width="24" height="25" viewBox="0 0 24 25" fill="none" xmlns="http://www.w3.org/2000/svg">
<g id="Frame 2">
<path id="5" d="M15.4823 13.7202C15.3765 14.2701 15.228 14.7506 15.0366 15.1615C14.8471 15.5633 14.5359 15.9406 14.1032 16.2933C13.8369 16.5103 13.5068 16.6943 13.1128 16.8454C12.7282 16.9965 12.2746 17.0687 11.752 17.0619C11.2293 17.055 10.7964 16.9713 10.453 16.8106C10.1097 16.6499 9.851 16.4627 9.67691 16.2491C9.42712 15.9426 9.2844 15.6146 9.24875 15.2649C9.2131 14.9153 9.21566 14.5616 9.25643 14.2038L11.0763 14.2276C11.0489 14.6132 11.1082 14.9126 11.2543 15.1258C11.4097 15.3392 11.6788 15.4484 12.0614 15.4534C12.4254 15.4581 12.735 15.3565 12.9902 15.1485C13.1788 14.9948 13.3203 14.7945 13.4145 14.5477C13.5199 14.2918 13.6026 14.008 13.6625 13.6964C13.7718 13.1281 13.7623 12.6916 13.6338 12.3867C13.5147 12.0819 13.2311 11.9266 12.7832 11.9207C12.4099 11.9158 12.1131 11.9992 11.893 12.1709C11.6839 12.3336 11.5282 12.5107 11.4259 12.7023L9.76 12.6805L10.8233 7.15387L16.5068 7.22827L16.1973 8.83678L12.1657 8.784L11.761 10.8874C11.9163 10.7608 12.1344 10.6488 12.4151 10.5514C12.7051 10.4541 13.0181 10.4077 13.3541 10.4121C13.774 10.4176 14.1265 10.4819 14.4116 10.6051C14.6967 10.7283 14.9224 10.8921 15.089 11.0964C15.4069 11.4865 15.574 11.9067 15.5902 12.3572C15.6082 12.7984 15.5723 13.2528 15.4823 13.7202Z" fill="#868D99"/>
</g>
</svg>
