<svg width="24" height="25" viewBox="0 0 24 25" fill="none" xmlns="http://www.w3.org/2000/svg">
<g id="Frame 6">
<path id="6" d="M15.0872 14.1496C15.0872 14.6443 15.0079 15.0829 14.8492 15.4656C14.6906 15.8483 14.4712 16.1749 14.1912 16.4456C13.9112 16.7069 13.5799 16.9076 13.1972 17.0476C12.8239 17.1876 12.4179 17.2576 11.9792 17.2576C11.5406 17.2576 11.1299 17.1923 10.7472 17.0616C10.3739 16.9216 10.0472 16.7209 9.76722 16.4596C9.48722 16.1983 9.26789 15.8763 9.10922 15.4936C8.95055 15.1109 8.87122 14.6723 8.87122 14.1776C8.87122 13.7203 8.95522 13.2769 9.12322 12.8476C9.29122 12.4183 9.48722 11.9749 9.71122 11.5176L11.8112 7.20558H13.7992L11.7272 11.3216C11.8486 11.2749 11.9699 11.2423 12.0912 11.2236C12.2219 11.2049 12.3479 11.1956 12.4692 11.1956C12.8052 11.1956 13.1272 11.2656 13.4352 11.4056C13.7526 11.5363 14.0326 11.7276 14.2752 11.9796C14.5272 12.2316 14.7232 12.5443 14.8632 12.9176C15.0126 13.2816 15.0872 13.6923 15.0872 14.1496ZM13.2672 14.1636C13.2672 13.7156 13.1506 13.3609 12.9172 13.0996C12.6839 12.8383 12.3712 12.7076 11.9792 12.7076C11.6059 12.7076 11.2979 12.8336 11.0552 13.0856C10.8126 13.3376 10.6912 13.6969 10.6912 14.1636C10.6912 14.6303 10.8126 14.9896 11.0552 15.2416C11.2979 15.4936 11.6059 15.6196 11.9792 15.6196C12.3526 15.6196 12.6606 15.4936 12.9032 15.2416C13.1459 14.9896 13.2672 14.6303 13.2672 14.1636Z" fill="#868D99"/>
</g>
</svg>
