<?xml version="1.0" encoding="UTF-8"?><svg xmlns="http://www.w3.org/2000/svg" xmlns:xlink="http://www.w3.org/1999/xlink" viewBox="0 0 186 144"><g fill="#7194DA" fill-rule="nonzero"><path d="M120.148 84.778c-11.222 0-21.76-4.37-29.685-12.297C82.537 64.556 78.167 54 78.167 42.796c0-11.222 4.37-21.759 12.296-29.685C98.389 5.185 108.944.815 120.148.815c11.204 0 21.76 4.37 29.685 12.296 7.926 7.926 12.297 18.482 12.297 29.685 0 11.223-4.37 21.76-12.297 29.685-7.926 7.926-18.481 12.297-29.685 12.297zm0-72.852c-17.018 0-30.87 13.852-30.87 30.87 0 17.019 13.852 30.87 30.87 30.87 17.019 0 30.87-13.851 30.87-30.87 0-17.018-13.851-30.87-30.87-30.87z" class="st0"></path><path d="M60.037 143.056a5.548 5.548 0 0 1-5.556-5.556c0-8.611 1.686-16.981 5.019-24.852a63.627 63.627 0 0 1 13.685-20.296 63.627 63.627 0 0 1 20.296-13.685c7.87-3.334 16.241-5.019 24.852-5.019a5.548 5.548 0 0 1 5.556 5.556 5.548 5.548 0 0 1-5.556 5.555c-29.074 0-52.722 23.648-52.722 52.722-.018 3.093-2.5 5.575-5.574 5.575z" class="st1"></path><path d="M180.24 143.056a5.548 5.548 0 0 1-5.555-5.556c0-8.907-2.26-17.722-6.555-25.463a53.47 53.47 0 0 0-7.278-10.111 53.479 53.479 0 0 0-7.611-6.852c-9.111-6.74-19.945-10.296-31.297-10.296a5.548 5.548 0 0 1-5.555-5.556 5.548 5.548 0 0 1 5.555-5.555c13.76 0 26.87 4.314 37.908 12.463a65.02 65.02 0 0 1 9.204 8.277 63.503 63.503 0 0 1 8.796 12.241c5.185 9.389 7.926 20.056 7.926 30.852a5.52 5.52 0 0 1-5.537 5.556zM45.612 94.315c-16.185 0-29.352-13.167-29.352-29.352 0-16.185 13.167-29.37 29.352-29.37 16.185 0 29.352 13.166 29.352 29.351 0 16.186-13.167 29.37-29.352 29.37zm0-47.611c-10.055 0-18.24 8.185-18.24 18.24 0 10.056 8.185 18.241 18.24 18.241 10.056 0 18.24-8.185 18.24-18.24 0-10.056-8.166-18.241-18.24-18.241z" class="st2"></path><path d="M6.333 132.389a5.548 5.548 0 0 1-5.555-5.556c0-11.648 4.537-22.61 12.778-30.852 8.24-8.24 19.203-12.777 30.851-12.777a5.548 5.548 0 0 1 5.556 5.555 5.548 5.548 0 0 1-5.556 5.556c-17.926 0-32.518 14.592-32.518 32.518a5.548 5.548 0 0 1-5.556 5.556z" class="st3"></path></g></svg>