<?xml version="1.0" encoding="UTF-8"?>
<svg width="163px" height="1px" viewBox="0 0 163 1" version="1.1" xmlns="http://www.w3.org/2000/svg" xmlns:xlink="http://www.w3.org/1999/xlink">
    <!-- Generator: Sketch 63 (92445) - https://sketch.com -->
    <title>形状结合</title>
    <desc>Created with Sketch.</desc>
    <g id="页面-1" stroke="none" stroke-width="1" fill="none" fill-rule="evenodd">
        <g id="形状配置" transform="translate(-1631.000000, -531.000000)" fill="#E7E7E7">
            <path d="M1656,531 L1656,532 L1631,532 L1631,531 L1656,531 Z M1689,531 L1689,532 L1664,532 L1664,531 L1689,531 Z M1722,531 L1722,532 L1697,532 L1697,531 L1722,531 Z M1662,531 L1662,532 L1658,532 L1658,531 L1662,531 Z M1695,531 L1695,532 L1691,532 L1691,531 L1695,531 Z M1755,531 L1755,532 L1730,532 L1730,531 L1755,531 Z M1788,531 L1788,532 L1763,532 L1763,531 L1788,531 Z M1761,531 L1761,532 L1757,532 L1757,531 L1761,531 Z M1794,531 L1794,532 L1790,532 L1790,531 L1794,531 Z M1728,531 L1728,532 L1724,532 L1724,531 L1728,531 Z" id="形状结合"></path>
        </g>
    </g>
</svg>