<?xml version="1.0" encoding="UTF-8"?>
<svg width="7px" height="11px" viewBox="0 0 7 11" version="1.1" xmlns="http://www.w3.org/2000/svg" xmlns:xlink="http://www.w3.org/1999/xlink">
    <!-- Generator: Sketch 63 (92445) - https://sketch.com -->
    <desc>Created with Sketch.</desc>
    <g id="页面-1" stroke="none" stroke-width="1" fill="none" fill-rule="evenodd">
        <g id="筛选组件-选项三" transform="translate(-1066.000000, -519.000000)" fill="#939393">
            <g id="拖拽_drag" transform="translate(1069.350000, 524.750000) rotate(-180.000000) translate(-1069.350000, -524.750000) translate(1066.350000, 519.750000)">
                <path d="M1.079925,2.3095875 C1.67634058,2.3095875 2.15985,1.82607808 2.15985,1.2296625 C2.15985,0.633246921 1.67634058,0.1497375 1.079925,0.1497375 C0.483509421,0.1497375 -2.20097718e-12,0.633246921 -2.20097718e-12,1.2296625 C-2.20097718e-12,1.82607808 0.483509421,2.3095875 1.079925,2.3095875 Z M1.079925,6.089325 C1.67634058,6.089325 2.15985,5.60581558 2.15985,5.0094 C2.15985,4.41298442 1.67634058,3.929475 1.079925,3.929475 C0.483509421,3.929475 -2.20097718e-12,4.41298442 -2.20097718e-12,5.0094 C-2.20097718e-12,5.60581558 0.483509421,6.089325 1.079925,6.089325 Z" id="形状"></path>
                <path d="M2.15985,8.7670445 C2.15985,9.36346008 1.67634058,9.8469695 1.079925,9.8469695 C0.483509421,9.8469695 -2.20097718e-12,9.36346008 -2.20097718e-12,8.7670445 C-2.20097718e-12,8.17061812 0.483509421,7.6871195 1.079925,7.6871195 C1.67634058,7.6871195 2.15985,8.17061812 2.15985,8.7670445 Z" id="形状"></path>
                <path d="M4.4149875,2.3095875 C5.01140308,2.3095875 5.4949125,1.82607808 5.4949125,1.2296625 C5.4949125,0.633246921 5.01140308,0.1497375 4.4149875,0.1497375 C3.81857192,0.1497375 3.3350625,0.633246921 3.3350625,1.2296625 C3.3350625,1.82607808 3.81857192,2.3095875 4.4149875,2.3095875 Z M4.4149875,6.089325 C5.01140308,6.089325 5.4949125,5.60581558 5.4949125,5.0094 C5.4949125,4.41298442 5.01140308,3.929475 4.4149875,3.929475 C3.81857192,3.929475 3.3350625,4.41298442 3.3350625,5.0094 C3.3350625,5.60581558 3.81857192,6.089325 4.4149875,6.089325 Z" id="形状"></path>
                <path d="M5.4949125,8.7670445 C5.4949125,9.36346008 5.01140308,9.8469695 4.4149875,9.8469695 C3.81857192,9.8469695 3.3350625,9.36346008 3.3350625,8.7670445 C3.3350625,8.17061812 3.81857192,7.6871195 4.4149875,7.6871195 C5.01140308,7.6871195 5.4949125,8.17061812 5.4949125,8.7670445 Z" id="形状"></path>
            </g>
        </g>
    </g>
</svg>