<?xml version="1.0" encoding="UTF-8"?><svg xmlns="http://www.w3.org/2000/svg" xmlns:xlink="http://www.w3.org/1999/xlink" viewBox="0 0 400 700" xml:space="preserve"><path fill="#FECEC0" fill-rule="evenodd" d="M196.1 71.1s-1.5 14.5-.2 22.8c0 0-7.7 11.7-1.4 14.6 0 0 3.2 21.8 10.5 25.3 0 0 4.8.1 9.5-.8 1.7-1.2 9.4 11.4 6.3 25.8l34.4-24.5c-.5-2.7-5.9-10.8-3.2-27.9l-3.3-22.5-13.6-11.8-12.8-1.2-24.3-1.4-1.9 1.6z" clip-rule="evenodd" class="st0"></path><defs><path id="a" d="M196.1 71.1s-1.5 14.5-.2 22.8c0 0-7.7 11.7-1.4 14.6 0 0 3.2 21.8 10.5 25.3 0 0 4.8.1 9.5-.8 1.7-1.2 9.4 11.4 6.3 25.8l34.4-24.5c-.5-2.7-5.9-10.8-3.2-27.9l-3.3-22.5-13.6-11.8-12.8-1.2-24.3-1.4-1.9 1.6z"></path></defs><clipPath id="b"><use overflow="visible" xlink:href="#a"></use></clipPath><path fill="#FCBEAC" fill-rule="evenodd" d="M261 105.1s-2.5 10.9-50.9 29.5c0 0 35.7-11 51.8 9.3l5.1-22.5-6-16.3z" clip-path="url(#b)" clip-rule="evenodd" class="st1"></path><path fill="#6D3405" fill-rule="evenodd" d="M240.6 43.5c4.6.6 8.2 11.7 15.9 12.2 0 0 11.4 8.5 8.2 25.5 0 0 2.8 10.3-1.7 14 0 0-9.6 8.1-11.7 21.7 0 0-4.9-13.1-5.6-24.4 0 0-1.9-11.4-11.3-3 0 0-3.7 1-7.8 7.5 0 0-2.2-.9-1.5-10.6 0 0-21-25.6-29-8 0-.1-13.1-42 44.5-34.9z" clip-rule="evenodd" class="st2"></path><path fill="#FCA68E" fill-rule="evenodd" d="M226.4 585.9c-1.2.2.8 19-3.9 25.6 0 0 22.8 6.2 27.3-1.1l2.7-24.4-11.8-3.6-14.3 3.5z" clip-rule="evenodd" class="st3"></path><path fill="#F70" fill-rule="evenodd" d="M252.2 601.6s4.2 16-1.5 25.6c0 0-50.8 42.6-66.1 18.3 0 0-10.6-11.3 36.4-42.4 7.1 3.1 26.4 6.3 31.2-1.5zM250.8 562.7s7.1 15.4 6.7 22.1c0 0 .9 13.4-22.2 6.6 0 0-54.7.2-59.2-9.3 0 0-8.2-15.3 30.5-15.4l44.2-4z" clip-rule="evenodd" class="st4"></path><path fill="#4759DD" fill-rule="evenodd" d="M185.9 288.1s-3.9 45.4-.2 85.8c3.7 40.4 8.4 100.8 34.4 168.5 0 0 2.4 38.9 4.7 56.2 3.3-.5 7.7 6.6 34.2-1.8-.7-1.3 1.5-109.5-8.6-140 0 0 12-112.5 9.3-170l-43.3-.5-30.5 1.8z" clip-rule="evenodd" class="st5"></path><defs><path id="c" d="M185.9 288.1s-3.9 45.4-.2 85.8c3.7 40.4 8.4 100.8 34.4 168.5 0 0 2.4 38.9 4.7 56.2 3.3-.5 7.7 6.6 34.2-1.8-.7-1.3 1.5-109.5-8.6-140 0 0 12-112.5 9.3-170l-43.3-.5-30.5 1.8z"></path></defs><clipPath id="d"><use overflow="visible" xlink:href="#c"></use></clipPath><path fill="#4561FF" fill-rule="evenodd" d="m268.8 597.8-3.7-150.4 9.4-112.1-5.7-47-56.3-19.3-26.9 18.9s4.9 72.7 17.5 145.3c0 0 7.6 49.5 9.2 59.8l7.8 102.1 3.1 9.8 23.5 10 22.1-17.1z" clip-path="url(#d)" clip-rule="evenodd" class="st6"></path><path fill="#4561FF" fill-rule="evenodd" d="M180.3 290.2s54.8 5.9 67.9 6.7c13.2.8-6.2 126.2-6.5 151 0 0 15.2 101.2 13.4 152.8l30.5 6.2-3.7-333.7-57.3-18.5-44.3 35.5z" clip-path="url(#d)" clip-rule="evenodd" class="st7"></path><path fill="#4759DD" fill-rule="evenodd" d="M258.8 291.7s-25.1 46.5-26.5 54.4c0 0 .1 8.3-.4 11.3s-6.9 10.9-7.8 10.9c0 0-4.4 1.2-10.3-15 0 0-2.7-11.2.3-17 0 0 1.2-2.9 2.7-6 0 0 .3-3.7 3-7.3 0 0 7.4-23.2 11.9-34.5l21.5 1 5.6 2.2z" clip-rule="evenodd" class="st8"></path><path fill="#FECDC0" fill-rule="evenodd" d="M258 290.1s-25.1 46.5-26.5 54.4c0 0 .1 8.3-.4 11.3s-6.9 10.9-7.8 10.9c0 0-4.4 1.2-10.3-15 0 0-2.7-11.2.3-17 0 0 1.2-2.9 2.7-6 0 0 .3-3.7 3-7.3 0 0 7.4-23.2 11.9-34.5l21.5 1 5.6 2.2z" clip-rule="evenodd" class="st9"></path><g><defs><path id="e" d="M258 290.1s-25.1 46.5-26.5 54.4c0 0 .1 8.3-.4 11.3s-6.9 10.9-7.8 10.9c0 0-4.4 1.2-10.3-15 0 0-2.7-11.2.3-17 0 0 1.2-2.9 2.7-6 0 0 .3-3.7 3-7.3 0 0 7.4-23.2 11.9-34.5l21.5 1 5.6 2.2z"></path></defs><clipPath id="f"><use overflow="visible" xlink:href="#e"></use></clipPath><path fill="#FDBEAC" fill-rule="evenodd" d="M219.9 282.1s29.6 8.5 31.3 11.7c0 0-22.7 42.9-21.6 50.6 0 0-.7 22-10.6 15.6l-3 7.7 24.5 10.7 20.1-30.2 6.8-72-19.1-19.7-28.4 25.6z" clip-path="url(#f)" clip-rule="evenodd" class="st10"></path></g><path fill="#FECDC0" fill-rule="evenodd" d="M139.4 217.6s-11.1 5.9-29.9 17c0 0-28.5 12.5-29.7 10 0 0-8.8-3.3-12.4-.6 0 0-10.7 2.1-13.5 1.4 0 0-2.9 1.4 1.1 3.5s6.8.7 11.6.7c0 0-5.8 4.4-7.5 8.7 0 0-10.2 10.6-9.3 14.5 0 0 .8 1.3 2.7.4 0 0-3.8 6.4 1.6 5.1 0 0 .7 4 6.1-.6 0 0 .5 2 3.7.5 0 0 6.7-4.8 10.7-8 0 0 10.4-3 17.7-12.1 0 0 3.5-4.5 21.4-7.6 0 0 26.1-7.7 37.8-13.3l-8.4-17.9-3.7-1.7z" clip-rule="evenodd" class="st11"></path><g><defs><path id="g" d="M139.4 217.6s-11.1 5.9-29.9 17c0 0-28.5 12.5-29.7 10 0 0-8.8-3.3-12.4-.6 0 0-10.7 2.1-13.5 1.4 0 0-2.9 1.4 1.1 3.5s6.8.7 11.6.7c0 0-5.8 4.4-7.5 8.7 0 0-10.2 10.6-9.3 14.5 0 0 .8 1.3 2.7.4 0 0-3.8 6.4 1.6 5.1 0 0 .7 4 6.1-.6 0 0 .5 2 3.7.5 0 0 6.7-4.8 10.7-8 0 0 10.4-3 17.7-12.1 0 0 3.5-4.5 21.4-7.6 0 0 26.1-7.7 37.8-13.3l-8.4-17.9-3.7-1.7z"></path></defs><clipPath id="h"><use overflow="visible" xlink:href="#g"></use></clipPath><path fill="#FDBEAC" fill-rule="evenodd" d="M68.2 248.2s3.7 8 14.2 5.2c0 .1-8.2 2.5-14.2-5.2z" clip-path="url(#h)" clip-rule="evenodd" class="st12"></path><path fill="#FDBEAC" fill-rule="evenodd" d="M64.4 256.4s7.2-3.2 17.2-1.8c-.1 0-8.2-.7-17.2 1.8zM52.3 273s6.5-7.7 8.8-9.5c0 0 .4-1.2-.7-2.4 0 0 1 1.9 0 2.6-.2 0-7.6 7.7-8.1 9.3zM54.5 277.5s8.4-10 11.4-12.3c0 0 .4-1.5-1.1-2.9 0 0 1.5 2.3.1 3.2-.1 0-9.7 10-10.4 12zM59.9 277.3s7.7-7.9 10.4-9.8c0 0 .4-1.2-1-2.3 0 0 1.4 1.8.1 2.5 0 0-8.9 8-9.5 9.6zM152.1 233.7s-31.9 14.7-57 20c0 0-7.4 7.6-12.7 10.8 0 0-12.1 6.5-16.1 12.6-4 6.1 48.2 1.9 48.2 1.9l28.3-15.9 13.7-25.8-4.4-3.6z" clip-path="url(#h)" clip-rule="evenodd" class="st13"></path></g><path fill="#F70" fill-rule="evenodd" d="M256 133.5s-4.5.1-8.2 3.5c0 0-12.6 6.5-15 7.5 0 0-9 7.1-10.4 8.2 0 0-1.6.1.3-3 0 0-1.7.4-3.1 9.5-3.4 1-15.9 9.6-19 16.2 0 0-7 7.6-14 14.5 0 0-41.3 21.8-48.8 26.2 0 0 12.4 16.3 12.9 22.7 0 0 22.6-10.3 34.8-14.4 3.1-4.6-.6 39.5-1.1 65.4 0 0 2.8 5.3 42.6 2.2l2.6-4.7s22 3.1 30.9 2.5c0 0 8.7-32.7 8.7-46.9 0-14.1 20.8-56.6 1.1-90.6 0 0-2.1-4.1-13.3-12l-1-6.8z" clip-rule="evenodd" class="st14"></path><g><defs><path id="i" d="M256 133.5s-4.5.1-8.2 3.5c0 0-12.6 6.5-15 7.5 0 0-9 7.1-10.4 8.2 0 0-1.6.1.3-3 0 0-1.7.4-3.1 9.5-3.4 1-15.9 9.6-19 16.2 0 0-7 7.6-14 14.5 0 0-41.3 21.8-48.8 26.2 0 0 12.4 16.3 12.9 22.7 0 0 22.6-10.3 34.8-14.4 3.1-4.6-.6 39.5-1.1 65.4 0 0 2.8 5.3 42.6 2.2l2.6-4.7s22 3.1 30.9 2.5c0 0 8.7-32.7 8.7-46.9 0-14.1 20.8-56.6 1.1-90.6 0 0-2.1-4.1-13.3-12l-1-6.8z"></path></defs><clipPath id="j"><use overflow="visible" xlink:href="#i"></use></clipPath><path fill="#FF5E00" fill-rule="evenodd" d="M271.1 159.6s-35.3-28.1-37.1 47.8c.1 0-3.4-76.8 37.1-47.8zM219.4 161.5s26.7-20.3 37.7-21.5c.1 0-15.5 7.2-37.7 21.5zM235 217.5s-1 45-7.1 69c0 0 4.9-38.6 7.1-69z" clip-path="url(#j)" clip-rule="evenodd" class="st15"></path><path fill="#FF5E00" fill-rule="evenodd" d="M251 185.6s-15.4 62.4-19.3 73.5c-.1 0 4.9-30 19.3-73.5zM271.2 151.6s11.7 19.6-3 92.8c0 0-7.6 39.9-13.1 43.6 0 0-16.4 1.6-26.6-.9l15.1 11 34.4-6.9 22.8-137.6-29.6-2zM135.7 215.4s12 14.7 18.6 18.8c0 0 13.3-2.8 30.6-11.2l-2.1 13.6s-18.7 12.5-21.8 12.5c-3 0-23.7.7-25.5-2.3-1.8-3 .2-31.4.2-31.4z" clip-path="url(#j)" clip-rule="evenodd" class="st16"></path><path fill="#FF5E00" fill-rule="evenodd" d="M195.4 178.5s-11.1 38.3-8.8 50.4l-3.1-.6s.8-18.4 11.9-49.8z" clip-path="url(#j)" clip-rule="evenodd" class="st17"></path></g></svg>