<?xml version="1.0" encoding="UTF-8"?><svg xmlns="http://www.w3.org/2000/svg" id="图层_1" x="0" y="0" version="1.1" viewBox="0 0 100 100" xml:space="preserve"><linearGradient id="SVGID_788_" x1="76.513" x2="68.558" y1="87.032" y2="54.15" gradientUnits="userSpaceOnUse"><stop offset=".102" stop-color="#fda03c"></stop><stop offset=".186" stop-color="#fda94f"></stop><stop offset=".497" stop-color="#fec992"></stop><stop offset=".722" stop-color="#fdb"></stop><stop offset=".838" stop-color="#ffe5cb"></stop></linearGradient><path fill="url(#SVGID_788_)" d="m83.1 81.08-6.17 5.25s-3.93-3.29-6.71-6.58c-2.81-3.33-5.37-7.72-5.37-7.72l6.17-5.25s4.17 3.57 6.71 6.58c2.54 3.01 5.37 7.72 5.37 7.72z" class="st-0"></path><linearGradient id="SVGID_789_" x1="80.897" x2="85.275" y1="84.801" y2="89.723" gradientTransform="matrix(1.0429 .0505 .0505 1.0596 -25.384 -29.93)" gradientUnits="userSpaceOnUse"><stop offset=".094" stop-color="#fdaa65"></stop><stop offset=".979" stop-color="#ff4b38"></stop></linearGradient><path fill="url(#SVGID_789_)" d="m71.75 66.18-7.61 6.48s-2.05-.75-3.09-1.98c-1.06-1.25-1.44-3.39-1.44-3.39l7.61-6.48s2.14.85 3.09 1.98c.95 1.13 1.44 3.39 1.44 3.39z" class="st-1"></path><linearGradient id="SVGID_790_" x1="54.534" x2="36.419" y1="69.828" y2="15.816" gradientUnits="userSpaceOnUse"><stop offset=".102" stop-color="#fda03c"></stop><stop offset=".186" stop-color="#fda94f"></stop><stop offset=".497" stop-color="#fec992"></stop><stop offset=".722" stop-color="#fdb"></stop><stop offset=".838" stop-color="#ffe5cb"></stop></linearGradient><ellipse cx="45.48" cy="42.82" fill="url(#SVGID_790_)" rx="28.38" ry="28.49" class="st-2"></ellipse><linearGradient id="SVGID_791_" x1="50.506" x2="45.29" y1="35.66" y2="23.212" gradientUnits="userSpaceOnUse"><stop offset=".13" stop-color="#ffc6b4"></stop><stop offset=".325" stop-color="#feae9b"></stop><stop offset=".98" stop-color="#f9624b"></stop></linearGradient><path fill="url(#SVGID_791_)" d="M44.01 26.93c.08-1.38.7-2.72 1.83-3.69 2.2-1.87 5.49-1.6 7.35.61a5.26 5.26 0 0 1-1.01 7.7l-8.39 6.93.22-11.55z" class="st-3"></path><linearGradient id="SVGID_792_" x1="46.575" x2="35.746" y1="36.633" y2="30.431" gradientUnits="userSpaceOnUse"><stop offset=".13" stop-color="#ffc6b4"></stop><stop offset=".325" stop-color="#feae9b"></stop><stop offset=".98" stop-color="#f9624b"></stop></linearGradient><path fill="url(#SVGID_792_)" d="M36.07 32.1c-.24-1.72.37-3.53 1.79-4.73 2.2-1.87 5.49-1.6 7.35.61 1 1.18 1.39 2.69 1.19 4.11l-3.37 10.75-6.96-10.74z" class="st-4"></path><linearGradient id="SVGID_793_" x1="75.863" x2="76.045" y1="76.835" y2="80.964" gradientUnits="userSpaceOnUse"><stop offset=".094" stop-color="#fdaa65"></stop><stop offset=".979" stop-color="#ff4b38"></stop></linearGradient><ellipse cx="75.95" cy="78.9" fill="url(#SVGID_793_)" rx="2.06" ry="2.07" class="st-5"></ellipse><linearGradient id="SVGID_794_" x1="45.744" x2="45.81" y1="31.507" y2="64.935" gradientUnits="userSpaceOnUse"><stop offset=".125" stop-color="#fdf0e7"></stop><stop offset=".958" stop-color="#f8cfb4"></stop></linearGradient><path fill="url(#SVGID_794_)" d="M45.27 32.42c-1.01.34-2.1.39-3.11.05-3.86-1.32-8.51-.49-12.1 2.57-5.22 4.44-6.2 11.89-2.2 16.62.97 1.15 2.15 2.03 3.44 2.64a5.61 5.61 0 0 1 2.63 2.53c.5.99 1.12 1.94 1.87 2.82 5.69 6.73 16.32 7.07 23.73.76s8.82-16.9 3.13-23.63c-4.2-4.97-11.09-6.46-17.39-4.36z" class="st-6"></path><linearGradient id="SVGID_795_" x1="46.582" x2="47.564" y1="37.92" y2="57.952" gradientUnits="userSpaceOnUse"><stop offset=".094" stop-color="#fdaa65"></stop><stop offset=".979" stop-color="#ff4b38"></stop></linearGradient><ellipse cx="47.07" cy="47.94" fill="url(#SVGID_795_)" rx="9.99" ry="10.03" class="st-7"></ellipse><linearGradient id="SVGID_796_" x1="42.287" x2="52.447" y1="43.737" y2="43.737" gradientUnits="userSpaceOnUse"><stop offset="0" stop-color="#ffede3"></stop><stop offset=".302" stop-color="#ffebdf"></stop><stop offset=".592" stop-color="#ffe4d4"></stop><stop offset=".878" stop-color="#ffd8c0"></stop><stop offset=".94" stop-color="#ffd5bb"></stop></linearGradient><path fill="none" stroke="url(#SVGID_796_)" stroke-linecap="round" stroke-linejoin="round" stroke-miterlimit="10" stroke-width="3" d="M43.79 44.05a5.066 5.066 0 0 1 7.16.59" class="st-8"></path><linearGradient id="SVGID_797_" x1="29.922" x2="29.922" y1="23.86" y2="30.757" gradientUnits="userSpaceOnUse"><stop offset=".094" stop-color="#ffa863"></stop><stop offset=".248" stop-color="#ffa160"></stop><stop offset=".479" stop-color="#ff8c56"></stop><stop offset=".756" stop-color="#ff6b47"></stop><stop offset=".979" stop-color="#ff4b38"></stop></linearGradient><path fill="none" stroke="url(#SVGID_797_)" stroke-linecap="round" stroke-linejoin="round" stroke-miterlimit="10" stroke-width="3" d="m27.23 25.36 5.38 3.9" class="st-9"></path><linearGradient id="SVGID_798_" x1="30.258" x2="30.258" y1="22.6" y2="29.194" gradientUnits="userSpaceOnUse"><stop offset=".094" stop-color="#ffa863"></stop><stop offset=".248" stop-color="#ffa160"></stop><stop offset=".479" stop-color="#ff8c56"></stop><stop offset=".756" stop-color="#ff6b47"></stop><stop offset=".979" stop-color="#ff4b38"></stop></linearGradient><path fill="none" stroke="url(#SVGID_798_)" stroke-linecap="round" stroke-linejoin="round" stroke-miterlimit="10" stroke-width="3" d="m30.27 24.1-.02 3.59" class="st-10"></path><linearGradient id="SVGID_799_" x1="28.808" x2="28.808" y1="26.972" y2="30.292" gradientUnits="userSpaceOnUse"><stop offset=".094" stop-color="#ffa863"></stop><stop offset=".248" stop-color="#ffa160"></stop><stop offset=".479" stop-color="#ff8c56"></stop><stop offset=".756" stop-color="#ff6b47"></stop><stop offset=".979" stop-color="#ff4b38"></stop></linearGradient><path fill="none" stroke="url(#SVGID_799_)" stroke-linecap="round" stroke-linejoin="round" stroke-miterlimit="10" stroke-width="3" d="m26.19 28.79 5.24-.32" class="st-11"></path><g><linearGradient id="SVGID_800_" x1="60.468" x2="60.468" y1="25.319" y2="31.349" gradientUnits="userSpaceOnUse"><stop offset=".094" stop-color="#ffa863"></stop><stop offset=".248" stop-color="#ffa160"></stop><stop offset=".479" stop-color="#ff8c56"></stop><stop offset=".756" stop-color="#ff6b47"></stop><stop offset=".979" stop-color="#ff4b38"></stop></linearGradient><path fill="none" stroke="url(#SVGID_800_)" stroke-linecap="round" stroke-linejoin="round" stroke-miterlimit="10" stroke-width="3" d="m63.42 26.82-5.91 3.03" class="st-12"></path><linearGradient id="SVGID_801_" x1="61.566" x2="61.566" y1="26.949" y2="31.606" gradientUnits="userSpaceOnUse"><stop offset=".094" stop-color="#ffa863"></stop><stop offset=".248" stop-color="#ffa160"></stop><stop offset=".479" stop-color="#ff8c56"></stop><stop offset=".756" stop-color="#ff6b47"></stop><stop offset=".979" stop-color="#ff4b38"></stop></linearGradient><path fill="none" stroke="url(#SVGID_801_)" stroke-linecap="round" stroke-linejoin="round" stroke-miterlimit="10" stroke-width="3" d="m63.15 30.11-3.17-1.66" class="st-13"></path><linearGradient id="SVGID_802_" x1="59.804" x2="59.804" y1="22.822" y2="30.646" gradientUnits="userSpaceOnUse"><stop offset=".094" stop-color="#ffa863"></stop><stop offset=".248" stop-color="#ffa160"></stop><stop offset=".479" stop-color="#ff8c56"></stop><stop offset=".756" stop-color="#ff6b47"></stop><stop offset=".979" stop-color="#ff4b38"></stop></linearGradient><path fill="none" stroke="url(#SVGID_802_)" stroke-linecap="round" stroke-linejoin="round" stroke-miterlimit="10" stroke-width="3" d="m60.86 24.32-2.11 4.83" class="st-14"></path></g></svg>