<?xml version="1.0" encoding="UTF-8"?>
<svg width="27px" height="26px" viewBox="0 0 27 26" version="1.1" xmlns="http://www.w3.org/2000/svg" xmlns:xlink="http://www.w3.org/1999/xlink">
    <!-- Generator: Sketch 63 (92445) - https://sketch.com -->
    <title>指标卡</title>
    <desc>Created with Sketch.</desc>
    <g id="页面-1" stroke="none" stroke-width="1" fill="none" fill-rule="evenodd">
        <g id="新建报告-默认看板-展开" transform="translate(-148.000000, -216.000000)" fill-rule="nonzero">
            <g id="图表" transform="translate(57.000000, 80.000000)">
                <g id="指标卡" transform="translate(91.000000, 136.000000)">
                    <path d="M5.2998,13.1585819 C5.445,13.8576931 5.1546,14.4169819 4.719,14.9762708 L2.1054,18.4718264 L5.445,18.4718264 L5.445,19.7302264 L0.0726,19.7302264 L0.0726,18.6116486 L3.267,14.4169819 C3.4122,14.1373375 3.5574,13.7178708 3.5574,13.2984042 C3.5574,12.8789375 3.5574,12.3196486 2.6862,12.3196486 C2.1054,12.3196486 1.815,12.5992931 1.815,13.0187597 L1.815,13.5780486 L0.0726,13.5780486 L0.0726,12.8789375 C0.0726,11.7603597 1.2342,11.0612486 2.6862,11.0612486 C4.5738,10.9214264 5.2998,11.9001819 5.2998,13.1585819 Z M17.2062,10.9214264 L18.9486,10.9214264 L18.9486,19.5904042 L17.2062,19.5904042 L17.2062,12.1798264 L15.4638,13.1585819 L15.4638,11.9001819 L17.2062,10.9214264 Z M25.773,13.1585819 C25.9182,13.8576931 25.6278,14.4169819 25.1922,14.9762708 L22.5786,18.4718264 L25.773,18.4718264 L25.773,19.7302264 L20.5458,19.7302264 L20.5458,18.6116486 L23.8854,14.4169819 C24.0306,14.1373375 24.1758,13.7178708 24.1758,13.2984042 C24.1758,12.8789375 24.1758,12.3196486 23.3046,12.3196486 C22.7238,12.3196486 22.4334,12.5992931 22.4334,13.0187597 L22.4334,13.5780486 L20.5458,13.5780486 L20.5458,12.8789375 C20.5458,11.9001819 21.7074,11.0612486 23.1594,11.0612486 C25.047,10.9214264 25.773,11.9001819 25.773,13.1585819 Z M13.2858,15.1160931 C14.3022,15.5355597 14.3022,15.8152042 14.3022,17.0736042 C14.3022,18.3320042 14.157,18.4718264 13.8666,18.7514708 C13.2858,19.3107597 12.5598,19.5904042 11.6886,19.4505819 C10.527,19.4505819 9.075,19.0311153 9.075,17.6328931 L9.075,16.9337819 L10.8174,16.9337819 L10.8174,17.7727153 C10.8174,18.1921819 11.1078,18.4718264 11.6886,18.4718264 C12.2694,18.4718264 12.5598,18.1921819 12.5598,17.7727153 L12.5598,16.5143153 C12.5598,15.8152042 12.2694,15.6753819 11.1078,15.6753819 L11.1078,14.5568042 C12.1242,14.5568042 12.5598,14.4169819 12.5598,13.8576931 L12.5598,12.7391153 C12.5598,12.4594708 12.2694,12.1798264 11.6886,12.1798264 C11.1078,12.1798264 10.8174,12.4594708 10.8174,12.7391153 L10.8174,13.4382264 L9.075,13.4382264 L9.075,12.7391153 C9.075,11.7603597 10.2366,10.9214264 11.6886,10.9214264 C12.4146,10.9214264 12.9954,11.0612486 13.5762,11.4807153 C14.157,11.9001819 14.3022,12.1798264 14.3022,13.2984042 C14.3022,14.4169819 14.157,14.6966264 13.2858,15.1160931 Z M8.7846,17.3532486 L7.7682,20.5691597 L6.897,20.5691597 L7.623,17.3532486 L8.7846,17.3532486 L8.7846,17.3532486 Z M0.0726,0.0152930556 L21.2718,0.0152930556 L21.2718,6.30729306 L0.0726,6.30729306 L0.0726,0.0152930556 Z" id="形状" fill="#3BA0FD"></path>
                    <polygon id="路径" fill="#255F93" points="0 25.1133819 0 23.0160486 26.136 23.0160486 26.136 25.1133819"></polygon>
                </g>
            </g>
        </g>
    </g>
</svg>