<?xml version="1.0" encoding="UTF-8"?>
<svg width="27px" height="27px" viewBox="0 0 27 27" version="1.1" xmlns="http://www.w3.org/2000/svg" xmlns:xlink="http://www.w3.org/1999/xlink">
    <!-- Generator: Sketch 63 (92445) - https://sketch.com -->
    <title>饼图</title>
    <desc>Created with Sketch.</desc>
    <g id="页面-1" stroke="none" stroke-width="1" fill="none" fill-rule="evenodd">
        <g id="新建报告-默认看板-展开" transform="translate(-147.000000, -164.000000)" fill-rule="nonzero">
            <g id="图表" transform="translate(57.000000, 80.000000)">
                <g id="饼图" transform="translate(90.000000, 84.000000)">
                    <rect id="矩形" fill="#E0E0E0" opacity="0" x="0" y="0" width="27.6100741" height="27.6100741"></rect>
                    <path d="M26.6897383,13.805037 C26.6897383,20.921061 20.921061,26.6897383 13.805037,26.6897383 C6.68901303,26.6897383 0.920335793,20.921061 0.920335793,13.805037 C0.920335793,6.68901303 6.68901303,0.920335793 13.805037,0.920335793 C13.8657792,4.04947751 13.805037,13.805037 13.805037,13.805037 C13.805037,13.805037 24.2968652,13.8234438 26.6897383,13.805037 L26.6897383,13.805037 Z" id="路径" fill="#255F93"></path>
                    <path d="M26.6897383,11.9643654 C26.6897383,9.03530665 25.5261742,6.2262145 23.4550169,4.15505718 C21.3838596,2.08389986 18.5747674,0.920335793 15.6457087,0.920335793 C15.6806814,8.81681698 15.6457087,11.9643654 15.6457087,11.9643654 C15.6457087,11.9643654 20.2749977,11.8723319 26.6897383,11.9643654 Z" id="路径" fill="#3BA0FD"></path>
                </g>
            </g>
        </g>
    </g>
</svg>