<svg width="24" height="24" viewBox="0 0 24 24" fill="none" xmlns="http://www.w3.org/2000/svg">
<g id="&#230;&#142;&#146;&#232;&#161;&#140;" clip-path="url(#clip0_311_772)">
<path id="Union" fill-rule="evenodd" clip-rule="evenodd" d="M10.9322 4.38743C10.9322 4.68819 11.0516 4.97663 11.2643 5.1893C11.477 5.40197 11.7654 5.52144 12.0662 5.52144C12.3669 5.52144 12.6554 5.40197 12.868 5.1893C13.0807 4.97663 13.2002 4.68819 13.2002 4.38743C13.2002 4.08667 13.0807 3.79823 12.868 3.58556C12.6554 3.37289 12.3669 3.25342 12.0662 3.25342C11.7654 3.25342 11.477 3.37289 11.2643 3.58556C11.0516 3.79823 10.9322 4.08667 10.9322 4.38743ZM4.00058 18.5882L1.33355 9.5221L6.38411 12.1876L12.0002 5.52156L17.4497 12.1876L22.6668 9.5221L19.9997 18.5882H4.00058ZM22.3321 9.12019C22.2886 9.015 22.2661 8.90226 22.2661 8.7884C22.2661 8.55846 22.3575 8.33793 22.5201 8.17533C22.6827 8.01274 22.9032 7.92139 23.1331 7.92139C23.3631 7.92139 23.5836 8.01274 23.7462 8.17533C23.9088 8.33793 24.0001 8.55846 24.0001 8.7884C24.0001 8.90226 23.9777 9.015 23.9342 9.12019C23.8906 9.22538 23.8267 9.32096 23.7462 9.40147C23.6657 9.48198 23.5701 9.54584 23.4649 9.58941C23.3597 9.63299 23.247 9.65541 23.1331 9.65541C23.0193 9.65541 22.9065 9.63299 22.8013 9.58941C22.6962 9.54584 22.6006 9.48198 22.5201 9.40147C22.4396 9.32096 22.3757 9.22538 22.3321 9.12019ZM0 8.7884C0 9.01835 0.0913453 9.23887 0.253941 9.40147C0.416537 9.56407 0.637064 9.65541 0.867009 9.65541C1.09695 9.65541 1.31748 9.56407 1.48008 9.40147C1.64267 9.23887 1.73402 9.01835 1.73402 8.7884C1.73402 8.55846 1.64267 8.33793 1.48008 8.17533C1.31748 8.01274 1.09695 7.92139 0.867009 7.92139C0.637064 7.92139 0.416537 8.01274 0.253941 8.17533C0.0913453 8.33793 0 8.55846 0 8.7884ZM20.1003 19.0966H4.05013V20.7466H20.1003V19.0966Z" fill="url(#paint0_linear_311_772)"/>
<path id="2" d="M13.6785 17.2241H9.59462L9.71303 16.1269L12.5346 13.2294C12.6759 13.0856 12.7781 12.9543 12.8412 12.8355C12.9106 12.7167 12.9537 12.5792 12.9706 12.4229C12.9976 12.1729 12.95 11.9728 12.8279 11.8228C12.7064 11.6665 12.5136 11.5883 12.2496 11.5883C12.149 11.5883 12.0467 11.604 11.9427 11.6352C11.8457 11.6602 11.7526 11.7071 11.6634 11.7759C11.5812 11.8384 11.5089 11.9259 11.4464 12.0385C11.391 12.1447 11.3544 12.2791 11.3369 12.4417H10.1108C10.1438 12.1354 10.2235 11.8634 10.3497 11.6259C10.4829 11.382 10.6498 11.1758 10.8504 11.007C11.0572 10.8382 11.288 10.71 11.5427 10.6225C11.8036 10.535 12.0787 10.4912 12.368 10.4912C12.6635 10.4912 12.932 10.5381 13.1733 10.6319C13.4154 10.7194 13.6154 10.8475 13.7732 11.0163C13.938 11.1789 14.0576 11.382 14.1318 11.6259C14.2068 11.8634 14.2281 12.1322 14.1957 12.4323C14.1782 12.5948 14.1466 12.7418 14.101 12.873C14.0561 12.9981 13.9957 13.12 13.92 13.2387C13.8506 13.3575 13.7624 13.4763 13.6552 13.5951C13.5551 13.7076 13.4413 13.8295 13.3139 13.9608L11.2032 16.1269H13.797L13.6785 17.2241Z" fill="#494949"/>
</g>
<defs>
<linearGradient id="paint0_linear_311_772" x1="12.5218" y1="20.7466" x2="12.5218" y2="3.25342" gradientUnits="userSpaceOnUse">
<stop stop-color="#737373"/>
<stop offset="1" stop-color="#C1C2C3"/>
</linearGradient>
<clipPath id="clip0_311_772">
<rect width="24" height="24" fill="white"/>
</clipPath>
</defs>
</svg>
