<svg width="24" height="24" viewBox="0 0 24 24" fill="none" xmlns="http://www.w3.org/2000/svg">
<g id="Frame 5">
<path id="Rectangle 78" d="M1 9H23V13V17H1V13V9Z" fill="url(#paint0_linear_311_659)"/>
<path id="2" d="M14.6535 16.8767L8.59203 16.7973L8.90148 15.1888L13.4425 10.9895C13.6697 10.7811 13.8373 10.5903 13.9455 10.4172C14.063 10.2441 14.1438 10.0431 14.1879 9.81393C14.2584 9.44732 14.2122 9.15269 14.0492 8.93003C13.8879 8.69821 13.6113 8.57974 13.2194 8.57461C13.0701 8.57265 12.9163 8.59361 12.7582 8.63748C12.6111 8.67231 12.4673 8.73934 12.3265 8.83857C12.1969 8.92876 12.0789 9.05585 11.9725 9.21985C11.8772 9.3748 11.8066 9.57143 11.7608 9.80972L9.94094 9.7859C10.0273 9.3368 10.1787 8.93909 10.395 8.59277C10.6225 8.2374 10.8953 7.93775 11.2135 7.69383C11.5411 7.45004 11.8993 7.26636 12.2879 7.14282C12.6859 7.01939 13.0995 6.96049 13.5288 6.9661C13.9675 6.97185 14.3602 7.0459 14.7071 7.18827C15.0557 7.32147 15.3368 7.51351 15.5505 7.76439C15.7753 8.00623 15.928 8.30685 16.0086 8.66625C16.0909 9.01648 16.0897 9.41157 16.0051 9.8515C15.9592 10.0898 15.8945 10.3049 15.8108 10.4967C15.7288 10.6794 15.6245 10.8572 15.4976 11.0302C15.3801 11.2032 15.2346 11.3759 15.0612 11.5482C14.8988 11.7114 14.7151 11.8882 14.51 12.0785L11.1133 15.2178L14.963 15.2682L14.6535 16.8767Z" fill="white"/>
</g>
<defs>
<linearGradient id="paint0_linear_311_659" x1="21.5449" y1="13.0001" x2="2.53442" y2="13.0001" gradientUnits="userSpaceOnUse">
<stop stop-color="#CBCBCB" stop-opacity="0"/>
<stop offset="0.474792" stop-color="#CBCBCB"/>
<stop offset="1" stop-color="#CBCBCB" stop-opacity="0"/>
</linearGradient>
</defs>
</svg>
