<svg width="24" height="24" viewBox="0 0 24 24" fill="none" xmlns="http://www.w3.org/2000/svg">
<g id="&#230;&#142;&#146;&#232;&#161;&#140;">
<path id="Vector" opacity="0.7" d="M5.25 14.8771C5.25 14.7108 5.32112 14.5513 5.4477 14.4337C5.57429 14.3161 5.74598 14.25 5.925 14.25H18.075C18.254 14.25 18.4257 14.3161 18.5523 14.4337C18.6789 14.5513 18.75 14.7108 18.75 14.8771V20.4959C18.75 20.7096 18.6912 20.9198 18.5791 21.1065C18.4671 21.2932 18.3056 21.4502 18.1099 21.5626C17.9141 21.675 17.6908 21.7391 17.4609 21.7487C17.2311 21.7584 17.0024 21.7133 16.7966 21.6177L13.2076 19.9503C12.8326 19.7761 12.4192 19.6854 12 19.6854C11.5808 19.6854 11.1674 19.7761 10.7924 19.9503L7.20345 21.6177C6.99758 21.7133 6.76883 21.7584 6.53892 21.7487C6.30901 21.739 6.08559 21.6749 5.88986 21.5625C5.69413 21.45 5.5326 21.2929 5.42061 21.1061C5.30862 20.9193 5.24989 20.709 5.25 20.4952V14.8771Z" fill="url(#paint0_linear_311_601)"/>
<g id="Vector_2">
<path d="M20.25 10.5C20.25 15.0561 16.5561 18.75 12 18.75C7.44394 18.75 3.75 15.0561 3.75 10.5C3.75 5.94394 7.44394 2.25 12 2.25C16.5561 2.25 20.25 5.94394 20.25 10.5Z" fill="url(#paint1_linear_311_601)"/>
<path d="M19.75 10.5C19.75 14.7799 16.2799 18.25 12 18.25C7.72008 18.25 4.25 14.7799 4.25 10.5C4.25 6.22008 7.72008 2.75 12 2.75C16.2799 2.75 19.75 6.22008 19.75 10.5Z" stroke="white" stroke-opacity="0.5"/>
</g>
<path id="3" d="M14.1963 12.09C14.1535 12.4586 14.0529 12.7819 13.8946 13.06C13.7363 13.3381 13.5377 13.5711 13.2989 13.7588C13.0609 13.9396 12.7931 14.0752 12.4956 14.1656C12.1981 14.256 11.8883 14.3012 11.5663 14.3012C11.2583 14.3012 10.9657 14.2594 10.6884 14.176C10.4181 14.0926 10.181 13.9639 9.97724 13.7901C9.78126 13.6093 9.63252 13.3833 9.53104 13.1122C9.43037 12.834 9.39916 12.5003 9.43742 12.1109H10.8024C10.79 12.2778 10.8046 12.4238 10.846 12.549C10.8883 12.6672 10.95 12.768 11.0314 12.8514C11.1135 12.9279 11.2116 12.987 11.3257 13.0287C11.4477 13.0635 11.5752 13.0809 11.7082 13.0809C12.0022 13.0809 12.2538 12.994 12.463 12.8201C12.673 12.6393 12.7974 12.3821 12.8362 12.0483C12.8726 11.7354 12.8103 11.4886 12.6493 11.3078C12.4891 11.1201 12.241 11.0262 11.905 11.0262H11.7055L11.8425 9.84764H12.042C12.378 9.84764 12.6296 9.76073 12.7968 9.5869C12.9648 9.40612 13.0642 9.18362 13.0949 8.91939C13.1313 8.6065 13.0677 8.37009 12.9043 8.21017C12.7409 8.05025 12.5367 7.97028 12.2917 7.97028C12.0327 7.97028 11.8064 8.05025 11.6128 8.21017C11.427 8.36314 11.3106 8.58216 11.2634 8.86725H9.89845C9.94424 8.53349 10.0416 8.23798 10.1905 7.98071C10.3472 7.71649 10.5376 7.49399 10.7616 7.31321C10.9856 7.13243 11.2398 6.99336 11.5241 6.89602C11.8154 6.79867 12.1185 6.75 12.4335 6.75C12.7625 6.75 13.061 6.80215 13.3289 6.90645C13.5967 7.01074 13.8213 7.15676 14.0024 7.3445C14.1836 7.53223 14.3149 7.75821 14.3961 8.02243C14.4782 8.2797 14.5011 8.56478 14.4647 8.87768C14.4179 9.28096 14.2963 9.60428 14.1 9.84764C13.9115 10.0841 13.6871 10.2683 13.4267 10.4004C13.6766 10.5395 13.8802 10.7446 14.0377 11.0158C14.196 11.28 14.2489 11.6381 14.1963 12.09Z" fill="#3D2706"/>
</g>
<defs>
<linearGradient id="paint0_linear_311_601" x1="12" y1="14.25" x2="12" y2="21.75" gradientUnits="userSpaceOnUse">
<stop stop-color="#E3B063"/>
<stop offset="1" stop-color="#725325"/>
</linearGradient>
<linearGradient id="paint1_linear_311_601" x1="12" y1="2.25" x2="12" y2="18.75" gradientUnits="userSpaceOnUse">
<stop stop-color="#E3B063"/>
<stop offset="1" stop-color="#725325"/>
</linearGradient>
</defs>
</svg>
