<?xml version="1.0" encoding="UTF-8"?>
<svg width="31px" height="25px" viewBox="0 0 31 25" version="1.1" xmlns="http://www.w3.org/2000/svg" xmlns:xlink="http://www.w3.org/1999/xlink">
    <!-- Generator: Sketch 63 (92445) - https://sketch.com -->
    <title>明细表</title>
    <desc>Created with Sketch.</desc>
    <g id="页面-1" stroke="none" stroke-width="1" fill="none" fill-rule="evenodd">
        <g id="新建报告-默认看板-展开" transform="translate(-82.000000, -116.000000)" fill-rule="nonzero">
            <g id="图表" transform="translate(57.000000, 80.000000)">
                <g id="明细表" transform="translate(25.000000, 36.000000)">
                    <polygon id="路径" fill="#3BA0FD" points="0.0117187383 0.0234375117 30.0117188 0.0234375117 30.0117188 6.02343749 0.0117187383 6.02343749"></polygon>
                    <path d="M9.01171874,7.5234375 L9.01171874,12.0234375 L0.0117187383,12.0234375 L0.0117187383,7.5234375 L9.01171874,7.5234375 Z M19.5117188,7.5234375 L19.5117188,12.0234375 L10.5117188,12.0234375 L10.5117188,7.5234375 L19.5117188,7.5234375 Z M30.0117188,7.5234375 L30.0117188,12.0234375 L21.0117188,12.0234375 L21.0117188,7.5234375 L30.0117188,7.5234375 Z M0.0117187383,19.5234375 L9.01171874,19.5234375 L9.01171874,24.0234375 L0.0117187383,24.0234375 L0.0117187383,19.5234375 Z M10.5117188,19.5234375 L19.5117188,19.5234375 L19.5117188,24.0234375 L10.5117188,24.0234375 L10.5117188,19.5234375 Z M21.0117188,19.5234375 L30.0117188,19.5234375 L30.0117188,24.0234375 L21.0117188,24.0234375 L21.0117188,19.5234375 Z" id="形状" fill="#255F93"></path>
                    <path d="M0.0117187383,13.5234375 L9.01171874,13.5234375 L9.01171874,18.0234375 L0.0117187383,18.0234375 L0.0117187383,13.5234375 Z M10.5117188,13.5234375 L19.5117188,13.5234375 L19.5117188,18.0234375 L10.5117188,18.0234375 L10.5117188,13.5234375 Z M21.0117188,13.5234375 L30.0117188,13.5234375 L30.0117188,18.0234375 L21.0117188,18.0234375 L21.0117188,13.5234375 Z" id="形状" fill="#5398D7"></path>
                </g>
            </g>
        </g>
    </g>
</svg>