<svg width="16" height="16" viewBox="0 0 16 16" fill="none" xmlns="http://www.w3.org/2000/svg">
<g id="tips_drill_svg">
<path id="ips_drill_svg_path_1" d="M10.0202 11.6465C10.2154 11.4513 10.5319 11.4513 10.7272 11.6465L11.5 12.4193V2.5C11.5 2.22386 11.7239 2 12 2C12.2761 2 12.5 2.22386 12.5 2.5V12.4193L13.2728 11.6465C13.4681 11.4513 13.7846 11.4513 13.9798 11.6465C14.1751 11.8417 14.1751 12.1583 13.9798 12.3535L12.2121 14.1212C12.095 14.2384 11.905 14.2384 11.7879 14.1212L10.0202 12.3535C9.82493 12.1583 9.82493 11.8417 10.0202 11.6465ZM6.5 1C6.76522 1 7.01957 1.10536 7.20711 1.29289C7.39464 1.48043 7.5 1.73478 7.5 2V3H6.5V2H3.5V12.5H4.5V13.5H3.5C3.23478 13.5 2.98043 13.3946 2.79289 13.2071C2.60536 13.0196 2.5 12.7652 2.5 12.5V2C2.5 1.73478 2.60536 1.48043 2.79289 1.29289C2.98043 1.10536 3.23478 1 3.5 1H6.5Z" fill="#595959"/>
<path id="ips_drill_svg_path_2" d="M8.16667 3C8.43188 3 8.68624 3.10536 8.87377 3.29289C9.06131 3.48043 9.16667 3.73478 9.16667 4V14C9.16667 14.2652 9.06131 14.5196 8.87377 14.7071C8.68624 14.8946 8.43188 15 8.16667 15H5.5C5.23478 15 4.98043 14.8946 4.79289 14.7071C4.60536 14.5196 4.5 14.2652 4.5 14V4C4.5 3.73478 4.60536 3.48043 4.79289 3.29289C4.98043 3.10536 5.23478 3 5.5 3H8.16667ZM8.16667 4H5.5V14H8.16667V4Z" fill="#595959"/>
</g>
</svg>
