<svg width="24" height="25" viewBox="0 0 24 25" fill="none" xmlns="http://www.w3.org/2000/svg">
<g id="Frame 10">
<g id="10">
<path d="M8.86564 16.9487L7.0458 16.9249L8.5587 9.06111L6.19562 10.7668L6.56591 8.84206L8.929 7.1364L10.7488 7.16023L8.86564 16.9487Z" fill="#868D99"/>
<path d="M18.5513 14.2363C18.4614 14.7037 18.2971 15.1197 18.0586 15.4841C17.8312 15.8394 17.5537 16.139 17.2261 16.3828C16.9079 16.6267 16.5497 16.8104 16.1517 16.9338C15.7631 17.0574 15.3681 17.1165 14.9668 17.1113C14.5562 17.1059 14.1812 17.0367 13.8419 16.9036C13.5027 16.7705 13.2168 16.5784 12.9845 16.3273C12.7521 16.0762 12.5863 15.7708 12.4871 15.4111C12.399 15.0425 12.3999 14.6244 12.4898 14.157L13.2833 10.0326C13.3732 9.56517 13.5319 9.15377 13.7593 8.79841C13.9978 8.434 14.2809 8.12989 14.6085 7.88609C14.936 7.6423 15.2942 7.45862 15.6828 7.33508C16.0715 7.21153 16.4711 7.15244 16.8817 7.15782C17.283 7.16307 17.6533 7.23223 17.9926 7.36531C18.3412 7.49851 18.6271 7.69062 18.8501 7.94162C19.0825 8.19275 19.2427 8.50265 19.3308 8.87134C19.43 9.23099 19.4347 9.64452 19.3448 10.1119L18.5513 14.2363ZM16.7341 14.1987L17.5196 10.1156C17.599 9.70319 17.5496 9.37635 17.3714 9.13512C17.1933 8.8939 16.9269 8.77096 16.5723 8.76632C16.2177 8.76168 15.9008 8.87698 15.6216 9.11222C15.3518 9.34758 15.1772 9.67148 15.0978 10.0839L14.3123 14.167C14.2329 14.5795 14.2823 14.9063 14.4605 15.1475C14.6497 15.3797 14.9216 15.4981 15.2763 15.5028C15.6309 15.5074 15.9423 15.3966 16.2103 15.1704C16.4801 14.9351 16.6547 14.6112 16.7341 14.1987Z" fill="#868D99"/>
</g>
</g>
</svg>
