<svg width="24" height="25" viewBox="0 0 24 25" fill="none" xmlns="http://www.w3.org/2000/svg">
<g id="Frame 4">
<path id="10" d="M9.69044 17.1213H7.87044V9.11334L5.84044 10.8773V8.91734L7.87044 7.15334H9.69044V17.1213ZM18.832 14.2373C18.832 14.7133 18.748 15.138 18.58 15.5113C18.4213 15.8753 18.202 16.1833 17.922 16.4353C17.6513 16.6873 17.3293 16.8787 16.956 17.0093C16.592 17.14 16.2093 17.2053 15.808 17.2053C15.3973 17.2053 15.01 17.14 14.646 17.0093C14.282 16.8787 13.96 16.6873 13.68 16.4353C13.4 16.1833 13.176 15.8753 13.008 15.5113C12.8493 15.138 12.77 14.7133 12.77 14.2373V10.0373C12.77 9.56134 12.8493 9.14134 13.008 8.77734C13.176 8.404 13.4 8.09134 13.68 7.83934C13.96 7.58734 14.282 7.396 14.646 7.26534C15.01 7.13467 15.3973 7.06934 15.808 7.06934C16.2093 7.06934 16.592 7.13467 16.956 7.26534C17.3293 7.396 17.6513 7.58734 17.922 7.83934C18.202 8.09134 18.4213 8.404 18.58 8.77734C18.748 9.14134 18.832 9.56134 18.832 10.0373V14.2373ZM17.012 14.2233V10.0653C17.012 9.64534 16.9 9.314 16.676 9.07134C16.452 8.82867 16.1627 8.70734 15.808 8.70734C15.4533 8.70734 15.1593 8.82867 14.926 9.07134C14.702 9.314 14.59 9.64534 14.59 10.0653V14.2233C14.59 14.6433 14.702 14.9747 14.926 15.2173C15.1593 15.4507 15.4533 15.5673 15.808 15.5673C16.1627 15.5673 16.452 15.4507 16.676 15.2173C16.9 14.9747 17.012 14.6433 17.012 14.2233Z" fill="#868D99"/>
</g>
</svg>
