<svg width="24" height="25" viewBox="0 0 24 25" fill="none" xmlns="http://www.w3.org/2000/svg">
<g id="Frame 5">
<path id="5" d="M15.1152 13.8136C15.1152 14.3736 15.0592 14.8636 14.9472 15.2836C14.8352 15.6943 14.5972 16.0816 14.2332 16.4456C14.0092 16.6696 13.7152 16.8609 13.3512 17.0196C12.9966 17.1783 12.5579 17.2576 12.0352 17.2576C11.5126 17.2576 11.0646 17.1783 10.6912 17.0196C10.3179 16.8609 10.0239 16.6743 9.80922 16.4596C9.50122 16.1516 9.29589 15.8203 9.19322 15.4656C9.09055 15.1109 9.02522 14.7516 8.99722 14.3876H10.8172C10.8639 14.7796 10.9806 15.0829 11.1672 15.2976C11.3632 15.5123 11.6526 15.6196 12.0352 15.6196C12.3992 15.6196 12.6886 15.5123 12.9032 15.2976C13.0619 15.1389 13.1646 14.9336 13.2112 14.6816C13.2672 14.4203 13.2952 14.1309 13.2952 13.8136C13.2952 13.2349 13.2019 12.7916 13.0152 12.4836C12.8379 12.1756 12.5252 12.0216 12.0772 12.0216C11.7039 12.0216 11.4239 12.1103 11.2372 12.2876C11.0599 12.4556 10.9386 12.6376 10.8732 12.8336H9.20722V7.20558H14.8912V8.84358H10.8592V10.9856C10.9899 10.8549 11.1859 10.7383 11.4472 10.6356C11.7179 10.5329 12.0212 10.4816 12.3572 10.4816C12.7772 10.4816 13.1412 10.5423 13.4492 10.6636C13.7572 10.7849 14.0139 10.9483 14.2192 11.1536C14.6112 11.5456 14.8586 11.9703 14.9612 12.4276C15.0639 12.8756 15.1152 13.3376 15.1152 13.8136Z" fill="#868D99"/>
</g>
</svg>
