<svg width="24" height="25" viewBox="0 0 24 25" fill="none" xmlns="http://www.w3.org/2000/svg">
<g id="Frame 3">
<path id="9" d="M15.1292 10.2016C15.1292 10.6589 15.0452 11.1023 14.8772 11.5316C14.7186 11.9609 14.5272 12.4043 14.3032 12.8616L12.1892 17.1736H10.2152L12.2872 13.0576C12.1659 13.1043 12.0399 13.1369 11.9092 13.1556C11.7879 13.1743 11.6666 13.1836 11.5452 13.1836C11.2092 13.1836 10.8826 13.1183 10.5652 12.9876C10.2479 12.8476 9.96789 12.6516 9.72522 12.3996C9.48255 12.1476 9.28655 11.8396 9.13722 11.4756C8.98789 11.1116 8.91322 10.6963 8.91322 10.2296C8.91322 9.74425 8.99255 9.31025 9.15122 8.92758C9.30989 8.53558 9.52922 8.20892 9.80922 7.94758C10.0892 7.67692 10.4159 7.47158 10.7892 7.33158C11.1719 7.19158 11.5826 7.12158 12.0212 7.12158C12.4599 7.12158 12.8659 7.19158 13.2392 7.33158C13.6219 7.46225 13.9532 7.65825 14.2332 7.91958C14.5132 8.18092 14.7326 8.50292 14.8912 8.88558C15.0499 9.26825 15.1292 9.70692 15.1292 10.2016ZM13.3092 10.2156C13.3092 9.74892 13.1879 9.38958 12.9452 9.13758C12.7026 8.88558 12.3946 8.75958 12.0212 8.75958C11.6479 8.75958 11.3399 8.88558 11.0972 9.13758C10.8546 9.38958 10.7332 9.74892 10.7332 10.2156C10.7332 10.6636 10.8499 11.0183 11.0832 11.2796C11.3166 11.5409 11.6292 11.6716 12.0212 11.6716C12.3946 11.6716 12.7026 11.5456 12.9452 11.2936C13.1879 11.0416 13.3092 10.6823 13.3092 10.2156Z" fill="#868D99"/>
</g>
</svg>
