<?xml version="1.0" encoding="UTF-8"?><svg xmlns="http://www.w3.org/2000/svg" xmlns:xlink="http://www.w3.org/1999/xlink" viewBox="0 0 190 174"><g fill="#7194DA" fill-rule="nonzero"><path d="M95 17.3 156.3 42 94.8 67 33.5 42.3l61.5-25M95 .5c-.7 0-1.4.1-2.1.4L4.7 36.7c-4.9 2-4.9 9.2 0 11.2l88 35.5c.7.3 1.4.4 2.1.4.7 0 1.4-.1 2.1-.4L185 47.6c4.9-2 4.9-9.2 0-11.2L97 .9c-.6-.3-1.3-.4-2-.4z" class="st0"></path><path d="M94.7 126.8c-1.7 0-3.4-.3-5-1L5.6 91.9c-4.1-1.7-6.1-6.3-4.4-10.4 1.7-4.1 6.3-6.1 10.4-4.4l83.1 33.6 83.3-34c4.1-1.7 8.8.3 10.4 4.4 1.7 4.1-.3 8.8-4.4 10.4l-84.3 34.3c-1.6.7-3.3 1-5 1z" class="st1"></path><path d="M95.1 173.5c-1.7 0-3.4-.3-5-1L6 138.5c-4.1-1.7-6.1-6.3-4.4-10.4 1.7-4.1 6.3-6.1 10.4-4.4l83.1 33.6 83.3-33.9c4.1-1.7 8.8.3 10.4 4.4 1.7 4.1-.3 8.8-4.4 10.4l-84.3 34.3c-1.5.7-3.3 1-5 1z" class="st2"></path></g></svg>