<?xml version="1.0" encoding="UTF-8"?><svg xmlns="http://www.w3.org/2000/svg" xmlns:xlink="http://www.w3.org/1999/xlink" viewBox="0 0 150 163"><path fill="#7194DA" fill-rule="nonzero" d="M149.2 159.9c0 1.4-1.2 2.6-2.6 2.6H3.4c-1.4 0-2.6-1.2-2.6-2.6 0-.2 0-.4.1-.6 1.3-31 21.7-57.1 49.7-66.8l23 23c.8.8 2.1.8 2.9 0l23-23c28 9.8 48.3 35.8 49.7 66.8v.6zM130.1 67c.1.5.1 1 .1 1.5 0 7.5-6.1 13.6-13.6 13.6-5.5 0-10.2-3.3-12.3-7.9-7.4 7.6-17.7 12.4-29.1 12.4-12.4 0-23.6-5.6-31-14.5-1.5 5.8-6.8 10-13.1 10-7.5 0-13.6-6.1-13.6-13.6 0-.5 0-1 .1-1.5-2-2.3-3.1-5.4-3.1-8.6 0-5 2.7-9.3 6.6-11.7-.7-1.6-1.1-3.4-1.1-5.3 0-4.2 1.9-7.9 4.9-10.4-.2-1-.4-2-.4-3.1 0-4.7 2.4-8.9 6.1-11.3C35.6 6.7 45.8 0 57.6 0c5.5 0 10.6 1.5 15.1 4 4.4-2.5 9.6-4 15.1-4 11.2 0 21 6.1 26.3 15.2 5.2 1.9 8.9 6.9 8.9 12.7 0 1.1-.1 2.1-.4 3.1 3 2.5 4.9 6.2 4.9 10.4 0 1.9-.4 3.7-1.1 5.3 4 2.4 6.6 6.7 6.6 11.7.2 3.3-.9 6.3-2.9 8.6zm-35-32.2c-5.6-1-20.1-9-20.1-9S61 36.2 56.5 37.5c-6.9 2.1-18.2 2.9-18.3 8.8-.4 20.4 16.6 37 37 37s36.5-16.6 37-37c.2-7.7-11.2-10.5-17.1-11.5z" class="st0"></path></svg>