<?xml version="1.0" encoding="UTF-8"?><svg xmlns="http://www.w3.org/2000/svg" xmlns:xlink="http://www.w3.org/1999/xlink" viewBox="0 0 178 146"><g fill="#7194DA" fill-rule="nonzero"><path d="M177.07 134.55V22.11l-.449-1.055c-.293-.684-5.996-13.692-27.578-18.828V2.07h-.606C143.224.88 137.13.137 129.962.137c-23.106 0-35.274 7.578-41.328 13.633C82.578 7.734 70.39.137 47.285.137 9.707.137.957 20.215.605 21.055l-.449 1.054v111.66c0 4.336 1.348 7.52 4.024 9.473 4.199 3.086 9.57 1.387 11.582.762l.605-.234c19.512-8.672 51.387-2.56 60.996.273 1.309.39 4.043 1.191 6.992 1.191 1.543 0 3.125-.273 4.61-.879 3.73 1.407 7.773.176 9.472-.351l.606-.234c19.531-8.692 51.367-2.56 60.996.253 1.309.391 4.043 1.192 6.992 1.192 2.617 0 5.43-.645 7.559-2.754 2.422-2.344 2.851-5.527 2.48-7.91zM119.336 12.364c3.164-.43 6.66-.683 10.605-.683 4.278 0 8.047.293 11.407.78v27.58l-10.703-6.368-11.31 6.484V12.363zM42.44 127.793c-10.527 0-21.386 1.367-30.43 5.293-.097.039-.214.059-.292.078V24.727C13.652 21.68 21.934 11.68 47.285 11.68c25.352 0 33.633 9.98 35.567 13.047v108.789c-.586-.098-1.309-.274-2.207-.547-6.895-2.012-22.168-5.176-38.204-5.176zm123.086 5.723c-.586-.098-1.308-.274-2.226-.547-6.875-2.012-22.149-5.176-38.184-5.176-10.527 0-21.387 1.367-30.43 5.293-.097.039-.195.059-.292.078V24.727c1.367-2.149 5.898-7.715 17.246-10.84v39.57l18.925-10.879 18.477 10.996V14.102c10.82 3.164 15.137 8.535 16.484 10.625v108.789z" class="st0"></path><path d="M58.984 46.816H29.512a5.78 5.78 0 1 0 0 11.563h29.472a5.78 5.78 0 1 0 0-11.563zm0 24.16H29.512a5.78 5.78 0 1 0 0 11.563h29.472a5.78 5.78 0 1 0 0-11.562z" class="st1"></path></g></svg>