<svg width="24" height="25" viewBox="0 0 24 25" fill="none" xmlns="http://www.w3.org/2000/svg">
<g id="Frame 1">
<path id="8" d="M14.2852 13.5726C14.2852 13.9192 14.2252 14.2259 14.1052 14.4926C13.9852 14.7526 13.8218 14.9726 13.6152 15.1526C13.4085 15.3326 13.1652 15.4692 12.8852 15.5626C12.6118 15.6559 12.3185 15.7026 12.0052 15.7026C11.6918 15.7026 11.3952 15.6559 11.1152 15.5626C10.8418 15.4692 10.6018 15.3326 10.3952 15.1526C10.1885 14.9726 10.0252 14.7526 9.90516 14.4926C9.78516 14.2259 9.72516 13.9192 9.72516 13.5726C9.72516 13.3526 9.75182 13.1592 9.80516 12.9926C9.86516 12.8259 9.93849 12.6792 10.0252 12.5526C10.1118 12.4192 10.2052 12.3059 10.3052 12.2126C10.4118 12.1192 10.5152 12.0392 10.6152 11.9726C10.5218 11.9126 10.4285 11.8359 10.3352 11.7426C10.2418 11.6492 10.1552 11.5426 10.0752 11.4226C10.0018 11.3026 9.93849 11.1659 9.88516 11.0126C9.83849 10.8592 9.81516 10.6859 9.81516 10.4926C9.81516 10.1792 9.87182 9.89924 9.98516 9.65258C10.1052 9.39924 10.2652 9.18591 10.4652 9.01258C10.6652 8.83258 10.8952 8.69591 11.1552 8.60258C11.4218 8.50924 11.7052 8.46258 12.0052 8.46258C12.3052 8.46258 12.5852 8.50924 12.8452 8.60258C13.1118 8.69591 13.3418 8.83258 13.5352 9.01258C13.7352 9.18591 13.8918 9.39924 14.0052 9.65258C14.1252 9.89924 14.1852 10.1792 14.1852 10.4926C14.1852 10.6859 14.1585 10.8592 14.1052 11.0126C14.0585 11.1659 13.9952 11.3026 13.9152 11.4226C13.8418 11.5426 13.7552 11.6492 13.6552 11.7426C13.5618 11.8359 13.4718 11.9126 13.3852 11.9726C13.4852 12.0392 13.5852 12.1192 13.6852 12.2126C13.7918 12.3059 13.8885 12.4192 13.9752 12.5526C14.0685 12.6792 14.1418 12.8259 14.1952 12.9926C14.2552 13.1592 14.2852 13.3526 14.2852 13.5726ZM12.8852 10.5326C12.8852 10.2792 12.8018 10.0659 12.6352 9.89258C12.4685 9.71924 12.2585 9.63258 12.0052 9.63258C11.7518 9.63258 11.5385 9.71924 11.3652 9.89258C11.1985 10.0659 11.1152 10.2792 11.1152 10.5326C11.1152 10.7926 11.1985 11.0092 11.3652 11.1826C11.5385 11.3492 11.7518 11.4326 12.0052 11.4326C12.2585 11.4326 12.4685 11.3492 12.6352 11.1826C12.8018 11.0092 12.8852 10.7926 12.8852 10.5326ZM12.9852 13.5526C12.9852 13.2726 12.8918 13.0392 12.7052 12.8526C12.5185 12.6592 12.2852 12.5626 12.0052 12.5626C11.7252 12.5626 11.4918 12.6592 11.3052 12.8526C11.1185 13.0392 11.0252 13.2726 11.0252 13.5526C11.0252 13.8326 11.1185 14.0659 11.3052 14.2526C11.4918 14.4392 11.7252 14.5326 12.0052 14.5326C12.2852 14.5326 12.5185 14.4392 12.7052 14.2526C12.8918 14.0659 12.9852 13.8326 12.9852 13.5526Z" fill="#868D99"/>
</g>
</svg>
