<?xml version="1.0" encoding="UTF-8"?><svg xmlns="http://www.w3.org/2000/svg" xmlns:xlink="http://www.w3.org/1999/xlink" viewBox="0 0 171 135"><path fill="#7194DA" fill-rule="nonzero" d="M16.309.137C7.383.137.117 7.402.117 16.328c0 8.926 7.266 16.192 16.192 16.192 8.925 0 16.191-7.266 16.191-16.192S25.234.137 16.309.137zm0 50.84C7.383 50.977.117 58.242.117 67.168c0 8.926 7.266 16.191 16.192 16.191 8.925 0 16.191-7.265 16.191-16.191 0-8.926-7.266-16.191-16.191-16.191zm0 50.859c-8.926 0-16.192 7.266-16.192 16.191 0 8.926 7.266 16.192 16.192 16.192 8.925 0 16.191-7.266 16.191-16.192 0-8.925-7.266-16.191-16.191-16.191zM162.48.684H50.371c-4.414 0-8.027 3.593-8.027 8.027v15.234c0 4.414 3.593 8.028 8.027 8.028H162.5c4.414-.02 7.988-3.614 7.988-8.028V8.711c0-4.414-3.593-8.027-8.008-8.027zm0 50.859H50.371c-4.414 0-8.027 3.594-8.027 8.027v15.235c0 4.414 3.593 8.027 8.027 8.027h112.09c4.414 0 8.027-3.594 8.027-8.027V59.57c0-4.433-3.593-8.027-8.008-8.027zm0 50.86H50.371c-4.414 0-8.027 3.593-8.027 8.027v15.234c0 4.414 3.593 8.027 8.027 8.027h112.09c4.414 0 8.027-3.593 8.027-8.027V110.43c0-4.434-3.593-8.028-8.008-8.028z" class="st0"></path></svg>