<?xml version="1.0" encoding="UTF-8"?><svg xmlns="http://www.w3.org/2000/svg" xmlns:xlink="http://www.w3.org/1999/xlink" viewBox="0 0 199 188"><path fill="#7194DA" fill-rule="nonzero" d="m0 187.143 2.857-10c4.286-14.286 8.572-24.286 15.714-30 8.572-7.143 28.572-15.714 42.858-22.857l5.714-2.857L90 164.286l11.429-28.572 10 28.572 22.857-42.857 5.714 2.857c14.286 7.143 32.857 15.714 42.857 22.857 4.286 2.857 8.572 8.571 11.429 15.714l4.285 24.286H0zM27.143 160c-2.857 1.429-7.143 10-10 15.714H78.57L61.43 141.43c-17.143 7.142-30 14.285-34.286 18.571zM140 141.429l-17.143 34.285h60L174.286 160c-7.143-4.286-18.572-11.429-34.286-18.571zm-38.571-22.858C90 118.571 78.57 112.857 70 101.43c-11.429-12.858-18.571-30-18.571-42.858v-1.428c0-11.429 0-30 11.428-42.857C71.43 4.286 84.286 0 101.43 0c17.142 0 30 4.286 38.571 14.286 11.429 12.857 11.429 30 11.429 42.857v1.428c0 12.858-7.143 30-17.143 42.858-10 11.428-21.429 17.142-32.857 17.142zm0-104.285c-12.858 0-22.858 2.857-27.143 8.571-8.572 10-8.572 24.286-8.572 34.286v1.428C65.714 67.143 70 81.43 80 91.43c7.143 8.571 14.286 12.857 21.429 12.857 7.142 0 14.285-4.286 21.428-12.857C131.43 80 137.143 65.714 137.143 58.57v-1.428c0-10 0-24.286-7.143-32.857-7.143-7.143-15.714-10-28.571-10z" class="st0"></path></svg>