<?xml version="1.0" encoding="UTF-8"?>
<svg width="32px" height="24px" viewBox="0 0 32 24" version="1.1" xmlns="http://www.w3.org/2000/svg" xmlns:xlink="http://www.w3.org/1999/xlink">
    <!-- Generator: Sketch 63 (92445) - https://sketch.com -->
    <title>面积图</title>
    <desc>Created with Sketch.</desc>
    <g id="页面-1" stroke="none" stroke-width="1" fill="none" fill-rule="evenodd">
        <g id="新建报告-默认看板-展开" transform="translate(-210.000000, -116.000000)" fill-rule="nonzero">
            <g id="图表" transform="translate(57.000000, 80.000000)">
                <g id="面积图" transform="translate(150.000000, 31.000000)">
                    <rect id="矩形" fill="#000000" opacity="0" x="0" y="0" width="38.48" height="33.28"></rect>
                    <path d="M27.2573699,8.31037037 C22.3898815,8.31037037 22.7716453,11.7481481 19.4312121,11.7481481 C16.090779,11.7481481 15.8617207,5.2 10.0779993,5.2 C3.9697786,5.2 4.16066049,13.0577778 4.16066049,13.0577778 L4.16066049,22.88 L34.32,22.88 L33.4996733,11.7481481 C33.4996733,11.7481481 32.1248582,8.31037037 27.2573699,8.31037037 Z" id="路径" fill="#30587D"></path>
                    <path d="M27.2572152,6.24 C22.3896203,6.24 21.2443038,14.4759596 17.9037975,14.4759596 C14.5632911,14.4759596 11.2800506,10.9462626 7.59594937,10.9462626 C5.1716962,10.9462626 4.16,12.7951515 4.16,12.7951515 L4.16,22.88 L34.32,22.88 L34.32,12.4589899 C34.32,12.4589899 32.1248101,6.24 27.2572152,6.24 Z" id="路径" fill="#3BA0FD"></path>
                    <polygon id="路径" fill="#255F93" points="3 27 35 27 35 29 3 29"></polygon>
                </g>
            </g>
        </g>
    </g>
</svg>