<svg width="16" height="16" viewBox="0 0 16 16" fill="none" xmlns="http://www.w3.org/2000/svg">
<g>
<path d="M10.2561 5.88405C9.92409 5.88185 9.6561 5.61208 9.6561 5.28006V2.43208C9.6561 2.35208 9.5921 2.28008 9.5041 2.28008H2.0561C1.9761 2.28008 1.9041 2.34408 1.9041 2.43208V9.88808C1.9041 9.96808 1.9681 10.0401 2.0561 10.0401H3.8721C4.2001 10.0401 4.4721 10.3121 4.4721 10.6401C4.4721 10.9681 4.2001 11.2401 3.8721 11.2401H2.0561C1.3121 11.2401 0.704102 10.6321 0.704102 9.88808V2.43208C0.704102 1.68808 1.3121 1.08008 2.0561 1.08008H9.5121C10.2561 1.08008 10.8641 1.68808 10.8641 2.43208V5.28007C10.8641 5.61521 10.5912 5.88627 10.2561 5.88405Z" fill="#B1B2B2"/>
<path d="M14.8439 14.0909L11.7532 11.0002L14.8439 7.90907C14.9447 7.80832 15.0001 7.67436 15 7.53185C14.9999 7.38977 14.9446 7.2564 14.8442 7.15631C14.7437 7.05552 14.6102 7.00008 14.468 7C14.3253 7 14.1915 7.05542 14.0909 7.15605L11.0002 10.2467L7.90907 7.15605C7.80845 7.05542 7.67473 7 7.53256 7C7.39039 7 7.25668 7.05541 7.15607 7.15602C7.05548 7.25634 7.0001 7.38977 7 7.53185C6.99991 7.67436 7.05533 7.80832 7.15607 7.90906L10.2472 11.0001L7.15606 14.091C7.05542 14.1916 7 14.3253 7 14.4675C7 14.6096 7.05543 14.7433 7.15607 14.844C7.25668 14.9446 7.39038 15 7.53255 15C7.67472 15 7.80845 14.9446 7.90906 14.844L11.0002 11.7532L14.0909 14.844C14.1915 14.9446 14.3254 15 14.4677 15C14.6102 14.9999 14.7436 14.9446 14.8437 14.8442C15.0515 14.6364 15.0515 14.2985 14.8439 14.0909Z" fill="#B1B2B2"/>
</g>
</svg>
