<?xml version="1.0" encoding="UTF-8"?>
<svg width="20px" height="18px" viewBox="0 0 20 18" version="1.1" xmlns="http://www.w3.org/2000/svg" xmlns:xlink="http://www.w3.org/1999/xlink">
    <!-- Generator: Sketch 63 (92445) - https://sketch.com -->
    <title>图表</title>
    <desc>Created with Sketch.</desc>
    <g id="页面-1" stroke="none" stroke-width="1" fill="none" fill-rule="evenodd">
        <g id="新建仪表盘-默认看板" transform="translate(-18.000000, -456.000000)" fill-rule="nonzero">
            <g id="图表" transform="translate(18.000000, 456.000000)">
                <rect id="矩形" fill="#000000" opacity="0" x="0.417664" y="1" width="19" height="17"></rect>
                <path d="M17.6978436,6.02610355 L16.2356871,6.02610355 C15.9729069,6.02610355 15.7367766,6.14109687 15.5653103,6.32245232 C15.3836596,6.5145795 15.2735307,6.78052785 15.2735307,7.07258806 L15.2735307,16.3429979 C15.2735307,16.6354866 15.3836734,16.9010211 15.564998,17.0928034 C15.7367771,17.2744896 15.9732807,17.3894824 16.2356871,17.3894824 L17.6978436,17.3894824 C17.9602363,17.3894824 18.1967347,17.2745315 18.3685527,17.0931369 C18.5497502,16.90184 18.66,16.637109 18.66,16.3458303 L18.66,7.07258806 C18.66,6.78009937 18.5498573,6.51456488 18.3685326,6.32278259 C18.1967536,6.1410964 17.96025,6.02610355 17.6978436,6.02610355 Z M10.3924172,1.38948242 L8.93026076,1.38948242 C8.66748054,1.38948242 8.43135028,1.50447574 8.25988393,1.68583119 C8.07823323,1.87795837 7.96810431,2.14390671 7.96810431,2.43596693 L7.96810431,16.3429979 C7.96810431,16.6354866 8.07824705,16.9010211 8.25957167,17.0928034 C8.43135072,17.2744896 8.66785432,17.3894824 8.93026076,17.3894824 L10.3924172,17.3894824 C10.6543685,17.3894824 10.8900459,17.274804 11.0614629,17.0938329 C11.2431282,16.9020421 11.3536584,16.6364322 11.3545761,16.3442598 L11.3545737,2.43596693 C11.3545737,2.14347824 11.2444309,1.87794375 11.0631063,1.68616146 C10.8913272,1.50447527 10.6548236,1.38948242 10.3924172,1.38948242 Z M3.0843129,9.11624018 L1.62215645,9.11624018 C1.35937623,9.11624018 1.12324597,9.2312335 0.951779624,9.41258895 C0.770128924,9.60471613 0.66,9.87066447 0.66,10.1627247 L0.66,16.3429979 C0.66,16.6354866 0.770142747,16.9010211 0.951467365,17.0928034 C1.12324641,17.2744896 1.35975001,17.3894824 1.62215645,17.3894824 L3.0843129,17.3894824 C3.34732297,17.3894824 3.58376994,17.2749942 3.755368,17.0938318 C3.93665425,16.9024413 4.04646934,16.6373837 4.04646934,16.3458303 L4.04646934,10.1627247 C4.04646934,9.870236 3.9363266,9.60470151 3.75500198,9.41291922 C3.58322293,9.23123303 3.34671933,9.11624018 3.0843129,9.11624018 Z" id="形状" stroke="#B1B5BC"></path>
            </g>
        </g>
    </g>
</svg>