<?xml version="1.0" encoding="UTF-8"?>
<svg width="14px" height="11px" viewBox="0 0 14 11" version="1.1" xmlns="http://www.w3.org/2000/svg" xmlns:xlink="http://www.w3.org/1999/xlink">
    <!-- Generator: Sketch 63 (92445) - https://sketch.com -->
    <title>面积图</title>
    <desc>Created with Sketch.</desc>
    <g id="页面-1" stroke="none" stroke-width="1" fill-rule="evenodd" opacity="0.651343936">
        <g id="右侧面板-组合图表" transform="translate(-1040.000000, -409.000000)" fill-rule="nonzero">
            <g id="编组-58" transform="translate(1032.000000, 339.000000)">
                <g id="面积图" transform="translate(7.000000, 68.000000)">
                    <rect id="矩形" fill="#000000" opacity="0" x="0" y="0" width="15.69984" height="14.8126255"></rect>
                    <path d="M11.1210069,3.6988703 C9.13507166,3.6988703 9.29083129,5.22899394 7.92793455,5.22899394 C6.56503782,5.22899394 6.47158204,2.31447273 4.1118237,2.31447273 C1.61966967,2.31447273 1.69754948,5.81189818 1.69754948,5.81189818 L1.69754948,10.18368 L14.00256,10.18368 L13.6678667,5.22899394 C13.6678667,5.22899394 13.1069421,3.6988703 11.1210069,3.6988703 Z" id="路径"></path>
                    <path d="M11.1209438,2.77736727 C9.13496506,2.77736727 8.66767595,6.44311802 7.30474937,6.44311802 C5.94182278,6.44311802 4.60226066,4.87208198 3.09914734,4.87208198 C2.11005205,4.87208198 1.69728,5.69500562 1.69728,5.69500562 L1.69728,10.18368 L14.00256,10.18368 L14.00256,5.54538314 C14.00256,5.54538314 13.1069225,2.77736727 11.1209438,2.77736727 Z" id="路径"></path>
                    <polygon id="路径" points="1.224 12.0174545 14.28 12.0174545 14.28 12.9076364 1.224 12.9076364"></polygon>
                </g>
            </g>
        </g>
    </g>
</svg>