<?xml version="1.0" encoding="UTF-8"?>
<svg width="56px" height="21px" viewBox="0 0 56 21" version="1.1" xmlns="http://www.w3.org/2000/svg" xmlns:xlink="http://www.w3.org/1999/xlink">
    <!-- Generator: Sketch 63 (92445) - https://sketch.com -->
    <title>折叠</title>
    <desc>Created with Sketch.</desc>
    <defs>
        <path d="M10,0 L40,0 C42.0710678,0 43.75,1.6117749 43.75,3.6 L43.75,4.7436 C43.75,7.6176 45.546875,10.2096 48.3075,11.3196 L50,12 L0,12 L1.6925,11.3196 C4.45328944,10.2096058 6.25008936,7.6170098 6.25,4.7436 L6.25,3.6 C6.25,1.6117749 7.92893219,0 10,0 Z" id="path-1"></path>
        <filter x="-16.0%" y="-100.0%" width="132.0%" height="241.7%" filterUnits="objectBoundingBox" id="filter-2">
            <feOffset dx="0" dy="-4" in="SourceAlpha" result="shadowOffsetOuter1"></feOffset>
            <feGaussianBlur stdDeviation="2" in="shadowOffsetOuter1" result="shadowBlurOuter1"></feGaussianBlur>
            <feColorMatrix values="0 0 0 0 0   0 0 0 0 0   0 0 0 0 0  0 0 0 0.0273710664 0" type="matrix" in="shadowBlurOuter1" result="shadowMatrixOuter1"></feColorMatrix>
            <feOffset dx="0" dy="-1" in="SourceAlpha" result="shadowOffsetOuter2"></feOffset>
            <feGaussianBlur stdDeviation="1" in="shadowOffsetOuter2" result="shadowBlurOuter2"></feGaussianBlur>
            <feColorMatrix values="0 0 0 0 0   0 0 0 0 0   0 0 0 0 0  0 0 0 0.03 0" type="matrix" in="shadowBlurOuter2" result="shadowMatrixOuter2"></feColorMatrix>
            <feMerge>
                <feMergeNode in="shadowMatrixOuter1"></feMergeNode>
                <feMergeNode in="shadowMatrixOuter2"></feMergeNode>
            </feMerge>
        </filter>
    </defs>
    <g id="页面-1" stroke="none" stroke-width="1" fill="none" fill-rule="evenodd">
        <g id="插画配置" transform="translate(-1412.000000, -244.000000)">
            <g id="折叠" transform="translate(1440.000000, 251.000000) scale(1, -1) translate(-1440.000000, -251.000000) translate(1415.000000, 245.000000)">
                <g id="路径">
                    <use fill="black" fill-opacity="1" filter="url(#filter-2)" xlink:href="#path-1"></use>
                    <use fill="#FFFFFF" fill-rule="evenodd" xlink:href="#path-1"></use>
                </g>
                <path d="M27.951,6 L28.2,6.5052 L24.6,8.1066 L21,6.5052 L21.249,6.0234 L24.6,7.5312 L27.951,6 Z M27.951,4 L28.2,4.4818 L24.6,6.0838 L21,4.4818 L21.249,4 L24.6,5.5078 L27.951,4 Z" id="形状结合" fill="#4386FF" fill-rule="nonzero"></path>
            </g>
        </g>
    </g>
</svg>