<?xml version="1.0" encoding="UTF-8"?>
<svg width="15px" height="16px" viewBox="0 0 15 16" version="1.1" xmlns="http://www.w3.org/2000/svg" xmlns:xlink="http://www.w3.org/1999/xlink">
    <!-- Generator: Sketch 63 (92445) - https://sketch.com -->
    <title>组合</title>
    <desc>Created with Sketch.</desc>
    <g id="页面-1" stroke="none" stroke-width="1" fill="none" fill-rule="evenodd">
        <g id="新建报告-默认看板-展开" transform="translate(-536.000000, -17.000000)" fill-rule="nonzero">
            <g id="组合" transform="translate(534.500000, 16.000000)">
                <rect id="矩形" fill="#414852" opacity="0" x="0" y="0" width="17.915904" height="17.915904"></rect>
                <path d="M6.718464,11.19744 L2.79936,11.19744 C2.49015123,11.19744 2.239488,10.9467768 2.239488,10.637568 L2.239488,3.919104 L3.919104,3.919104 L3.919104,2.239488 L10.637568,2.239488 C10.9467768,2.239488 11.19744,2.49015123 11.19744,2.79936 L11.19744,6.718464 L15.116544,6.718464 C15.4257528,6.718464 15.676416,6.96912723 15.676416,7.278336 L15.676416,13.9968 L13.9968,13.9968 L13.9968,15.676416 L7.278336,15.676416 C6.96912723,15.676416 6.718464,15.4257528 6.718464,15.116544 L6.718464,11.19744 Z M7.278336,11.19744 L7.278336,15.116544 L13.436928,15.116544 L13.436928,13.436928 L15.116544,13.436928 L15.116544,7.278336 L11.19744,7.278336 L11.19744,10.637568 C11.19744,10.9467768 10.9467768,11.19744 10.637568,11.19744 L7.278336,11.19744 Z" id="形状" fill="#6F757E"></path>
                <path d="M1.679616,1.679616 L3.359232,1.679616 L3.359232,3.359232 L1.679616,3.359232 L1.679616,1.679616 Z M14.556672,1.679616 L16.236288,1.679616 L16.236288,3.359232 L14.556672,3.359232 L14.556672,1.679616 Z M1.679616,14.556672 L3.359232,14.556672 L3.359232,16.236288 L1.679616,16.236288 L1.679616,14.556672 Z M14.556672,14.556672 L16.236288,14.556672 L16.236288,16.236288 L14.556672,16.236288 L14.556672,14.556672 Z" id="形状" fill="#6F757E"></path>
            </g>
        </g>
    </g>
</svg>