<?xml version="1.0" encoding="UTF-8"?>
<svg width="154px" height="1px" viewBox="0 0 154 1" version="1.1" xmlns="http://www.w3.org/2000/svg" xmlns:xlink="http://www.w3.org/1999/xlink">
    <!-- Generator: Sketch 63 (92445) - https://sketch.com -->
    <title>形状结合</title>
    <desc>Created with Sketch.</desc>
    <g id="页面-1" stroke="none" stroke-width="1" fill="none" fill-rule="evenodd">
        <g id="形状配置" transform="translate(-1631.000000, -511.000000)" fill="#E7E7E7">
            <path d="M1656,511 L1656,512 L1631,512 L1631,511 L1656,511 Z M1695,511 L1695,512 L1670,512 L1670,511 L1695,511 Z M1734,511 L1734,512 L1709,512 L1709,511 L1734,511 Z M1662,511 L1662,512 L1658,512 L1658,511 L1662,511 Z M1668,511 L1668,512 L1664,512 L1664,511 L1668,511 Z M1701,511 L1701,512 L1697,512 L1697,511 L1701,511 Z M1707,511 L1707,512 L1703,512 L1703,511 L1707,511 Z M1773,511 L1773,512 L1748,512 L1748,511 L1773,511 Z M1779,511 L1779,512 L1775,512 L1775,511 L1779,511 Z M1785,511 L1785,512 L1781,512 L1781,511 L1785,511 Z M1740,511 L1740,512 L1736,512 L1736,511 L1740,511 Z M1746,511 L1746,512 L1742,512 L1742,511 L1746,511 Z" id="形状结合"></path>
        </g>
    </g>
</svg>