<svg width="16" height="16" viewBox="0 0 16 16" fill="none" xmlns="http://www.w3.org/2000/svg">
<g>
<path fill-rule="evenodd" clip-rule="evenodd" d="M10.3348 6.05368C10.2438 6.05371 10.1557 6.02181 10.0857 5.96354C10.0158 5.90527 9.96856 5.82432 9.95217 5.73479L9.94595 5.66479V2.35924C9.946 2.21145 10.0021 2.06918 10.103 1.96118C10.2039 1.85319 10.3421 1.78752 10.4895 1.77745C10.637 1.76737 10.7828 1.81365 10.8974 1.90692C11.0121 2.00018 11.087 2.13349 11.1072 2.27991L11.1126 2.35924V4.06102L14.0059 1.16925C14.1102 1.06584 14.2495 1.00553 14.3963 1.00036C14.543 0.995195 14.6863 1.04555 14.7975 1.14137C14.9088 1.23719 14.9798 1.37144 14.9964 1.51732C15.013 1.66319 14.974 1.80997 14.8872 1.92836L14.8304 1.99369L11.9371 4.88702H13.6404C13.7813 4.88702 13.9175 4.93807 14.0238 5.03072C14.13 5.12338 14.1991 5.25136 14.2183 5.39101L14.2237 5.47035C14.2237 5.61131 14.1727 5.7475 14.08 5.85374C13.9874 5.95997 13.8594 6.02906 13.7197 6.04824L13.6404 6.05368H10.3348ZM1.00163 14.4606C1.01205 14.5999 1.07211 14.7308 1.1709 14.8296C1.28028 14.9388 1.42854 15.0002 1.58312 15.0002C1.73771 15.0002 1.88597 14.9388 1.99534 14.8296L4.88867 11.9378V13.6396L4.89412 13.7189C4.91426 13.8653 4.98923 13.9987 5.10388 14.0919C5.21853 14.1852 5.36431 14.2315 5.51176 14.2214C5.65922 14.2113 5.79735 14.1457 5.89825 14.0377C5.99915 13.9297 6.05529 13.7874 6.05534 13.6396V10.334L6.04911 10.2641C6.03273 10.1745 5.98546 10.0936 5.91554 10.0353C5.84561 9.97703 5.75747 9.94513 5.66645 9.94516H2.3609L2.28157 9.95061C2.14191 9.96978 2.01393 10.0389 1.92128 10.1451C1.82862 10.2513 1.77757 10.3875 1.77757 10.5285L1.78301 10.6078C1.80218 10.7475 1.87127 10.8755 1.97751 10.9681C2.08375 11.0608 2.21994 11.1118 2.3609 11.1118H4.06423L1.1709 14.0052L1.11412 14.0705C1.03113 14.1829 0.991206 14.3213 1.00163 14.4606ZM14.417 15.0002C14.5716 15.0002 14.7199 14.9388 14.8292 14.8296C14.928 14.7308 14.9881 14.5999 14.9985 14.4606C15.0089 14.3213 14.969 14.1829 14.886 14.0705L14.8292 14.0052L11.9359 11.1118H13.6392C13.7802 11.1118 13.9164 11.0608 14.0226 10.9681C14.1289 10.8755 14.198 10.7475 14.2171 10.6078L14.2226 10.5285C14.2226 10.3875 14.1715 10.2513 14.0789 10.1451C13.9862 10.0389 13.8582 9.96978 13.7186 9.95061L13.6392 9.94516H10.3337C10.2427 9.94513 10.1545 9.97703 10.0846 10.0353C10.0147 10.0936 9.96741 10.1745 9.95103 10.2641L9.9448 10.334V13.6396C9.94485 13.7874 10.001 13.9297 10.1019 14.0377C10.2028 14.1457 10.3409 14.2113 10.4884 14.2214C10.6358 14.2315 10.7816 14.1852 10.8963 14.0919C11.0109 13.9987 11.0859 13.8653 11.106 13.7189L11.1115 13.6396V11.9378L14.0048 14.8296C14.1142 14.9388 14.2624 15.0002 14.417 15.0002ZM2.28043 6.04824L2.35976 6.05368H5.66531C5.75633 6.05371 5.84447 6.02181 5.9144 5.96354C5.98432 5.90527 6.03159 5.82432 6.04797 5.73479L6.0542 5.66479V2.35924C6.05415 2.21145 5.99801 2.06918 5.89711 1.96118C5.79621 1.85319 5.65808 1.78752 5.51062 1.77745C5.36317 1.76737 5.21739 1.81365 5.10274 1.90692C4.98809 2.00018 4.91312 2.13349 4.89298 2.27991L4.88753 2.35924V4.06102L1.99421 1.16925C1.88998 1.06584 1.7506 1.00553 1.60387 1.00036C1.45714 0.995195 1.31386 1.04555 1.20262 1.14137C1.09138 1.23719 1.02037 1.37144 1.00376 1.51732C0.987141 1.66319 1.02615 1.80997 1.11299 1.92836L1.16976 1.99369L4.06309 4.88702H2.35976C2.2188 4.88702 2.08261 4.93807 1.97637 5.03072C1.87014 5.12338 1.80104 5.25136 1.78187 5.39101L1.77643 5.47035C1.77643 5.61131 1.82748 5.7475 1.92014 5.85374C2.01279 5.95997 2.14077 6.02906 2.28043 6.04824Z" fill="#B1B2B2"/>
</g>
</svg>
