<svg width="16" height="16" viewBox="0 0 16 16" fill="none" xmlns="http://www.w3.org/2000/svg">
<g>
<path d="M15.0833 1.79368C14.8645 1.3116 14.383 1.00016 13.8567 1.00016L2.22823 1C1.97314 0.999729 1.72365 1.07476 1.51103 1.2157C1.29842 1.35663 1.13213 1.55719 1.03303 1.79224C0.817509 2.29344 0.917349 2.85632 1.29223 3.2316L1.33351 3.28112L5.62719 6.72232C5.67131 6.75629 5.70722 6.79975 5.73228 6.84947C5.75733 6.8992 5.77087 6.95393 5.77191 7.0096V12.9133C5.76981 13.1538 5.83372 13.3902 5.95668 13.5969C6.07964 13.8036 6.25693 13.9725 6.46927 14.0854L8.32815 15.121C8.53319 15.228 8.74447 15.28 8.97383 15.28H8.97487C9.33903 15.28 9.67815 15.1396 9.92983 14.8846C10.1776 14.6337 10.3114 14.299 10.3068 13.941V7.04632C10.3073 6.9919 10.3194 6.93821 10.3424 6.88887C10.3653 6.83954 10.3986 6.7957 10.44 6.76032L14.7948 3.27856L14.8463 3.22824C15.0236 3.03955 15.1408 2.80243 15.183 2.547C15.2252 2.29157 15.1905 2.02936 15.0833 1.79368ZM14.1449 2.54696L14.1389 2.5552L9.83799 6.01696C9.52391 6.27024 9.34391 6.64936 9.34391 7.05712V13.9409C9.34431 14.0706 9.27591 14.1933 9.15887 14.2647C9.10167 14.293 9.03874 14.3077 8.97495 14.3078C8.91215 14.3082 8.85025 14.2929 8.79495 14.2631L6.93719 13.2466C6.82311 13.1903 6.75215 13.0659 6.75215 12.9219V7.01896C6.75215 6.6156 6.56871 6.23696 6.24903 5.98008L2.09575 2.66472L1.95007 2.54552C1.86951 2.43176 1.86031 2.2848 1.92375 2.16712C1.98191 2.038 2.10375 1.96096 2.24967 1.96096H13.8559C13.9236 1.96134 13.9899 1.98063 14.0472 2.01664C14.1045 2.05266 14.1507 2.10397 14.1804 2.1648C14.2103 2.22557 14.2228 2.29343 14.2166 2.36088C14.2103 2.42833 14.1855 2.49273 14.1449 2.54696Z" fill="#B1B2B2"/>
<path d="M11.6905 12.5888C11.4351 12.582 11.2295 12.3671 11.2345 12.1094C11.2345 11.8433 11.4391 11.6279 11.6905 11.6279H14.7437C14.9953 11.6279 15.1998 11.8432 15.1998 12.1078C15.2021 12.1692 15.1921 12.2304 15.1705 12.2879C15.1488 12.3454 15.116 12.398 15.0738 12.4426C15.0322 12.4872 14.9821 12.523 14.9264 12.548C14.8708 12.5731 14.8108 12.5869 14.7498 12.5885L14.7437 12.5888H11.6905ZM11.6905 10.4361C11.4355 10.4294 11.2301 10.2147 11.2345 9.95765C11.2345 9.69109 11.4391 9.47541 11.6905 9.47541H14.7437C14.9953 9.47541 15.1998 9.69109 15.1998 9.95629C15.2026 10.0171 15.1933 10.0778 15.1724 10.1349C15.1515 10.192 15.1194 10.2444 15.078 10.289C15.0371 10.3334 14.9878 10.3692 14.9329 10.3943C14.8781 10.4195 14.8188 10.4336 14.7585 10.4357L14.7437 10.4361H11.6905V10.4361ZM11.6905 8.28341C11.4355 8.27677 11.2301 8.06205 11.2345 7.80493C11.2345 7.53893 11.4391 7.32373 11.6905 7.32373H14.7437C14.9953 7.32373 15.1998 7.53893 15.1998 7.80357C15.2046 7.92925 15.1613 8.04629 15.078 8.13629C14.9946 8.22629 14.8812 8.27837 14.7585 8.28309L14.7431 8.28341H11.6905Z" fill="#B1B2B2"/>
</g>
</svg>
