<?xml version="1.0" encoding="UTF-8"?>
<svg width="19px" height="19px" viewBox="0 0 19 19" version="1.1" xmlns="http://www.w3.org/2000/svg" xmlns:xlink="http://www.w3.org/1999/xlink">
    <!-- Generator: Sketch 63 (92445) - https://sketch.com -->
    <title>笑脸</title>
    <desc>Created with Sketch.</desc>
    <g id="页面-1" stroke="none" stroke-width="1" fill="none" fill-rule="evenodd">
        <g id="新建报告-默认看板-展开" transform="translate(-18.000000, -343.000000)" fill-rule="nonzero">
            <g id="笑脸" transform="translate(17.000000, 342.000000)">
                <rect id="矩形" fill="#000000" opacity="0" x="0" y="0" width="20.8" height="20.8"></rect>
                <path d="M10.4,1.8 C8.02517143,1.8 5.87517129,2.76258549 4.31887839,4.31887839 C2.76258549,5.87517129 1.8,8.02517143 1.8,10.4 C1.8,12.7748286 2.76258549,14.9248287 4.31887839,16.4811216 C5.87517129,18.0374145 8.02517143,19 10.4,19 C12.7748286,19 14.9248287,18.0374145 16.4811216,16.4811216 C18.0374145,14.9248287 19,12.7748286 19,10.4 C19,8.02517143 18.0374145,5.87517129 16.4811216,4.31887839 C14.9248287,2.76258549 12.7748286,1.8 10.4,1.8 Z" id="路径" stroke="#B1B5BC"></path>
                <path d="M5.2,7.8 C5.2,8.51797017 5.78202983,9.1 6.5,9.1 C7.21797017,9.1 7.8,8.51797017 7.8,7.8 C7.8,7.08202983 7.21797017,6.5 6.5,6.5 C5.78202983,6.5 5.2,7.08202983 5.2,7.8 Z" id="路径" stroke="#B1B5BC"></path>
                <path d="M13,7.8 C13,8.51797017 13.5820298,9.1 14.3,9.1 C15.0179702,9.1 15.6,8.51797017 15.6,7.8 C15.6,7.08202983 15.0179702,6.5 14.3,6.5 C13.5820298,6.5 13,7.08202983 13,7.8 Z" id="路径" stroke="#B1B5BC"></path>
                <path d="M4.55,10.4 C4.55,13.63115 7.16885,16.25 10.4,16.25 C13.63115,16.25 16.25,13.63115 16.25,10.4 L4.55,10.4 Z" id="路径" stroke="#B1B5BC"></path>
            </g>
        </g>
    </g>
</svg>