<?xml version="1.0" encoding="UTF-8"?>
<svg width="12px" height="12px" viewBox="0 0 12 12" version="1.1" xmlns="http://www.w3.org/2000/svg" xmlns:xlink="http://www.w3.org/1999/xlink">
    <!-- Generator: Sketch 63 (92445) - https://sketch.com -->
    <title>下移一层</title>
    <desc>Created with Sketch.</desc>
    <g id="页面-1" stroke="none" stroke-width="1" fill="none" fill-rule="evenodd">
        <g id="工具栏交互样式" transform="translate(-632.000000, -101.000000)" fill-rule="nonzero">
            <g id="编组-37" transform="translate(619.000000, 51.000000)">
                <g id="编组-28" transform="translate(13.000000, 46.600000)">
                    <g id="下移一层" transform="translate(0.000000, 3.400000)">
                        <rect id="矩形" fill="#000000" opacity="0" x="0" y="0" width="12.8" height="12.8"></rect>
                        <path d="M10.6666667,2.84444445 L10.6666667,1.42222223 L1.42222223,1.42222223 L1.42222223,2.84444445 L10.6666667,2.84444445 Z M0.711111113,0.711111113 L11.3777778,0.711111113 L11.3777778,3.55555555 L0.711111113,3.55555555 L0.711111113,0.711111113 Z M0.711111113,4.97777777 L4.97777777,4.97777777 L4.97777777,5.68888889 L0.711111113,5.68888889 L0.711111113,4.97777777 Z M7.11111111,4.97777777 L11.3777778,4.97777777 L11.3777778,5.68888889 L7.11111111,5.68888889 L7.11111111,4.97777777 Z" id="形状" fill="#E7E7E7"></path>
                        <polygon id="路径" fill="#E7E7E7" points="5.68888889 2.84444445 6.4 2.84444445 6.4 10.6666667 5.68888889 10.6666667"></polygon>
                        <polygon id="路径" fill="#E7E7E7" points="8.10666666 8.39111111 8.60444445 8.88888889 6.04444445 11.3777778 3.55555555 8.88888889 4.05333334 8.39111111 6.04444445 10.3822222"></polygon>
                    </g>
                </g>
            </g>
        </g>
    </g>
</svg>