<?xml version="1.0" encoding="UTF-8"?>
<svg width="4px" height="17px" viewBox="0 0 4 17" version="1.1" xmlns="http://www.w3.org/2000/svg" xmlns:xlink="http://www.w3.org/1999/xlink">
    <!-- Generator: Sketch 63 (92445) - https://sketch.com -->
    <title>更多</title>
    <desc>Created with Sketch.</desc>
    <g id="页面-1" stroke="none" stroke-width="1" fill="none" fill-rule="evenodd">
        <g id="新建仪表盘" transform="translate(-1462.000000, -587.000000)" fill-rule="nonzero">
            <g id="line" transform="translate(784.000000, 570.000000)">
                <g id="更多" transform="translate(679.742857, 25.957447) rotate(-360.000000) translate(-679.742857, -25.957447) translate(671.742857, 17.957447)">
                    <rect id="矩形" fill="#000000" opacity="0" x="0" y="0" width="15.6444444" height="15.6444444"></rect>
                    <path d="M6.25777778,1.56444444 C6.25777778,2.42846325 6.95820341,3.12888889 7.82222222,3.12888889 C8.68624103,3.12888889 9.38666667,2.42846325 9.38666667,1.56444444 C9.38666667,0.700425636 8.68624103,0 7.82222222,0 C6.95820341,0 6.25777778,0.700425636 6.25777778,1.56444444 L6.25777778,1.56444444 Z" id="路径" fill="#000000"></path>
                    <path d="M6.25777778,7.82222222 C6.25777778,8.68624103 6.95820341,9.38666667 7.82222222,9.38666667 C8.68624103,9.38666667 9.38666667,8.68624103 9.38666667,7.82222222 C9.38666667,6.95820341 8.68624103,6.25777778 7.82222222,6.25777778 C6.95820341,6.25777778 6.25777778,6.95820341 6.25777778,7.82222222 L6.25777778,7.82222222 Z" id="路径" fill="#000000"></path>
                    <path d="M6.25777778,14.08 C6.25777778,14.9440188 6.95820341,15.6444444 7.82222222,15.6444444 C8.68624103,15.6444444 9.38666667,14.9440188 9.38666667,14.08 C9.38666667,13.2159812 8.68624103,12.5155556 7.82222222,12.5155556 C6.95820341,12.5155556 6.25777778,13.2159812 6.25777778,14.08 L6.25777778,14.08 Z" id="路径" fill="#000000"></path>
                    <path d="M7.82222222,3.12888889 C8.68266667,3.12888889 9.38666667,2.42488889 9.38666667,1.56444444 C9.38666667,0.704 8.68266667,0 7.82222222,0 C6.96177778,0 6.25777778,0.704 6.25777778,1.56444444 C6.25777778,2.42488889 6.96177778,3.12888889 7.82222222,3.12888889 Z M7.82222222,6.25777778 C6.96177778,6.25777778 6.25777778,6.96177778 6.25777778,7.82222222 C6.25777778,8.68266667 6.96177778,9.38666667 7.82222222,9.38666667 C8.68266667,9.38666667 9.38666667,8.68266667 9.38666667,7.82222222 C9.38666667,6.96177778 8.68266667,6.25777778 7.82222222,6.25777778 Z M7.82222222,12.5155556 C6.96177778,12.5155556 6.25777778,13.2195556 6.25777778,14.08 C6.25777778,14.9404444 6.96177778,15.6444444 7.82222222,15.6444444 C8.68266667,15.6444444 9.38666667,14.9404444 9.38666667,14.08 C9.38666667,13.2195556 8.68266667,12.5155556 7.82222222,12.5155556 Z" id="形状" fill="#B1B2B2"></path>
                </g>
            </g>
        </g>
    </g>
</svg>