<svg width="16" height="4" viewBox="0 0 16 4" fill="none" xmlns="http://www.w3.org/2000/svg">
<g id="&#230;&#155;&#180;&#229;&#164;&#154;">
<path id="&#229;&#189;&#162;&#231;&#138;&#182;" fill-rule="evenodd" clip-rule="evenodd" d="M3.19902 2.0001C3.19902 1.1201 2.47902 0.400098 1.59902 0.400098C0.719023 0.400098 -0.000976671 1.1201 -0.000976632 2.0001C-0.000976594 2.8801 0.719023 3.6001 1.59902 3.6001C2.47902 3.6001 3.19902 2.8801 3.19902 2.0001ZM6.39906 2.0001C6.39906 2.8801 7.11906 3.6001 7.99906 3.6001C8.87906 3.6001 9.59906 2.8801 9.59906 2.0001C9.59906 1.1201 8.87906 0.400097 7.99906 0.400097C7.11906 0.400098 6.39906 1.1201 6.39906 2.0001ZM14.3991 3.6001C13.5191 3.6001 12.7991 2.8801 12.7991 2.0001C12.7991 1.1201 13.5191 0.400097 14.3991 0.400097C15.2791 0.400097 15.9991 1.1201 15.9991 2.0001C15.9991 2.8801 15.2791 3.6001 14.3991 3.6001Z" fill="#B1B2B2"/>
</g>
</svg>
