<svg width="24" height="24" viewBox="0 0 24 24" fill="none" xmlns="http://www.w3.org/2000/svg">
<g id="&#230;&#142;&#146;&#232;&#161;&#140;">
<g id="Vector">
<path d="M17.2541 3.40907L22.2416 9.09344C22.4386 9.31813 22.5448 9.60817 22.5395 9.90695C22.5342 10.2057 22.4177 10.4918 22.2128 10.7093L12.8744 20.6226C12.7621 20.7418 12.6266 20.8367 12.4762 20.9016C12.3259 20.9665 12.1638 21 12.0001 21C11.8363 21 11.6743 20.9665 11.5239 20.9016C11.3736 20.8367 11.2381 20.7418 11.1258 20.6226L1.78737 10.7099C1.58246 10.4924 1.46597 10.2063 1.46064 9.90755C1.45531 9.60877 1.56152 9.31873 1.75854 9.09405L6.7461 3.40907C6.8589 3.28051 6.99784 3.17751 7.15364 3.10696C7.30945 3.03642 7.47852 2.99995 7.64955 3H16.3506C16.5215 3.00004 16.6905 3.03654 16.8462 3.10709C17.0019 3.17763 17.1407 3.28058 17.2534 3.40907H17.2541Z" fill="url(#paint0_linear_311_632)"/>
<path d="M7.64955 3.5H7.6494C7.54955 3.49997 7.45084 3.52126 7.35988 3.56245C7.26892 3.60363 7.18781 3.66376 7.12196 3.73882L7.64955 3.5ZM7.64955 3.5H16.3505C16.3505 3.5 16.3506 3.5 16.3506 3.5C16.4504 3.50003 16.549 3.52135 16.6398 3.56252C16.7307 3.6037 16.8118 3.66381 16.8776 3.73882L17.027 3.90907H17.0276L21.8657 9.42309C21.8657 9.42313 21.8657 9.42317 21.8658 9.42321C21.9807 9.55437 22.0427 9.72365 22.0396 9.89803C22.0365 10.0725 21.9685 10.2395 21.8488 10.3665L22.2128 10.7093L21.8488 10.3665L12.5105 20.2797C12.4449 20.3492 12.3658 20.4047 12.2781 20.4426C12.1903 20.4805 12.0957 20.5 12.0001 20.5C11.9045 20.5 11.8099 20.4805 11.7221 20.4426C11.6343 20.4047 11.5553 20.3493 11.4897 20.2797C11.4897 20.2797 11.4897 20.2797 11.4896 20.2797L2.15131 10.3671C2.03168 10.2401 1.96367 10.0731 1.96056 9.89863C1.95745 9.72424 2.01942 9.55495 2.13439 9.42379C2.13442 9.42376 2.13445 9.42373 2.13448 9.42369L7.12195 3.73882L7.64955 3.5Z" stroke="white" stroke-opacity="0.5"/>
</g>
<path id="3" d="M14.9285 12.09C14.8714 12.4586 14.7372 12.7819 14.5261 13.06C14.315 13.3381 14.0503 13.5711 13.7318 13.7588C13.4145 13.9396 13.0575 14.0752 12.6608 14.1656C12.2641 14.256 11.8511 14.3012 11.4218 14.3012C11.0111 14.3012 10.6209 14.2594 10.2512 14.176C9.89078 14.0926 9.57472 13.9639 9.30299 13.7901C9.04168 13.6093 8.84336 13.3833 8.70806 13.1122C8.57383 12.834 8.53222 12.5003 8.58323 12.1109H10.4032C10.3867 12.2778 10.4061 12.4238 10.4613 12.549C10.5177 12.6672 10.6001 12.768 10.7085 12.8514C10.8179 12.9279 10.9488 12.987 11.101 13.0287C11.2636 13.0635 11.4336 13.0809 11.6109 13.0809C12.0029 13.0809 12.3384 12.994 12.6173 12.8201C12.8973 12.6394 13.0632 12.3821 13.1149 12.0483C13.1634 11.7354 13.0803 11.4886 12.8657 11.3078C12.6521 11.1201 12.3213 11.0262 11.8733 11.0262H11.6073L11.79 9.84764H12.056C12.504 9.84764 12.8395 9.76073 13.0624 9.5869C13.2864 9.40612 13.4189 9.18362 13.4599 8.91939C13.5083 8.6065 13.4236 8.37009 13.2058 8.21017C12.9879 8.05025 12.7156 7.97028 12.3889 7.97028C12.0436 7.97028 11.7419 8.05025 11.4838 8.21017C11.2361 8.36314 11.0808 8.58216 11.0179 8.86725H9.19793C9.25899 8.53349 9.38879 8.23798 9.58733 7.98071C9.79628 7.71649 10.0501 7.49399 10.3488 7.31321C10.6475 7.13243 10.9863 6.99336 11.3654 6.89602C11.7539 6.79867 12.1581 6.75 12.5781 6.75C13.0167 6.75 13.4146 6.80215 13.7718 6.90645C14.129 7.01074 14.4284 7.15676 14.6699 7.3445C14.9115 7.53223 15.0865 7.75821 15.1949 8.02243C15.3043 8.2797 15.3348 8.56478 15.2863 8.87768C15.2238 9.28096 15.0617 9.60428 14.8 9.84764C14.5487 10.0841 14.2495 10.2683 13.9023 10.4004C14.2354 10.5395 14.507 10.7446 14.717 11.0158C14.928 11.28 14.9985 11.6381 14.9285 12.09Z" fill="#3D2706"/>
</g>
<defs>
<linearGradient id="paint0_linear_311_632" x1="12.0001" y1="3" x2="12.0001" y2="21" gradientUnits="userSpaceOnUse">
<stop stop-color="#E3B063"/>
<stop offset="1" stop-color="#725325"/>
</linearGradient>
</defs>
</svg>
