<svg width="24" height="24" viewBox="0 0 24 24" fill="none" xmlns="http://www.w3.org/2000/svg">
<g id="&#230;&#142;&#146;&#232;&#161;&#140;">
<g id="Vector">
<path d="M17.2541 3.40907L22.2416 9.09344C22.4386 9.31813 22.5448 9.60817 22.5395 9.90695C22.5342 10.2057 22.4177 10.4918 22.2128 10.7093L12.8744 20.6226C12.7621 20.7418 12.6266 20.8367 12.4762 20.9016C12.3259 20.9665 12.1638 21 12.0001 21C11.8363 21 11.6743 20.9665 11.5239 20.9016C11.3736 20.8367 11.2381 20.7418 11.1258 20.6226L1.78737 10.7099C1.58246 10.4924 1.46597 10.2063 1.46064 9.90755C1.45531 9.60877 1.56152 9.31873 1.75854 9.09405L6.7461 3.40907C6.8589 3.28051 6.99784 3.17751 7.15364 3.10696C7.30945 3.03642 7.47852 2.99995 7.64955 3H16.3506C16.5215 3.00004 16.6905 3.03654 16.8462 3.10709C17.0019 3.17763 17.1407 3.28058 17.2534 3.40907H17.2541Z" fill="url(#paint0_linear_311_630)"/>
<path d="M7.64955 3.5H7.6494C7.54955 3.49997 7.45084 3.52126 7.35988 3.56245C7.26892 3.60363 7.18781 3.66376 7.12196 3.73882L7.64955 3.5ZM7.64955 3.5H16.3505C16.3505 3.5 16.3506 3.5 16.3506 3.5C16.4504 3.50003 16.549 3.52135 16.6398 3.56252C16.7307 3.6037 16.8118 3.66381 16.8776 3.73882L17.027 3.90907H17.0276L21.8657 9.42309C21.8657 9.42313 21.8657 9.42317 21.8658 9.42321C21.9807 9.55437 22.0427 9.72365 22.0396 9.89803C22.0365 10.0725 21.9685 10.2395 21.8488 10.3665L22.2128 10.7093L21.8488 10.3665L12.5105 20.2797C12.4449 20.3492 12.3658 20.4047 12.2781 20.4426C12.1903 20.4805 12.0957 20.5 12.0001 20.5C11.9045 20.5 11.8099 20.4805 11.7221 20.4426C11.6343 20.4047 11.5553 20.3493 11.4897 20.2797C11.4897 20.2797 11.4897 20.2797 11.4896 20.2797L2.15131 10.3671C2.03168 10.2401 1.96367 10.0731 1.96056 9.89863C1.95745 9.72424 2.01942 9.55495 2.13439 9.42379C2.13442 9.42376 2.13445 9.42373 2.13448 9.42369L7.12195 3.73882L7.64955 3.5Z" stroke="white" stroke-opacity="0.5"/>
</g>
<path id="1" d="M13.3495 14.176L14.5004 6.75H12.6804L10.4467 8.06415L10.2204 9.52432L12.4541 8.21017L11.5295 14.176H13.3495Z" fill="#530000"/>
</g>
<defs>
<linearGradient id="paint0_linear_311_630" x1="12.4583" y1="21" x2="12.4583" y2="3" gradientUnits="userSpaceOnUse">
<stop stop-color="#FF5A5A"/>
<stop offset="1" stop-color="#FF903E"/>
</linearGradient>
</defs>
</svg>
