<svg width="192" height="24" viewBox="0 0 192 24" fill="none" xmlns="http://www.w3.org/2000/svg">
<g id="&#231;&#188;&#150;&#231;&#187;&#132; 26" clip-path="url(#clip0_311_770)">
<g id="&#230;&#142;&#146;&#232;&#161;&#140;" clip-path="url(#clip1_311_770)">
<path id="Union" fill-rule="evenodd" clip-rule="evenodd" d="M10.9322 4.38743C10.9322 4.68819 11.0516 4.97663 11.2643 5.1893C11.477 5.40196 11.7654 5.52144 12.0662 5.52144C12.3669 5.52144 12.6554 5.40196 12.868 5.1893C13.0807 4.97663 13.2002 4.68819 13.2002 4.38743C13.2002 4.08667 13.0807 3.79823 12.868 3.58556C12.6554 3.37289 12.3669 3.25342 12.0662 3.25342C11.7654 3.25342 11.477 3.37289 11.2643 3.58556C11.0516 3.79823 10.9322 4.08667 10.9322 4.38743ZM4.00058 18.5882L1.33355 9.5221L6.38411 12.1876L12.0002 5.52156L17.4497 12.1876L22.6668 9.5221L19.9997 18.5882H4.00058ZM22.3321 9.12019C22.2886 9.015 22.2661 8.90226 22.2661 8.7884C22.2661 8.55846 22.3575 8.33793 22.5201 8.17533C22.6827 8.01274 22.9032 7.92139 23.1331 7.92139C23.3631 7.92139 23.5836 8.01274 23.7462 8.17533C23.9088 8.33793 24.0001 8.55846 24.0001 8.7884C24.0001 8.90226 23.9777 9.015 23.9342 9.12019C23.8906 9.22538 23.8267 9.32096 23.7462 9.40147C23.6657 9.48198 23.5701 9.54584 23.4649 9.58941C23.3597 9.63299 23.247 9.65541 23.1331 9.65541C23.0193 9.65541 22.9065 9.63299 22.8013 9.58941C22.6962 9.54584 22.6006 9.48198 22.5201 9.40147C22.4396 9.32096 22.3757 9.22538 22.3321 9.12019ZM0 8.7884C0 9.01835 0.0913453 9.23887 0.253941 9.40147C0.416537 9.56407 0.637064 9.65541 0.867009 9.65541C1.09695 9.65541 1.31748 9.56407 1.48008 9.40147C1.64267 9.23887 1.73402 9.01835 1.73402 8.7884C1.73402 8.55846 1.64267 8.33793 1.48008 8.17533C1.31748 8.01274 1.09695 7.92139 0.867009 7.92139C0.637064 7.92139 0.416537 8.01274 0.253941 8.17533C0.0913453 8.33793 0 8.55846 0 8.7884ZM20.1003 19.0966H4.05013V20.7466H20.1003V19.0966Z" fill="url(#paint0_linear_311_770)"/>
<path id="1" d="M13.2137 17.1653L14.249 10.4851H12.6118L10.6024 11.6673L10.3989 12.9808L12.4082 11.7986L11.5765 17.1653H13.2137Z" fill="#530000"/>
</g>
<g id="&#230;&#142;&#146;&#232;&#161;&#140;_2" clip-path="url(#clip2_311_770)">
<path id="Union_2" fill-rule="evenodd" clip-rule="evenodd" d="M38.9322 4.38743C38.9322 4.68819 39.0516 4.97663 39.2643 5.1893C39.477 5.40197 39.7654 5.52144 40.0662 5.52144C40.3669 5.52144 40.6554 5.40197 40.868 5.1893C41.0807 4.97663 41.2002 4.68819 41.2002 4.38743C41.2002 4.08667 41.0807 3.79823 40.868 3.58556C40.6554 3.37289 40.3669 3.25342 40.0662 3.25342C39.7654 3.25342 39.477 3.37289 39.2643 3.58556C39.0516 3.79823 38.9322 4.08667 38.9322 4.38743ZM32.0006 18.5882L29.3336 9.5221L34.3841 12.1876L40.0002 5.52156L45.4497 12.1876L50.6668 9.5221L47.9997 18.5882H32.0006ZM50.3321 9.12019C50.2886 9.015 50.2661 8.90226 50.2661 8.7884C50.2661 8.55846 50.3575 8.33793 50.5201 8.17533C50.6827 8.01274 50.9032 7.92139 51.1331 7.92139C51.3631 7.92139 51.5836 8.01274 51.7462 8.17533C51.9088 8.33793 52.0001 8.55846 52.0001 8.7884C52.0001 8.90226 51.9777 9.015 51.9342 9.12019C51.8906 9.22538 51.8267 9.32096 51.7462 9.40147C51.6657 9.48198 51.5701 9.54584 51.4649 9.58941C51.3597 9.63299 51.247 9.65541 51.1331 9.65541C51.0193 9.65541 50.9065 9.63299 50.8013 9.58941C50.6962 9.54584 50.6006 9.48198 50.5201 9.40147C50.4396 9.32096 50.3757 9.22538 50.3321 9.12019ZM28 8.7884C28 9.01835 28.0913 9.23887 28.2539 9.40147C28.4165 9.56407 28.6371 9.65541 28.867 9.65541C29.097 9.65541 29.3175 9.56407 29.4801 9.40147C29.6427 9.23887 29.734 9.01835 29.734 8.7884C29.734 8.55846 29.6427 8.33793 29.4801 8.17533C29.3175 8.01274 29.097 7.92139 28.867 7.92139C28.6371 7.92139 28.4165 8.01274 28.2539 8.17533C28.0913 8.33793 28 8.55846 28 8.7884ZM48.1003 19.0966H32.0501V20.7466H48.1003V19.0966Z" fill="url(#paint1_linear_311_770)"/>
<path id="2" d="M41.6785 17.2241H37.5946L37.713 16.1269L40.5346 13.2294C40.6759 13.0856 40.7781 12.9543 40.8412 12.8355C40.9106 12.7167 40.9537 12.5792 40.9706 12.4229C40.9976 12.1729 40.95 11.9728 40.8279 11.8228C40.7064 11.6665 40.5136 11.5883 40.2496 11.5883C40.149 11.5883 40.0467 11.604 39.9427 11.6352C39.8457 11.6602 39.7526 11.7071 39.6634 11.7759C39.5812 11.8384 39.5089 11.9259 39.4464 12.0385C39.391 12.1447 39.3544 12.2791 39.3369 12.4417H38.1108C38.1438 12.1354 38.2235 11.8634 38.3497 11.6259C38.4829 11.382 38.6498 11.1758 38.8504 11.007C39.0572 10.8382 39.288 10.71 39.5427 10.6225C39.8036 10.535 40.0787 10.4912 40.368 10.4912C40.6635 10.4912 40.932 10.5381 41.1733 10.6319C41.4154 10.7194 41.6154 10.8475 41.7732 11.0163C41.938 11.1789 42.0576 11.382 42.1318 11.6259C42.2068 11.8634 42.2281 12.1322 42.1957 12.4323C42.1782 12.5948 42.1466 12.7418 42.101 12.873C42.0561 12.9981 41.9957 13.12 41.92 13.2387C41.8506 13.3575 41.7624 13.4763 41.6552 13.5951C41.5551 13.7076 41.4413 13.8295 41.3139 13.9608L39.2032 16.1269H41.797L41.6785 17.2241Z" fill="#494949"/>
</g>
<g id="&#230;&#142;&#146;&#232;&#161;&#140;_3" clip-path="url(#clip3_311_770)">
<path id="Union_3" fill-rule="evenodd" clip-rule="evenodd" d="M66.9322 4.38743C66.9322 4.68819 67.0516 4.97663 67.2643 5.1893C67.477 5.40197 67.7654 5.52144 68.0662 5.52144C68.3669 5.52144 68.6554 5.40197 68.868 5.1893C69.0807 4.97663 69.2002 4.68819 69.2002 4.38743C69.2002 4.08667 69.0807 3.79823 68.868 3.58556C68.6554 3.37289 68.3669 3.25342 68.0662 3.25342C67.7654 3.25342 67.477 3.37289 67.2643 3.58556C67.0516 3.79823 66.9322 4.08667 66.9322 4.38743ZM60.0006 18.5882L57.3336 9.5221L62.3841 12.1876L68.0002 5.52156L73.4497 12.1876L78.6668 9.5221L75.9997 18.5882H60.0006ZM78.3321 9.12019C78.2886 9.015 78.2661 8.90226 78.2661 8.7884C78.2661 8.55846 78.3575 8.33793 78.5201 8.17533C78.6827 8.01274 78.9032 7.92139 79.1331 7.92139C79.3631 7.92139 79.5836 8.01274 79.7462 8.17533C79.9088 8.33793 80.0001 8.55846 80.0001 8.7884C80.0001 8.90226 79.9777 9.015 79.9342 9.12019C79.8906 9.22538 79.8267 9.32096 79.7462 9.40147C79.6657 9.48198 79.5701 9.54584 79.4649 9.58941C79.3597 9.63299 79.247 9.65541 79.1331 9.65541C79.0193 9.65541 78.9065 9.63299 78.8013 9.58941C78.6962 9.54584 78.6006 9.48198 78.5201 9.40147C78.4396 9.32096 78.3757 9.22538 78.3321 9.12019ZM56 8.7884C56 9.01835 56.0913 9.23887 56.2539 9.40147C56.4165 9.56407 56.6371 9.65541 56.867 9.65541C57.097 9.65541 57.3175 9.56407 57.4801 9.40147C57.6427 9.23887 57.734 9.01835 57.734 8.7884C57.734 8.55846 57.6427 8.33793 57.4801 8.17533C57.3175 8.01274 57.097 7.92139 56.867 7.92139C56.6371 7.92139 56.4165 8.01274 56.2539 8.17533C56.0913 8.33793 56 8.55846 56 8.7884ZM76.1003 19.0966H60.0501V20.7466H76.1003V19.0966Z" fill="url(#paint2_linear_311_770)"/>
<path id="3" d="M70.6721 15.313C70.6199 15.6493 70.4976 15.9443 70.305 16.198C70.1124 16.4518 69.8708 16.6643 69.5802 16.8356C69.2907 17.0006 68.9649 17.1243 68.603 17.2068C68.2411 17.2892 67.8642 17.3305 67.4725 17.3305C67.0978 17.3305 66.7418 17.2924 66.4044 17.2163C66.0756 17.1401 65.7872 17.0228 65.5393 16.8642C65.3009 16.6992 65.1199 16.493 64.9965 16.2456C64.874 15.9918 64.836 15.6873 64.8826 15.3321H66.5432C66.5281 15.4843 66.5458 15.6175 66.5962 15.7317C66.6476 15.8396 66.7228 15.9316 66.8217 16.0077C66.9216 16.0775 67.0409 16.1314 67.1798 16.1695C67.3282 16.2012 67.4833 16.2171 67.6451 16.2171C68.0027 16.2171 68.3088 16.1378 68.5633 15.9792C68.8188 15.8142 68.9702 15.5795 69.0174 15.275C69.0616 14.9895 68.9858 14.7642 68.7899 14.5993C68.5951 14.428 68.2933 14.3424 67.8845 14.3424H67.6418L67.8085 13.267H68.0512C68.4599 13.267 68.766 13.1877 68.9694 13.0291C69.1738 12.8642 69.2947 12.6611 69.3321 12.4201C69.3763 12.1346 69.299 11.9189 69.1002 11.773C68.9014 11.627 68.653 11.5541 68.355 11.5541C68.0399 11.5541 67.7646 11.627 67.5291 11.773C67.303 11.9125 67.1614 12.1124 67.104 12.3725H65.4434C65.4991 12.068 65.6176 11.7983 65.7987 11.5636C65.9894 11.3225 66.2209 11.1195 66.4935 10.9546C66.766 10.7896 67.0752 10.6627 67.4211 10.5739C67.7755 10.4851 68.1443 10.4407 68.5275 10.4407C68.9278 10.4407 69.2908 10.4883 69.6167 10.5834C69.9426 10.6786 70.2157 10.8118 70.4362 10.9831C70.6566 11.1544 70.8162 11.3606 70.9151 11.6017C71.015 11.8364 71.0428 12.0965 70.9986 12.382C70.9415 12.75 70.7936 13.045 70.5548 13.267C70.3255 13.4827 70.0525 13.6508 69.7358 13.7714C70.0397 13.8983 70.2875 14.0854 70.4791 14.3328C70.6716 14.5739 70.736 14.9006 70.6721 15.313Z" fill="#3D2706"/>
</g>
<g id="Frame 7">
<path id="4" d="M99.2006 15.4918L98.2907 15.4799L98.0236 16.8684L96.2737 16.8455L96.5408 15.457L92.4672 15.4037L92.7925 13.7127L97.499 7.04841L99.4868 7.07443L94.7804 13.7387L96.8662 13.766L97.218 11.9375L98.9678 11.9604L98.616 13.7889L99.5259 13.8008L99.2006 15.4918Z" fill="#868D99"/>
</g>
<g id="Frame 2">
<path id="..." d="M120.782 12.8238L118.697 12.7965L119.088 10.7618L121.174 10.7891L120.782 12.8238ZM124.774 12.8761L122.688 12.8488L123.08 10.8141L125.166 10.8414L124.774 12.8761ZM128.766 12.9283L126.68 12.901L127.072 10.8663L129.158 10.8936L128.766 12.9283Z" fill="#868D99"/>
</g>
<g id="Frame 3">
<path id="9" d="M156.179 10.0308C156.092 10.4799 155.925 10.9141 155.675 11.3335C155.436 11.753 155.161 12.1859 154.85 12.6321L151.922 16.8387L149.948 16.8129L152.797 12.7981C152.667 12.8424 152.535 12.8728 152.401 12.8894C152.276 12.9062 152.153 12.9137 152.032 12.9122C151.696 12.9078 151.381 12.8393 151.089 12.7069C150.798 12.5652 150.555 12.3691 150.36 12.1185C150.165 11.8678 150.027 11.5628 149.947 11.2034C149.866 10.844 149.87 10.4352 149.958 9.9769C150.05 9.50031 150.211 9.07516 150.442 8.70147C150.675 8.3186 150.956 8.00069 151.285 7.74773C151.616 7.4856 151.982 7.28824 152.381 7.15565C152.79 7.02318 153.214 6.95981 153.653 6.96556C154.091 6.9713 154.484 7.04535 154.831 7.18772C155.189 7.32104 155.483 7.51785 155.714 7.77814C155.945 8.03843 156.103 8.3575 156.189 8.73536C156.276 9.11321 156.272 9.54501 156.179 10.0308ZM154.356 10.0207C154.444 9.56243 154.391 9.20798 154.196 8.95735C154.001 8.70671 153.717 8.57895 153.343 8.57406C152.97 8.56917 152.638 8.68887 152.348 8.93316C152.058 9.17744 151.869 9.52872 151.78 9.98698C151.696 10.4269 151.745 10.7767 151.929 11.0364C152.113 11.2961 152.401 11.4285 152.793 11.4336C153.167 11.4385 153.498 11.3188 153.789 11.0745C154.079 10.8302 154.268 10.479 154.356 10.0207Z" fill="#868D99"/>
</g>
<g id="Frame 4">
<path id="10" d="M177.423 16.8061L175.603 16.7823L177.116 8.91853L174.753 10.6242L175.123 8.69948L177.486 6.99382L179.306 7.01765L177.423 16.8061ZM187.108 14.0937C187.019 14.5612 186.854 14.9771 186.616 15.3415C186.388 15.6969 186.111 15.9964 185.783 16.2402C185.465 16.4842 185.107 16.6678 184.709 16.7913C184.32 16.9148 183.925 16.974 183.524 16.9687C183.113 16.9633 182.738 16.8941 182.399 16.761C182.06 16.6279 181.774 16.4358 181.542 16.1847C181.309 15.9336 181.144 15.6282 181.044 15.2686C180.956 14.8999 180.957 14.4818 181.047 14.0144L181.84 9.89002C181.93 9.42259 182.089 9.01119 182.317 8.65583C182.555 8.29142 182.838 7.98731 183.166 7.74351C183.493 7.49972 183.851 7.31604 184.24 7.1925C184.629 7.06895 185.028 7.00986 185.439 7.01523C185.84 7.02049 186.211 7.08965 186.55 7.22273C186.898 7.35593 187.184 7.54804 187.407 7.79904C187.64 8.05017 187.8 8.36007 187.888 8.72876C187.987 9.08841 187.992 9.50194 187.902 9.96937L187.108 14.0937ZM185.291 14.0562L186.077 9.97304C186.156 9.56061 186.107 9.23377 185.929 8.99254C185.751 8.75132 185.484 8.62838 185.13 8.62374C184.775 8.6191 184.458 8.7344 184.179 8.96964C183.909 9.205 183.734 9.5289 183.655 9.94134L182.87 14.0245C182.79 14.4369 182.84 14.7637 183.018 15.005C183.207 15.2371 183.479 15.3556 183.833 15.3602C184.188 15.3648 184.499 15.2541 184.768 15.0279C185.037 14.7925 185.212 14.4686 185.291 14.0562Z" fill="#868D99"/>
</g>
</g>
<defs>
<linearGradient id="paint0_linear_311_770" x1="12.5218" y1="20.7466" x2="12.5218" y2="3.25341" gradientUnits="userSpaceOnUse">
<stop stop-color="#FF903E"/>
<stop offset="1" stop-color="#FFE55A"/>
</linearGradient>
<linearGradient id="paint1_linear_311_770" x1="40.5218" y1="20.7466" x2="40.5218" y2="3.25342" gradientUnits="userSpaceOnUse">
<stop stop-color="#737373"/>
<stop offset="1" stop-color="#C1C2C3"/>
</linearGradient>
<linearGradient id="paint2_linear_311_770" x1="68.0001" y1="3.25342" x2="68.0001" y2="20.7466" gradientUnits="userSpaceOnUse">
<stop stop-color="#E3B063"/>
<stop offset="1" stop-color="#725325"/>
</linearGradient>
<clipPath id="clip0_311_770">
<rect width="192" height="24" fill="white"/>
</clipPath>
<clipPath id="clip1_311_770">
<rect width="24" height="24" fill="white"/>
</clipPath>
<clipPath id="clip2_311_770">
<rect width="24" height="24" fill="white" transform="translate(28)"/>
</clipPath>
<clipPath id="clip3_311_770">
<rect width="24" height="24" fill="white" transform="translate(56)"/>
</clipPath>
</defs>
</svg>
