<svg width="24" height="24" viewBox="0 0 24 24" fill="none" xmlns="http://www.w3.org/2000/svg">
<g id="&#230;&#142;&#146;&#232;&#161;&#140;">
<g id="TOP1">
<path d="M6.11409 9.26701H4.30059V15H2.94534V9.26701H1.13184V8.05801H6.11409V9.26701Z" fill="url(#paint0_linear_311_330)"/>
<path d="M11.9227 11.529C11.9227 11.828 11.9195 12.1075 11.913 12.3675C11.9065 12.6275 11.8805 12.8713 11.835 13.0988C11.796 13.3263 11.7277 13.5408 11.6302 13.7423C11.5392 13.9373 11.406 14.1225 11.2305 14.298C10.9835 14.545 10.7072 14.7335 10.4017 14.8635C10.1027 14.9935 9.75497 15.0585 9.35847 15.0585C8.96197 15.0585 8.61097 14.9935 8.30547 14.8635C7.99997 14.7335 7.72372 14.545 7.47672 14.298C7.30122 14.1225 7.16473 13.9373 7.06723 13.7423C6.97623 13.5408 6.91122 13.3263 6.87222 13.0988C6.83322 12.8713 6.81047 12.6275 6.80397 12.3675C6.79747 12.1075 6.79422 11.828 6.79422 11.529C6.79422 11.23 6.79747 10.9505 6.80397 10.6905C6.81047 10.4305 6.83322 10.1868 6.87222 9.95926C6.91122 9.73176 6.97623 9.52051 7.06723 9.32551C7.16473 9.12401 7.30122 8.93551 7.47672 8.76001C7.72372 8.51301 7.99997 8.32451 8.30547 8.19451C8.61097 8.06451 8.96197 7.99951 9.35847 7.99951C9.75497 7.99951 10.1027 8.06451 10.4017 8.19451C10.7072 8.32451 10.9835 8.51301 11.2305 8.76001C11.406 8.93551 11.5392 9.12401 11.6302 9.32551C11.7277 9.52051 11.796 9.73176 11.835 9.95926C11.8805 10.1868 11.9065 10.4305 11.913 10.6905C11.9195 10.9505 11.9227 11.23 11.9227 11.529ZM10.5675 11.529C10.5675 11.1975 10.561 10.9245 10.548 10.71C10.5415 10.489 10.5252 10.307 10.4992 10.164C10.4732 10.021 10.4375 9.90726 10.392 9.82276C10.3465 9.73176 10.2912 9.65051 10.2262 9.57901C10.1287 9.46851 10.0052 9.38076 9.85572 9.31576C9.71272 9.24426 9.54697 9.20851 9.35847 9.20851C9.16997 9.20851 9.00097 9.24426 8.85147 9.31576C8.70197 9.38076 8.57847 9.46851 8.48097 9.57901C8.41597 9.65051 8.36072 9.73176 8.31522 9.82276C8.27622 9.90726 8.24372 10.021 8.21772 10.164C8.19172 10.307 8.17222 10.489 8.15922 10.71C8.15272 10.9245 8.14947 11.1975 8.14947 11.529C8.14947 11.8605 8.15272 12.1368 8.15922 12.3578C8.17222 12.5723 8.19172 12.751 8.21772 12.894C8.24372 13.037 8.27622 13.154 8.31522 13.245C8.36072 13.3295 8.41597 13.4075 8.48097 13.479C8.57847 13.5895 8.70197 13.6805 8.85147 13.752C9.00097 13.817 9.16997 13.8495 9.35847 13.8495C9.54697 13.8495 9.71272 13.817 9.85572 13.752C10.0052 13.6805 10.1287 13.5895 10.2262 13.479C10.2912 13.4075 10.3465 13.3295 10.392 13.245C10.4375 13.154 10.4732 13.037 10.4992 12.894C10.5252 12.751 10.5415 12.5723 10.548 12.3578C10.561 12.1368 10.5675 11.8605 10.5675 11.529Z" fill="url(#paint1_linear_311_330)"/>
<path d="M18.2851 10.2225C18.2851 10.515 18.2331 10.7945 18.1291 11.061C18.0251 11.321 17.8724 11.5518 17.6709 11.7533C17.4759 11.9483 17.2354 12.1043 16.9494 12.2213C16.6699 12.3318 16.3514 12.387 15.9939 12.387H14.6581V15H13.3029V8.05801H15.9939C16.3514 8.05801 16.6699 8.11651 16.9494 8.23351C17.2354 8.34401 17.4759 8.50001 17.6709 8.70151C17.8724 8.89651 18.0251 9.12726 18.1291 9.39376C18.2331 9.65376 18.2851 9.93001 18.2851 10.2225ZM16.9299 10.2225C16.9299 9.93651 16.8389 9.70576 16.6569 9.53026C16.4814 9.35476 16.2376 9.26701 15.9256 9.26701H14.6581V11.1683H15.9256C16.2376 11.1683 16.4814 11.0838 16.6569 10.9148C16.8389 10.7393 16.9299 10.5085 16.9299 10.2225Z" fill="url(#paint2_linear_311_330)"/>
<path d="M22.3014 15H21.0339V9.42301L19.6202 10.6515V9.28651L21.0339 8.05801H22.3014V15Z" fill="url(#paint3_linear_311_330)"/>
</g>
</g>
<defs>
<linearGradient id="paint0_linear_311_330" x1="12.1769" y1="15.0585" x2="12.1769" y2="7.99951" gradientUnits="userSpaceOnUse">
<stop stop-color="#FF5A5A"/>
<stop offset="1" stop-color="#FF903E"/>
</linearGradient>
<linearGradient id="paint1_linear_311_330" x1="12.1769" y1="15.0585" x2="12.1769" y2="7.99951" gradientUnits="userSpaceOnUse">
<stop stop-color="#FF5A5A"/>
<stop offset="1" stop-color="#FF903E"/>
</linearGradient>
<linearGradient id="paint2_linear_311_330" x1="12.1769" y1="15.0585" x2="12.1769" y2="7.99951" gradientUnits="userSpaceOnUse">
<stop stop-color="#FF5A5A"/>
<stop offset="1" stop-color="#FF903E"/>
</linearGradient>
<linearGradient id="paint3_linear_311_330" x1="12.1769" y1="15.0585" x2="12.1769" y2="7.99951" gradientUnits="userSpaceOnUse">
<stop stop-color="#FF5A5A"/>
<stop offset="1" stop-color="#FF903E"/>
</linearGradient>
</defs>
</svg>
