<svg width="24" height="24" viewBox="0 0 24 24" fill="none" xmlns="http://www.w3.org/2000/svg">
<g id="&#230;&#142;&#146;&#232;&#161;&#140;">
<path id="Union" fill-rule="evenodd" clip-rule="evenodd" d="M18.558 13.669C17.5647 15.9969 15.3683 17.6883 12.7503 17.9623V19.8767H16.1258V21.0019H7.87417V19.8767H11.625V17.9916C8.8425 17.8473 6.48203 16.1071 5.43762 13.6687C3.70594 13.4891 2.34214 12.0689 2.25105 10.3122L2.24805 7.5014C2.24761 7.30408 2.28612 7.10862 2.36138 6.92622C2.43664 6.74382 2.54716 6.57807 2.68662 6.43847C2.82607 6.29888 2.99171 6.18819 3.17403 6.11275C3.35636 6.03731 3.55178 5.9986 3.7491 5.99885H4.8717H4.87362V4.50234C4.87362 3.67343 5.54463 2.99829 6.37204 2.99829H17.628C17.8252 2.99839 18.0204 3.03741 18.2024 3.11312C18.3844 3.18884 18.5497 3.29975 18.6887 3.43949C18.8278 3.57923 18.9378 3.74506 19.0126 3.92745C19.0874 4.10984 19.1255 4.30521 19.1246 4.50234L19.1229 5.99885H20.2494C20.4467 5.99865 20.6421 6.03739 20.8244 6.11286C21.0066 6.18832 21.1722 6.29902 21.3117 6.43861C21.4511 6.5782 21.5616 6.74393 21.6368 6.92631C21.712 7.10868 21.7505 7.30411 21.7501 7.5014L21.7471 10.3122C21.6559 12.0698 20.2912 13.4905 18.558 13.669ZM4.8717 7.12407H3.7491C3.69965 7.12382 3.65063 7.13339 3.6049 7.15221C3.55916 7.17103 3.51762 7.19874 3.48266 7.23373C3.44771 7.26872 3.42005 7.31029 3.40127 7.35604C3.38249 7.4018 3.37298 7.45082 3.37328 7.50027L3.37628 10.2796C3.40512 10.7337 3.56047 11.1706 3.82475 11.541C4.08902 11.9114 4.45168 12.2005 4.8717 12.3755V7.12407ZM20.6249 7.50027L20.6219 10.2796C20.593 10.7337 20.4377 11.1706 20.1734 11.541C19.9091 11.9114 19.5464 12.2005 19.1264 12.3755V7.12407H20.2494C20.2988 7.12387 20.3478 7.13347 20.3935 7.15232C20.4392 7.17116 20.4807 7.19888 20.5156 7.23386C20.5505 7.26884 20.5781 7.3104 20.5969 7.35613C20.6157 7.40186 20.6252 7.45085 20.6249 7.50027Z" fill="url(#paint0_linear_311_841)"/>
<path id="1" d="M13.3875 14.226V6.75H12.0225L10.5 8.073V9.543L12.0225 8.22V14.226H13.3875Z" fill="#8A4200"/>
</g>
<defs>
<linearGradient id="paint0_linear_311_841" x1="12.423" y1="21.0019" x2="12.423" y2="2.99829" gradientUnits="userSpaceOnUse">
<stop stop-color="#FF903E"/>
<stop offset="1" stop-color="#FFE55A"/>
</linearGradient>
</defs>
</svg>
