<svg width="24" height="24" viewBox="0 0 24 24" fill="none" xmlns="http://www.w3.org/2000/svg">
<g id="icon_paiming">
<path id="Vector" d="M8.50488 20.9978C10.349 20.9978 12.5265 20.9989 14.9142 20.9989C24.8548 15.8107 17.387 8.04706 16.0867 7.17264C16.5198 8.04708 16.6027 9.52715 15.7262 10.2464C14.2439 5.06249 10.5803 4 10.5803 4C11.0133 6.67324 9.00934 9.59723 7.07676 11.7817C7.00881 10.716 6.93624 9.97975 6.32929 8.95975C6.19338 10.8967 4.58903 12.4756 4.15366 14.4157C3.56512 17.0432 4.59478 18.9674 8.50372 21L8.50488 20.9978Z" fill="url(#paint0_linear_311_687)"/>
<path id="4" d="M14.1963 16.7004C14.1535 17.0689 14.0529 17.3922 13.8946 17.6704C13.7363 17.9485 13.5377 18.1814 13.2989 18.3692C13.0609 18.5499 12.7931 18.6855 12.4956 18.7759C12.1981 18.8663 11.8883 18.9115 11.5663 18.9115C11.2583 18.9115 10.9657 18.8698 10.6884 18.7864C10.4181 18.7029 10.181 18.5743 9.97724 18.4005C9.78126 18.2197 9.63252 17.9937 9.53104 17.7225C9.43037 17.4444 9.39916 17.1106 9.43742 16.7213H10.8024C10.79 16.8881 10.8046 17.0342 10.846 17.1593C10.8883 17.2775 10.95 17.3783 11.0314 17.4618C11.1135 17.5383 11.2116 17.5974 11.3257 17.6391C11.4477 17.6738 11.5752 17.6912 11.7082 17.6912C12.0022 17.6912 12.2538 17.6043 12.463 17.4305C12.673 17.2497 12.7974 16.9924 12.8362 16.6587C12.8726 16.3458 12.8103 16.0989 12.6493 15.9182C12.4891 15.7304 12.241 15.6366 11.905 15.6366H11.7055L11.8425 14.458H12.042C12.378 14.458 12.6296 14.3711 12.7968 14.1973C12.9648 14.0165 13.0642 13.794 13.0949 13.5297C13.1313 13.2169 13.0677 12.9804 12.9043 12.8205C12.7409 12.6606 12.5367 12.5806 12.2917 12.5806C12.0327 12.5806 11.8064 12.6606 11.6128 12.8205C11.427 12.9735 11.3106 13.1925 11.2634 13.4776H9.89845C9.94424 13.1438 10.0416 12.8483 10.1905 12.5911C10.3472 12.3268 10.5376 12.1043 10.7616 11.9236C10.9856 11.7428 11.2398 11.6037 11.5241 11.5064C11.8154 11.409 12.1185 11.3604 12.4335 11.3604C12.7625 11.3604 13.061 11.4125 13.3289 11.5168C13.5967 11.6211 13.8213 11.7671 14.0024 11.9548C14.1836 12.1426 14.3149 12.3686 14.3961 12.6328C14.4782 12.8901 14.5011 13.1751 14.4647 13.488C14.4179 13.8913 14.2963 14.2146 14.1 14.458C13.9115 14.6944 13.6871 14.8787 13.4267 15.0108C13.6766 15.1498 13.8802 15.355 14.0377 15.6261C14.196 15.8904 14.2489 16.2484 14.1963 16.7004Z" fill="#3D2706"/>
</g>
<defs>
<linearGradient id="paint0_linear_311_687" x1="12" y1="4" x2="12" y2="21" gradientUnits="userSpaceOnUse">
<stop stop-color="#E3B063"/>
<stop offset="1" stop-color="#725325"/>
</linearGradient>
</defs>
</svg>
