<svg width="192" height="24" viewBox="0 0 192 24" fill="none" xmlns="http://www.w3.org/2000/svg">
<g id="&#231;&#188;&#150;&#231;&#187;&#132; 22" clip-path="url(#clip0_311_679)">
<g id="icon_paiming">
<path id="Vector" d="M8.50488 20.9979C10.349 20.9979 12.5265 20.9989 14.9142 20.9989C24.8548 15.8107 17.387 8.04706 16.0867 7.17264C16.5198 8.04708 16.6027 9.52715 15.7262 10.2464C14.2439 5.06249 10.5803 4 10.5803 4C11.0133 6.67324 9.00934 9.59723 7.07676 11.7817C7.00881 10.716 6.93624 9.97975 6.32929 8.95975C6.19338 10.8967 4.58903 12.4756 4.15366 14.4157C3.56512 17.0432 4.59478 18.9674 8.50372 21L8.50488 20.9979Z" fill="url(#paint0_linear_311_679)"/>
<path id="2" d="M13.0121 19.9053L13.8753 12.4792H12.5103L10.835 13.7934L10.6653 15.2536L12.3406 13.9394L11.6471 19.9053H13.0121Z" fill="#530000"/>
</g>
<g id="icon_paiming_2">
<path id="Vector_2" d="M36.5049 20.9979C38.349 20.9979 40.5265 20.9989 42.9142 20.9989C52.8548 15.8107 45.387 8.04706 44.0867 7.17264C44.5198 8.04708 44.6027 9.52715 43.7262 10.2464C42.2439 5.06249 38.5803 4 38.5803 4C39.0133 6.67324 37.0093 9.59723 35.0768 11.7817C35.0088 10.716 34.9362 9.97975 34.3293 8.95975C34.1934 10.8967 32.589 12.4756 32.1537 14.4157C31.5651 17.0432 32.5948 18.9674 36.5037 21L36.5049 20.9979Z" fill="url(#paint1_linear_311_679)"/>
<path id="3" d="M41.8689 19.9054H37.3224L37.4542 18.684L40.5953 15.4582C40.7526 15.2981 40.8664 15.152 40.9367 15.0198C41.0139 14.8875 41.062 14.7344 41.0807 14.5604C41.1108 14.282 41.0578 14.0593 40.9219 13.8923C40.7866 13.7183 40.572 13.6313 40.278 13.6313C40.166 13.6313 40.0521 13.6487 39.9364 13.6835C39.8284 13.7114 39.7248 13.7636 39.6255 13.8401C39.534 13.9097 39.4535 14.0071 39.3839 14.1324C39.3222 14.2507 39.2815 14.4004 39.262 14.5813H37.897C37.9338 14.2403 38.0225 13.9375 38.163 13.6731C38.3113 13.4017 38.4971 13.172 38.7204 12.9841C38.9507 12.7962 39.2076 12.6535 39.4911 12.5561C39.7816 12.4586 40.0878 12.4099 40.4098 12.4099C40.7388 12.4099 41.0377 12.4621 41.3064 12.5665C41.5759 12.6639 41.7985 12.8066 41.9743 12.9945C42.1577 13.1755 42.2908 13.4017 42.3735 13.6731C42.457 13.9375 42.4807 14.2368 42.4446 14.5709C42.4251 14.7518 42.3899 14.9154 42.3392 15.0615C42.2891 15.2007 42.222 15.3364 42.1377 15.4686C42.0605 15.6009 41.9622 15.7331 41.8429 15.8653C41.7314 15.9906 41.6047 16.1263 41.463 16.2725L39.1132 18.684H42.0007L41.8689 19.9054Z" fill="#653D00"/>
</g>
<g id="icon_paiming_3">
<path id="Vector_3" d="M64.5049 20.9979C66.349 20.9979 68.5265 20.9989 70.9142 20.9989C80.8548 15.8107 73.387 8.04706 72.0867 7.17264C72.5198 8.04708 72.6027 9.52715 71.7262 10.2464C70.2439 5.06249 66.5803 4 66.5803 4C67.0133 6.67324 65.0093 9.59723 63.0768 11.7817C63.0088 10.716 62.9362 9.97975 62.3293 8.95975C62.1934 10.8967 60.589 12.4756 60.1537 14.4157C59.5651 17.0432 60.5948 18.9674 64.5037 21L64.5049 20.9979Z" fill="url(#paint2_linear_311_679)"/>
<path id="4" d="M70.1963 16.7004C70.1535 17.0689 70.0529 17.3922 69.8946 17.6704C69.7363 17.9485 69.5377 18.1814 69.2989 18.3692C69.0609 18.5499 68.7931 18.6855 68.4956 18.7759C68.1981 18.8663 67.8883 18.9115 67.5663 18.9115C67.2583 18.9115 66.9657 18.8698 66.6884 18.7864C66.4181 18.7029 66.181 18.5743 65.9772 18.4005C65.7813 18.2197 65.6325 17.9937 65.531 17.7225C65.4304 17.4444 65.3992 17.1106 65.4374 16.7213H66.8024C66.79 16.8881 66.8046 17.0342 66.846 17.1593C66.8883 17.2775 66.95 17.3783 67.0314 17.4618C67.1135 17.5383 67.2116 17.5974 67.3257 17.6391C67.4477 17.6738 67.5752 17.6912 67.7082 17.6912C68.0022 17.6912 68.2538 17.6043 68.463 17.4305C68.673 17.2497 68.7974 16.9924 68.8362 16.6587C68.8726 16.3458 68.8103 16.0989 68.6493 15.9182C68.4891 15.7304 68.241 15.6366 67.905 15.6366H67.7055L67.8425 14.458H68.042C68.378 14.458 68.6296 14.3711 68.7968 14.1973C68.9648 14.0165 69.0642 13.794 69.0949 13.5297C69.1313 13.2169 69.0677 12.9804 68.9043 12.8205C68.7409 12.6606 68.5367 12.5806 68.2917 12.5806C68.0327 12.5806 67.8064 12.6606 67.6128 12.8205C67.427 12.9735 67.3106 13.1925 67.2634 13.4776H65.8984C65.9442 13.1438 66.0416 12.8483 66.1905 12.5911C66.3472 12.3268 66.5376 12.1043 66.7616 11.9236C66.9856 11.7428 67.2398 11.6037 67.5241 11.5064C67.8154 11.409 68.1185 11.3604 68.4335 11.3604C68.7625 11.3604 69.061 11.4125 69.3289 11.5168C69.5967 11.6211 69.8213 11.7671 70.0024 11.9548C70.1836 12.1426 70.3149 12.3686 70.3961 12.6328C70.4782 12.8901 70.5011 13.1751 70.4647 13.488C70.4179 13.8913 70.2963 14.2146 70.1 14.458C69.9115 14.6944 69.6871 14.8787 69.4267 15.0108C69.6766 15.1498 69.8802 15.355 70.0377 15.6261C70.196 15.8904 70.2489 16.2484 70.1963 16.7004Z" fill="#3D2706"/>
</g>
<g id="Frame 1">
<path id="4_2" d="M99.2006 15.4918L98.2907 15.4799L98.0236 16.8684L96.2737 16.8455L96.5408 15.457L92.4672 15.4037L92.7925 13.7127L97.499 7.04841L99.4868 7.07443L94.7804 13.7387L96.8662 13.766L97.218 11.9375L98.9678 11.9604L98.616 13.7889L99.5259 13.8008L99.2006 15.4918Z" fill="#868D99"/>
</g>
<g id="Frame 2">
<path id="..." d="M120.782 12.8238L118.697 12.7965L119.088 10.7618L121.174 10.7891L120.782 12.8238ZM124.774 12.8761L122.688 12.8488L123.08 10.8141L125.166 10.8414L124.774 12.8761ZM128.766 12.9283L126.68 12.901L127.072 10.8663L129.158 10.8936L128.766 12.9283Z" fill="#868D99"/>
</g>
<g id="Frame 3">
<path id="9" d="M156.179 10.0308C156.092 10.4799 155.925 10.9141 155.675 11.3335C155.436 11.753 155.161 12.1859 154.85 12.6321L151.922 16.8387L149.948 16.8129L152.797 12.7981C152.667 12.8424 152.535 12.8728 152.401 12.8894C152.276 12.9062 152.153 12.9137 152.032 12.9122C151.696 12.9078 151.381 12.8393 151.089 12.7069C150.798 12.5652 150.555 12.3691 150.36 12.1185C150.165 11.8678 150.027 11.5628 149.947 11.2034C149.866 10.844 149.87 10.4352 149.958 9.9769C150.05 9.50031 150.211 9.07516 150.442 8.70147C150.675 8.3186 150.956 8.00069 151.285 7.74773C151.616 7.4856 151.982 7.28824 152.381 7.15565C152.79 7.02318 153.214 6.95981 153.653 6.96556C154.091 6.9713 154.484 7.04535 154.831 7.18772C155.189 7.32104 155.483 7.51785 155.714 7.77814C155.945 8.03843 156.103 8.3575 156.189 8.73536C156.276 9.11321 156.272 9.54501 156.179 10.0308ZM154.356 10.0207C154.444 9.56243 154.391 9.20798 154.196 8.95735C154.001 8.70671 153.717 8.57895 153.343 8.57406C152.97 8.56917 152.638 8.68887 152.348 8.93316C152.058 9.17744 151.869 9.52872 151.78 9.98698C151.696 10.4269 151.745 10.7767 151.929 11.0364C152.113 11.2961 152.401 11.4285 152.793 11.4336C153.167 11.4385 153.498 11.3188 153.789 11.0745C154.079 10.8302 154.268 10.479 154.356 10.0207Z" fill="#868D99"/>
</g>
<g id="Frame 4">
<path id="10" d="M177.423 16.8061L175.603 16.7823L177.116 8.91853L174.753 10.6242L175.123 8.69948L177.486 6.99382L179.306 7.01765L177.423 16.8061ZM187.108 14.0937C187.019 14.5612 186.854 14.9771 186.616 15.3415C186.388 15.6969 186.111 15.9964 185.783 16.2402C185.465 16.4842 185.107 16.6678 184.709 16.7913C184.32 16.9148 183.925 16.974 183.524 16.9687C183.113 16.9633 182.738 16.8941 182.399 16.761C182.06 16.6279 181.774 16.4358 181.542 16.1847C181.309 15.9336 181.144 15.6282 181.044 15.2686C180.956 14.8999 180.957 14.4818 181.047 14.0144L181.84 9.89002C181.93 9.42259 182.089 9.01119 182.317 8.65583C182.555 8.29142 182.838 7.98731 183.166 7.74351C183.493 7.49972 183.851 7.31604 184.24 7.1925C184.629 7.06895 185.028 7.00986 185.439 7.01523C185.84 7.02049 186.211 7.08965 186.55 7.22273C186.898 7.35593 187.184 7.54804 187.407 7.79904C187.64 8.05017 187.8 8.36007 187.888 8.72876C187.987 9.08841 187.992 9.50194 187.902 9.96937L187.108 14.0937ZM185.291 14.0562L186.077 9.97304C186.156 9.56061 186.107 9.23377 185.929 8.99254C185.751 8.75132 185.484 8.62838 185.13 8.62374C184.775 8.6191 184.458 8.7344 184.179 8.96964C183.909 9.205 183.734 9.5289 183.655 9.94134L182.87 14.0245C182.79 14.4369 182.84 14.7637 183.018 15.005C183.207 15.2371 183.479 15.3556 183.833 15.3602C184.188 15.3648 184.499 15.2541 184.768 15.0279C185.037 14.7925 185.212 14.4686 185.291 14.0562Z" fill="#868D99"/>
</g>
</g>
<defs>
<linearGradient id="paint0_linear_311_679" x1="12.3478" y1="21" x2="12.3478" y2="4" gradientUnits="userSpaceOnUse">
<stop stop-color="#FF5A5A"/>
<stop offset="1" stop-color="#FF903E"/>
</linearGradient>
<linearGradient id="paint1_linear_311_679" x1="40.3478" y1="21" x2="40.3478" y2="4" gradientUnits="userSpaceOnUse">
<stop stop-color="#FF903E"/>
<stop offset="1" stop-color="#FBE947"/>
</linearGradient>
<linearGradient id="paint2_linear_311_679" x1="68" y1="4" x2="68" y2="21" gradientUnits="userSpaceOnUse">
<stop stop-color="#E3B063"/>
<stop offset="1" stop-color="#725325"/>
</linearGradient>
<clipPath id="clip0_311_679">
<rect width="192" height="24" fill="white"/>
</clipPath>
</defs>
</svg>
