<svg width="24" height="24" viewBox="0 0 24 24" fill="none" xmlns="http://www.w3.org/2000/svg">
<g id="&#230;&#142;&#146;&#232;&#161;&#140;" clip-path="url(#clip0_311_771)">
<path id="Union" fill-rule="evenodd" clip-rule="evenodd" d="M10.9322 4.38743C10.9322 4.68819 11.0516 4.97663 11.2643 5.1893C11.477 5.40197 11.7654 5.52144 12.0662 5.52144C12.3669 5.52144 12.6554 5.40197 12.868 5.1893C13.0807 4.97663 13.2002 4.68819 13.2002 4.38743C13.2002 4.08667 13.0807 3.79823 12.868 3.58556C12.6554 3.37289 12.3669 3.25342 12.0662 3.25342C11.7654 3.25342 11.477 3.37289 11.2643 3.58556C11.0516 3.79823 10.9322 4.08667 10.9322 4.38743ZM4.00058 18.5882L1.33355 9.5221L6.38411 12.1876L12.0002 5.52156L17.4497 12.1876L22.6668 9.5221L19.9997 18.5882H4.00058ZM22.3321 9.12019C22.2886 9.015 22.2661 8.90226 22.2661 8.7884C22.2661 8.55846 22.3575 8.33793 22.5201 8.17533C22.6827 8.01274 22.9032 7.92139 23.1331 7.92139C23.3631 7.92139 23.5836 8.01274 23.7462 8.17533C23.9088 8.33793 24.0001 8.55846 24.0001 8.7884C24.0001 8.90226 23.9777 9.015 23.9342 9.12019C23.8906 9.22538 23.8267 9.32096 23.7462 9.40147C23.6657 9.48198 23.5701 9.54584 23.4649 9.58941C23.3597 9.63299 23.247 9.65541 23.1331 9.65541C23.0193 9.65541 22.9065 9.63299 22.8013 9.58941C22.6962 9.54584 22.6006 9.48198 22.5201 9.40147C22.4396 9.32096 22.3757 9.22538 22.3321 9.12019ZM0 8.7884C0 9.01835 0.0913453 9.23887 0.253941 9.40147C0.416537 9.56407 0.637064 9.65541 0.867009 9.65541C1.09695 9.65541 1.31748 9.56407 1.48008 9.40147C1.64267 9.23887 1.73402 9.01835 1.73402 8.7884C1.73402 8.55846 1.64267 8.33793 1.48008 8.17533C1.31748 8.01274 1.09695 7.92139 0.867009 7.92139C0.637064 7.92139 0.416537 8.01274 0.253941 8.17533C0.0913453 8.33793 0 8.55846 0 8.7884ZM20.1003 19.0966H4.05013V20.7466H20.1003V19.0966Z" fill="url(#paint0_linear_311_771)"/>
<path id="1" d="M13.2137 17.1653L14.249 10.4851H12.6118L10.6024 11.6673L10.3989 12.9808L12.4082 11.7986L11.5765 17.1653H13.2137Z" fill="#530000"/>
</g>
<defs>
<linearGradient id="paint0_linear_311_771" x1="12.5218" y1="20.7466" x2="12.5218" y2="3.25341" gradientUnits="userSpaceOnUse">
<stop stop-color="#FF903E"/>
<stop offset="1" stop-color="#FFE55A"/>
</linearGradient>
<clipPath id="clip0_311_771">
<rect width="24" height="24" fill="white"/>
</clipPath>
</defs>
</svg>
