<svg width="192" height="24" viewBox="0 0 192 24" fill="none" xmlns="http://www.w3.org/2000/svg">
<g id="&#231;&#188;&#150;&#231;&#187;&#132; 7" clip-path="url(#clip0_311_168)">
<g id="Frame 1">
<path id="1" d="M13.0576 16.8558L11.2378 16.832L12.7507 8.96817L10.3876 10.6738L10.7579 8.74912L13.121 7.04346L14.9408 7.06728L13.0576 16.8558Z" fill="url(#paint0_linear_311_168)"/>
</g>
<g id="Frame 5">
<path id="2" d="M42.6535 16.8767L36.592 16.7973L36.9015 15.1888L41.4425 10.9895C41.6697 10.7811 41.8373 10.5903 41.9455 10.4172C42.063 10.2441 42.1438 10.0431 42.1879 9.81393C42.2584 9.44732 42.2122 9.15269 42.0492 8.93003C41.8879 8.69821 41.6113 8.57974 41.2194 8.57461C41.0701 8.57265 40.9163 8.59361 40.7582 8.63748C40.6111 8.67231 40.4673 8.73934 40.3265 8.83857C40.1969 8.92876 40.0789 9.05585 39.9725 9.21985C39.8772 9.3748 39.8066 9.57143 39.7608 9.80972L37.9409 9.7859C38.0273 9.3368 38.1787 8.93909 38.395 8.59277C38.6225 8.2374 38.8953 7.93775 39.2135 7.69383C39.5411 7.45004 39.8993 7.26636 40.2879 7.14282C40.6859 7.01939 41.0995 6.96049 41.5288 6.9661C41.9675 6.97185 42.3602 7.0459 42.7071 7.18827C43.0557 7.32147 43.3368 7.51351 43.5505 7.76439C43.7753 8.00623 43.928 8.30685 44.0086 8.66625C44.0909 9.01648 44.0897 9.41157 44.0051 9.8515C43.9592 10.0898 43.8945 10.3049 43.8108 10.4967C43.7288 10.6794 43.6245 10.8572 43.4976 11.0302C43.3801 11.2032 43.2346 11.3759 43.0612 11.5482C42.8988 11.7114 42.7151 11.8882 42.51 12.0785L39.1133 15.2178L42.963 15.2682L42.6535 16.8767Z" fill="url(#paint1_linear_311_168)"/>
</g>
<g id="Frame 6">
<path id="3" d="M71.2404 14.0452C71.1469 14.5309 70.9809 14.956 70.7424 15.3204C70.5039 15.6848 70.2162 15.9889 69.8793 16.2325C69.5441 16.467 69.1737 16.6414 68.7682 16.7555C68.3626 16.8697 67.9452 16.9239 67.5159 16.9183C67.1053 16.9129 66.7192 16.8527 66.3577 16.7377C66.0056 16.6229 65.7023 16.4489 65.4477 16.2159C65.2042 15.9738 65.0282 15.6729 64.9197 15.3131C64.8129 14.9442 64.8042 14.503 64.8936 13.9896L66.7135 14.0135C66.6805 14.2335 66.6854 14.4266 66.7284 14.5925C66.773 14.7493 66.8455 14.8835 66.9456 14.9951C67.0476 15.0975 67.1726 15.1772 67.3206 15.2343C67.4798 15.2823 67.648 15.3075 67.8254 15.3098C68.2173 15.3149 68.5613 15.2046 68.8574 14.9787C69.1552 14.7437 69.3465 14.4063 69.4311 13.9663C69.5104 13.5539 69.4517 13.2269 69.2549 12.9855C69.0599 12.7348 68.7384 12.6066 68.2904 12.6007L68.0244 12.5972L68.3233 11.0437L68.5893 11.0472C69.0373 11.0531 69.3813 10.9427 69.6213 10.7162C69.8632 10.4804 70.0176 10.1884 70.0846 9.84014C70.1639 9.42771 70.1026 9.1145 69.9005 8.90052C69.6984 8.68654 69.434 8.57742 69.1074 8.57314C68.7621 8.56862 68.4525 8.67023 68.1786 8.87798C67.9159 9.07668 67.739 9.3638 67.648 9.73933L65.8282 9.71551C65.9222 9.2757 66.0811 8.88728 66.305 8.55024C66.54 8.20416 66.8157 7.91374 67.1322 7.67899C67.4487 7.44423 67.8013 7.26508 68.1899 7.14153C68.5879 7.01811 68.9969 6.95914 69.4168 6.96464C69.8555 6.97038 70.2482 7.04443 70.5951 7.1868C70.9419 7.32917 71.2269 7.52585 71.4499 7.77686C71.6729 8.02786 71.8256 8.32848 71.9079 8.67872C71.992 9.01978 71.9944 9.39654 71.915 9.80897C71.8127 10.3406 71.6188 10.7653 71.3331 11.0831C71.0585 11.3919 70.7411 11.6313 70.381 11.8011C70.7003 11.9891 70.9516 12.2634 71.1348 12.6242C71.3198 12.9758 71.355 13.4494 71.2404 14.0452Z" fill="url(#paint2_linear_311_168)"/>
</g>
<g id="Frame 7">
<path id="4" d="M99.2006 15.4918L98.2907 15.4799L98.0236 16.8684L96.2737 16.8455L96.5408 15.457L92.4672 15.4037L92.7925 13.7127L97.499 7.04841L99.4868 7.07443L94.7804 13.7387L96.8662 13.766L97.218 11.9375L98.9678 11.9604L98.616 13.7889L99.5259 13.8008L99.2006 15.4918Z" fill="#868D99"/>
</g>
<g id="Frame 2">
<path id="..." d="M120.782 12.8238L118.697 12.7965L119.088 10.7618L121.174 10.7891L120.782 12.8238ZM124.774 12.8761L122.688 12.8488L123.08 10.8141L125.166 10.8414L124.774 12.8761ZM128.766 12.9283L126.68 12.901L127.072 10.8663L129.158 10.8936L128.766 12.9283Z" fill="#868D99"/>
</g>
<g id="Frame 3">
<path id="9" d="M156.179 10.0308C156.092 10.4799 155.925 10.9141 155.675 11.3335C155.436 11.753 155.161 12.1859 154.85 12.6321L151.922 16.8387L149.948 16.8129L152.797 12.7981C152.667 12.8424 152.535 12.8728 152.401 12.8894C152.276 12.9062 152.153 12.9137 152.032 12.9122C151.696 12.9078 151.381 12.8393 151.089 12.7069C150.798 12.5652 150.555 12.3691 150.36 12.1185C150.165 11.8678 150.027 11.5628 149.947 11.2034C149.866 10.844 149.87 10.4352 149.958 9.9769C150.05 9.50031 150.211 9.07516 150.442 8.70147C150.675 8.3186 150.956 8.00069 151.285 7.74773C151.616 7.4856 151.982 7.28824 152.381 7.15565C152.79 7.02318 153.214 6.95981 153.653 6.96556C154.091 6.9713 154.484 7.04535 154.831 7.18772C155.189 7.32104 155.483 7.51785 155.714 7.77814C155.945 8.03843 156.103 8.3575 156.189 8.73536C156.276 9.11321 156.272 9.54501 156.179 10.0308ZM154.356 10.0207C154.444 9.56243 154.391 9.20798 154.196 8.95735C154.001 8.70671 153.717 8.57895 153.343 8.57406C152.97 8.56917 152.638 8.68887 152.348 8.93316C152.058 9.17744 151.869 9.52872 151.78 9.98698C151.696 10.4269 151.745 10.7767 151.929 11.0364C152.113 11.2961 152.401 11.4285 152.793 11.4336C153.167 11.4385 153.498 11.3188 153.789 11.0745C154.079 10.8302 154.268 10.479 154.356 10.0207Z" fill="#868D99"/>
</g>
<g id="Frame 4">
<path id="10" d="M177.423 16.8061L175.603 16.7823L177.116 8.91853L174.753 10.6242L175.123 8.69948L177.486 6.99382L179.306 7.01765L177.423 16.8061ZM187.108 14.0937C187.019 14.5612 186.854 14.9771 186.616 15.3415C186.388 15.6969 186.111 15.9964 185.783 16.2402C185.465 16.4842 185.107 16.6678 184.709 16.7913C184.32 16.9148 183.925 16.974 183.524 16.9687C183.113 16.9633 182.738 16.8941 182.399 16.761C182.06 16.6279 181.774 16.4358 181.542 16.1847C181.309 15.9336 181.144 15.6282 181.044 15.2686C180.956 14.8999 180.957 14.4818 181.047 14.0144L181.84 9.89002C181.93 9.42259 182.089 9.01119 182.317 8.65583C182.555 8.29142 182.838 7.98731 183.166 7.74351C183.493 7.49972 183.851 7.31604 184.24 7.1925C184.629 7.06895 185.028 7.00986 185.439 7.01523C185.84 7.02049 186.211 7.08965 186.55 7.22273C186.898 7.35593 187.184 7.54804 187.407 7.79904C187.64 8.05017 187.8 8.36007 187.888 8.72876C187.987 9.08841 187.992 9.50194 187.902 9.96937L187.108 14.0937ZM185.291 14.0562L186.077 9.97304C186.156 9.56061 186.107 9.23377 185.929 8.99254C185.751 8.75132 185.484 8.62838 185.13 8.62374C184.775 8.6191 184.458 8.7344 184.179 8.96964C183.909 9.205 183.734 9.5289 183.655 9.94134L182.87 14.0245C182.79 14.4369 182.84 14.7637 183.018 15.005C183.207 15.2371 183.479 15.3556 183.833 15.3602C184.188 15.3648 184.499 15.2541 184.768 15.0279C185.037 14.7925 185.212 14.4686 185.291 14.0562Z" fill="#868D99"/>
</g>
</g>
<defs>
<linearGradient id="paint0_linear_311_168" x1="11.1737" y1="19.7845" x2="11.367" y2="5.02007" gradientUnits="userSpaceOnUse">
<stop stop-color="#FF5A5A"/>
<stop offset="1" stop-color="#FF903E"/>
</linearGradient>
<linearGradient id="paint1_linear_311_168" x1="39.1737" y1="19.7845" x2="39.367" y2="5.02007" gradientUnits="userSpaceOnUse">
<stop stop-color="#FF903E"/>
<stop offset="1" stop-color="#FBE947"/>
</linearGradient>
<linearGradient id="paint2_linear_311_168" x1="69.8336" y1="5.05236" x2="69.6404" y2="19.8168" gradientUnits="userSpaceOnUse">
<stop stop-color="#E3B063"/>
<stop offset="1" stop-color="#725325"/>
</linearGradient>
<clipPath id="clip0_311_168">
<rect width="192" height="24" fill="white"/>
</clipPath>
</defs>
</svg>
