<svg width="24" height="24" viewBox="0 0 24 24" fill="none" xmlns="http://www.w3.org/2000/svg">
<g id="&#230;&#142;&#146;&#232;&#161;&#140;" clip-path="url(#clip0_311_773)">
<path id="Union" fill-rule="evenodd" clip-rule="evenodd" d="M10.9322 4.38743C10.9322 4.68819 11.0516 4.97663 11.2643 5.1893C11.477 5.40197 11.7654 5.52144 12.0662 5.52144C12.3669 5.52144 12.6554 5.40197 12.868 5.1893C13.0807 4.97663 13.2002 4.68819 13.2002 4.38743C13.2002 4.08667 13.0807 3.79823 12.868 3.58556C12.6554 3.37289 12.3669 3.25342 12.0662 3.25342C11.7654 3.25342 11.477 3.37289 11.2643 3.58556C11.0516 3.79823 10.9322 4.08667 10.9322 4.38743ZM4.00058 18.5882L1.33355 9.5221L6.38411 12.1876L12.0002 5.52156L17.4497 12.1876L22.6668 9.5221L19.9997 18.5882H4.00058ZM22.3321 9.12019C22.2886 9.015 22.2661 8.90226 22.2661 8.7884C22.2661 8.55846 22.3575 8.33793 22.5201 8.17533C22.6827 8.01274 22.9032 7.92139 23.1331 7.92139C23.3631 7.92139 23.5836 8.01274 23.7462 8.17533C23.9088 8.33793 24.0001 8.55846 24.0001 8.7884C24.0001 8.90226 23.9777 9.015 23.9342 9.12019C23.8906 9.22538 23.8267 9.32096 23.7462 9.40147C23.6657 9.48198 23.5701 9.54584 23.4649 9.58941C23.3597 9.63299 23.247 9.65541 23.1331 9.65541C23.0193 9.65541 22.9065 9.63299 22.8013 9.58941C22.6962 9.54584 22.6006 9.48198 22.5201 9.40147C22.4396 9.32096 22.3757 9.22538 22.3321 9.12019ZM0 8.7884C0 9.01835 0.0913453 9.23887 0.253941 9.40147C0.416537 9.56407 0.637064 9.65541 0.867009 9.65541C1.09695 9.65541 1.31748 9.56407 1.48008 9.40147C1.64267 9.23887 1.73402 9.01835 1.73402 8.7884C1.73402 8.55846 1.64267 8.33793 1.48008 8.17533C1.31748 8.01274 1.09695 7.92139 0.867009 7.92139C0.637064 7.92139 0.416537 8.01274 0.253941 8.17533C0.0913453 8.33793 0 8.55846 0 8.7884ZM20.1003 19.0966H4.05013V20.7466H20.1003V19.0966Z" fill="url(#paint0_linear_311_773)"/>
<path id="3" d="M14.6721 15.313C14.6199 15.6493 14.4976 15.9443 14.305 16.198C14.1124 16.4518 13.8708 16.6643 13.5802 16.8356C13.2907 17.0006 12.9649 17.1243 12.603 17.2068C12.2411 17.2892 11.8642 17.3305 11.4725 17.3305C11.0978 17.3305 10.7418 17.2924 10.4044 17.2163C10.0756 17.1401 9.78721 17.0228 9.53928 16.8642C9.30085 16.6992 9.11991 16.493 8.99645 16.2456C8.87398 15.9918 8.83602 15.6873 8.88256 15.3321H10.5432C10.5281 15.4843 10.5458 15.6175 10.5962 15.7317C10.6476 15.8396 10.7228 15.9316 10.8217 16.0077C10.9216 16.0775 11.0409 16.1314 11.1798 16.1695C11.3282 16.2012 11.4833 16.2171 11.6451 16.2171C12.0027 16.2171 12.3088 16.1378 12.5633 15.9792C12.8188 15.8142 12.9702 15.5795 13.0174 15.275C13.0616 14.9895 12.9858 14.7642 12.7899 14.5993C12.5951 14.428 12.2933 14.3424 11.8845 14.3424H11.6418L11.8085 13.267H12.0512C12.4599 13.267 12.766 13.1877 12.9694 13.0291C13.1738 12.8642 13.2947 12.6611 13.3321 12.4201C13.3763 12.1346 13.299 11.9189 13.1002 11.773C12.9014 11.627 12.653 11.5541 12.355 11.5541C12.0399 11.5541 11.7646 11.627 11.5291 11.773C11.303 11.9125 11.1614 12.1124 11.104 12.3725H9.44342C9.49914 12.068 9.61757 11.7983 9.79871 11.5636C9.98936 11.3225 10.2209 11.1195 10.4935 10.9546C10.766 10.7896 11.0752 10.6627 11.4211 10.5739C11.7755 10.4851 12.1443 10.4407 12.5275 10.4407C12.9278 10.4407 13.2908 10.4883 13.6167 10.5834C13.9426 10.6786 14.2157 10.8118 14.4362 10.9831C14.6566 11.1544 14.8162 11.3606 14.9151 11.6017C15.015 11.8364 15.0428 12.0965 14.9986 12.382C14.9415 12.75 14.7936 13.045 14.5548 13.267C14.3255 13.4827 14.0525 13.6508 13.7358 13.7714C14.0397 13.8983 14.2875 14.0854 14.4791 14.3328C14.6716 14.5739 14.736 14.9006 14.6721 15.313Z" fill="#3D2706"/>
</g>
<defs>
<linearGradient id="paint0_linear_311_773" x1="12.0001" y1="3.25342" x2="12.0001" y2="20.7466" gradientUnits="userSpaceOnUse">
<stop stop-color="#E3B063"/>
<stop offset="1" stop-color="#725325"/>
</linearGradient>
<clipPath id="clip0_311_773">
<rect width="24" height="24" fill="white"/>
</clipPath>
</defs>
</svg>
