<svg width="24" height="24" viewBox="0 0 24 24" fill="none" xmlns="http://www.w3.org/2000/svg">
<g id="&#230;&#142;&#146;&#232;&#161;&#140;">
<path id="Vector" d="M18.3973 14.2095C19.2036 16.1314 19.9799 18.0657 20.726 20.0117C20.5617 20.1666 20.5215 20.2564 20.4404 20.2879C20.4018 20.3024 20.359 20.3011 20.3214 20.2842L16.6602 18.6479L15.0392 21.5626C15.0048 21.6242 14.9533 21.6747 14.8909 21.7077C14.8284 21.7407 14.7577 21.7549 14.6874 21.7485C14.617 21.7422 14.55 21.7156 14.4945 21.6719C14.439 21.6283 14.3973 21.5695 14.3745 21.5027L12.9091 17.1884C15.2613 17.336 17.0897 16.3432 18.3973 14.2095ZM5.55973 14.1627C6.83077 16.3352 8.65771 17.3433 11.0406 17.1884L9.5752 21.5027C9.5524 21.5695 9.51071 21.6283 9.45517 21.6719C9.39963 21.7156 9.33263 21.7422 9.26229 21.7485C9.19194 21.7549 9.12126 21.7407 9.05882 21.7077C8.99637 21.6747 8.94484 21.6242 8.91046 21.5626L7.28878 18.6479L3.63417 20.282C3.59441 20.2997 3.54925 20.3011 3.50853 20.2857C3.42306 20.2535 3.37996 20.1586 3.2251 20.0022C3.86354 18.3097 4.64151 16.363 5.55973 14.1627ZM11.8324 2.25C15.5995 2.25 18.6544 5.34945 18.6544 9.17207C18.6544 12.9954 15.5995 16.0941 11.8317 16.0941C8.06456 16.0941 5.0104 12.9954 5.0104 9.17207C5.0104 5.34945 8.06456 2.25 11.8324 2.25Z" fill="url(#paint0_linear_311_482)"/>
<path id="1" d="M13.2 12.726V5.25H11.835L10.3125 6.573V8.043L11.835 6.72V12.726H13.2Z" fill="#530000"/>
</g>
<defs>
<linearGradient id="paint0_linear_311_482" x1="12.356" y1="21.75" x2="12.356" y2="2.25" gradientUnits="userSpaceOnUse">
<stop stop-color="#FF5A5A"/>
<stop offset="1" stop-color="#FF903E"/>
</linearGradient>
</defs>
</svg>
