<svg width="24" height="24" viewBox="0 0 24 24" fill="none" xmlns="http://www.w3.org/2000/svg">
<g id="&#230;&#142;&#146;&#232;&#161;&#140;">
<path id="Vector" d="M18.3968 14.2095C19.2031 16.1314 19.9794 18.0657 20.7256 20.0117C20.5612 20.1666 20.521 20.2564 20.4399 20.2879C20.4013 20.3024 20.3585 20.3011 20.3209 20.2842L16.6597 18.6479L15.0387 21.5626C15.0044 21.6242 14.9528 21.6747 14.8904 21.7077C14.8279 21.7407 14.7573 21.7549 14.6869 21.7485C14.6166 21.7422 14.5496 21.7156 14.494 21.6719C14.4385 21.6283 14.3968 21.5695 14.374 21.5027L12.9086 17.1884C15.2608 17.336 17.0892 16.3432 18.3968 14.2095ZM5.55924 14.1627C6.83028 16.3352 8.65722 17.3433 11.0401 17.1884L9.57471 21.5027C9.55191 21.5695 9.51022 21.6283 9.45468 21.6719C9.39914 21.7156 9.33214 21.7422 9.2618 21.7485C9.19145 21.7549 9.12078 21.7407 9.05833 21.7077C8.99589 21.6747 8.94435 21.6242 8.90997 21.5626L7.28829 18.6479L3.63368 20.282C3.59392 20.2997 3.54876 20.3011 3.50804 20.2857C3.42257 20.2535 3.37947 20.1586 3.22461 20.0022C3.86305 18.3097 4.64102 16.363 5.55924 14.1627ZM11.8319 2.25C15.599 2.25 18.6539 5.34945 18.6539 9.17207C18.6539 12.9954 15.599 16.0941 11.8312 16.0941C8.06407 16.0941 5.00991 12.9954 5.00991 9.17207C5.00991 5.34945 8.06407 2.25 11.8319 2.25Z" fill="url(#paint0_linear_311_483)"/>
<path id="2" d="M14.3155 12.789H9.76904V11.5605L12.562 8.316C12.702 8.155 12.8 8.008 12.856 7.875C12.919 7.742 12.9505 7.588 12.9505 7.413C12.9505 7.133 12.8735 6.909 12.7195 6.741C12.5655 6.566 12.3415 6.4785 12.0475 6.4785C11.9355 6.4785 11.8235 6.496 11.7115 6.531C11.6065 6.559 11.5085 6.6115 11.4175 6.6885C11.3335 6.7585 11.2635 6.8565 11.2075 6.9825C11.1585 7.1015 11.134 7.252 11.134 7.434H9.76904C9.76904 7.091 9.82504 6.7865 9.93704 6.5205C10.056 6.2475 10.217 6.0165 10.42 5.8275C10.63 5.6385 10.8715 5.495 11.1445 5.397C11.4245 5.299 11.7255 5.25 12.0475 5.25C12.3765 5.25 12.681 5.3025 12.961 5.4075C13.241 5.5055 13.479 5.649 13.675 5.838C13.878 6.02 14.0355 6.2475 14.1475 6.5205C14.2595 6.7865 14.3155 7.0875 14.3155 7.4235C14.3155 7.6055 14.298 7.77 14.263 7.917C14.228 8.057 14.1755 8.1935 14.1055 8.3265C14.0425 8.4595 13.9585 8.5925 13.8535 8.7255C13.7555 8.8515 13.6435 8.988 13.5175 9.135L11.428 11.5605H14.3155V12.789Z" fill="#653D00"/>
</g>
<defs>
<linearGradient id="paint0_linear_311_483" x1="12.3555" y1="21.75" x2="12.3555" y2="2.25" gradientUnits="userSpaceOnUse">
<stop stop-color="#FF903E"/>
<stop offset="1" stop-color="#FFD338"/>
</linearGradient>
</defs>
</svg>
