<svg width="24" height="24" viewBox="0 0 24 24" fill="none" xmlns="http://www.w3.org/2000/svg">
<g id="icon_paiming">
<path id="Vector" d="M8.50488 20.9978C10.349 20.9978 12.5265 20.9989 14.9142 20.9989C24.8548 15.8107 17.387 8.04706 16.0867 7.17264C16.5198 8.04708 16.6027 9.52715 15.7262 10.2464C14.2439 5.06249 10.5803 4 10.5803 4C11.0133 6.67324 9.00934 9.59723 7.07676 11.7817C7.00881 10.716 6.93624 9.97975 6.32929 8.95975C6.19338 10.8967 4.58903 12.4756 4.15366 14.4157C3.56512 17.0432 4.59478 18.9674 8.50372 21L8.50488 20.9978Z" fill="url(#paint0_linear_311_680)"/>
<path id="2" d="M13.0121 19.9053L13.8753 12.4792H12.5103L10.835 13.7934L10.6653 15.2536L12.3406 13.9394L11.6471 19.9053H13.0121Z" fill="#530000"/>
</g>
<defs>
<linearGradient id="paint0_linear_311_680" x1="12.3478" y1="21" x2="12.3478" y2="4" gradientUnits="userSpaceOnUse">
<stop stop-color="#FF5A5A"/>
<stop offset="1" stop-color="#FF903E"/>
</linearGradient>
</defs>
</svg>
