<?xml version="1.0" encoding="UTF-8"?>
<svg width="16px" height="15px" viewBox="0 0 16 15" version="1.1" xmlns="http://www.w3.org/2000/svg" xmlns:xlink="http://www.w3.org/1999/xlink">
    <!-- Generator: Sketch 63 (92445) - https://sketch.com -->
    <title>撤销_32</title>
    <desc>Created with Sketch.</desc>
    <g id="页面-1" stroke="none" stroke-width="1" fill="none" fill-rule="evenodd">
        <g id="新建报告-默认看板-展开" transform="translate(-397.000000, -17.000000)" fill-rule="nonzero">
            <g id="撤销_32" transform="translate(404.875000, 25.000000) scale(-1, 1) translate(-404.875000, -25.000000) translate(395.875000, 16.000000)">
                <rect id="矩形" fill="#E0E0E0" opacity="0" x="0" y="0" width="17.915904" height="17.915904"></rect>
                <path d="M11.477376,5.0948352 L2.9673216,5.0948352 L5.3747712,2.7433728 C5.59872,2.519424 5.59872,2.1835008 5.3747712,1.959552 C5.1508224,1.7356032 4.8148992,1.7356032 4.5909504,1.959552 L1.5676416,4.9268736 C1.119744,5.3747712 1.119744,6.2145792 1.5676416,6.6624768 L4.5349632,9.6297984 C4.6469376,9.7417728 4.8148992,9.79776 4.9268736,9.79776 C5.038848,9.79776 5.2068096,9.7417728 5.318784,9.6297984 C5.5427328,9.4058496 5.5427328,9.0699264 5.318784,8.8459776 L2.9673216,6.4945152 L11.19744,6.4945152 C13.4929152,6.4945152 15.3404928,7.2223488 15.3404928,10.357632 C15.3404928,13.4929152 13.4929152,14.2207488 11.19744,14.2207488 L5.038848,14.2207488 C4.758912,14.2207488 4.478976,14.556672 4.478976,14.9485824 C4.478976,15.3404928 4.7029248,15.676416 5.038848,15.676416 L11.477376,15.676416 C14.4446976,15.676416 16.79616,14.3327232 16.79616,10.357632 C16.79616,6.438528 14.3887104,5.0948352 11.477376,5.0948352 Z" id="路径" fill="#6F757E"></path>
            </g>
        </g>
    </g>
</svg>