<?xml version="1.0" encoding="UTF-8"?>
<svg width="32px" height="25px" viewBox="0 0 32 25" version="1.1" xmlns="http://www.w3.org/2000/svg" xmlns:xlink="http://www.w3.org/1999/xlink">
    <!-- Generator: Sketch 63 (92445) - https://sketch.com -->
    <title>散点图</title>
    <desc>Created with Sketch.</desc>
    <g id="页面-1" stroke="none" stroke-width="1" fill="none" fill-rule="evenodd">
        <g id="新建报告-默认看板-展开" transform="translate(-81.000000, -166.000000)" fill-rule="nonzero">
            <g id="图表" transform="translate(57.000000, 80.000000)">
                <g id="散点图" transform="translate(24.000000, 80.000000)">
                    <rect id="矩形" fill="#000000" opacity="0" x="1" y="0" width="30" height="30"></rect>
                    <g transform="translate(0.000000, 6.000000)" id="路径">
                        <path d="M0.934720379,15.8662707 C0.934720379,18.7381514 3.26283968,21.0662707 6.13472038,21.0662707 C9.00660108,21.0662707 11.3347204,18.7381514 11.3347204,15.8662707 C11.3347204,12.99439 9.00660108,10.6662707 6.13472038,10.6662707 C3.26283968,10.6662707 0.934720379,12.99439 0.934720379,15.8662707 L0.934720379,15.8662707 Z" fill="#3BA0FD"></path>
                        <path d="M15.3157326,5.10550367 C15.3157326,6.54144402 16.4797923,7.70550367 17.9157326,7.70550367 C19.351673,7.70550367 20.5157326,6.54144402 20.5157326,5.10550367 C20.5157326,3.66956332 19.351673,2.50550367 17.9157326,2.50550367 C16.4797923,2.50550367 15.3157326,3.66956332 15.3157326,5.10550367 L15.3157326,5.10550367 Z" fill="#3BA0FD"></path>
                        <path d="M23,16.25 C23,17.4111132 23.6194464,18.484026 24.625,19.0645826 C25.6305535,19.6451391 26.8694465,19.6451391 27.875,19.0645826 C28.8805536,18.484026 29.5,17.4111132 29.5,16.25 C29.5,15.0888868 28.8805536,14.015974 27.875,13.4354174 C26.8694465,12.8548609 25.6305535,12.8548609 24.625,13.4354174 C23.6194464,14.015974 23,15.0888868 23,16.25 Z" fill="#3BA0FD" opacity="0.27515811"></path>
                        <path d="M23,8.3 C23,9.01797017 23.5820298,9.6 24.3,9.6 C25.0179702,9.6 25.6,9.01797017 25.6,8.3 C25.6,7.58202983 25.0179702,7 24.3,7 C23.5820298,7 23,7.58202983 23,8.3 Z" fill="#3BA0FD"></path>
                        <path d="M8.8011703,2.77776935 C8.8011703,3.85472461 9.67421504,4.72776935 10.7511703,4.72776935 C11.8281256,4.72776935 12.7011703,3.85472461 12.7011703,2.77776935 C12.7011703,1.70081408 11.8281256,0.827769347 10.7511703,0.827769347 C9.67421504,0.827769347 8.8011703,1.70081408 8.8011703,2.77776935 Z" fill="#3BA0FD" opacity="0.519787016"></path>
                        <path d="M19.9873471,11.1136556 C19.9873471,11.6488384 20.4130693,12.0826897 20.9382241,12.0826897 C21.463379,12.0826897 21.8891011,11.6488384 21.8891011,11.1136556 C21.8891011,10.5784729 21.463379,10.1446215 20.9382241,10.1446215 C20.4130693,10.1446215 19.9873471,10.5784729 19.9873471,11.1136556 Z" fill="#3BA0FD"></path>
                        <path d="M11.1954157,11.0685082 C11.1954157,11.5853742 11.6065638,12.0043769 12.1137407,12.0043769 C12.6209176,12.0043769 13.0320657,11.5853742 13.0320657,11.0685082 C13.0320657,10.5516422 12.6209176,10.1326395 12.1137407,10.1326395 C11.6065638,10.1326395 11.1954157,10.5516422 11.1954157,11.0685082 Z" fill="#FF9E43"></path>
                        <path d="M7.86055783,7.02831083 C7.86055783,7.74628101 8.44258766,8.32831083 9.16055783,8.32831083 C9.87852801,8.32831083 10.4605578,7.74628101 10.4605578,7.02831083 C10.4605578,6.31034066 9.87852801,5.72831083 9.16055783,5.72831083 C8.44258766,5.72831083 7.86055783,6.31034066 7.86055783,7.02831083 Z" fill="#FF9E43"></path>
                        <path d="M15.6058785,16.1220285 C15.6058785,16.9504556 16.2774514,17.6220285 17.1058785,17.6220285 C17.9343056,17.6220285 18.6058785,16.9504556 18.6058785,16.1220285 C18.6058785,15.2936014 17.9343056,14.6220285 17.1058785,14.6220285 C16.2774514,14.6220285 15.6058785,15.2936014 15.6058785,16.1220285 Z" fill="#FF9E43" opacity="0.409923735"></path>
                    </g>
                    <polygon id="路径" fill="#255F93" points="0 30 32 30 32 31 5.22457894e-16 31"></polygon>
                </g>
            </g>
        </g>
    </g>
</svg>