<?xml version="1.0" encoding="UTF-8"?>
<svg width="22px" height="20px" viewBox="0 0 22 20" version="1.1" xmlns="http://www.w3.org/2000/svg" xmlns:xlink="http://www.w3.org/1999/xlink">
    <!-- Generator: Sketch 63 (92445) - https://sketch.com -->
    <title>形状</title>
    <desc>Created with Sketch.</desc>
    <g id="页面-1" stroke="none" stroke-width="1" fill="none" fill-rule="evenodd">
        <g id="新建报告-默认看板-展开" transform="translate(-17.000000, -435.000000)" fill-rule="nonzero">
            <g id="形状" transform="translate(16.000000, 433.000000)">
                <rect id="矩形" fill="#000000" opacity="0" x="0" y="0" width="24.48" height="24.48"></rect>
                <path d="M16.543125,16.198875 L2.86875,16.198875 C2.658375,16.198875 2.467125,16.084125 2.3715,15.912 C2.275875,15.739875 2.275875,15.510375 2.3715,15.33825 L9.199125,3.499875 C9.29475,3.32775 9.486,3.213 9.696375,3.213 C9.90675,3.213 10.098,3.32775 10.193625,3.499875 L17.040375,15.33825 C17.136,15.510375 17.136,15.739875 17.040375,15.912 C16.94475,16.084125 16.7535,16.198875 16.543125,16.198875 Z" id="路径" stroke="#B1B5BC"></path>
                <path d="M15.8355,21.247875 C12.335625,21.247875 9.486,18.39825 9.486,14.898375 C9.466875,13.215375 10.13625,11.628 11.322,10.423125 C12.526875,9.21825 14.133375,8.548875 15.8355,8.548875 C19.335375,8.548875 22.185,11.3985 22.185,14.898375 C22.185,18.39825 19.335375,21.247875 15.8355,21.247875 Z" id="路径" stroke="#B1B5BC"></path>
            </g>
        </g>
    </g>
</svg>