<?xml version="1.0" encoding="UTF-8"?>
<svg width="19px" height="19px" viewBox="0 0 19 19" version="1.1" xmlns="http://www.w3.org/2000/svg" xmlns:xlink="http://www.w3.org/1999/xlink">
    <!-- Generator: Sketch 63 (92445) - https://sketch.com -->
    <title>ic_show_all</title>
    <desc>Created with Sketch.</desc>
    <g id="页面-1" stroke="none" stroke-width="1" fill="none" fill-rule="evenodd">
        <g id="图表设计-常规(未发布模型)" transform="translate(-862.000000, -66.000000)" fill-rule="nonzero">
            <g id="编组-8" transform="translate(0.000000, 50.000000)">
                <g id="编组-6" transform="translate(862.000000, 16.000000)">
                    <g id="ic_show_all">
                        <rect id="矩形" fill="#000000" opacity="0" x="0.75" y="0.75" width="17.5" height="17.5"></rect>
                        <path d="M0.166666648,4.83333335 L4.83333335,4.83333335 L4.83333335,0.166666648 L0.166666648,0.166666648 L0.166666648,4.83333335 L0.166666648,4.83333335 Z M7.16666665,18.8333334 L11.8333334,18.8333334 L11.8333334,14.1666666 L7.16666665,14.1666666 L7.16666665,18.8333334 L7.16666665,18.8333334 Z M0.166666648,18.8333334 L4.83333335,18.8333334 L4.83333335,14.1666666 L0.166666648,14.1666666 L0.166666648,18.8333334 L0.166666648,18.8333334 Z M0.166666648,11.8333334 L4.83333335,11.8333334 L4.83333335,7.16666665 L0.166666648,7.16666665 L0.166666648,11.8333334 L0.166666648,11.8333334 Z M7.16666665,11.8333334 L11.8333334,11.8333334 L11.8333334,7.16666665 L7.16666665,7.16666665 L7.16666665,11.8333334 L7.16666665,11.8333334 Z M14.1666666,0.166666648 L14.1666666,4.83333335 L18.8333334,4.83333335 L18.8333334,0.166666648 L14.1666666,0.166666648 L14.1666666,0.166666648 Z M7.16666665,4.83333335 L11.8333334,4.83333335 L11.8333334,0.166666648 L7.16666665,0.166666648 L7.16666665,4.83333335 L7.16666665,4.83333335 Z M14.1666666,11.8333334 L18.8333334,11.8333334 L18.8333334,7.16666665 L14.1666666,7.16666665 L14.1666666,11.8333334 L14.1666666,11.8333334 Z M14.1666666,18.8333334 L18.8333334,18.8333334 L18.8333334,14.1666666 L14.1666666,14.1666666 L14.1666666,18.8333334 L14.1666666,18.8333334 Z" id="形状" fill="#BFC8CF"></path>
                    </g>
                </g>
            </g>
        </g>
    </g>
</svg>