<?xml version="1.0" encoding="UTF-8"?>
<svg width="29px" height="23px" viewBox="0 0 29 23" version="1.1" xmlns="http://www.w3.org/2000/svg" xmlns:xlink="http://www.w3.org/1999/xlink">
    <!-- Generator: Sketch 63 (92445) - https://sketch.com -->
    <title>词云</title>
    <desc>Created with Sketch.</desc>
    <g id="页面-1" stroke="none" stroke-width="1" fill="none" fill-rule="evenodd">
        <g id="新建报告-默认看板-展开" transform="translate(-212.000000, -267.000000)" fill-rule="nonzero">
            <g id="图表" transform="translate(57.000000, 80.000000)">
                <g id="词云" transform="translate(155.000000, 187.000000)">
                    <path d="M8.52864583,5.94401042 L8.52864583,0.86067709 L9.52864582,0.86067709 L9.52864582,0.0273437402 L6.61197917,0.0273437402 L6.61197917,0.86067709 L7.61197917,0.86067709 L7.61197917,5.94401042 L8.52864583,5.94401042 Z M12.6953125,5.94401042 L12.6953125,5.11067707 L11.1119792,5.11067707 L11.1119792,3.36067708 L12.4453125,3.36067708 L12.4453125,2.52734374 L11.1119792,2.52734374 L11.1119792,0.86067709 L12.6953125,0.86067709 L12.6953125,0.0273437402 L10.1953125,0.0273437402 L10.1953125,5.94401042 L12.6953125,5.94401042 L12.6953125,5.94401042 Z M14.1119792,5.94401042 L14.7786458,3.77734374 L15.4453125,5.94401042 L16.4453125,5.94401042 L15.2786458,2.86067707 L16.4453125,0.0273437402 L15.4453125,0.0273437402 L14.7786458,2.02734374 L14.1953125,0.0273437402 L13.1953125,0.0273437402 L14.2786458,2.86067707 L13.1119792,5.94401042 L14.1119792,5.94401042 Z M18.6953125,5.94401042 L18.6953125,0.86067709 L19.6953125,0.86067709 L19.6953125,0.0273437402 L16.7786458,0.0273437402 L16.7786458,0.86067709 L17.7786458,0.86067709 L17.7786458,5.94401042 L18.6953125,5.94401042 Z" id="形状" fill="#A8CFFF"></path>
                    <path d="M16.2786458,22.6106771 L16.2786458,19.0273438 L16.9453125,19.0273438 L16.9453125,18.4440104 L14.8619792,18.4440104 L14.8619792,19.0273438 L15.6119792,19.0273438 L15.6119792,22.6106771 L16.2786458,22.6106771 L16.2786458,22.6106771 Z M19.1953125,22.6106771 L19.1953125,22.0273438 L18.1119792,22.0273438 L18.1119792,20.8606771 L19.0286458,20.8606771 L19.0286458,20.2773437 L18.1119792,20.2773437 L18.1119792,19.1106771 L19.1953125,19.1106771 L19.1953125,18.4440104 L17.4453125,18.4440104 L17.4453125,22.6106771 L19.1953125,22.6106771 Z M20.1953125,22.6106771 L20.6953125,21.1106771 L21.1953125,22.6106771 L21.9453125,22.6106771 L21.1119792,20.4440104 L21.8619792,18.4440104 L21.1119792,18.4440104 L20.6119792,19.8606771 L20.1953125,18.4440104 L19.4453125,18.4440104 L20.1953125,20.4440104 L19.3619792,22.6106771 L20.1953125,22.6106771 L20.1953125,22.6106771 Z M23.3619792,22.6106771 L23.3619792,19.0273438 L24.0286458,19.0273438 L24.0286458,18.4440104 L21.9453125,18.4440104 L21.9453125,19.0273438 L22.6119792,19.0273438 L22.6119792,22.6106771 L23.3619792,22.6106771 Z" id="形状" fill="#1071E2" opacity="0.7"></path>
                    <path d="M2.6953125,15.9440104 L2.6953125,8.77734375 L4.11197918,8.77734375 L4.11197918,7.61067709 L0.0286458398,7.61067709 L0.0286458398,8.77734375 L1.44531249,8.77734375 L1.44531249,15.9440104 L2.6953125,15.9440104 Z M8.52864582,15.9440104 L8.52864582,14.7773438 L6.36197918,14.7773438 L6.36197918,12.3606771 L8.27864584,12.3606771 L8.27864584,11.1940104 L6.36197918,11.1940104 L6.36197918,8.86067707 L8.52864582,8.86067707 L8.52864582,7.61067709 L5.02864582,7.61067709 L5.02864582,15.9440104 L8.52864582,15.9440104 Z M10.5286458,15.9440104 L11.4453125,12.9440104 L12.3619792,15.9440104 L13.7786458,15.9440104 L12.1119792,11.6106771 L13.6953125,7.61067709 L12.2786458,7.61067709 L11.4453125,10.3606771 L10.6119792,7.61067709 L9.19531251,7.61067709 L10.6953125,11.6106771 L9.02864584,15.9440104 L10.5286458,15.9440104 Z M16.9453125,15.9440104 L16.9453125,8.77734375 L18.3619792,8.77734375 L18.3619792,7.61067709 L14.2786458,7.61067709 L14.2786458,8.77734375 L15.6953125,8.77734375 L15.6953125,15.9440104 L16.9453125,15.9440104 Z" id="形状" fill="#3BA0FD"></path>
                    <path d="M21.4453125,6.77734374 L21.4453125,4.77734376 L21.8619792,4.77734376 L21.8619792,4.44401042 L20.6953125,4.44401042 L20.6953125,4.77734376 L21.1119792,4.77734376 L21.1119792,6.77734374 L21.4453125,6.77734374 Z M23.1119792,6.77734374 L23.1119792,6.44401042 L22.5286458,6.44401042 L22.5286458,5.77734375 L23.0286458,5.77734375 L23.0286458,5.44401042 L22.5286458,5.44401042 L22.5286458,4.77734376 L23.1119792,4.77734376 L23.1119792,4.44401042 L22.1119792,4.44401042 L22.1119792,6.77734374 L23.1119792,6.77734374 Z M23.6953125,6.77734374 L23.9453125,5.94401042 L24.1953125,6.77734374 L24.6119792,6.77734374 L24.1119792,5.52734376 L24.5286458,4.36067707 L24.1119792,4.36067707 L23.8619792,5.19401042 L23.6119792,4.36067707 L23.1953125,4.36067707 L23.6119792,5.52734376 L23.2786458,6.77734374 L23.6953125,6.77734374 L23.6953125,6.77734374 Z M25.5286458,6.77734374 L25.5286458,4.77734376 L25.9453125,4.77734376 L25.9453125,4.44401042 L24.7786458,4.44401042 L24.7786458,4.77734376 L25.1953125,4.77734376 L25.1953125,6.77734374 L25.5286458,6.77734374 L25.5286458,6.77734374 Z" id="形状" fill="#1071E2" opacity="0.5"></path>
                    <path d="M20.4453125,12.6106771 L20.4453125,9.02734374 L21.1119792,9.02734374 L21.1119792,8.44401041 L19.0286458,8.44401041 L19.0286458,9.02734374 L19.7786458,9.02734374 L19.7786458,12.6106771 L20.4453125,12.6106771 Z M23.3619792,12.6106771 L23.3619792,12.0273437 L22.2786458,12.0273437 L22.2786458,10.8606771 L23.1953125,10.8606771 L23.1953125,10.2773438 L22.2786458,10.2773438 L22.2786458,9.11067709 L23.3619792,9.11067709 L23.3619792,8.44401041 L21.6119792,8.44401041 L21.6119792,12.6106771 L23.3619792,12.6106771 L23.3619792,12.6106771 Z M24.3619792,12.6106771 L24.8619792,11.1106771 L25.3619792,12.6106771 L26.1119792,12.6106771 L25.2786458,10.4440104 L26.0286458,8.44401041 L25.2786458,8.44401041 L24.7786458,9.86067709 L24.3619792,8.44401041 L23.6119792,8.44401041 L24.3619792,10.4440104 L23.5286458,12.6106771 L24.3619792,12.6106771 L24.3619792,12.6106771 Z M27.5286458,12.6106771 L27.5286458,9.02734374 L28.1953125,9.02734374 L28.1953125,8.44401041 L26.1119792,8.44401041 L26.1119792,9.02734374 L26.7786458,9.02734374 L26.7786458,12.6106771 L27.5286458,12.6106771 L27.5286458,12.6106771 Z" id="形状" fill="#1071E2" opacity="0.8"></path>
                    <path d="M7.52864582,20.9440104 L7.52864582,18.3606771 L8.02864582,18.3606771 L8.02864582,17.9440104 L6.52864582,17.9440104 L6.52864582,18.3606771 L7.02864582,18.3606771 L7.02864582,20.9440104 L7.52864582,20.9440104 Z M9.61197917,20.9440104 L9.61197917,20.5273437 L8.86197916,20.5273437 L8.86197916,19.6940104 L9.52864582,19.6940104 L9.52864582,19.2773438 L8.86197916,19.2773438 L8.86197916,18.4440104 L9.61197917,18.4440104 L9.61197917,18.0273437 L8.36197916,18.0273437 L8.36197916,20.9440104 L9.61197917,20.9440104 Z M10.2786458,20.9440104 L10.6119792,19.8606771 L10.9453125,20.9440104 L11.4453125,20.9440104 L10.8619792,19.4440104 L11.4453125,18.0273437 L10.9453125,18.0273437 L10.6119792,18.9440104 L10.2786458,17.9440104 L9.77864584,17.9440104 L10.2786458,19.3606771 L9.77864584,20.9440104 L10.2786458,20.9440104 Z M12.6119792,20.9440104 L12.6119792,18.3606771 L13.1119792,18.3606771 L13.1119792,17.9440104 L11.6119792,17.9440104 L11.6119792,18.3606771 L12.1119792,18.3606771 L12.1119792,20.9440104 L12.6119792,20.9440104 Z" id="形状" fill="#1071E2" opacity="0.5"></path>
                    <path d="M19.6119792,16.7773438 L19.6119792,15.2773438 L19.9453125,15.2773438 L19.9453125,15.0273437 L19.0286458,15.0273437 L19.0286458,15.2773438 L19.3619792,15.2773438 L19.3619792,16.7773438 L19.6119792,16.7773438 Z M20.8619792,16.7773438 L20.8619792,16.5273437 L20.3619792,16.5273437 L20.3619792,16.0273437 L20.7786458,16.0273437 L20.7786458,15.7773437 L20.3619792,15.7773437 L20.3619792,15.2773438 L20.8619792,15.2773438 L20.8619792,15.0273437 L20.1119792,15.0273437 L20.1119792,16.7773438 L20.8619792,16.7773438 Z M21.2786458,16.7773438 L21.4453125,16.1106771 L21.6119792,16.7773438 L21.9453125,16.7773438 L21.6119792,15.8606771 L21.9453125,15.0273437 L21.6119792,15.0273437 L21.4453125,15.6106771 L21.2786458,15.0273437 L20.9453125,15.0273437 L21.2786458,15.8606771 L20.9453125,16.7773438 L21.2786458,16.7773438 Z M22.6119792,16.7773438 L22.6119792,15.2773438 L22.9453125,15.2773438 L22.9453125,15.0273437 L22.0286458,15.0273437 L22.0286458,15.2773438 L22.3619792,15.2773438 L22.3619792,16.7773438 L22.6119792,16.7773438 Z" id="形状" fill="#1071E2" opacity="0.6"></path>
                    <path d="M3.77864584,5.94401042 L3.77864584,4.44401042 L4.11197918,4.44401042 L4.11197918,4.19401043 L3.19531251,4.19401043 L3.19531251,4.44401042 L3.52864582,4.44401042 L3.52864582,5.94401042 L3.77864584,5.94401042 Z M5.02864582,5.94401042 L5.02864582,5.69401043 L4.52864584,5.69401043 L4.52864584,5.19401043 L4.9453125,5.19401043 L4.9453125,4.94401043 L4.52864584,4.94401043 L4.52864584,4.44401042 L5.02864582,4.44401042 L5.02864582,4.19401043 L4.27864582,4.19401043 L4.27864582,5.94401042 L5.02864582,5.94401042 Z M5.44531251,5.94401042 L5.61197917,5.27734374 L5.86197917,5.94401042 L6.19531251,5.94401042 L5.77864582,5.02734375 L6.11197917,4.19401043 L5.77864582,4.19401043 L5.61197917,4.77734376 L5.44531251,4.19401043 L5.11197917,4.19401043 L5.44531251,5.02734375 L5.11197917,5.94401042 L5.44531251,5.94401042 L5.44531251,5.94401042 Z M6.77864584,5.94401042 L6.77864584,4.44401042 L7.11197918,4.44401042 L7.11197918,4.19401043 L6.19531251,4.19401043 L6.19531251,4.44401042 L6.52864582,4.44401042 L6.52864582,5.94401042 L6.77864584,5.94401042 Z" id="形状" fill="#1071E2" opacity="0.3"></path>
                </g>
            </g>
        </g>
    </g>
</svg>