<?xml version="1.0" encoding="UTF-8"?><svg xmlns="http://www.w3.org/2000/svg" xmlns:xlink="http://www.w3.org/1999/xlink" viewBox="0 0 162 200"><g fill="#7194DA" fill-rule="nonzero"><path d="M80.827 110.648c-.516.034-1.034.034-1.55 0h-1.068l2.136.414h1l1.068-.242a11.854 11.854 0 0 1-1.586-.172zm0 0c-.516.034-1.034.034-1.55 0h-1.068l2.136.414h1l1.068-.242a11.854 11.854 0 0 1-1.586-.172zm0 0c-.516.034-1.034.034-1.55 0h-1.068l2.136.414h1l1.068-.242a11.854 11.854 0 0 1-1.586-.172zm0 0c-.516.034-1.034.034-1.55 0h-1.068l2.136.414h1l1.068-.242a11.854 11.854 0 0 1-1.586-.172zm-1.033-6.375h1.688l.655-.172a5.376 5.376 0 0 1-2.343.172zm-22.95 15.541-.172.586v.207l.31-.827-.138.034zm39.249 20.02v.242l1.344 1.344-1.344-1.585zm1.585 1.965 1.068 1.378-1.068-1.378z" class="st0"></path><path d="M96.093 139.835v.241l1.344 1.344-1.344-1.585zM47.85 37.56c-.24.379-.448.792-.689 1.24l.724-1.24a.827.827 0 0 0 0-.241l-.035.24zm1 37.905c.812.59 1.584 1.234 2.308 1.93A18.504 18.504 0 0 0 48.85 75.5v-.034zm4.583-35.01-.345.62.38-.62.413-.724-.448.723zm0-22.433c-.413.089-.817.216-1.206.379l1.24-.345 1.172-.276-1.206.242zm1.93 8.098v.24-.24c.091-.107.172-.222.24-.345l-.24.345zm11.302 113.886-2.447 3.136 2.481-3.136 9.339-11.992-9.373 11.992zm10.337 51.24-.758-2.205.724 2.205.827 2.481-.793-2.48zm1.689-87.215h-.345 1.034-.689zm9.373-67.057h-.827l.827.172h.62l-.62-.172zm.896-6.237-2.24-.379c.758 0 1.482.31 2.24.413h1.24l-1.24-.034zm-4.652 162.99 10.337-30.599-10.337 30.6zm14.473-50.826v.172-.207.035zM95.335 98.38l-.586.448.586-.414c.8-.556 1.571-1.154 2.308-1.792a37.08 37.08 0 0 1-2.308 1.758zm0 20.262 7.615-6.237-7.615 6.237zm10.75 1.93-.172-.38v.414l-7.408 22.295 7.58-22.33zm1.724-38.285c-.173.448-.345.93-.552 1.379.207-.448.414-.896.586-1.344a7.754 7.754 0 0 1 0-.758l-.034.723zm1.86-40.35c.046.232.103.462.173.688.02-.229.02-.46 0-.689h-.172zm1 12.99a6.65 6.65 0 0 0 0 .827v-.827zm1 69.125-10.649 32.115 10.683-32.115h-.035zm3.79-51.31-.242.414a1.24 1.24 0 0 0 .276-.414l.517-1.068c-.172.414-.38.69-.551 1.103v-.035zm1.102-29.014a.31.31 0 0 1 0 .172v-.896a2.79 2.79 0 0 1 0 .758v-.034zm1.413 18.47.207-.345c-.057.133-.126.26-.207.38v-.035z" class="st1"></path><path d="M160.91 140.73c-10.028-10.613-27.808-18.986-49-22.949l-4.55-12.13v-9.958a40.145 40.145 0 0 0 6.582-11.337v-.448c.105-.575.291-1.131.552-1.654l.207-.31a19.504 19.504 0 0 1 1.722-1.413c1.88-1.2 3.46-2.815 4.618-4.72a28.532 28.532 0 0 0 3.067-17.23 14.163 14.163 0 0 0-1.689-4.79 3.687 3.687 0 0 0-.654-.965c0-.482.31-1 .448-1.516.137-.517.379-1.93.55-3.446V45.9c-.05-.999-.05-2 0-2.998 1.517-9.545 1.827-18.78-4.823-27.016A43.249 43.249 0 0 0 84.204 0c-8.993 0-25.603 2.62-33.252 12.234C39.89 15.679 37.512 30.6 38.857 42.799c.183 1.516.356 2.998.516 4.445 0 .93.207 1.895.414 2.929a8.305 8.305 0 0 0-2.343 6.892c.034.493.034.988 0 1.481A32.15 32.15 0 0 0 40.89 75.57a14.404 14.404 0 0 0 4.135 4.928 20.4 20.4 0 0 1 1.688 1.412c.184.167.336.365.448.586.066.306.159.606.276.896v.827l.448.448a40.627 40.627 0 0 0 7.787 12.543v8.305l-4.48 11.854h-.275v.31c-21.675 4.031-39.765 12.474-49.827 23.363l-.862.896v57.925h161.543v-58.2l-.861-.931zM49.09 20.677a7.615 7.615 0 0 1 1.896-1.585 5.72 5.72 0 0 1 1.137-.551c.39-.163.793-.29 1.206-.38l1.206-.24.724-1.034a12.853 12.853 0 0 1 2.17-2.413 18.711 18.711 0 0 1 2.86-2.136 34.459 34.459 0 0 1 7.168-3.446 54.007 54.007 0 0 1 16.61-2.654 37.424 37.424 0 0 1 26.154 10.51 39.697 39.697 0 0 1 2.825 3.068c.41.505.79 1.035 1.138 1.585a17.23 17.23 0 0 1 1.688 3.239c.207.551.414 1.137.586 1.723a28.842 28.842 0 0 1 .93 9.235c0 2.102-.31 4.273-.586 6.512a7.099 7.099 0 0 0 0 .896v.896a.31.31 0 0 0 0-.172 33.735 33.735 0 0 0-.62-3.446 8.718 8.718 0 0 0-1.24-2.826 11.096 11.096 0 0 0-6.513-4.514 46.485 46.485 0 0 0-13.784-1.791h-5.65c-.759 0-1.483-.242-2.24-.414a40.593 40.593 0 0 1-6.892-2.205l-1.103-.965a42.488 42.488 0 0 1-5.1-3.067l-.586-.38a15.196 15.196 0 0 0-6.892-3.445 7.96 7.96 0 0 0-1.275 0c-2.37.042-4.659.866-6.512 2.343-.468.342-.906.722-1.31 1.137l-.586.62c-.213.202-.409.421-.585.655l-.276.345c-.069.123-.15.238-.241.345l-.035.24a3.24 3.24 0 0 0-.31.414l-.551.793a4.376 4.376 0 0 0-.448.758 47.884 47.884 0 0 1-1.275 2.033c-.448.69-.965 1.447-1.516 2.17l-1.344 1.965-1.068 1.689-.345.55v.173l-.172.241a.827.827 0 0 1 0 .242l-.724 1.24c-.241.414-.448.862-.655 1.275-.296.566-.549 1.154-.758 1.757v.31a14.37 14.37 0 0 0-.448 1.448 5.651 5.651 0 0 1 0-.793V41.8c-1.447-5.685-1.171-16.264 3.343-21.123zm4.618 61.647-.379-1.103v-.861a7.65 7.65 0 0 0-.792-1.482 9.27 9.27 0 0 0-1.034-1.275 22.088 22.088 0 0 0-2.309-1.93 15.472 15.472 0 0 1-1.516-1.24 5.479 5.479 0 0 1-1.137-1.482c-1.78-3.55-2.7-7.469-2.688-11.44l.345.517 4.341 6.478 1.344-7.719c0-.586.242-1.24.414-1.895a74.087 74.087 0 0 0 1.034-10.338 18.056 18.056 0 0 1 0-1.964 8.236 8.236 0 0 1 .31-1.55c.107-.39.245-.77.413-1.138.222-.582.487-1.146.793-1.688a9.27 9.27 0 0 1 .551-1l.345-.62.448-.723.275-.448c.724-1.172 1.517-2.24 2.24-3.446l.827-1.137a36.216 36.216 0 0 0 2.275-3.446l.516-.827a8.821 8.821 0 0 1 1.24-1.516 5.203 5.203 0 0 1 4.17-1.965 10.613 10.613 0 0 1 3.929 2.137l.654.482c.896.655 1.861 1.275 2.86 1.895 1 .62 2.034 1.138 3.136 1.689l1.723.793c.862.379 1.723.689 2.585.999a45.555 45.555 0 0 0 5.237 1.516l1.827.345h7.167c3.977-.078 7.945.409 11.785 1.447a6.444 6.444 0 0 1 1.895.896c.508.347.942.792 1.275 1.31a.965.965 0 0 1 .173.378c.02.16.02.322 0 .483.02.229.02.46 0 .689.02.23.02.46 0 .69l.517 1.963c.196 1.337.322 2.682.379 4.032V50c.016.194.016.39 0 .585v8.27a15.61 15.61 0 0 0 0 1.792c-.02.299-.02.598 0 .896.122.472.332.916.62 1.31.107.164.235.315.379.448.354.322.762.579 1.206.758h.31c1.02.28 2.113.077 2.964-.552.181-.082.345-.2.482-.344.199-.184.372-.392.517-.62.1-.1.18-.217.241-.345.083-.13.152-.27.207-.414.03 1.154-.05 2.308-.241 3.446-.143.941-.338 1.873-.586 2.792l-.414 1.343c-.274.834-.596 1.65-.965 2.447l-.516 1.068a1.24 1.24 0 0 1-.276.414c-.08.134-.173.26-.276.379a3.86 3.86 0 0 1-.62.689c-.47.465-.977.892-1.516 1.275-.62.482-1.24.93-1.93 1.55l-.379.38a6.237 6.237 0 0 0-1.275 1.688 8.925 8.925 0 0 0-1.034 2.412 7.753 7.753 0 0 0 0 .758c-.172.448-.379.896-.586 1.344a12.13 12.13 0 0 1-.62 1.379 33.735 33.735 0 0 1-4.996 7.477c-.62.758-1.31 1.447-1.999 2.137-.69.689-1.413 1.343-2.17 1.964a27.567 27.567 0 0 1-2.31 1.792l-.585.413c-.343.25-.7.48-1.069.69l-.517.31-1.274.723-1.31.62c-.846.458-1.721.86-2.619 1.206-.896.31-1.826.69-2.757.93-.858.283-1.732.513-2.618.69h-.207l-.655.172H78.45l-.862-.207a18.091 18.091 0 0 1-1.792-.585l-.55-.173-.552-.172-1.206-.482-1.172-.517a3.928 3.928 0 0 1-1.068-.552l-1.654-.792-1.86-1.172-1-.654-1.448-1.069a23.087 23.087 0 0 1-2.79-2.377c-.454-.42-.891-.856-1.31-1.31v-.172a1.31 1.31 0 0 1-.31-.31 5.617 5.617 0 0 1-.586-.69 34.459 34.459 0 0 1-6.582-10.82v.104zM97.54 141.66l-1.378-1.31v-.24l-7.995-10.338-2.343-2.964 9.752-7.96 7.615-6.271.414 1.137 2.412 6.271v.276l.172.38-7.443 22.329v.206l-1.068-1.378-.138-.138zm-20.675-23.57-14.749-12.06v-3.067c.896.655 1.827 1.31 2.723 1.895.895.586 1.895 1.103 2.86 1.62.376.222.767.418 1.171.585l.517.276.483.172 1.206.586 1.206.448 1.275.483 1.275.379.689.24 1.723.449 1.068.241c.36.102.73.171 1.103.207.516.034 1.034.034 1.55 0 .528.035 1.058.035 1.585 0l1.069-.207 1.62-.379 1.653-.448c.62-.17 1.23-.378 1.827-.62.114.015.23.015.344 0h.31l.655-.207.655-.276 1.24-.517 2.447-1.206 2.033-1.137c.655-.413 1.31-.827 1.93-1.275l.379-.207.999-.792h.413l.414-.31.31-.241.31-.276v4.032L86.375 118.09l-4.893 3.894-4.617-3.894zm.448 8.512-1.069 1.378-9.51 12.026-2.481 3.136-7.512-22.536v-.207l.172-.586h.207l2.17-5.823.586-1.585 7.581 6.237 9.856 7.96zM6.534 193.728v-49.31c9.2-9.373 25.327-16.713 44.797-20.434l10.75 32.288 2.482-3.17 11.475 35.216.24.724.759 2.205.793 2.481H6.534zm62.612-46.588 4.41-5.651 7.41-9.476.516-.655 2.171 2.791 5.893 7.478 4.135 5.237-12.543 36.527-11.992-36.25zm86.32 46.588H84.307l10.337-30.599 3.446-10.338 2.757 3.446 10.82-32.184a105.858 105.858 0 0 1 33.287 12.164 59.855 59.855 0 0 1 5.652 3.825 40.145 40.145 0 0 1 4.755 4.135l.103 49.551z" class="st2"></path><path d="m93.68 146.899-12.542 36.526 8.51-24.879z" class="st3"></path></g></svg>