<svg width="24" height="25" viewBox="0 0 24 25" fill="none" xmlns="http://www.w3.org/2000/svg">
<g id="Frame 3">
<path id="6" d="M15.3909 14.0497C15.2974 14.5355 15.1352 14.9652 14.9043 15.3389C14.6733 15.7126 14.3923 16.0305 14.0612 16.2927C13.7318 16.5456 13.3626 16.7383 12.9535 16.8708C12.5538 17.0034 12.1346 17.0668 11.696 17.0611C11.2573 17.0553 10.8591 16.9858 10.5011 16.8525C10.1543 16.7101 9.86553 16.5088 9.63492 16.2485C9.40432 15.9882 9.24584 15.6691 9.15948 15.2913C9.07312 14.9134 9.07667 14.4816 9.17013 13.9959C9.25653 13.5468 9.42428 13.1125 9.67337 12.6931C9.92247 12.2737 10.2022 11.8409 10.5126 11.3948L13.4271 7.1879L15.4149 7.21392L12.5654 11.2287C12.6956 11.1844 12.8231 11.1539 12.9479 11.1372C13.0821 11.1206 13.2099 11.1131 13.3312 11.1147C13.6672 11.1191 13.9759 11.192 14.2574 11.3335C14.5501 11.466 14.7939 11.6575 14.9889 11.9082C15.1933 12.1589 15.3302 12.4685 15.3997 12.837C15.4802 13.1964 15.4773 13.6006 15.3909 14.0497ZM13.5684 14.0397C13.653 13.5997 13.6034 13.2499 13.4194 12.9902C13.2355 12.7306 12.9475 12.5981 12.5556 12.593C12.1823 12.5881 11.8505 12.7078 11.5602 12.9521C11.27 13.1964 11.0808 13.5477 10.9926 14.0059C10.9045 14.4642 10.9579 14.8186 11.1529 15.0693C11.348 15.3199 11.6321 15.4477 12.0054 15.4526C12.3787 15.4575 12.7105 15.3378 13.0008 15.0935C13.291 14.8492 13.4802 14.4979 13.5684 14.0397Z" fill="#868D99"/>
</g>
</svg>
