<svg width="24" height="25" viewBox="0 0 24 25" fill="none" xmlns="http://www.w3.org/2000/svg">
<g id="Frame 3">
<path id="6" d="M14.2052 13.3695C14.2052 13.7229 14.1485 14.0362 14.0352 14.3095C13.9218 14.5829 13.7652 14.8162 13.5652 15.0095C13.3652 15.1962 13.1285 15.3395 12.8552 15.4395C12.5885 15.5395 12.2985 15.5895 11.9852 15.5895C11.6718 15.5895 11.3785 15.5429 11.1052 15.4495C10.8385 15.3495 10.6052 15.2062 10.4052 15.0195C10.2052 14.8329 10.0485 14.6029 9.93516 14.3295C9.82182 14.0562 9.76516 13.7429 9.76516 13.3895C9.76516 13.0629 9.82516 12.7462 9.94516 12.4395C10.0652 12.1329 10.2052 11.8162 10.3652 11.4895L11.8652 8.40954H13.2852L11.8052 11.3495C11.8918 11.3162 11.9785 11.2929 12.0652 11.2795C12.1585 11.2662 12.2485 11.2595 12.3352 11.2595C12.5752 11.2595 12.8052 11.3095 13.0252 11.4095C13.2518 11.5029 13.4518 11.6395 13.6252 11.8195C13.8052 11.9995 13.9452 12.2229 14.0452 12.4895C14.1518 12.7495 14.2052 13.0429 14.2052 13.3695ZM12.9052 13.3795C12.9052 13.0595 12.8218 12.8062 12.6552 12.6195C12.4885 12.4329 12.2652 12.3395 11.9852 12.3395C11.7185 12.3395 11.4985 12.4295 11.3252 12.6095C11.1518 12.7895 11.0652 13.0462 11.0652 13.3795C11.0652 13.7129 11.1518 13.9695 11.3252 14.1495C11.4985 14.3295 11.7185 14.4195 11.9852 14.4195C12.2518 14.4195 12.4718 14.3295 12.6452 14.1495C12.8185 13.9695 12.9052 13.7129 12.9052 13.3795Z" fill="#868D99"/>
</g>
</svg>
