<?xml version="1.0" encoding="UTF-8"?><svg xmlns="http://www.w3.org/2000/svg" xmlns:xlink="http://www.w3.org/1999/xlink" viewBox="0 0 600 600" xml:space="preserve"><defs><path id="reuse-0" fill="#E2E3FE" fill-rule="evenodd" d="M340.8 399.1s7.2-61.3 37.1-19.1c0 0 14.8 17.9 18.1 0 0 0 22.8-53.7 59.7 0 0 0 8.6 12.1 8.7 20.4l-123.6-1.3z" clip-path="url(#x)" clip-rule="evenodd"></path><path id="q" d="M502.7 188.1c0-2.3-1.9-4.1-4.1-4.1H149.9c-2.3 0-4.1 1.9-4.1 4.1V424c0 2.3 1.9 4.1 4.1 4.1h348.6c2.3 0 4.1-1.9 4.1-4.1V188.1h.1z"></path></defs><path fill="#B1B2FF" fill-rule="evenodd" d="M193.7 428.1s-23.3-13.4-46.6-.2c0 0-10.5 10.4.8 18.5 0 0 6.7 4.5 14.1-3 0-.1 19.2-20.2 31.7-15.3zM117.5 411s-26.7-2.7-42.6 18.8c0 0-5.4 13.8 8.3 16.5 0 0 7.9 1.4 11.6-8.5 0 0 9.3-26.2 22.7-26.8zM77.9 410.8s-26.8-1.7-41.9 20.4c0 0-4.8 14 8.9 16.2 0 0 8 1.1 11.3-9 0 .1 8.4-26.5 21.7-27.6z" clip-rule="evenodd" class="st0"></path><path fill="#B1B2FF" fill-rule="evenodd" d="M64.7 411.1s-18.2 7.3-33.8-4.7c0 0-6.5-8.6 2.5-13.3 0 0 5.3-2.6 9.9 3.7 0 0 11.9 16.5 21.4 14.3zM165.6 419.8s-17.8-1.5-25.6-17.6c0 0-1.8-9.7 7.4-9.8 0 0 5.4.1 6.6 7 0 .1 2.9 18.4 11.6 20.4zM149.3 416.9s-20.4-3.8-34 11.7c0 0-5 10.3 5.3 13.2 0 0 6 1.6 9.5-5.8 0 .1 8.9-19.5 19.2-19.1zM174.8 421.2s-18.6-17.4-13.4-28.6c0 0 5.4-8.3 12.6-4.7 0 0 6.4 3.5 7.7 11.9 0 0-7.4 8.7 6.5 26.8-.1.1-6.9-.8-13.4-5.4zM97.2 407.7s-25.3-14.9-22.3-28.8c0 0 4-10.8 13-8.4 0 0 8 2.3 11.6 11.5 0 0-6.1 11.7 14.1 28.6 0-.1-7.9.7-16.4-2.9z" clip-rule="evenodd" class="st1"></path><path fill="#B1B2FF" fill-rule="evenodd" d="M72.7 408.7s-27.1-11.3-26.1-25.4c0 0 2.4-11.2 11.7-10.1 0 0 8.3 1.2 13.1 9.8 0 0-4.5 12.4 17.9 26.3 0-.1-7.7 1.8-16.6-.6zM132.3 412.8s-19.8-11.1-17.7-21.9c0 0 2.9-8.4 9.9-6.7 0 0 6.2 1.7 9.2 8.7 0 0-4.6 9.1 11.3 21.8 0 0-6 .7-12.7-1.9z" clip-rule="evenodd" class="st2"></path><path fill="#B1B2FF" fill-rule="evenodd" d="M48 414.5c-5.3 1.8 60.9-23.5 165.1 21.7-6.8 1.9-72.6-36.5-165.1-21.7z" clip-rule="evenodd" class="st3"></path><path fill="#B1B2FF" fill-rule="evenodd" d="M52.9 413.9s-24-.5-33 2.9c-4.5 1.7-6.9 6.7-5.2 11.3 1.7 4.5 6.7 6.9 11.3 5.2 9-3.4 26.9-19.4 26.9-19.4z" clip-rule="evenodd" class="st4"></path><path fill="#CED0FE" fill-rule="evenodd" d="M103 121.1c0-4.4 3.6-8 8-8h89.5c4.4 0 8 3.6 8 8v16c0 4.4-3.6 8-8 8h-26.3l13.2 13.7-29-13.7H111c-4.4 0-8-3.6-8-8v-16z" clip-rule="evenodd" class="st5"></path><path fill="#FFF" fill-rule="evenodd" d="M188.5 124c-2.1 0-3.8 1.7-3.8 3.8s1.7 3.8 3.8 3.8c2.1 0 3.8-1.7 3.8-3.8s-1.7-3.8-3.8-3.8zM175.4 124c-2.1 0-3.8 1.7-3.8 3.8s1.7 3.8 3.8 3.8c2.1 0 3.8-1.7 3.8-3.8s-1.7-3.8-3.8-3.8zM161.4 124c-2.1 0-3.8 1.7-3.8 3.8s1.7 3.8 3.8 3.8c2.1 0 3.8-1.7 3.8-3.8s-1.7-3.8-3.8-3.8zM147.9 124c-2.1 0-3.8 1.7-3.8 3.8s1.7 3.8 3.8 3.8c2.1 0 3.8-1.7 3.8-3.8s-1.7-3.8-3.8-3.8zM135.4 124c-2.1 0-3.8 1.7-3.8 3.8s1.7 3.8 3.8 3.8c2.1 0 3.8-1.7 3.8-3.8s-1.7-3.8-3.8-3.8zM122.8 124c-2.1 0-3.8 1.7-3.8 3.8s1.7 3.8 3.8 3.8c2.1 0 3.8-1.7 3.8-3.8s-1.7-3.8-3.8-3.8z" clip-rule="evenodd" class="st6"></path><path fill="#FAA5B4" fill-rule="evenodd" d="M48.4 202.5S33.6 248.3 85.2 334l29.1 21.7c0 .1 5.1-95.8-65.9-153.2z" clip-rule="evenodd" class="st7"></path><defs><path id="a" d="M48.4 202.5S33.6 248.3 85.2 334l29.1 21.7c0 .1 5.1-95.8-65.9-153.2z"></path></defs><clipPath id="b"><use overflow="visible" xlink:href="#a"></use></clipPath><path fill="#FFF" fill-rule="evenodd" d="M119.3 375.7S67.2 262.8 54.9 218.5c-.1 0 50.1 123.9 64.4 157.2z" clip-path="url(#b)" clip-rule="evenodd" class="st8"></path><path fill="#FF8EA2" fill-rule="evenodd" d="M120.4 254.2s-46.1 33-8.1 102.5c0-.1 44-14.3 8.1-102.5z" clip-rule="evenodd" class="st9"></path><defs><path id="c" d="M120.4 254.2s-46.1 33-8.1 102.5c0-.1 44-14.3 8.1-102.5z"></path></defs><clipPath id="d"><use overflow="visible" xlink:href="#c"></use></clipPath><path fill="#FFF" fill-rule="evenodd" d="M120.9 255.2s-10.5 65.4-4.3 105.9c-.1 0-3.8-42.9 4.3-105.9z" clip-path="url(#d)" clip-rule="evenodd" class="st10"></path><path fill="#FF3F67" fill-rule="evenodd" d="M36.1 285.5s2.4 49.1 53.5 80.5l27.9 7.3s-13.4-68.8-81.4-87.8z" clip-rule="evenodd" class="st11"></path><defs><path id="e" d="M36.1 285.5s2.4 49.1 53.5 80.5l27.9 7.3s-13.4-68.8-81.4-87.8z"></path></defs><clipPath id="f"><use overflow="visible" xlink:href="#e"></use></clipPath><path fill="#FFF" fill-rule="evenodd" d="M40.1 287.5s39.7 79.7 107.8 93.6c-.1 0-56.5-8.2-107.8-93.6z" clip-path="url(#f)" clip-rule="evenodd" class="st12"></path><path fill="#FAA5B4" fill-rule="evenodd" d="M49.1 350.5s20.1 63.6 79.8 45.4c0 0 35.6-36.6 14.6-86 .3-.4-38.2 21.8-32.2 56.1.1 0-15.8-18.7-62.2-15.5z" clip-rule="evenodd" class="st13"></path><defs><path id="g" d="M49.1 350.5s20.1 63.6 79.8 45.4c0 0 35.6-36.6 14.6-86 .3-.4-38.2 21.8-32.2 56.1.1 0-15.8-18.7-62.2-15.5z"></path></defs><clipPath id="h"><use overflow="visible" xlink:href="#g"></use></clipPath><path fill="#FFF" fill-rule="evenodd" d="M141.3 320.1s-18.7 41.4-18.5 65.9c0 0-.5-15.4 18.5-65.9zM48.4 349.3s45.4 45.2 74.4 36.8c0-.1-18.8 10.6-74.4-36.8z" clip-path="url(#h)" clip-rule="evenodd" class="st14"></path><path fill="#FF8EA2" fill-rule="evenodd" d="M61.4 374.5s21.5 45.6 74.3 41c0 .1.9-53.1-74.3-41z" clip-rule="evenodd" class="st15"></path><defs><path id="i" d="M61.4 374.5s21.5 45.6 74.3 41c0 .1.9-53.1-74.3-41z"></path></defs><clipPath id="j"><use overflow="visible" xlink:href="#i"></use></clipPath><path fill="#FFF" fill-rule="evenodd" d="M70.1 378s46 31.6 72.4 22.5c-.1 0-20.4 8.5-72.4-22.5z" clip-path="url(#j)" clip-rule="evenodd" class="st16"></path><path fill="#FF3F67" fill-rule="evenodd" d="M145.9 345.6s-43.8 38.7-11.7 66.2c-.1 0 36.5-11.8 11.7-66.2z" clip-rule="evenodd" class="st17"></path><defs><path id="k" d="M145.9 345.6s-43.8 38.7-11.7 66.2c-.1 0 36.5-11.8 11.7-66.2z"></path></defs><clipPath id="l"><use overflow="visible" xlink:href="#k"></use></clipPath><path fill="#FFF" fill-rule="evenodd" d="M145.8 346.6s-.8 44.7-17.1 70.9c0 0 13.3-23.1 17.1-70.9z" clip-path="url(#l)" clip-rule="evenodd" class="st18"></path><path fill="#FF3F67" fill-rule="evenodd" d="M106.3 405.3s5.1 23.1 27.4 16.4c0 0 10.6-25.4-27.4-16.4z" clip-rule="evenodd" class="st19"></path><defs><path id="m" d="M106.3 405.3s5.1 23.1 27.4 16.4c0 0 10.6-25.4-27.4-16.4z"></path></defs><clipPath id="n"><use overflow="visible" xlink:href="#m"></use></clipPath><path fill="#FFF" fill-rule="evenodd" d="M140.3 419.4s-24.6 3.2-38.4-20c0 0 8.7 17.9 38.4 20z" clip-path="url(#n)" clip-rule="evenodd" class="st20"></path><path fill="#FF8EA2" fill-rule="evenodd" d="M148.4 387.2s-20.7 6.5-15.6 34.2c0 0 26.4-1.4 15.6-34.2z" clip-rule="evenodd" class="st21"></path><defs><path id="o" d="M148.4 387.2s-20.7 6.5-15.6 34.2c0 0 26.4-1.4 15.6-34.2z"></path></defs><clipPath id="p"><use overflow="visible" xlink:href="#o"></use></clipPath><path fill="#FFF" fill-rule="evenodd" d="M129.4 423.9s19.2-8.1 17.5-35.5c0 0 .7 23.2-17.5 35.5z" clip-path="url(#p)" clip-rule="evenodd" class="st22"></path><path fill="#E2E3FE" fill-rule="evenodd" d="M116.8 411.5s13.4 44.5 374.7 11.4c0 0 85.9-12.1 46.4-98.8 0 0-94.8-14.1-47.8-44.3 0 0 171.6-137.8-82.4-105.2 0 0-125.2-138.2-174.4-29.3 0 0-27.1 72-90.2 20.5 0 0-65-49.7-34 72.8l17.7 128.9-10 44z" clip-rule="evenodd" class="st23"></path><path fill="#EAEBFF" fill-rule="evenodd" d="M123.7 405.8s-96.9-181.6 61.4-190.6c0 0 91.9 19.8 155.5-73.8 0 0 94-148.3 208.4 48.8 0 0 50.2 134-79.3 235.4 0 0-119.7 33.1-198.1 10.2 0-.1-88.6 23.5-147.9-30z" clip-rule="evenodd" class="st24"></path><path fill="#F8F8FF" fill-rule="evenodd" d="M502.7 188.1c0-2.3-1.9-4.1-4.1-4.1H149.9c-2.3 0-4.1 1.9-4.1 4.1V424c0 2.3 1.9 4.1 4.1 4.1h348.6c2.3 0 4.1-1.9 4.1-4.1V188.1h.1z" clip-rule="evenodd" class="st25"></path><defs><use xlink:href="#q"></use></defs><clipPath id="r"><use overflow="visible" xlink:href="#q"></use></clipPath><path fill="#B1B2FF" fill-rule="evenodd" d="M527 153.2H96.6v53.6H527v-53.6z" clip-path="url(#r)" clip-rule="evenodd" class="st26"></path><path fill="#FFF" fill-rule="evenodd" d="M488.2 230.2c0-.8-.7-1.5-1.5-1.5H326.6c-.8 0-1.5.7-1.5 1.5v71.6c0 .8.7 1.5 1.5 1.5h160.1c.8 0 1.5-.7 1.5-1.5v-71.6z" clip-path="url(#r)" clip-rule="evenodd" class="st27"></path><path fill="#E2E3FE" fill-rule="evenodd" d="M482.3 249.4h-81.6v2h81.6v-2zM482.3 257h-81.6v2h81.6v-2zM482.3 264.6h-81.6v2h81.6v-2zM482.3 272.5h-81.6v2h81.6v-2zM482.3 280.5h-81.6v2h81.6v-2z" clip-path="url(#r)" clip-rule="evenodd" class="st28"></path><path fill="#8682F8" fill-rule="evenodd" d="M363.9 236.4c16.1 0 29.2 13.1 29.2 29.2s-13.1 29.2-29.2 29.2-29.2-13.1-29.2-29.2 13.1-29.2 29.2-29.2z" clip-path="url(#r)" clip-rule="evenodd" class="st29"></path><defs><path id="s" d="M363.9 236.4c16.1 0 29.2 13.1 29.2 29.2s-13.1 29.2-29.2 29.2-29.2-13.1-29.2-29.2 13.1-29.2 29.2-29.2z"></path></defs><defs><use id="u" xlink:href="#q"></use></defs><clipPath id="t"><use overflow="visible" xlink:href="#s"></use></clipPath><clipPath id="v" clip-path="url(#t)"><use overflow="visible" xlink:href="#u"></use></clipPath><path fill="#B1B2FF" fill-rule="evenodd" d="M363.9 266h-38.8l9.6-37.3h29.2V266z" clip-path="url(#v)" clip-rule="evenodd" class="st30"></path><defs><use id="w" xlink:href="#q"></use></defs><clipPath id="x"><use overflow="visible" xlink:href="#w"></use></clipPath><path fill="#FFF" fill-rule="evenodd" d="M488.2 331.4c0-.8-.7-1.5-1.5-1.5H326.6c-.8 0-1.5.7-1.5 1.5V403c0 .8.7 1.5 1.5 1.5h160.1c.8 0 1.5-.7 1.5-1.5v-71.6z" clip-path="url(#x)" clip-rule="evenodd" class="st31"></path><path fill="#B1B2FF" fill-rule="evenodd" d="M348.2 377.2s20.1-31.1 42.2-10.7c0 0 28.4 33.8 60.8 0 0 0 14.9-9.3 20.7 33.3l-125.7.6 2-23.2z" clip-path="url(#x)" clip-rule="evenodd" class="st32"></path><use fill-rule="evenodd" clip-path="url(#x)" clip-rule="evenodd" xlink:href="#reuse-0"></use><use fill-rule="evenodd" clip-path="url(#x)" clip-rule="evenodd" xlink:href="#reuse-0"></use><path fill="#B1B2FF" fill-rule="evenodd" d="M475.8 399.1h-136v2h136v-2z" clip-path="url(#x)" clip-rule="evenodd" class="st33"></path><path fill="#B1B2FF" fill-rule="evenodd" d="M341.8 332h-2v68.5h2V332z" clip-path="url(#x)" clip-rule="evenodd" class="st34"></path><path fill="#FDFBF6" fill-rule="evenodd" d="M446.2 190.7c2.8 0 5.2 2.3 5.2 5.2 0 2.8-2.3 5.2-5.2 5.2-2.8 0-5.2-2.3-5.2-5.2 0-2.9 2.4-5.2 5.2-5.2zM463.9 190.7c2.8 0 5.2 2.3 5.2 5.2 0 2.8-2.3 5.2-5.2 5.2-2.8 0-5.2-2.3-5.2-5.2 0-2.9 2.3-5.2 5.2-5.2zM481.8 190.7c2.8 0 5.2 2.3 5.2 5.2 0 2.8-2.3 5.2-5.2 5.2-2.8 0-5.2-2.3-5.2-5.2 0-2.9 2.3-5.2 5.2-5.2z" clip-path="url(#x)" clip-rule="evenodd" class="st35"></path><path fill="#FFF" fill-rule="evenodd" d="M294.6 228.7H163.2v175.8h131.4V228.7z" clip-path="url(#x)" clip-rule="evenodd" class="st36"></path><path fill="#B1B2FF" fill-rule="evenodd" d="M288.1 240.6c0-1.9-1.5-3.4-3.4-3.4H173.5c-1.9 0-3.4 1.5-3.4 3.4s1.5 3.4 3.4 3.4h111.1c1.9 0 3.5-1.5 3.5-3.4zM288.1 295.8c0-1.9-1.5-3.4-3.4-3.4H173.5c-1.9 0-3.4 1.5-3.4 3.4s1.5 3.4 3.4 3.4h111.1c1.9 0 3.5-1.5 3.5-3.4zM288.1 365.3c0-1.9-1.5-3.4-3.4-3.4H173.5c-1.9 0-3.4 1.5-3.4 3.4s1.5 3.4 3.4 3.4h111.1c1.9 0 3.5-1.6 3.5-3.4zM288.1 254.2c0-1.9-1.5-3.4-3.4-3.4H173.5c-1.9 0-3.4 1.5-3.4 3.4s1.5 3.4 3.4 3.4h111.1c1.9 0 3.5-1.5 3.5-3.4zM288.1 309.3c0-1.9-1.5-3.4-3.4-3.4H173.5c-1.9 0-3.4 1.5-3.4 3.4s1.5 3.4 3.4 3.4h111.1c1.9 0 3.5-1.5 3.5-3.4zM288.1 378.8c0-1.9-1.5-3.4-3.4-3.4H173.5c-1.9 0-3.4 1.5-3.4 3.4s1.5 3.4 3.4 3.4h111.1c1.9 0 3.5-1.5 3.5-3.4zM238.1 268.2c0-1.9-1.5-3.4-3.4-3.4h-61.2c-1.9 0-3.4 1.5-3.4 3.4s1.5 3.4 3.4 3.4h61.2c1.9 0 3.4-1.6 3.4-3.4zM238.1 323.3c0-1.9-1.5-3.4-3.4-3.4h-61.2c-1.9 0-3.4 1.5-3.4 3.4s1.5 3.4 3.4 3.4h61.2c1.9 0 3.4-1.5 3.4-3.4zM238.1 392.8c0-1.9-1.5-3.4-3.4-3.4h-61.2c-1.9 0-3.4 1.5-3.4 3.4s1.5 3.4 3.4 3.4h61.2c1.9 0 3.4-1.5 3.4-3.4z" clip-path="url(#x)" clip-rule="evenodd" class="st37"></path><path fill="#E2E3FE" fill-rule="evenodd" d="M559.9 83.6H416.6v55.8h143.3V83.6z" clip-rule="evenodd" class="st38"></path><path fill="#E2E3FE" fill-rule="evenodd" d="m478.4 136.2-12 11-4.1-10.2 16.1-.8z" clip-rule="evenodd" class="st39"></path><path fill="#B1B2FF" fill-rule="evenodd" d="M555.5 88.4H423.6v45.3h131.9V88.4z" clip-rule="evenodd" class="st40"></path><path fill="#FFF" fill-rule="evenodd" d="M443.8 100.5c5.1 0 9.3 4.2 9.3 9.3 0 5.1-4.2 9.3-9.3 9.3-5.1 0-9.3-4.2-9.3-9.3 0-5.1 4.1-9.3 9.3-9.3zM543.6 100.5h-83.2v4.4h83.2v-4.4zM506.1 111h-45.7v8.2h45.7V111z" clip-rule="evenodd" class="st41"></path><path fill="#FED64E" fill-rule="evenodd" d="M543.6 119.2h-23.9v5.9h23.9v-5.9z" clip-rule="evenodd" class="st42"></path><path fill="#E2E3FE" fill-rule="evenodd" d="M193.5 164.1s-9 5.8-9 8.3c0 4.6 4 8.3 9 8.3s9-3.7 9-8.3c0-2.5-9-8.3-9-8.3zM567.5 326.6s-8.5 21-8.5 30c0 4.7 3.8 8.5 8.5 8.5s8.5-3.8 8.5-8.5c0-9-8.5-30-8.5-30zM289.1 455.4s-28.1 3.7-28.1 5.3c0 2.9 12.6 5.3 28.1 5.3 15.5 0 28.1-2.4 28.1-5.3 0-1.6-28.1-5.3-28.1-5.3z" clip-rule="evenodd" class="st43"></path><path fill="#FCA68E" fill-rule="evenodd" d="m446.9 505.5-.5 3.3 12.1-.1-.9-5.2-10.7 2zM470.8 512.1l.4 4.2 4.1 1.3 8-.8.3-3.9-12.8-.8z" clip-rule="evenodd" class="st44"></path><path fill="#F70" fill-rule="evenodd" d="M446.8 508.5s-7.4 3.4-14.1 17.8c0 0-1 14.7 14.6 2.5.5-1.8 18.2-14.2 11.5-20.4-.1 0-6.5-.5-12 .1zM471.4 515.4s-7.4 4.4 2 14.6c0 0 9.4 13.6 17 14.3 0 0 19.8 3.2 6-15.4 0 0-7.4-9.3-12.7-13-.1 0-10.3-.7-12.3-.5z" clip-rule="evenodd" class="st45"></path><path fill="#4561FF" fill-rule="evenodd" d="M431.3 356.3s-5.4 22.5-.5 67.2c0 0 4.7 47.2 12.5 83 0 0 8.4 2.4 15.4-2.3 0 0-3.8-53-4.3-59.7 0 0 .2-36.3-.3-44.4l9.2 45.1s1.1 64.1 1.8 66.2c0 0 10.4 5.3 19.6 3 0 0 .2-55.7-2.6-73.5 0 0 1.9-53.2 2.5-58.5 0 0-3.7-8.2-6.2-9.8l-5-16.3-22.6-9.8-19.5 9.8z" clip-rule="evenodd" class="st46"></path><g><defs><path id="y" d="M431.3 356.3s-5.4 22.5-.5 67.2c0 0 4.7 47.2 12.5 83 0 0 8.4 2.4 15.4-2.3 0 0-3.8-53-4.3-59.7 0 0 .2-36.3-.3-44.4l9.2 45.1s1.1 64.1 1.8 66.2c0 0 10.4 5.3 19.6 3 0 0 .2-55.7-2.6-73.5 0 0 1.9-53.2 2.5-58.5 0 0-3.7-8.2-6.2-9.8l-5-16.3-22.6-9.8-19.5 9.8z"></path></defs><clipPath id="z"><use overflow="visible" xlink:href="#y"></use></clipPath><path fill="#4759DD" fill-rule="evenodd" d="M453.2 373.8s10.3 63.3 13.5 72.6c0 0 1.4 63-.4 67l-3.9-1.1-2.1-49.4-4.1-51.8s-3.5-17.4-3-37.3zM427.2 356.2s9.9 5.9 46.1 6.8l4 9.5s8.1 12.9 8.2 18.9l15.7-19.5-16.7-32.7-43.1-11.5-13.6 26" clip-path="url(#z)" clip-rule="evenodd" class="st47"></path><path fill="#4759DD" fill-rule="evenodd" d="m455.6 394.4-2.4 7.7-.3 43.7 4.5 57.3s-5.3 4.3-15.6 2.3l-3.5 3.5 9.9 2.8 10.1.6 4-7.2-2.1-59-4.6-51.7z" clip-path="url(#z)" clip-rule="evenodd" class="st48"></path></g><path fill="#FECDC0" fill-rule="evenodd" d="M444.6 263s-.2 1.8-.6 2.1c0 0-1.4-.2-.3 2.9 0 0 .1 4.1.3 6 .1.5.3 1.7 1 1.7 1.2 0 2.1 2.9 3.4 5 0 0 .1 6-.3 8.5l4.8 3.4 8 .3 4.4-2.5s-3.2-6.1 1.1-14c0 0 .6-1 1-1.6 0 0 2.1-.1 2.2-2.2 0 0 1.3-4.2 1.5-6.3 0 0 .1-3.8-3.3.1l-.3-5-2-5.9-3.5-4.5-6.9-1.1-8.6 2.4-1.9 10.7z" clip-rule="evenodd" class="st49"></path><g><defs><path id="A" d="M444.6 263s-.2 1.8-.6 2.1c0 0-1.4-.2-.3 2.9 0 0 .1 4.1.3 6 .1.5.3 1.7 1 1.7 1.2 0 2.1 2.9 3.4 5 0 0 .1 6-.3 8.5l4.8 3.4 8 .3 4.4-2.5s-3.2-6.1 1.1-14c0 0 .6-1 1-1.6 0 0 2.1-.1 2.2-2.2 0 0 1.3-4.2 1.5-6.3 0 0 .1-3.8-3.3.1l-.3-5-2-5.9-3.5-4.5-6.9-1.1-8.6 2.4-1.9 10.7z"></path></defs><clipPath id="B"><use overflow="visible" xlink:href="#A"></use></clipPath><path fill="#FDBEAC" fill-rule="evenodd" d="M440.8 272.6c4.8.9 10.7 23.4 26.9 2 20-21.7 3.6 4.5 3.6 4.5l-3.1 4.6-20.5 5.9-10.6-2.3 3.7-14.7z" clip-path="url(#B)" clip-rule="evenodd" class="st50"></path></g><path fill="#6D3405" fill-rule="evenodd" d="M459.7 244.7s-6-5.2-13.6 1.1c0 0-7.7 8.1-2.8 16.2 0 0 1.4 2.4 1.2 4 0 0 .6-10.5 6.3-12.4-.4 0 4-1.7 9.4-.1 0 0 4.3 1.9 4.4 9 0 0 2.1-.8 2.2 1.2.1 2 .5 5.1.4 6.5 0 0 .7-5.2 3.7-4.5 0 0 4.5-7-2.6-17.4 0 0-2.8-4.4-5.6-1.7 0 .1-2.1-.4-3-1.9z" clip-rule="evenodd" class="st51"></path><path fill="#FECDC0" fill-rule="evenodd" d="M479.4 356.3s.2 8.8-.6 17c0 0 3 2 5.3 8.8 0 0 .2-1.6.9-2.7 0 0 .7-1.4.8-3.6 0 0 2.3-14.6 5.9-19.2l-4.2-1.8-7.8 1.1" clip-rule="evenodd" class="st52"></path><g><defs><path id="C" d="M479.4 356.3s.2 8.8-.6 17c0 0 3 2 5.3 8.8 0 0 .2-1.6.9-2.7 0 0 .7-1.4.8-3.6 0 0 2.3-14.6 5.9-19.2l-4.2-1.8-7.8 1.1"></path></defs><clipPath id="D"><use overflow="visible" xlink:href="#C"></use></clipPath><path fill="#FDBEAC" fill-rule="evenodd" d="m477.9 355.8.5 1.1s1.8-.5 10.5.8c0 0-3.7 17.2-4.6 20.4 0 0-.5 2.9-.8 3.5-.3.6.5 1.2.5 1.2l2.4.1 7.1-22.1.3-8-12.1-.9-3.8 3.9z" clip-path="url(#D)" clip-rule="evenodd" class="st53"></path></g><path fill="#FECDC0" fill-rule="evenodd" d="M413.9 323.9s-7.8-9.2-11.8-25.4c0 0-.7-.5-1.1-4.3 0 0-.7-4.3-3.8-5.5 0 0-3.6-2.9-4-4.2 0 0-2.7-1-1 3l.4.8s-2.5-.6-3.2-1.5l-2.1-1.4s1.3-.8.6-2.3c0 0-2.8-.6-3.6.3 0 0-2.8-1.6-3-.4 0 0-.3.8 2.3 2.1 0 0-1 1.4.8 2.4 0 0-.9.8.1 1.6 0 0 .8 1.4.9 1.9 0 0 .6 4.3 2.1 5.7 0 0 1.5 1.3 5.5 3.1 0 0 1.6 1 2.5 3.6 0 0 3.2 6.4 5.1 16.1 0 0 2 8.3 8.5 18.1 0 0 2.2 4.1 5.8.7l1.1-3.4-2.1-11z" clip-rule="evenodd" class="st54"></path><g><defs><path id="E" d="M413.9 323.9s-7.8-9.2-11.8-25.4c0 0-.7-.5-1.1-4.3 0 0-.7-4.3-3.8-5.5 0 0-3.6-2.9-4-4.2 0 0-2.7-1-1 3l.4.8s-2.5-.6-3.2-1.5l-2.1-1.4s1.3-.8.6-2.3c0 0-2.8-.6-3.6.3 0 0-2.8-1.6-3-.4 0 0-.3.8 2.3 2.1 0 0-1 1.4.8 2.4 0 0-.9.8.1 1.6 0 0 .8 1.4.9 1.9 0 0 .6 4.3 2.1 5.7 0 0 1.5 1.3 5.5 3.1 0 0 1.6 1 2.5 3.6 0 0 3.2 6.4 5.1 16.1 0 0 2 8.3 8.5 18.1 0 0 2.2 4.1 5.8.7l1.1-3.4-2.1-11z"></path></defs><clipPath id="F"><use overflow="visible" xlink:href="#E"></use></clipPath><path fill="#FDBEAC" fill-rule="evenodd" d="M391.1 289s-.5 1.1-3.3-.2c0 0-.5 1.1.3 1.3 0 0-2.9-.4-2.7 1.2l-2.3-1.5s3.3-1.2 4.7-1.5c-.1.1 1.2 1 3.3.7zM388.4 284.2s-.9 1.7-2.5 1.6c0 0-1.1 2.2-2.7 2 0 0 2-.7 2.4-2.5.1-.1 1.3.5 2.8-1.1zM391.3 293.1s-1.2 0-2.2-1c0 0-1.8.4-2.3.2 0 0 .8.2 2.2.3-.1 0 .8.8 2.3.5zM391.2 285.2s1.6 3.6 4.1 3.9v1s-1.1-1.2-3.5-2.4l-.6-2.5z" clip-path="url(#F)" clip-rule="evenodd" class="st55"></path><path fill="#FDBEAC" fill-rule="evenodd" d="M390.9 286.3s2.7 9.4 5 7.5c0 0-1.6 1.8-5-7.5zM385.6 295s5.7 4.6 8.5 4.8c0 0 5.6 9.2 7 20.7 0 0 8.1 23.5 14.1 17.1l.3 3.7-10.1 2.2-16-14.3-8.9-28.7 5.1-5.5z" clip-path="url(#F)" clip-rule="evenodd" class="st56"></path></g><path fill="#F70" fill-rule="evenodd" d="m448.2 288.1-1.4 2.3s-13.7 1.7-19.1 4.5c0 0-9.4 11.8-14.2 27.8 0 0 1.2 13.1.8 16.6 0 0 7-2.9 10.3-8.8 0 0 4.7-5.6 5.7-10.9 0 0 .3 27.2.3 37.3 0 0 23 3.7 44.2 2.8 0 0 .2-12.5 0-16.3l2-13.9L478 357s11.4-.6 15.2-.3c0 0-1.3-48.9-7.3-58.5 0 0-4.4-5-18.9-7.4l-1.5-2.7-1.2-1.3s1.6 2.9-1.2 3.3c0 0-6.2 1.8-7.1 2 .1 0-6.8-1.5-7.8-4z" clip-rule="evenodd" class="st57"></path><g><defs><path id="G" d="m448.2 288.1-1.4 2.3s-13.7 1.7-19.1 4.5c0 0-9.4 11.8-14.2 27.8 0 0 1.2 13.1.8 16.6 0 0 7-2.9 10.3-8.8 0 0 4.7-5.6 5.7-10.9 0 0 .3 27.2.3 37.3 0 0 23 3.7 44.2 2.8 0 0 .2-12.5 0-16.3l2-13.9L478 357s11.4-.6 15.2-.3c0 0-1.3-48.9-7.3-58.5 0 0-4.4-5-18.9-7.4l-1.5-2.7-1.2-1.3s1.6 2.9-1.2 3.3c0 0-6.2 1.8-7.1 2 .1 0-6.8-1.5-7.8-4z"></path></defs><clipPath id="H"><use overflow="visible" xlink:href="#G"></use></clipPath><path fill="#FF5E00" fill-rule="evenodd" d="M484.8 300.9s-9.2 17.2-8 32.4l-.8-1.3s-1.4-13.4 8.8-31.1zM487.1 300s6.2 41.4 3.9 54.9c0 0-9.3 1.8-13.3 1.6l.1 1.8 6.8 1.5 15.9-3.2-3.4-47.9-10-8.7zM465.1 324.5s9.6 8.2 11.3 13.5c0 0-4.1-6.7-11.3-13.5zM431.9 303.7s-3 6.6 3.4 7.7c0 0 .4 5.1-5.8 12.4 0 0 5.8-9.5 4.7-11.9.1 0-6-1.1-2.3-8.2zM429.8 328.5s7.4 20 19 20.8c0-.1-10.5 2.4-19-20.8zM455.2 296.9s.7 55.4.3 63.2l.6.2s1-58.2-.9-63.4zM467.2 290.8s-7.9 4.7-11.7 5.7c0 0 2.4-.9 11.7-5.7z" clip-path="url(#H)" clip-rule="evenodd" class="st58"></path><path fill="#FF5E00" fill-rule="evenodd" d="M447.1 290.7s6.1 5.3 8.3 6.5c0 0-4.1-3.3-8.3-6.5zM475.5 354.4s-5.9 7.6-46.8 2l3.6 4.9 7.4 1 37.1-1.2-1.3-6.7z" clip-path="url(#H)" clip-rule="evenodd" class="st59"></path></g><path fill="#FF5E00" fill-rule="evenodd" d="M194.7 525.6s4.2 11.6 8.9 16.3c0 0 27.1 24.1 15.1-6.2 0 0-7.8-12.5-15.7-17.6l-8.3 7.5zM164.6 516.6s.4 12.5-.3 16.5c0 0-8 25.3-14.7-2.1 0 0 .4-13.6 3-19.5l12 5.1z" clip-rule="evenodd" class="st60"></path><path fill="#4561FF" fill-rule="evenodd" d="M203.2 398.1s6.3 92.5 9.1 125.4c0 0-5.6 13.5-20.7 4.4 0 0-5.7-82.7-9.4-96.9 0 0-5.2-18.2-6.8-19.4 0 0-8.7 52.8-8.9 71.6 0 0 .7 28.1.9 34 0 0-13.4 7.6-18.4-3 0 0 1-45.1.5-54.3 0 0-3.4-38-4.4-44.9l12.2-20.4 19.3-3.7 15.7 2 10.9 5.2z" clip-rule="evenodd" class="st61"></path><g><defs><path id="I" d="M203.2 398.1s6.3 92.5 9.1 125.4c0 0-5.6 13.5-20.7 4.4 0 0-5.7-82.7-9.4-96.9 0 0-5.2-18.2-6.8-19.4 0 0-8.7 52.8-8.9 71.6 0 0 .7 28.1.9 34 0 0-13.4 7.6-18.4-3 0 0 1-45.1.5-54.3 0 0-3.4-38-4.4-44.9l12.2-20.4 19.3-3.7 15.7 2 10.9 5.2z"></path></defs><clipPath id="J"><use overflow="visible" xlink:href="#I"></use></clipPath><path fill="#4759DD" fill-rule="evenodd" d="M205.5 390.1s-30.9 12.7-28.6 30.4l-7.2 53.8 2.9 43.1-7.4 1.9s-3.3-36.9 1.2-51.2l.2-50.3-.3-26 24-3.1 17.8.8" clip-path="url(#J)" clip-rule="evenodd" class="st62"></path><path fill="#4759DD" fill-rule="evenodd" d="M176.4 407.9s10.7 20.8 10.5 54.4c0 0 7.3 53.2 3.7 66.4l-8-12.9-6.9-69.8.7-38.1z" clip-path="url(#J)" clip-rule="evenodd" class="st63"></path></g><path fill="#FECDC0" fill-rule="evenodd" d="M175.7 266.5c-.3-.6 2.8-3.2 5.3 9.8.1.7.7 2.7.7 3.5 0 0 1.8 3.2-3.6 20.7l-.7 12.7.7 7.5-2.3 7.9-1.2 7.8-7.3-.4-6.6-16-4-22.3 4.6-30.1 7-5.8 7.4 4.7z" clip-rule="evenodd" class="st64"></path><g><defs><path id="K" d="M175.7 266.5c-.3-.6 2.8-3.2 5.3 9.8.1.7.7 2.7.7 3.5 0 0 1.8 3.2-3.6 20.7l-.7 12.7.7 7.5-2.3 7.9-1.2 7.8-7.3-.4-6.6-16-4-22.3 4.6-30.1 7-5.8 7.4 4.7z"></path></defs><clipPath id="L"><use overflow="visible" xlink:href="#K"></use></clipPath><path fill="#FDBEAC" fill-rule="evenodd" d="M161.9 286.2s.4 9.8 14.2 13c0 0-11.3 10.2-14.2 13.5l-4.3-8.8 4.3-17.7z" clip-path="url(#L)" clip-rule="evenodd" class="st65"></path><path fill="#FDBEAC" fill-rule="evenodd" d="M181.3 275.5s-2.4-9.1-11-9.3c0 0-5.6 3.7-6.6 28l-2.9-1.1-2.1-23.4 10.4-6.5 7.1 1 5.8 6.4-.7 4.9z" clip-path="url(#L)" clip-rule="evenodd" class="st66"></path></g><path fill="#FFFEFF" fill-rule="evenodd" d="M181.5 318.6s-5.4 8.8-19.6 2.4l-1.7 80.6s26.7 3 24.9-5.5l4.5-53.6-2.4-18.3-5.7-5.6z" clip-rule="evenodd" class="st67"></path><g><defs><path id="M" d="M181.5 318.6s-5.4 8.8-19.6 2.4l-1.7 80.6s26.7 3 24.9-5.5l4.5-53.6-2.4-18.3-5.7-5.6z"></path></defs><clipPath id="N"><use overflow="visible" xlink:href="#M"></use></clipPath><path fill="#E3DEDE" fill-rule="evenodd" d="M173.7 321.6s6 3.4 3.7 8.2l-2.6 16.1.3 16s7.4 36.2 6.7 39.2l-1.1 5.3 18-1.8s7.5-11.9 7.7-15.2c.2-3.3-8.6-70.8-8.6-70.8l-4.7-8.8-21.1 11.1 1.7.7z" clip-path="url(#N)" clip-rule="evenodd" class="st68"></path></g><path fill="#F70" fill-rule="evenodd" d="M176.5 298.3s20.4 5.2 21.5 9.2c0 0 9.7 30.3 11.8 39.9 0 0-1.4 13.7-5.1 14.4l-6.1 2.3s11.5 34.6 11.9 37.9c0 0-13.2 11.4-26 14.2 0 0-4-42.7-7.3-46.2l-.5-7.3-7.2-.4s1.1 60.5-2 65.4c0 0-9.8 2.7-14.4-1.2 0 0-12.5-6.1-12.2-10.2 0 0 6.9-42.9 4.1-54.5 0 0-8.4-11.1-9.8-13.5 0 0-.3-30.8 0-34.2 0 0 5.5-4.7 13.2-10.4 0 0 13.4 10.8 18.4 12.2 0 0 1.2 29.5 2.6 30.7l6.8-1.1s3.8-16.9 3.1-19.9c0 0-7.1-7.4-7.5-10.1.2-.1 3.9-11.7 4.7-17.2z" clip-rule="evenodd" class="st69"></path><g><defs><path id="O" d="M176.5 298.3s20.4 5.2 21.5 9.2c0 0 9.7 30.3 11.8 39.9 0 0-1.4 13.7-5.1 14.4l-6.1 2.3s11.5 34.6 11.9 37.9c0 0-13.2 11.4-26 14.2 0 0-4-42.7-7.3-46.2l-.5-7.3-7.2-.4s1.1 60.5-2 65.4c0 0-9.8 2.7-14.4-1.2 0 0-12.5-6.1-12.2-10.2 0 0 6.9-42.9 4.1-54.5 0 0-8.4-11.1-9.8-13.5 0 0-.3-30.8 0-34.2 0 0 5.5-4.7 13.2-10.4 0 0 13.4 10.8 18.4 12.2 0 0 1.2 29.5 2.6 30.7l6.8-1.1s3.8-16.9 3.1-19.9c0 0-7.1-7.4-7.5-10.1.2-.1 3.9-11.7 4.7-17.2z"></path></defs><clipPath id="P"><use overflow="visible" xlink:href="#O"></use></clipPath><path fill="#FF5E00" fill-rule="evenodd" d="M203.7 334.9s-8.1.9-10.2 8.8c0 0 3.3-7 10.6-8 0 0 .4-.4-.4-.8zM194 308.2s-2.9 29-2 35.6c0 0-18.4 2.1-17.8 1.3l13.8 1.2 5.2-.9c.1-.1-1.3-12 .8-37.2z" clip-path="url(#P)" clip-rule="evenodd" class="st70"></path><path fill="#FF5E00" fill-rule="evenodd" d="M197 327.2s-5.3 5.3-4.8 9.6c0 .1-1.2-.2 4.8-9.6zM194.7 360.9s-.8.4-3.8.8c0 0 3.1 5.8 5.2.9 0 0-4.7-12.4-8-12.7l-.2 1.7 2.9 5.6 3.9 3.7z" clip-path="url(#P)" clip-rule="evenodd" class="st71"></path><path fill="#FF5E00" fill-rule="evenodd" d="M185 301.5s11.9 4.3 12.2 7.1c0 0 12.3 36.2 11.5 39.2.2 3.6.3 12.8-9.3 16.9l6.5 8.2 3.7-3.8s10.9-9.7 11.2-12.6c.3-2.9-3.5-43.8-3.5-43.8L200 302.4l-15-.9z" clip-path="url(#P)" clip-rule="evenodd" class="st72"></path><path fill="#FF5E00" fill-rule="evenodd" d="M196.8 306.5s-5.4.8-10.7-2.6c0 0 1.8 32.7-11.6 13.7l-1.3 1.8-3-5.4 1.2-9.6 2.5-2.4 5.8-4.7 9.9 1.7 6.4 2.2 2 2.9-1.2 2.4zM193.9 364.8l5-1 22.1 19.7-8.5 20.9-2.5-1.3c-.1 0-9.4-39.6-16.1-38.3zM191.1 361.8s2.7 1.1-15.6 1.2l.7-1.9 6.4-.8 8.5 1.5zM140 316s9.3 15.1 7.2 20.2l1.3.5c.1.1 1.2-7.5-8.5-20.7zM149.4 346.7s-1.5-6.2-14 1.3c0 0 10.5-6 14-1.3zM138.4 325.7s6.3 12 8 12.8c0 0-.1 3.5-8-12.8zM158.5 324.5s5.8.8 5.7 23.7c0 0 1.8-11.2-4.2-24.9l-1.5 1.2zM166.2 361.8s-7.4 8.7-16.6 3.2c0 0 8.6 7.3 16.6-3.2zM167.5 356.9s1 4.4-1.5 4.8c0 0-4.9.4-5.6-.3l.6-2.1 6.5-2.4z" clip-path="url(#P)" clip-rule="evenodd" class="st73"></path><path fill="#FF5E00" fill-rule="evenodd" d="M169.9 346.5s-6.2 1.6-13.7.2c0 0-3.5-5.4-4.8-7.7 0 0 4.7 9.5 18.5 7.5z" clip-path="url(#P)" clip-rule="evenodd" class="st74"></path><path fill="#FF5E00" fill-rule="evenodd" d="M145.4 306.4s-7.4 5.7-9.1 9.9c0 0-1.4 29.1.6 32.7 0 0 6.1 10 9.2 14.1 0 0 .1 32.2-3.9 48.9 0 0-6.3 12.8 26 15.3l1.2 2.1-15.4.7-12.7-1.7-5-17.9-7-50-13.6-27.2L126 303l17.1.1 2.3 3.3z" clip-path="url(#P)" clip-rule="evenodd" class="st75"></path><path fill="#FF5E00" fill-rule="evenodd" d="M154.5 347.1s-6.6 2.8-5.3 9.9c0 0-1.1-4.8-.5-7.9 0 0 1-1.2 5.8-2zM155.9 370.6s-4.6 52.2.3 55.6l-3.4-1.1s.6-39.3 3.1-54.5zM185 368.4s19.1 35.3 19.6 39.4l-1.5.9s-5.1-16.6-18.1-40.3z" clip-path="url(#P)" clip-rule="evenodd" class="st76"></path></g><path fill="#FECDC0" fill-rule="evenodd" d="M194.9 361.1s-11.2 2.7-28.7.9c0 0 1.4.1 1.4-3.6 0 0 16.7-7.4 20.6-8.2 0-.1 2.1.1 6.7 10.9z" clip-rule="evenodd" class="st77"></path><g><defs><path id="Q" d="M194.9 361.1s-11.2 2.7-28.7.9c0 0 1.4.1 1.4-3.6 0 0 16.7-7.4 20.6-8.2 0-.1 2.1.1 6.7 10.9z"></path></defs><clipPath id="R"><use overflow="visible" xlink:href="#Q"></use></clipPath><path fill="#FDBEAC" fill-rule="evenodd" d="m192.4 349.5-.1 2s-16.1 5.8-27.9 7.6l4.6-4.2 14.5-5 8.9-.4z" clip-path="url(#R)" clip-rule="evenodd" class="st78"></path></g><path fill="#FECDC0" fill-rule="evenodd" d="M147.5 338.4s-1.3-.9-1.1-2c-.1 0 1-1 5.3 2.7 0 0 3.6 6.4 4.9 7.8 0 0-1.8.1-2.6 0 0 0 .5-.8-4.3-.1 0 0-.3-1.7-2.6-1.7 0 0-2.3-.6-2.8-2.3l.2-.5s-3-.7-1.9-3.1c-.3.1-1.2-1.9 4.9-.8z" clip-rule="evenodd" class="st79"></path><g><defs><path id="S" d="M147.5 338.4s-1.3-.9-1.1-2c-.1 0 1-1 5.3 2.7 0 0 3.6 6.4 4.9 7.8 0 0-1.8.1-2.6 0 0 0 .5-.8-4.3-.1 0 0-.3-1.7-2.6-1.7 0 0-2.3-.6-2.8-2.3l.2-.5s-3-.7-1.9-3.1c-.3.1-1.2-1.9 4.9-.8z"></path></defs><clipPath id="T"><use overflow="visible" xlink:href="#S"></use></clipPath><path fill="#FDBEAC" fill-rule="evenodd" d="M141.2 338.8s2.8 1.5 4.4 1.5c0 0 4 2.1 5.4 1.9 0 0-4.4-1.5-5.1-2.4-.1 0-.2.7-4.7-1zM144.8 341.7s5.5 3.2 7.4 4.7c0 0 1.3 1.2-7.4-4.7zM146 336.3s1.9 2.7 5 3.4c0 0-4.2-.6-5-3.4z" clip-path="url(#T)" clip-rule="evenodd" class="st80"></path></g><path fill="#FECDC0" fill-rule="evenodd" d="M193.3 345.1s-3.5 1.3-9.1-.5c0 0-4.1-.6-7.8.7 0 0-7.8 2-14.2 1.9 0 0-3 7.4-3.5 9 0 0 1.6 5.3 2.1 5.6 0 0 17.4-8.8 27.6-11.7 0 0 4.4-2.6 5.8-2.5 0 0-.9-1.2-.9-2.5z" clip-rule="evenodd" class="st81"></path><g><defs><path id="U" d="M193.3 345.1s-3.5 1.3-9.1-.5c0 0-4.1-.6-7.8.7 0 0-7.8 2-14.2 1.9 0 0-3 7.4-3.5 9 0 0 1.6 5.3 2.1 5.6 0 0 17.4-8.8 27.6-11.7 0 0 4.4-2.6 5.8-2.5 0 0-.9-1.2-.9-2.5z"></path></defs><clipPath id="V"><use overflow="visible" xlink:href="#U"></use></clipPath><path fill="#FDBEAC" fill-rule="evenodd" d="M188.3 344.7s6.8 1 3.3 4.4l5.6-.7-1.8-6.1-7.3 2.1" clip-path="url(#V)" clip-rule="evenodd" class="st82"></path></g><path fill="#6D3405" fill-rule="evenodd" d="M180.6 291.8s4.7 12.5 17.5 13.9c0 0-6.5 1.5-12.8-3.5 0 0 2.5 33.7-10.3 15.2 0 0 1.4-15.5.2-18.6 0 .1 4.2-.1 5.4-7zM165.6 258.8s11.4-2.5 14.9 15.4c0 0-.8-8.1-10.1-8.5 0 0-7.9 2.8-7.6 42.6.3 39.8-22.8 16.6-18.8-.5 0 0 5.1-17.4 5.1-33 .1 0 3.4-17.5 16.5-16z" clip-rule="evenodd" class="st83"></path></svg>