<?xml version="1.0" encoding="UTF-8"?><svg xmlns="http://www.w3.org/2000/svg" xmlns:xlink="http://www.w3.org/1999/xlink" viewBox="0 0 400 700" xml:space="preserve"><path fill="#FF5E00" fill-rule="evenodd" d="M177.1 599.6c-.5-.4-3.9 16.7-2.5 27 0 0 14.7 53.9 29.7-.1 0 0 4.2-19.1-6.1-41.2l-21.1 14.3zM242.9 603.3s-.2 16.8 2.9 27c0 0 25 49.3 29-6.8 0 0 .3-19.6-14.1-38.8l-17.8 18.6z" clip-rule="evenodd" class="st0"></path><path fill="#4561FF" fill-rule="evenodd" d="M162.1 316.5s-2.7 237 2.5 283.7c0 0 14.5 12.3 40.1-4.5 0 0-8.5-214.8 7-244 0 0 18.4 218.4 28.6 256.2 0 0 23.6 6.6 27.6-17.2 0 0-5.1-185 1.8-231.5L255 318.8 235.6 302l-73.5 14.5z" clip-rule="evenodd" class="st1"></path><defs><path id="a" d="M162.1 316.5s-2.7 237 2.5 283.7c0 0 14.5 12.3 40.1-4.5 0 0-8.5-214.8 7-244 0 0 18.4 218.4 28.6 256.2 0 0 23.6 6.6 27.6-17.2 0 0-5.1-185 1.8-231.5L255 318.8 235.6 302l-73.5 14.5z"></path></defs><clipPath id="b"><use overflow="visible" xlink:href="#a"></use></clipPath><path fill="#4759DD" fill-rule="evenodd" d="M215.7 341.8s19.1 231.9 28.8 259.7c0 0 5.5 12.1 28.3-13.4l13.9 23.4-43.7 32.8-25.2-73.2 3.2 37.2-49.2 13.4-22.7-23.8 10.5-5.8s13.1 19.8 40.4-1.2c.1 0-11-232.9 15.7-249.1z" clip-path="url(#b)" clip-rule="evenodd" class="st2"></path><path fill="#FFFEFF" fill-rule="evenodd" d="M171 324.7s26.2 17 84.2 4l4.7-32.1L256 262l-19-13.1-60.6.7-6.2 14 .8 61.1z" clip-rule="evenodd" class="st3"></path><defs><path id="c" d="M171 324.7s26.2 17 84.2 4l4.7-32.1L256 262l-19-13.1-60.6.7-6.2 14 .8 61.1z"></path></defs><clipPath id="d"><use overflow="visible" xlink:href="#c"></use></clipPath><path fill="#E3DEDE" fill-rule="evenodd" d="M239.7 264.1s-45.8-3.1-45.6 4.8c0 0-12.8 40.7-7.7 55.2l8.7 12.3-20 5.4-17.6-12.8 17-64.9 33.4-23.3 31.8 23.3z" clip-path="url(#d)" clip-rule="evenodd" class="st4"></path><path fill="#FECDC0" fill-rule="evenodd" d="m216.1 47-20.5 9.9-7.4 33.8 12.1 40.7 3.8 2.8-12.3 6.3 5.1 9.2 20.5 5.7 22.5-6.9-.7-56.3-4.6-36.7-9.4-7.6-9.1-.9z" clip-rule="evenodd" class="st5"></path><defs><path id="e" d="m216.1 47-20.5 9.9-7.4 33.8 12.1 40.7 3.8 2.8-12.3 6.3 5.1 9.2 20.5 5.7 22.5-6.9-.7-56.3-4.6-36.7-9.4-7.6-9.1-.9z"></path></defs><clipPath id="f"><use overflow="visible" xlink:href="#e"></use></clipPath><path fill="#FDBEAC" fill-rule="evenodd" d="M191.7 92.6c-.1 3.6 16 46 40 4.2l.1 15.1s-28.2 16.3-34 18.4l-7.3-14.9 1.2-22.8z" clip-path="url(#f)" clip-rule="evenodd" class="st6"></path><path fill="#FDBEAC" fill-rule="evenodd" d="M191.7 66.1s13.7-14.9 27.5-11.2c0 0 7.6 1 10.2 24.8 0 0 1.4 21.7-3.5 26.7l6.2-1.5 1.9-20.1-2.5-23.1-5-10.8-11.8-4.9-13.2 1.1-9.8 19z" clip-path="url(#f)" clip-rule="evenodd" class="st7"></path><path fill="#FFFEFF" fill-rule="evenodd" d="M201.8 148.7s11.1 9.5 27.8 1.9c16.8-7.6 2.7 10.4 2.7 10.4l-2.6 4.4-33.6 1.6 5.7-18.3z" clip-rule="evenodd" class="st8"></path><path fill="#F70" fill-rule="evenodd" d="M205.7 160s4.1-7.1 3.5-14.4c0 0-8.6-7.3-13.2-16.9l-13.8-3.6s-16.1 1.9-29.1 15.6c0 0-10.4 23.8-17.9 85.1 0 0 5.1 29.6 12.5 36.3 0 0 4.6 6.9 10.2 4.3l-20.4 78.2s2.5 21.6 35.6 31.1c0 0 11.7-88.2 14.2-94.7 0 0 4.4-18.5 5.4-18.9.9-.4 49.9.9 49.9.9s4.9 10.1 9.7 10.3c0 0 .1 41.2-1.5 65.6 0 0-1.6 23.4 4.4 37.8l22.2-4s-1.5-7.2 1.9-14.9c0 0-14-91.8-18-99.6 0 0 10.7-2.1 15-6.4 0 0 12.7-12.9 9.5-36.9 0 0-4.3-36.3-7.5-44.9 1.6-.2.9-24.6-2.7-28.2-3.9-3-16.6-13.8-26.8-17.5l-20.1 17.8s-8.3 5.7-6.5 9.1l4.9 8.1-3.1 3.6-18.3-2.9z" clip-rule="evenodd" class="st9"></path><defs><path id="g" d="M205.7 160s4.1-7.1 3.5-14.4c0 0-8.6-7.3-13.2-16.9l-13.8-3.6s-16.1 1.9-29.1 15.6c0 0-10.4 23.8-17.9 85.1 0 0 5.1 29.6 12.5 36.3 0 0 4.6 6.9 10.2 4.3l-20.4 78.2s2.5 21.6 35.6 31.1c0 0 11.7-88.2 14.2-94.7 0 0 4.4-18.5 5.4-18.9.9-.4 49.9.9 49.9.9s4.9 10.1 9.7 10.3c0 0 .1 41.2-1.5 65.6 0 0-1.6 23.4 4.4 37.8l22.2-4s-1.5-7.2 1.9-14.9c0 0-14-91.8-18-99.6 0 0 10.7-2.1 15-6.4 0 0 12.7-12.9 9.5-36.9 0 0-4.3-36.3-7.5-44.9 1.6-.2.9-24.6-2.7-28.2-3.9-3-16.6-13.8-26.8-17.5l-20.1 17.8s-8.3 5.7-6.5 9.1l4.9 8.1-3.1 3.6-18.3-2.9z"></path></defs><clipPath id="h"><use overflow="visible" xlink:href="#g"></use></clipPath><path fill="#FF5E00" fill-rule="evenodd" d="M161 137.1s6 72.5 5.5 83.4c0 0-5.2-62.3-5.5-83.4zM176 256.1s-12.4.3-12.6-2.3c0 0-5.1 25.5 12.6 2.3zM246.6 240.1s5.3 1.6 10 .8c0 0 2.5 13.3.8 13.2-.1 0-7.4 2-10.8-14zM165.8 218.9s-14.4-4.7-22.6 7.7c0 0 8.7-9.2 22.6-7.7zM261.3 185.1s-6.2 21.8-3.8 28.8c0 0 2.8-1.9 7.2 1.5 0 0-3.1-3.4-6.2-3.1.1.1-3.2 2.6 2.8-27.2z" clip-path="url(#h)" clip-rule="evenodd" class="st10"></path><path fill="#FF5E00" fill-rule="evenodd" d="M253.4 127.1s19.7 11.8 23.3 17.6c0 0-1.2 27.5 2.8 33 0 0 6.8 34.8 4.2 57.7 0 0-3.9 16.4-21.9 22.7l8.4 6.8 33.9-41.1-9.7-75-17.7-23.8-16.6-2.8-6.7 4.9zM155.1 144.2s1.9 18.5 8.1 24.1c0 0-6.4-1-8.1-24.1zM175.6 149.6s2.8 37.4 3.8 57.2l6.2-.6.8-54.7-10.8-1.9zM250.5 169.9s-2.5 49.5-5.9 50.4c0 0-3.2-6.4-2.8-9.5.4-3.1 2.5-35.8 2.5-35.8l6.2-5.1zM176.6 256s-6 11.2-13 11.7c0 0-4.9-.1-5.9-.7l-7.1 15.2-16.1 63.6 2.8-1.1 17.9-63s8.7-4.8 11.4-11.1c0 0 10.5-2.5 11.5-5.7 0 0 .8 40.3-1.8 51.6 0 0 4-16.3 4.1-56.3l.7-6.2-3.1-.7-1.4 2.7z" clip-path="url(#h)" clip-rule="evenodd" class="st11"></path><path fill="#FF5E00" fill-rule="evenodd" d="M262.8 258.2s-9.6 3.6-13.7-10.7c0-.1 2.8 10.7 13.7 10.7zM267.8 144.7s-12.5 45.3-9.5 57.7c.1 0-6-9.4 9.5-57.7zM256.8 214s16.4 12.6 16.1 34.5c.1 0 2.7-26.3-16.1-34.5zM259 268.5s13.4 118 22.7 106.9c0 .1-11.3-30.5-22.7-106.9zM185.6 126.1s-27.5 10.3-30.6 17.6c0 0-19.4 52.3-12.9 100 0 0 2.5 21.6 15.7 22.6l-11.1 5.4-33.5-12-5.6-92.8s12.9-28.7 18.2-34.9c5.3-6.1 35-21 35-21l24.8 15.1z" clip-path="url(#h)" clip-rule="evenodd" class="st12"></path><path fill="#FF5E00" fill-rule="evenodd" d="M166.5 219.4s7.5 6.3 11.7 14.1c.1 0-7.3-6.8-11.7-14.1zM245.9 218.1s10.1-3.1 13.4-1.8c0 0-1.3-3.9-13.4 1.8z" clip-path="url(#h)" clip-rule="evenodd" class="st13"></path><path fill="#6D3405" fill-rule="evenodd" d="M216.7 36.5s-10.4-5.6-22.5 9.8c0 0-14.5 12.4-14.7 74.7 0 0-2.6 7.3-6.5 10.1s-2.6 23 8.4 23.5c0 0 19.2 11.7 19.3-6.4l3.5-15.5s-11-25.4-11.5-40.3c0 0-5.9-41 25.2-41 0 0 7 0 8.5 7.5 0 0 11.1 34.7-5.3 66.8 0 0 5.6 33.9 26.1 36.6 0 0 25.9 1.7 5.4-42.8 0 0-7.5-30-7.8-47.7.1.1-4.1-35.7-28.1-35.3z" clip-rule="evenodd" class="st14"></path><path fill="#DFDFE6" fill-rule="evenodd" d="m183 156.8-3.1 104.3 62.7 2.2 7.7-103.8-67.3-2.7z" clip-rule="evenodd" class="st15"></path><g><defs><path id="i" d="m183 156.8-3.1 104.3 62.7 2.2 7.7-103.8-67.3-2.7z"></path></defs><clipPath id="j"><use overflow="visible" xlink:href="#i"></use></clipPath><path fill="#C8C8D1" fill-rule="evenodd" d="m178 155.8 69.4 5.3-6.6 101.5 1.5 3.8 6.8-5.4 14.8-107.4-29-3.5-56.7 3.8" clip-path="url(#j)" clip-rule="evenodd" class="st16"></path></g><path fill="#FECDC0" fill-rule="evenodd" d="M178.3 233.9s-5.7-3.6-14.9 20.6c0 0 .7 2.3 17.4 1.5 0 0 23.5-1.5 25.5-.1 0 0 3 .5 5.1.2 0 0 3.7.1 8.3 1.9 1.4.2 6.9 4 21.5 1.9 0 0 4.8-1.3 6.8-4.5 0 0-.5-2.1-4-1.1 0 0 4.6-1 5.1-6.1 0 0-1.4-3.3-3.1-8.5 0 0-2.3-.4-6.5-3.3 0 0-2.5-1.2-6-.3 0 0-8.7-.9-10.5-1.8 0 0-3.8-.9-8.1 1.2.1.1-10.7 4.1-36.6-1.6z" clip-rule="evenodd" class="st17"></path><g><defs><path id="k" d="M178.3 233.9s-5.7-3.6-14.9 20.6c0 0 .7 2.3 17.4 1.5 0 0 23.5-1.5 25.5-.1 0 0 3 .5 5.1.2 0 0 3.7.1 8.3 1.9 1.4.2 6.9 4 21.5 1.9 0 0 4.8-1.3 6.8-4.5 0 0-.5-2.1-4-1.1 0 0 4.6-1 5.1-6.1 0 0-1.4-3.3-3.1-8.5 0 0-2.3-.4-6.5-3.3 0 0-2.5-1.2-6-.3 0 0-8.7-.9-10.5-1.8 0 0-3.8-.9-8.1 1.2.1.1-10.7 4.1-36.6-1.6z"></path></defs><clipPath id="l"><use overflow="visible" xlink:href="#k"></use></clipPath><path fill="#FDBEAC" fill-rule="evenodd" d="M179 231.5s-9.3 6.4-12.4 21.6c0 0 .1 2.4 46.1.5 0 0 21.1 11.8 34.9 1.5l5.1 1.6-5.3 8.1-49.8 2-46-9.4 1.1-26.8 16.9-5 1.3 5 8.1.9z" clip-path="url(#l)" clip-rule="evenodd" class="st18"></path></g><path fill="#FECDC0" fill-rule="evenodd" d="M244.2 220.3s5.3-3.6 13 23.1c0 0-8.1 1.5-18.3-5.2 0 0-12.7-.4-23.3-3.1 0 0-3.2.7-7.2-.4 0 0-6.5-.7-12.8.8 0 0-7.5 1.6-10-.2 0 0-7 .8-7.6-2.3 0 0-1.2-2.8.7-3.2 0 0-7.6-2-2.8-6.7 0 0-4.1-1-3.5-3.9 0 0 0-1.2 1.2-2 0 0-2.7-.2-2.8-3.2 0 0-.4-4.1 6.8-5.5 0 0-3-.9-1.8-3.9 0 0-.1-1.4 6.9.2 0 0 6.3 1 11 1.3 0 0 11.4 4 13.4 7.4-.2 0 10.6 8.4 37.1 6.8z" clip-rule="evenodd" class="st19"></path><g><defs><path id="m" d="M244.2 220.3s5.3-3.6 13 23.1c0 0-8.1 1.5-18.3-5.2 0 0-12.7-.4-23.3-3.1 0 0-3.2.7-7.2-.4 0 0-6.5-.7-12.8.8 0 0-7.5 1.6-10-.2 0 0-7 .8-7.6-2.3 0 0-1.2-2.8.7-3.2 0 0-7.6-2-2.8-6.7 0 0-4.1-1-3.5-3.9 0 0 0-1.2 1.2-2 0 0-2.7-.2-2.8-3.2 0 0-.4-4.1 6.8-5.5 0 0-3-.9-1.8-3.9 0 0-.1-1.4 6.9.2 0 0 6.3 1 11 1.3 0 0 11.4 4 13.4 7.4-.2 0 10.6 8.4 37.1 6.8z"></path></defs><clipPath id="n"><use overflow="visible" xlink:href="#m"></use></clipPath><path fill="#FDBEAC" fill-rule="evenodd" d="M172.4 229.2s6.8 9.4 32.2 1.9c0 0 49.4 14.5 49.6 7.2 0 0-4-14.9-7.8-18.9l10.8 2.9 9.8 18-2.1 12-53.4-1.4-40.7-8.6 1.6-13.1z" clip-path="url(#n)" clip-rule="evenodd" class="st20"></path></g></svg>