<svg width="14" height="14" viewBox="0 0 14 14" fill="none" xmlns="http://www.w3.org/2000/svg">
<g id="&#230;&#149;&#163;&#231;&#130;&#185;&#229;&#155;&#190;">
<path id="Vector" d="M3.18047 9.45684C3.18047 10.5068 4.03086 11.3572 5.08086 11.3572C6.13086 11.3572 6.98125 10.5068 6.98125 9.45684C6.98125 8.40684 6.13086 7.55645 5.08086 7.55645C4.03086 7.55645 3.18047 8.40684 3.18047 9.45684ZM0.0810547 4.69355C0.0810547 5.44687 0.692187 6.05801 1.44551 6.05801C2.19883 6.05801 2.80996 5.44687 2.80996 4.69355C2.80996 3.94023 2.19883 3.3291 1.44551 3.3291C0.69082 3.3291 0.0810547 3.94023 0.0810547 4.69355Z" fill="#E0E0E0"/>
<path id="Vector_2" d="M7.2666 5.18022C7.2666 6.55151 8.37813 7.6644 9.75078 7.6644C11.1221 7.6644 12.235 6.55288 12.235 5.18022C12.235 3.80757 11.1234 2.69604 9.75078 2.69604C8.37813 2.69604 7.2666 3.80757 7.2666 5.18022Z" fill="#E0E0E0"/>
<path id="Vector_3" d="M11.8125 8.56822C11.8125 9.14107 12.2773 9.60591 12.8502 9.60591C13.423 9.60591 13.8879 9.14107 13.8879 8.56822C13.8879 7.99536 13.423 7.53052 12.8502 7.53052C12.2773 7.52915 11.8125 7.994 11.8125 8.56822Z" fill="#E0E0E0"/>
</g>
</svg>
