<?xml version="1.0" encoding="UTF-8"?>
<svg width="20px" height="22px" viewBox="0 0 20 22" version="1.1" xmlns="http://www.w3.org/2000/svg" xmlns:xlink="http://www.w3.org/1999/xlink">
    <!-- Generator: Sketch 63 (92445) - https://sketch.com -->
    <title>组件</title>
    <desc>Created with Sketch.</desc>
    <g id="页面-1" stroke="none" stroke-width="1" fill="none" fill-rule="evenodd">
        <g id="新建仪表盘-默认看板" transform="translate(-18.000000, -162.000000)" fill-rule="nonzero" stroke="#B1B5BC">
            <g id="编组-2" transform="translate(16.000000, 162.000000)">
                <g id="组件" transform="translate(2.000000, 0.000000)">
                    <path d="M9.26426194,1.1501217 L1.7183273,5.50474513 C1.26997343,5.80865713 1.00256087,6.25916444 1.00256087,6.80739893 L1.00256087,15.5484808 C1.00256087,16.0967153 1.26997343,16.5472226 1.7183273,16.8511346 L9.32226942,21.2392331 C9.5317638,21.383419 9.78446248,21.4530165 10.0387094,21.4508294 C10.2951706,21.4486232 10.5542697,21.3732577 10.7757767,21.221853 L18.32464,16.8679484 C18.7951429,16.5505428 19.0674634,16.0998425 19.0674634,15.5484808 L19.0674634,6.80739893 C19.0674634,6.25925539 18.8001395,5.80880661 18.35192,5.50489639 L10.7184103,1.1113386 C10.2909879,0.981106374 9.75676457,0.987492815 9.26426194,1.1501217 Z" id="路径"></path>
                    <path d="M15.4253459,8.7013 L10.9091203,11.3236246 L10.9091203,16.7139584 C10.9091203,17.1510125 10.4720662,17.5880666 10.0350121,17.5880666 C9.59795803,17.5880666 9.16090393,17.1510125 9.16090393,16.7139584 L9.16090393,11.3236246 L4.4989936,8.7013 C4.3533089,8.55561531 4.20762421,8.40993062 4.20762421,8.11856121 L4.20762421,7.39013773 C4.3533089,7.09876834 4.64467831,6.95308363 4.9360477,6.95308363 C5.08173239,6.95308363 5.22741708,6.95308363 5.37310179,7.09876834 L10.0350121,9.86677759 L14.6969224,7.24445303 C14.8426071,7.09876834 14.9882918,7.09876834 15.1339765,7.09876834 C15.4253459,7.09876834 15.7167153,7.24445303 15.8624,7.53582242 C16.0080847,7.68150711 16.0080847,7.97287652 15.8624,8.11856121 C15.8624,8.4099306 15.7167153,8.55561531 15.4253459,8.7013 Z" id="路径"></path>
                </g>
            </g>
        </g>
    </g>
</svg>