<?xml version="1.0" encoding="UTF-8"?>
<svg width="12px" height="12px" viewBox="0 0 12 12" version="1.1" xmlns="http://www.w3.org/2000/svg" xmlns:xlink="http://www.w3.org/1999/xlink">
    <!-- Generator: Sketch 63 (92445) - https://sketch.com -->
    <title>shanchu</title>
    <desc>Created with Sketch.</desc>
    <g id="页面-1" stroke="none" stroke-width="1" fill="none" fill-rule="evenodd">
        <g id="右侧面板-筛选组件配置" transform="translate(-1067.000000, -422.000000)" fill-rule="nonzero">
            <g id="常规" transform="translate(712.000000, 110.000000)">
                <g id="编组-40" transform="translate(0.000000, 194.000000)">
                    <g id="shanchu" transform="translate(353.000000, 116.000000)">
                        <rect id="矩形" fill="#000000" opacity="0" x="0" y="0" width="16" height="16"></rect>
                        <path d="M8.79296638,10.7164782 L8.79296638,6.4075117 C8.79296638,5.90535617 9.5774425,5.90535617 9.5774425,6.4075117 L9.5774425,10.7164782 C9.5774425,11.2186817 8.79296638,11.2186817 8.79296638,10.7164782 L8.79296638,10.7164782 L8.79296638,10.7164782 M6.43880248,10.7164782 L6.43880248,6.4075117 C6.43880248,5.90535617 7.22366234,5.90535617 7.22366234,6.4075117 L7.22366234,10.7164782 C7.22364637,11.2186817 6.43880248,11.2186817 6.43880248,10.7164782 L6.43880248,10.7164782 L6.43880248,10.7164782 M13.1087283,4.44879172 L11.1471303,4.44879172 L11.1471303,3.66505109 C11.1471303,3.01617903 10.6196159,2.49008772 9.98220806,2.49008772 L6.04652445,2.49008772 C5.39661309,2.49008772 4.8694665,3.01619502 4.8694665,3.66505109 L4.8694665,4.44879172 L2.90786847,4.44879172 C2.40497742,4.44879172 2.40497742,5.2318608 2.90786847,5.2318608 L13.1087283,5.2318608 C13.6112516,5.2318608 13.6112516,4.44879172 13.1087283,4.44879172 L13.1087283,4.44879172 L13.1087283,4.44879172 M5.65431037,3.66505109 C5.65431037,3.4569362 5.83810577,3.27314081 6.04652445,3.27314081 L9.98220806,3.27314081 C10.1906428,3.27314081 10.3622864,3.43236086 10.3622864,3.66505109 L10.3622864,4.44879172 L5.65431037,4.44879172 L5.65431037,3.66505109 L5.65431037,3.66505109 M10.7545804,13.458635 L5.26168058,13.458635 C4.61213697,13.458635 4.08499037,12.9325757 4.08499037,12.2837196 L4.08499037,6.4075117 C4.08499037,6.17482147 4.26878577,6.01561741 4.47720445,6.01561741 C4.68567111,6.01561741 4.8694665,6.17482147 4.8694665,6.4075117 L4.8694665,12.2837196 C4.8694665,12.4914188 5.05362964,12.6751982 5.26168058,12.6751982 L10.7545644,12.6751982 C10.9629831,12.6751982 11.1471462,12.4914188 11.1471462,12.2837196 L11.1471462,6.41963148 C11.1471462,5.90534017 11.9316224,5.90534017 11.9316224,6.41963148 L11.9316224,12.2837036 C11.9316224,12.9325757 11.4044758,13.458635 10.7545804,13.458635 L10.7545804,13.458635" id="形状" fill="#868D99"></path>
                    </g>
                </g>
            </g>
        </g>
    </g>
</svg>