<?xml version="1.0" encoding="UTF-8"?><svg xmlns="http://www.w3.org/2000/svg" xmlns:xlink="http://www.w3.org/1999/xlink" xml:space="preserve" viewBox="0 0 750 1125"><path fill="#EB9A42" d="M376.408 613.6c-17.227-3.756-46.196-5.328-51.019-5.569-.146 5.11.643 10.291.643 14.678 0 1.941 2.359 5.452 5.956 9.688 10.094.416 28.611 1.057 42.179.803-1.492-5.895-.035-13.098 2.241-19.6M173.609 692.449c3.027 10.093 5.692 21.008 6.646 30.563.15 1.484.321 2.818.501 4.093 7.924-1.71 16.643-2.36 22.115-2.602.962-7.443 1.458-16.483 1.458-25.563 0-1.796.048-3.441.117-5.019-10.902-.245-19.883-1.67-25.528-1.67a65.702 65.702 0 0 0-5.309.198M194.154 742.038c-1.243.284-2.562.675-3.877.786 1.316-.109 2.635-.502 3.877-.786" class="st0"></path><path fill="#FCB25E" d="M209.68 672.193s-4.478 4.528-5.233 21.729c9.245.206 19.867-.441 31.019-3.526 7.34-7.958 13.152-22.532 17.428-33.278l-43.214 15.075zM340.564 584.937c-.614.494-1.225.982-1.816 1.461.591-.479 1.202-.967 1.816-1.461" class="st1"></path><path fill="#FCB25E" d="m314.498 611.173-9.864-9.863s5.35-5.349 24.074-18.725c13.14-9.382 23.62-10.86 28.718-10.911-5.339 4.31-11.195 8.751-16.289 12.81 10.817-8.61 25.139-18.994 30.369-25.971 6.853-9.132 7.847-24.09 6.332-33.269-1.497.732-2.899 1.17-3.658 1.17-2.674 0-8.024 0-10.698-8.025-.708-2.125-1.024-3.854-1.133-5.278-5.611.606-15.266 5.101-20.265 2.604-5.351-2.674-21.399-16.049-32.099-16.049H296.61s-8.023-16.049-16.048-16.049-18.723-5.349-26.748 2.676c-8.025 8.024-8.025 8.024-2.676 10.699 5.35 2.674 10.701 2.674 16.05 2.674s10.698 5.35 10.698 5.35-5.349 0-10.698 8.025c-5.349-2.676-10.7-5.35-18.724-2.676-8.024 2.676-10.7 2.676-21.398 10.7-10.699 8.024-21.399 16.05-13.374 21.399 8.023 5.349 13.374 5.349 24.072 2.674 10.7-2.674 21.398-8.023 21.398-8.023s-5.349 10.699-8.025 29.423c-2.674 18.724-2.674 24.072-8.025 24.072-1.315 0-5.404 0-10.999.082.195 3.397-2.374 8.395-2.374 15.967 0 13.375-2.674 16.05-13.374 18.724-10.7 2.675-32.098-5.349-45.472-13.374-6.06-3.636-8.257-8.36-8.869-12.452l.216-.059c-5.589 1.519-11.623 3.129-17.133 5.167 8.902 11.302 4.385 18.054 1.712 26.068-2.675 8.024 8.024 13.375 13.374 18.724 5.35 5.35-26.747 16.05-32.098 13.374-5.351-2.675-10.7-16.049-13.375-21.399-2.673-5.348-8.024 0-13.374-10.698-1.187-2.377-1.827-4.745-2.133-7.005-2.908-2.483-5.173-5.468-5.891-9.044-2.675-13.374 0-32.099-8.023-32.099-8.024 0-18.724 21.399-16.049 34.774 2.674 13.373 0 21.397 18.724 29.422 18.723 8.024 29.422 8.024 29.422 8.024s0 18.725 5.349 29.424c1.937 7.747-10.135 32.297-15.938 48.316 7.492.595 17.314 2.398 24.221 7.422 7.751-12.569 17.461-30.658 23.816-37.015 6.826-6.825 9.804-9.772 18.764-10.504-5.449-18.154-12.077-33.631-12.077-33.631l152.967-47.645zm51.656-63.36c8.024-2.675 8.024-8.025 8.024-8.025 2.676 5.35-2.674 8.025-5.349 10.701-2.676 2.674-8.024 2.674-8.024 2.674l-2.675-2.674 8.024-2.676zm-50.821-29.424c10.699-2.674 16.048 8.025 10.699 13.375-5.35 5.351-10.699-2.675-13.374-5.35s-3.122-6.574 2.675-8.025m-56.171 77.572c8.025 0 8.025 8.023 8.025 13.373s-8.025 2.674-13.374 2.674c-5.35 0-8.025-2.674-8.025-8.023 0-5.351 13.374-8.024 13.374-8.024" class="st2"></path><path fill="#FCB25E" d="M337.578 587.364c-.402.334-.819.674-1.206.999.387-.325.804-.665 1.206-.999M295.832 642.14l11.404 10.036.073-.045s22.835 21.19 37.934 30.476c.983-3.319 2.591-7.2 4.864-11.752 2.975-5.947 6.313-9.313 9.341-11.208-8.396-7.667-20.36-18.883-27.459-27.251-4.461-.184-7.293-.325-7.293-.325l-28.864 10.069zM290.364 661.885c-2.351 1.358-4.94 2.852-7.745 4.479 2.805-1.628 5.391-3.121 7.745-4.479" class="st3"></path><path fill="#FCB25E" d="m314.498 611.173-152.967 47.646s6.63 15.477 12.081 33.631a64.77 64.77 0 0 1 5.306-.196c5.643 0 14.63 1.425 25.531 1.672.755-17.203 5.229-21.731 5.229-21.731l43.216-15.075c.313-.792.622-1.565.921-2.313 5.351-13.37 32.095-21.396 32.095-21.396l9.921 8.729 28.867-10.069s2.829.142 7.29.325c-3.597-4.235-5.956-7.746-5.956-9.688l-11.534-11.535z" class="st4"></path><path fill="#976026" d="M170.894 612.008c13.374 8.025 34.772 16.049 45.472 13.374 10.699-2.674 13.374-5.349 13.374-18.724 0-7.572 2.568-12.569 2.374-15.967h-.03c-.968.013-1.996.031-3.051.05-.211.005-.424.006-.639.013-1.022.018-2.07.039-3.157.065-.062.002-.121.002-.182.005a718.454 718.454 0 0 0-7.596.217c-.129.005-.251.008-.38.014-1.214.042-2.45.088-3.691.138-.292.013-.583.026-.875.037a712.803 712.803 0 0 0-3.874.178 523.126 523.126 0 0 0-4.673.259c-1.162.066-2.321.141-3.475.222-.117.008-.24.015-.359.024a317.23 317.23 0 0 0-3.649.275l-.902.076a229.804 229.804 0 0 0-3.624.326c-1.153.116-2.268.238-3.365.365-.281.031-.559.066-.836.1-1.046.127-2.072.258-3.053.4a3.54 3.54 0 0 0-.169.021c-1.015.147-1.98.301-2.915.461-.236.044-.471.086-.701.127-.901.162-1.774.333-2.581.511-.025.007-.048.009-.071.015a42.592 42.592 0 0 0-2.797.729c-.685.205-1.336.416-1.898.643-.822.328-1.693.645-2.608.955-.447.153-.932.3-1.402.45-.479.157-.944.31-1.444.461-.65.198-1.332.393-2.012.589-.342.098-.676.2-1.027.297-.926.262-1.875.521-2.835.784l-.216.059c.61 4.09 2.807 8.815 8.867 12.451M99.213 623.728c6.915 5.899 17.491 8.84 20.173 9.514-2.743-.697-13.294-3.645-20.173-9.514" class="st5"></path><path fill="#976026" d="M114.722 641.431c2.675 5.351 8.024 18.725 13.375 21.399 5.351 2.676 37.448-8.024 32.098-13.374-5.35-5.349-16.049-10.699-13.374-18.724 2.672-8.015 7.19-14.767-1.712-26.068-.756.279-1.538.54-2.27.839-.286.114-.571.224-.849.341-.62.265-1.221.542-1.818.821-.372.175-.747.348-1.109.529a47.84 47.84 0 0 0-1.533.807c-.403.225-.8.453-1.188.686-.442.265-.874.538-1.29.814-.41.274-.797.559-1.182.849-.362.269-.72.542-1.059.826a20.84 20.84 0 0 0-1.115 1.034c-.279.271-.569.539-.824.822-.381.424-.712.874-1.042 1.321-.179.246-.385.479-.548.734-.46.724-.867 1.477-1.185 2.271-5.351 13.373-8.024 16.048-8.024 16.048s-.059-.013-.166-.04c-.064-.015-.14-.031-.266-.064a6.89 6.89 0 0 1-.253-.062c-2.683-.67-13.259-3.614-20.173-9.514.307 2.26.946 4.628 2.133 7.005 5.35 10.7 10.701 5.352 13.374 10.7" class="st6"></path><path fill="#976026" d="M145.078 604.621c-.762.282-1.502.581-2.241.882.733-.299 1.514-.56 2.269-.839a.455.455 0 0 0-.028-.043M253.813 612.008c5.349 0 13.374 2.676 13.374-2.674s0-13.373-8.025-13.373c0 0-13.375 2.673-13.375 8.023.001 5.35 2.676 8.024 8.026 8.024" class="st7"></path><path fill="#FFF" d="M328.708 582.585c-18.724 13.376-24.074 18.725-24.074 18.725l9.866 9.866 10.195-3.18s.246.011.694.034c.125-4.242.894-8.433 3.318-12.069.3-.45.702-.943 1.144-1.456.1-.119.209-.244.319-.365a34.39 34.39 0 0 1 1.572-1.64c.026-.024.053-.048.079-.074a60.174 60.174 0 0 1 1.949-1.81 96.904 96.904 0 0 1 2.602-2.253c.387-.325.804-.665 1.206-.999.386-.321.771-.639 1.17-.967.591-.479 1.202-.967 1.816-1.461.192-.152.378-.304.572-.453 5.094-4.059 10.95-8.5 16.289-12.81-5.098.052-15.578 1.53-28.717 10.912M336.372 588.363" class="st8"></path><path fill="#FFF" d="M338.752 586.397c-.405.328-.784.646-1.174.967l1.174-.967M341.136 584.483c-.194.149-.38.301-.57.453.186-.152.376-.303.57-.453M314.498 611.173l11.535 11.535c0-4.387-.789-9.567-.643-14.678a42.604 42.604 0 0 0-.691-.031l-10.201 3.174zM307.236 652.176c-.099.058-.465.266-1.108.632.633-.365 1.009-.575 1.108-.632" class="st9"></path><path fill="#FFF" d="M252.894 657.118c-4.279 10.746-10.088 25.32-17.428 33.278a91.32 91.32 0 0 0 4.806-1.477c.199-.066.396-.129.592-.198a85.988 85.988 0 0 0 5.42-2.083 85.874 85.874 0 0 0 4.666-2.12c.214-.104.433-.22.647-.329a86.264 86.264 0 0 0 4.89-2.635c8.03-4.685 15.208-8.854 21.475-12.493.034-.016.066-.035.103-.055 1.524-.888 2.998-1.742 4.413-2.562l.142-.081c2.809-1.628 5.391-3.121 7.745-4.479.216-.126.418-.239.629-.366l2.941-1.698.01-.002c2.153-1.244 4.06-2.342 5.711-3.293.06-.034.115-.063.173-.1.747-.428 1.444-.831 2.078-1.196.12-.066.215-.123.329-.188.534-.307 1.037-.596 1.489-.854l.95-.546c.11-.063.236-.137.34-.195l1.051-.603c.021-.015.047-.025.062-.036.643-.366 1.009-.577 1.108-.632l-11.404-10.036-42.938 14.979z" class="st10"></path><path fill="#FFF" d="M235.451 690.409a90.208 90.208 0 0 0 4.82-1.489 94.717 94.717 0 0 1-4.806 1.477c-.005.001-.008.008-.014.012M299.656 656.525c-1.651.951-3.558 2.049-5.712 3.293 2.157-1.246 4.061-2.341 5.712-3.293M285.91 633.407s-26.748 8.023-32.097 21.398c-.295.747-.607 1.521-.919 2.313l42.938-14.979-9.922-8.732z" class="st11"></path><path fill="#FCB25E" d="M374.179 526.414c.759 0 2.161-.438 3.658-1.17l-.006-.005a35.33 35.33 0 0 0-.417-2.151c-.011-.035-.016-.072-.027-.111a20.47 20.47 0 0 0-.532-1.913c-2.676-8.024-8.024-8.024-13.374-8.024-.349 0-.734.026-1.133.07.109 1.424.426 3.153 1.133 5.278 2.673 8.026 8.024 8.026 10.698 8.026" class="st12"></path><g opacity=".42"><defs><path id="a" d="M362.35 513.043h15.485v13.374H362.35z"></path></defs><clipPath id="b"><use overflow="visible" xlink:href="#a"></use></clipPath><path fill="#1C1B1C" d="M374.179 526.414c.759 0 2.161-.438 3.658-1.17l-.006-.005a35.33 35.33 0 0 0-.417-2.151c-.011-.035-.016-.072-.027-.111a20.47 20.47 0 0 0-.532-1.913c-2.676-8.024-8.024-8.024-13.374-8.024-.349 0-.734.026-1.133.07.109 1.424.426 3.153 1.133 5.278 2.673 8.026 8.024 8.026 10.698 8.026" clip-path="url(#b)" class="st13"></path></g><path fill="#1C1B1C" d="M326.033 531.764c5.349-5.35 0-16.049-10.699-13.375-5.798 1.451-5.35 5.35-2.675 8.025s8.024 10.7 13.374 5.35" class="st14"></path><path fill="#A46A2E" d="M368.83 550.489c2.675-2.676 8.024-5.351 5.349-10.701 0 0 0 5.35-8.024 8.025l-8.023 2.676 2.675 2.674c-.001 0 5.347 0 8.023-2.674" class="st15"></path><path fill="#FEC483" d="M106.804 732.551c-.263.724-.508 1.426-.74 2.11a92.684 92.684 0 0 0-.661 2.005l-.158.509c-.143.467-.278.923-.402 1.363l-.155.565c-.107.399-.207.785-.294 1.163-.045.191-.091.382-.132.566-.074.35-.136.676-.192 1.001-.032.18-.067.363-.094.535-.046.307-.072.592-.1.874-.013.154-.034.317-.039.465-.017.281-.008.535.003.782.005.114-.003.241.008.349.03.338.087.648.173.912 2.675 8.023 13.374 13.374 21.399 2.674a70.98 70.98 0 0 0 1.431-1.996c.225-.326.46-.678.689-1.022.257-.378.511-.755.773-1.155.324-.496.656-1.008.99-1.536.151-.238.304-.478.457-.722.415-.654.835-1.323 1.263-2.015l.002-.011c-6.904-5.023-16.726-6.827-24.221-7.422.003.004 0 .006 0 .006M350.106 670.854c-2.273 4.552-3.881 8.433-4.864 11.752.135.083.283.183.413.265.422.256.839.505 1.248.741.214.126.424.238.631.356.33.183.653.361.967.528.22.119.433.227.647.332.293.153.588.299.876.437.206.1.409.19.613.283.28.125.554.242.821.348.188.081.377.156.559.227.269.1.527.185.778.269.168.053.335.11.495.155.269.076.52.131.773.182.122.026.252.063.373.082.36.061.705.094 1.018.094 10.699 0 16.049-16.05 13.375-18.724a19.31 19.31 0 0 0-.396-.382c-.052-.049-.128-.117-.189-.176-.135-.123-.271-.251-.438-.402-.1-.089-.209-.191-.319-.29l-.559-.508-.408-.366-.653-.593c-.382-.346-.8-.721-1.241-1.118-.094-.086-.178-.16-.268-.247-.372-.334-.758-.681-1.158-1.043-.139-.126-.27-.243-.41-.374a396.55 396.55 0 0 1-1.575-1.424c-.57-.517-1.154-1.052-1.768-1.611-3.027 1.894-6.365 5.26-9.341 11.207" class="st16"></path><path fill="#FEC483" d="M345.237 682.619c.144.091.279.166.423.252-.138-.084-.282-.182-.417-.265 0 .005-.006.012-.006.013" class="st17"></path><path fill="#F3B16A" d="M388.893 618.695a4.015 4.015 0 0 0-.658-.741c-.066-.054-.158-.108-.225-.165a7.867 7.867 0 0 0-.734-.546c-.076-.049-.18-.094-.266-.144a13.29 13.29 0 0 0-.973-.538c-.076-.032-.166-.066-.244-.104a19.423 19.423 0 0 0-1.254-.546c-.063-.025-.139-.047-.203-.073-.48-.188-.988-.371-1.531-.551-.025-.009-.047-.014-.072-.021a54.882 54.882 0 0 0-2.868-.838c-.048-.013-.095-.026-.142-.037a80.383 80.383 0 0 0-3.119-.746c-.068-.013-.127-.03-.193-.045-2.278 6.502-3.738 13.705-2.247 19.599a179.38 179.38 0 0 0 2.294-.05c.047-.003.088-.003.135-.003 1.495-.044 2.903-.099 4.218-.169.072-.003.15-.006.216-.011a87.8 87.8 0 0 0 1.659-.104 67.367 67.367 0 0 0 1.65-.13c.154-.015.318-.027.467-.04.406-.038.768-.084 1.137-.127.146-.02.313-.032.449-.05.326-.042.611-.094.902-.136.152-.026.326-.047.473-.074.414-.072.795-.151 1.129-.234 10.697-2.676 5.347-5.35 0-13.376" class="st18"></path><path fill="#F3B16A" d="M376.41 613.598v.002c.066.015.125.032.193.045-.068-.013-.124-.033-.193-.047M374.164 633.202c.785-.015 1.547-.032 2.294-.057-.743.024-1.516.04-2.294.053v.004zM379.723 614.391c.049.011.094.024.142.037-.049-.013-.09-.027-.142-.037M181.037 728.995l.017.095c.097.588.2 1.146.305 1.688.008.039.013.08.021.118.105.532.215 1.038.324 1.525l.026.124c.113.479.225.938.344 1.376.011.04.021.079.028.115.118.438.241.854.365 1.253.01.026.018.058.027.091.127.399.257.779.387 1.138.006.019.01.034.019.051.136.371.273.72.416 1.053l.004.007c1.971 4.589 4.462 5.404 6.961 5.195 1.312-.111 2.631-.502 3.875-.786.017-.004.033-.004.046-.011.146-.031.285-.063.428-.091.043-.008.088-.02.13-.026l.373-.064c.056-.008.109-.019.163-.025.117-.017.233-.031.35-.044.053-.005.11-.013.167-.021a8.25 8.25 0 0 1 .495-.019c.306 0 .6-.089.886-.221.045-.023.09-.037.136-.063.267-.146.528-.356.778-.615a6.533 6.533 0 0 0 .879-1.148c.05-.084.101-.18.149-.268.2-.354.399-.745.585-1.17.053-.12.107-.232.159-.355.186-.443.363-.935.537-1.438.069-.205.135-.405.203-.617a38.676 38.676 0 0 0 .704-2.548 58.617 58.617 0 0 0 .631-2.917c.071-.359.137-.728.203-1.1a103.985 103.985 0 0 0 .506-3.167c.077-.519.143-1.072.212-1.607-5.472.241-14.191.892-22.113 2.602.087.642.175 1.296.274 1.89" class="st19"></path><path fill="#F3B16A" d="M180.748 727.105c.094.657.189 1.285.289 1.89-.099-.594-.187-1.248-.28-1.89h-.009zM202.883 724.504h-.01c-.069.538-.138 1.089-.211 1.607.074-.526.152-1.061.221-1.607" class="st20"></path><path fill="#986026" d="M393.096 622.183c-.943-1.229-2.021-2.622-3.086-4.221a5.218 5.218 0 0 0-.883-1.001 3.293 3.293 0 0 0-.277-.211 7.92 7.92 0 0 0-.852-.626l-.297-.169a13.735 13.735 0 0 0-1.066-.586 14.175 14.175 0 0 0-.27-.119c-.414-.196-.85-.392-1.543-.655a28.709 28.709 0 0 0-1.678-.601 61.05 61.05 0 0 0-2.982-.87l-.006-.002-.073-.022h-.021a76.408 76.408 0 0 0-3.069-.736c-.034-.006-.065-.015-.1-.023-.003-.002-.005-.002-.011-.002 0 0-.006 0-.006-.002-.004 0-.006-.004-.012-.004l-.031-.004c-.063-.014-.11-.026-.176-.039-.002-.003-.006-.003-.01-.003s-.008-.003-.014-.003l-.01-.002c-16.028-3.482-41.959-5.091-49.793-5.515.272-4.133 1.207-7.391 2.988-10.061.274-.411.644-.861 1.046-1.326l.298-.345c.453-.501.945-1.024 1.59-1.653a70.78 70.78 0 0 1 2.033-1.878l.253-.228c.01-.014.026-.025.042-.037.643-.571 1.337-1.161 2.059-1.771l.094-.08.002-.007.326-.269 2.034-1.678 2.371-1.908.943-.743c1.946-1.538 3.973-3.113 6.041-4.727 9.519-7.399 19.36-15.052 23.625-20.741 6.893-9.19 8.245-24.216 6.579-34.29v-.002a38.33 38.33 0 0 0-.466-2.349 22.063 22.063 0 0 0-.564-2.033c-2.978-8.938-9.174-8.938-14.644-8.938-.381 0-.799.028-1.228.072-.016 0-.031 0-.05.004-1.94.21-4.263.838-6.718 1.503-3.339.907-6.791 1.845-9.635 1.845-1.294 0-2.362-.207-3.169-.608-1.332-.667-3.508-2.129-6.024-3.822-7.322-4.924-18.387-12.369-26.672-12.369h-12.562c-1.753-3.281-9.067-16.048-16.861-16.048-2.092 0-4.425-.394-6.892-.805-2.757-.465-5.604-.943-8.488-.943-5.047 0-9.075 1.576-12.313 4.813-5.303 5.303-7.089 7.09-6.76 9.108.266 1.648 1.836 2.435 4.436 3.733 5.631 2.816 11.229 2.816 16.644 2.816 2.931 0 5.963 1.891 7.852 3.338-2.137.836-5.208 2.721-8.288 6.984-3.545-1.752-7.264-3.406-11.857-3.406-2.235 0-4.476.382-6.852 1.175a170.45 170.45 0 0 1-3.333 1.07c-5.739 1.806-9.202 2.893-18.444 9.828-8.676 6.507-16.866 12.65-16.711 18.275.056 2.059 1.202 3.844 3.395 5.308 4.895 3.264 8.994 4.657 13.703 4.657 2.979 0 6.401-.539 11.437-1.798 7.266-1.818 14.437-4.804 18.441-6.606-1.802 4.54-4.869 13.614-6.713 26.519-.324 2.265-.606 4.334-.87 6.221-1.857 13.513-2.421 16.702-5.834 16.702-1.319 0-5.411 0-11.017.08h-.002c-.231.002-7.07.133-7.07.133l-7.607.217-4.08.153-4.354.197s-2.916.15-4.173.222l-4.774.299c-1.234.088-4.569.356-4.569.356-1.136.097-2.254.197-3.359.306l-.28.022c-1.161.117-2.284.238-3.395.369l-.839.1a175.56 175.56 0 0 0-3.25.423c-1.027.149-2.003.309-2.943.47l-.722.127c-.918.166-1.805.341-2.701.537-.846.19-1.619.389-2.349.596l-.543.156a24.27 24.27 0 0 0-2.008.682c-.8.318-1.653.63-2.542.933l-2.802.898-1.996.583s-2.892.815-4.034 1.125c-.008 0-.015.008-.024.012l-.643.172c-5.365 1.455-10.907 2.965-16.118 4.873-.1.013-.2.017-.3.054-.737.271-1.457.562-2.171.85 0 0-.11.043-.113.046l-.862.352c-.592.249-1.172.516-1.865.837-.383.184-.765.36-1.142.547a39.02 39.02 0 0 0-1.577.833c-.422.232-.837.469-1.233.71-.459.274-.909.559-1.347.854-.429.285-.834.583-1.239.886-.382.285-.762.572-1.118.873-.423.355-.808.729-1.375 1.28-.237.229-.476.46-.699.703-.411.46-.773.942-1.128 1.431l-.188.245c-.142.181-.278.36-.404.555a15.038 15.038 0 0 0-1.303 2.496c-3.903 9.758-6.361 13.719-7.297 15.038-1.656-.424-7.08-1.919-12.473-4.658l-.034-.015a54.99 54.99 0 0 1-1.329-.705c-.072-.041-.148-.081-.223-.123a55.054 55.054 0 0 1-1.112-.646c-.128-.078-.263-.155-.39-.236-.312-.188-.613-.387-.917-.586a24.167 24.167 0 0 1-1.294-.896 36.47 36.47 0 0 1-.558-.413 24.314 24.314 0 0 1-1.142-.915l-.002-.002c-3.032-2.583-4.864-5.37-5.446-8.283-.848-4.242-1.148-9.041-1.437-13.679-.625-10.026-1.217-19.495-7.898-19.495-2.655 0-5.553 1.82-8.38 5.265-5.876 7.171-10.983 21.102-8.981 31.106.467 2.33.765 4.48 1.054 6.557 1.365 9.832 2.353 16.936 18.455 23.836 15.248 6.533 25.197 7.817 28.632 8.071.101 4.441.789 19.246 5.4 28.604 1.157 5.263-4.772 19.701-10.009 32.45-2.205 5.369-4.288 10.441-5.923 14.952v.012a.067.067 0 0 1-.007.011c-.262.725-.51 1.429-.744 2.114l-.832 2.558c-.144.479-.57 1.972-.57 1.972-.109.415-.211.813-.302 1.197l-.137.595c-.077.366-.144.712-.232 1.211l-.069.415c-.052.333-.081.643-.12 1.08l-.033.379c-.019.325-.01.622.002 1.006 0 .037.008.28.011.32.043.459.121.854.241 1.216 1.876 5.637 6.994 9.584 12.438 9.584 2.92 0 7.251-1.137 11.299-6.531.464-.625.957-1.313 1.457-2.038l1.484-2.206.998-1.55 1.731-2.754.001-.009c2.074-3.362 4.288-7.119 6.542-10.94 6.167-10.469 12.544-21.291 17.083-25.83 6.362-6.361 9.22-9.141 16.854-9.986 3.357 11.366 5.48 21.206 6.279 29.235.151 1.486.322 2.821.505 4.101.002.016-.007.026-.004.043.092.642.293 1.919.295 1.919v.002c.006.024.01.067.013.095.103.6.207 1.172.334 1.846.107.544.217 1.066.36 1.694.117.495.235.968.383 1.537.124.454.25.886.407 1.394.134.42.269.821.425 1.25.145.394.292.768.447 1.125 1.745 4.062 4.197 6.037 7.501 6.037h.002c.176 0 .353-.017.532-.026.05 0 .102 0 .153-.004l.04-.003c.023-.004.051-.004.071-.004l.003-.002c1.108-.091 2.164-.348 3.185-.599l.875-.21.002-.004.051-.01.487-.102c.013-.003.481-.083.496-.084.005-.003.421-.049.426-.054a5.75 5.75 0 0 1 .391-.015c.476 0 .956-.115 1.661-.448.369-.203.725-.479 1.107-.863l.198-.217a8.02 8.02 0 0 0 .843-1.146l.18-.317c.221-.388.438-.818.642-1.278l.173-.392c.197-.468.386-.984.608-1.639l.176-.531c.17-.535.331-1.107.488-1.702l.239-.93c.113-.468.225-.955.332-1.446.107-.498.21-1.01.31-1.536l.209-1.118c.125-.714.249-1.45.365-2.202l.148-1.005.016-.123c0-.006.004-.008.004-.012l.205-1.501c.003-.021-.005-.034-.005-.053.944-7.306 1.462-16.418 1.462-25.675 0-1.298.031-2.501.074-3.67.604.01 1.202.022 1.816.022 10.182 0 19.38-1.174 28.125-3.581.044-.008.086-.005.125-.016.238-.067.483-.15.718-.219a86.588 86.588 0 0 0 3.124-.957c.173-.055.34-.098.513-.154l.538-.18a5.821 5.821 0 0 1 .236-.073l.366-.13a89.454 89.454 0 0 0 4.711-1.783l.794-.327a92.947 92.947 0 0 0 4.739-2.156l.65-.33a89.982 89.982 0 0 0 4.966-2.678c8.019-4.676 15.205-8.855 21.471-12.489.006-.003.006-.006.006-.006.03-.02.063-.038.094-.058l12.298-7.114 11.546-6.652-.665-1.161.987.972 3.893-2.232h.003l.331-.188c3.909 3.576 23.834 21.612 37.417 29.965.019.014.039.006.058.017.031.024.057.051.089.074.005.002.011.01.016.015l.01.002c.011.008.021.022.032.033l.004-.007c.027.014.056.029.12.072.05.034.094.062.094.065.01.003.016 0 .021.007.358.215.963.581 1.254.751l.459.256.649-1.17-.397 1.308.93.516s1.271.646 1.567.787l.643.297c.292.13.58.254.853.365l.599.239c.293.109.574.204.833.287l.551.174c.298.084.583.146.98.229.025.01.289.063.321.068.433.069.851.109 1.227.109 6.828 0 11.666-5.809 13.918-11.245 1.375-3.314 2.303-7.862.417-9.748-.099-.103-.255-.248-.637-.604 0-.002-8.808-7.987-8.808-7.987v-.002c-11.269-10.29-19.753-18.608-25.3-24.799 8.248.32 21.178.739 32.405.739 2.322 0 4.571-.021 6.703-.059.005 0 .005.004.01.004l2.006-.051.46-.008c1.505-.042 2.926-.1 4.467-.18l1.681-.104 2.154-.175 1.629-.184a83.875 83.875 0 0 0 1.432-.217 17.7 17.7 0 0 0 1.225-.254c4.369-1.092 6.396-2.256 7.008-4.021.747-2.146-.878-4.251-3.13-7.163" class="st21"></path><path fill="#F3B16A" d="M183.317 737.629c1.972 4.593 4.462 5.407 6.96 5.195-2.498.212-4.988-.606-6.96-5.195" class="st22"></path><path fill="#EB9A42" d="M376.41 613.603c-17.227-3.759-46.198-5.331-51.015-5.572-.146 5.11.642 10.294.642 14.678 0 1.941 2.357 5.452 5.954 9.688 10.096.418 28.613 1.057 42.178.807-1.494-5.895-.034-13.1 2.241-19.601M173.611 692.451c3.028 10.091 5.692 21.007 6.647 30.562a99.54 99.54 0 0 0 .503 4.093c7.926-1.71 16.64-2.355 22.113-2.602.965-7.443 1.458-16.48 1.458-25.563 0-1.796.051-3.441.12-5.019-10.901-.245-19.886-1.67-25.531-1.67a66.21 66.21 0 0 0-5.31.199M194.158 742.041c-1.243.281-2.563.674-3.878.783 1.315-.109 2.635-.502 3.878-.783" class="st23"></path><path fill="#FCB25E" d="M209.683 672.193s-4.476 4.528-5.232 21.729c9.245.21 19.863-.441 31.02-3.526 7.34-7.958 13.149-22.531 17.423-33.276l-43.211 15.073zM340.566 584.939" class="st24"></path><path fill="#FCB25E" d="m314.502 611.173-9.863-9.863s5.35-5.349 24.072-18.725c13.14-9.382 23.62-10.86 28.719-10.911-5.344 4.31-11.198 8.751-16.294 12.81 10.819-8.61 25.139-18.994 30.374-25.971 6.849-9.132 7.841-24.09 6.327-33.269-1.495.732-2.895 1.17-3.652 1.17-2.675 0-8.024 0-10.7-8.025-.71-2.125-1.029-3.852-1.133-5.278-5.611.606-15.271 5.104-20.266 2.604-5.348-2.674-21.398-16.049-32.097-16.049h-13.374s-8.025-16.049-16.049-16.049-18.724-5.349-26.749 2.676c-8.024 8.024-8.024 8.024-2.675 10.699 5.351 2.674 10.7 2.674 16.05 2.674 5.349 0 10.699 5.35 10.699 5.35s-5.35 0-10.699 8.025c-5.35-2.676-10.699-5.35-18.725-2.676-8.024 2.676-10.699 2.676-21.398 10.7-10.698 8.024-21.399 16.05-13.374 21.399 8.024 5.349 13.374 5.349 24.073 2.674 10.699-2.674 21.398-8.023 21.398-8.023s-5.35 10.699-8.025 29.423c-2.674 18.724-2.674 24.072-8.024 24.072-1.319 0-5.407.004-11.005.082.196 3.397-2.369 8.395-2.369 15.967 0 13.375-2.675 16.05-13.373 18.724-10.701 2.675-32.099-5.349-45.473-13.374-6.062-3.632-8.256-8.36-8.87-12.452.072-.017.141-.038.214-.059-5.585 1.519-11.62 3.129-17.132 5.167 8.904 11.304 4.386 18.059 1.715 26.068-2.676 8.024 8.024 13.375 13.374 18.724 5.349 5.35-26.749 16.05-32.098 13.374-5.349-2.675-10.699-16.049-13.374-21.399-2.674-5.348-8.024 0-13.373-10.698a22.237 22.237 0 0 1-2.138-7.005c-2.906-2.479-5.171-5.466-5.888-9.044-2.674-13.374 0-32.099-8.024-32.099s-18.724 21.399-16.049 34.774c2.674 13.373 0 21.397 18.724 29.422 18.723 8.024 29.422 8.024 29.422 8.024s0 18.725 5.351 29.424c1.936 7.747-10.138 32.3-15.939 48.316 7.491.595 17.314 2.4 24.22 7.422 7.752-12.569 17.458-30.658 23.816-37.015 6.826-6.822 9.804-9.771 18.764-10.502-5.448-18.156-12.077-33.633-12.077-33.633l152.967-47.645zm51.659-63.36c8.024-2.675 8.024-8.025 8.024-8.025 2.674 5.35-2.675 8.025-5.349 10.701-2.675 2.674-8.026 2.674-8.026 2.674l-2.674-2.674 8.025-2.676zm-50.822-29.424c10.698-2.674 16.049 8.025 10.698 13.375-5.348 5.351-10.698-2.675-13.373-5.35-2.675-2.675-3.127-6.572 2.675-8.025m-56.172 77.572c8.025 0 8.025 8.023 8.025 13.373s-8.025 2.674-13.375 2.674-8.024-2.674-8.024-8.023c0-5.351 13.374-8.024 13.374-8.024" class="st25"></path><path fill="#FCB25E" d="M337.583 587.364c-.404.334-.822.674-1.207.999.387-.325.8-.663 1.207-.999M295.837 642.14l11.398 10.036c.021-.01.078-.045.078-.045s22.831 21.19 37.931 30.479c.985-3.32 2.592-7.203 4.866-11.755 2.974-5.945 6.312-9.313 9.341-11.206-8.396-7.669-20.359-18.885-27.462-27.253-4.458-.184-7.289-.325-7.289-.325l-28.863 10.069zM290.367 661.885c-2.35 1.358-4.938 2.855-7.742 4.479 2.804-1.624 5.388-3.117 7.742-4.479" class="st26"></path><path fill="#FCB25E" d="m314.502 611.173-152.968 47.646s6.631 15.477 12.077 33.633a65.783 65.783 0 0 1 5.31-.198c5.643 0 14.628 1.425 25.531 1.672.755-17.203 5.229-21.731 5.229-21.731l43.214-15.073c.314-.792.625-1.567.922-2.314 5.35-13.37 32.099-21.396 32.099-21.396l9.921 8.729 28.864-10.069s2.831.142 7.289.325c-3.596-4.235-5.954-7.746-5.954-9.688l-11.534-11.536z" class="st27"></path><path fill="#976026" d="M170.898 612.008c13.374 8.025 34.772 16.049 45.473 13.374 10.698-2.674 13.373-5.349 13.373-18.724 0-7.572 2.565-12.569 2.369-15.967h-.025c-.968.016-1.999.031-3.053.05-.21.005-.424.01-.638.013-1.023.023-2.071.042-3.157.065-.062.002-.12.002-.182.005-1.125.026-2.287.059-3.466.088-.271.009-.546.018-.821.025-1.088.03-2.188.067-3.31.104-.127.005-.254.008-.378.014a457.001 457.001 0 0 0-4.567.178c-1.15.047-2.308.099-3.466.155-.137.01-.27.014-.408.02-1.248.063-2.503.131-3.751.203-.309.019-.614.036-.921.056-1.164.066-2.324.143-3.475.222l-.36.024c-1.231.085-2.445.178-3.649.275l-.903.076c-1.129.097-2.241.196-3.336.3-.094.012-.192.02-.285.029-1.154.113-2.27.235-3.367.362-.28.031-.559.066-.836.1-1.045.127-2.07.26-3.051.4a3.21 3.21 0 0 0-.168.021c-1.018.147-1.981.305-2.917.465-.237.04-.471.082-.701.123a73.504 73.504 0 0 0-2.651.526c-.822.182-1.568.377-2.279.577-.177.052-.348.103-.519.152-.688.205-1.338.416-1.899.643-.822.328-1.694.646-2.609.956-.447.152-.933.302-1.401.449-.479.157-.947.313-1.445.464-.65.195-1.332.391-2.011.586-.346.098-.677.2-1.028.3-.925.259-1.875.519-2.838.781-.073.021-.142.042-.214.059.614 4.09 2.808 8.819 8.87 12.451M99.216 623.728c6.914 5.899 17.493 8.84 20.174 9.514-2.744-.697-13.295-3.645-20.174-9.514" class="st28"></path><path fill="#976026" d="M114.727 641.431c2.675 5.351 8.025 18.725 13.374 21.399 5.35 2.676 37.447-8.024 32.098-13.374-5.35-5.349-16.05-10.699-13.374-18.724 2.671-8.01 7.189-14.765-1.715-26.068-.756.279-1.534.54-2.271.839-.281.114-.567.226-.845.345-.623.261-1.223.539-1.819.817-.375.175-.747.35-1.109.529a37.63 37.63 0 0 0-4.01 2.308c-.41.275-.798.561-1.184.848-.36.271-.718.544-1.059.826a21.3 21.3 0 0 0-1.116 1.037c-.277.271-.569.539-.822.819-.383.424-.712.874-1.045 1.321-.176.246-.382.481-.545.734a13.772 13.772 0 0 0-1.185 2.271c-5.349 13.373-8.024 16.048-8.024 16.048l-.166-.037c-.063-.015-.14-.033-.267-.065a18.21 18.21 0 0 1-.254-.063c-2.682-.67-13.26-3.614-20.174-9.514.307 2.26.95 4.628 2.138 7.005 5.349 10.699 10.699 5.351 13.374 10.699" class="st29"></path><path fill="#976026" d="M145.082 604.624c-.765.277-1.502.578-2.241.879.733-.299 1.515-.56 2.272-.839-.013-.014-.02-.027-.031-.04M253.817 612.008c5.35 0 13.375 2.676 13.375-2.674s0-13.373-8.025-13.373c0 0-13.374 2.673-13.374 8.023s2.675 8.024 8.024 8.024" class="st30"></path><path fill="#FFF" d="M328.712 582.585c-18.723 13.376-24.072 18.725-24.072 18.725l9.863 9.866 10.199-3.18s.242.014.691.034c.129-4.24.895-8.43 3.32-12.069.299-.447.698-.941 1.14-1.456l.321-.365c.473-.521.982-1.064 1.573-1.64.023-.024.055-.048.078-.074a61.644 61.644 0 0 1 1.951-1.81c.126-.112.251-.228.382-.343a104.46 104.46 0 0 1 2.221-1.91c.384-.325.803-.665 1.207-.999.387-.32.769-.639 1.17-.965a278.476 278.476 0 0 1 2.383-1.916c5.096-4.059 10.95-8.5 16.294-12.81-5.101.052-15.581 1.53-28.721 10.912M336.377 588.363" class="st31"></path><path fill="#FFF" d="M338.754 586.399c-.402.326-.784.645-1.17.965.386-.32.771-.638 1.17-.965M341.136 584.483c-.19.152-.379.301-.57.456.191-.155.38-.303.57-.456M314.502 611.173l11.534 11.535c0-4.384-.788-9.567-.642-14.678l-.694-.031-10.198 3.174zM307.239 652.176l-1.105.632 1.105-.632M252.896 657.12c-4.276 10.745-10.085 25.318-17.425 33.276a89.118 89.118 0 0 0 4.806-1.477c.198-.064.397-.128.593-.198a85.897 85.897 0 0 0 4.647-1.759c.256-.104.517-.214.773-.319a89.288 89.288 0 0 0 4.66-2.121c.219-.108.433-.224.647-.329a89.86 89.86 0 0 0 4.896-2.639 8666.602 8666.602 0 0 1 21.471-12.488l.102-.06c1.528-.888 3.002-1.742 4.417-2.562.05-.029.094-.052.142-.081a6050.74 6050.74 0 0 1 7.742-4.479c.216-.126.418-.239.632-.363 1.021-.589 2.009-1.163 2.938-1.697.003-.004.008-.004.008-.006 2.158-1.244 4.06-2.34 5.716-3.292.058-.035.11-.063.17-.098.749-.431 1.444-.831 2.085-1.197l.32-.188 1.492-.856c.358-.202.647-.373.947-.545.116-.063.241-.135.346-.195.407-.234.752-.431 1.05-.604.02-.015.042-.025.062-.036l1.103-.632-11.398-10.036-42.942 14.981z" class="st32"></path><path fill="#FFF" d="M235.453 690.413c1.6-.441 3.209-.949 4.823-1.493a92.871 92.871 0 0 1-4.806 1.477l-.017.016M299.661 656.526c-1.656.95-3.558 2.048-5.716 3.29 2.158-1.244 4.065-2.343 5.716-3.29M285.916 633.407s-26.749 8.023-32.099 21.398c-.296.747-.605 1.522-.924 2.314l42.94-14.98-9.917-8.732z" class="st33"></path><path fill="#FCB25E" d="M374.185 526.414c.757 0 2.157-.438 3.652-1.17a36.237 36.237 0 0 0-.421-2.156c-.011-.035-.016-.072-.029-.111a20.83 20.83 0 0 0-.527-1.913c-2.674-8.024-8.023-8.024-13.374-8.024-.354 0-.737.026-1.133.07.104 1.426.423 3.153 1.133 5.278 2.675 8.026 8.024 8.026 10.699 8.026" class="st34"></path><g opacity=".42"><defs><path id="c" d="M362.352 513.043h15.485v13.374h-15.485z"></path></defs><clipPath id="d"><use overflow="visible" xlink:href="#c"></use></clipPath><path fill="#1C1B1C" d="M374.185 526.414c.757 0 2.157-.438 3.652-1.17a36.237 36.237 0 0 0-.421-2.156c-.011-.035-.016-.072-.029-.111a20.83 20.83 0 0 0-.527-1.913c-2.674-8.024-8.023-8.024-13.374-8.024-.354 0-.737.026-1.133.07.104 1.426.423 3.153 1.133 5.278 2.675 8.026 8.024 8.026 10.699 8.026" clip-path="url(#d)" class="st35"></path></g><path fill="#1C1B1C" d="M326.037 531.764c5.351-5.35 0-16.049-10.698-13.375-5.802 1.453-5.35 5.35-2.675 8.025 2.675 2.675 8.024 10.7 13.373 5.35" class="st36"></path><path fill="#A46A2E" d="M368.836 550.489c2.674-2.676 8.023-5.351 5.349-10.701 0 0 0 5.35-8.024 8.025l-8.025 2.676 2.674 2.674s5.351 0 8.026-2.674" class="st37"></path><path fill="#FEC483" d="M106.808 732.554a126.422 126.422 0 0 0-.868 2.475 98.66 98.66 0 0 0-.534 1.638c-.054.173-.104.34-.159.513-.145.466-.278.92-.401 1.361-.054.188-.104.375-.155.563-.109.399-.206.788-.293 1.163a44.79 44.79 0 0 0-.133.567 31.772 31.772 0 0 0-.285 1.535c-.046.31-.072.594-.099.874-.013.155-.034.317-.042.465-.014.281-.005.535.005.782.002.114-.003.241.008.349.032.339.084.648.173.912 2.675 8.023 13.375 13.374 21.398 2.674.461-.608.939-1.284 1.432-1.998.225-.324.459-.673.689-1.021.254-.378.508-.755.771-1.155.326-.499.659-1.008.993-1.533.152-.238.301-.479.458-.722.413-.657.834-1.323 1.26-2.018.002-.004.005-.006.005-.011-6.907-5.021-16.729-6.827-24.222-7.422l-.001.009M350.111 670.854c-2.277 4.552-3.881 8.435-4.863 11.755.13.083.279.184.412.264.423.254.841.508 1.245.746.217.119.425.231.636.35.327.183.647.363.967.531.219.116.434.224.642.332.298.152.59.299.877.434.209.1.413.19.617.283.278.125.549.242.815.351.194.078.38.154.564.224.266.1.525.189.778.269.167.053.331.11.49.155.269.079.523.133.773.186.127.022.256.059.376.078a6.17 6.17 0 0 0 1.02.094c10.699 0 16.049-16.05 13.375-18.724-.092-.089-.228-.221-.398-.379l-.193-.179c-.131-.123-.27-.249-.438-.402-.095-.089-.208-.191-.314-.288l-.564-.51c-.131-.115-.267-.241-.405-.366l-.651-.591-1.242-1.12c-.096-.085-.178-.16-.272-.247-.372-.331-.756-.681-1.156-1.043-.138-.126-.272-.243-.413-.371a478.647 478.647 0 0 0-1.572-1.427c-.57-.517-1.154-1.052-1.766-1.609-3.029 1.892-6.367 5.259-9.34 11.204" class="st38"></path><path fill="#FEC483" d="M345.243 682.622c.141.088.276.165.417.251-.133-.08-.282-.181-.417-.264v.013" class="st39"></path><path fill="#F3B16A" d="M388.896 618.695a4.106 4.106 0 0 0-.66-.739c-.066-.056-.156-.108-.225-.167a7.526 7.526 0 0 0-.734-.543c-.078-.051-.176-.097-.262-.146a11.99 11.99 0 0 0-.977-.535c-.074-.035-.166-.069-.24-.107a24.212 24.212 0 0 0-1.254-.546c-.063-.022-.143-.047-.205-.073a31.73 31.73 0 0 0-1.529-.548l-.074-.024a53.197 53.197 0 0 0-2.867-.835c-.047-.014-.094-.024-.141-.04a81.816 81.816 0 0 0-3.119-.744c-.068-.015-.131-.032-.197-.044-2.274 6.502-3.737 13.706-2.244 19.6.78-.017 1.547-.032 2.294-.054l.13-.003a185.482 185.482 0 0 0 4.435-.177c.576-.032 1.125-.068 1.66-.104.105-.009.217-.012.322-.022.463-.031.898-.071 1.33-.11.152-.015.32-.027.467-.04.404-.038.768-.084 1.139-.127.141-.017.307-.032.449-.05.324-.042.607-.088.898-.136.154-.025.33-.045.473-.071.416-.071.797-.15 1.131-.237 10.7-2.678 5.348-5.352 0-13.378" class="st40"></path><path fill="#F3B16A" d="M376.412 613.6v.003c.066.012.129.029.197.044-.071-.015-.13-.033-.197-.047M379.729 614.391l.141.04c-.048-.014-.095-.028-.141-.04M181.041 728.995l.013.095c.1.588.202 1.15.309 1.688.008.041.012.08.021.118.104.532.214 1.038.323 1.525.007.04.018.083.026.124a45.012 45.012 0 0 0 .371 1.493c.118.438.237.853.365 1.251.008.028.019.058.026.091.125.399.257.783.388 1.143.005.016.01.033.016.047.137.37.275.723.417 1.052l.005.007c1.968 4.589 4.461 5.407 6.957 5.195 1.316-.109 2.635-.502 3.878-.783.017-.007.03-.007.045-.011.146-.034.287-.062.429-.093l.131-.027.372-.063c.055-.01.11-.021.164-.027.118-.017.232-.031.351-.04.054-.006.109-.017.163-.02a5.6 5.6 0 0 1 .498-.023c.304 0 .597-.089.885-.221.045-.021.09-.037.135-.062.268-.146.528-.357.78-.613a6.827 6.827 0 0 0 .877-1.151c.051-.084.1-.18.15-.268.2-.354.397-.745.585-1.17.053-.118.106-.232.158-.355.184-.441.363-.93.535-1.438.069-.205.139-.404.205-.617.164-.518.321-1.067.477-1.643.075-.294.153-.596.227-.902a63.065 63.065 0 0 0 .632-2.92c.068-.358.137-.728.204-1.097a111.515 111.515 0 0 0 .505-3.17c.075-.519.142-1.072.212-1.607-5.477.246-14.191.892-22.114 2.602.092.642.179 1.296.279 1.89" class="st41"></path><path fill="#F3B16A" d="M180.75 727.107c.095.655.19 1.283.289 1.888-.099-.594-.187-1.248-.278-1.89-.004 0-.007 0-.011.002M202.886 724.504h-.01c-.071.538-.138 1.089-.212 1.607.077-.526.154-1.061.222-1.607M183.321 737.629c1.972 4.593 4.461 5.407 6.96 5.195-2.499.212-4.988-.606-6.96-5.195" class="st42"></path><g><path fill="#6B6B6B" d="M699.853 728.943c-1.53-4.599-4.59-9.948-7.548-15.125-2.887-5.05-5.869-10.274-7.31-14.591-3.007-9.016-11.746-26.507-23.854-50.712-.475-.954-1.054-1.945-1.695-2.97-12.139-19.997-41.909-31.848-80.723-31.848-7.432 0-15.197.443-23.077 1.318-1.858.205-3.658.418-5.422.629-.575.07-1.134.14-1.695.21-1.229.149-2.432.301-3.614.455-.568.07-1.129.146-1.687.22a669.85 669.85 0 0 0-3.927.534l-.901.126a542.17 542.17 0 0 0-4.8.703c-.154.022-.306.047-.461.071-1.455.22-2.863.442-4.231.666l-.515.084a427.655 427.655 0 0 0-19.985 3.724l-.5.106c-.852.182-1.679.358-2.472.53-.659.148-1.297.291-1.936.43-.237.052-.488.109-.722.162l-.004.004a644.08 644.08 0 0 0-12.167 2.882c-8.162 1.996-13.549 3.313-18.001 3.313-3.81 0-7.419-.007-10.63-.119-.67-.02-1.287-.055-1.897-.086a60.745 60.745 0 0 1-.779-.045c-2.168-.141-3.951-.354-5.375-.646-.016-.001-.032-.001-.046-.006-1.822-.37-3.239-.881-3.992-1.637-1.984-1.981-8.123-18.923-11.528-29.131a1.474 1.474 0 0 0-1.021-.964 1.472 1.472 0 0 0-1.368.314l-23.227 20.322c-2.955-.548-14.415-2.532-25.102-2.532-6.759 0-12.042.788-15.74 2.342-4-4.126-6.141-7.464-7.73-9.938-2.003-3.12-3.452-5.377-6.753-5.377-1.121 0-2.438.266-4.144.835a1.497 1.497 0 0 0-.889.805l-11.807 26.569c-2.049 2.581-23.979 30.544-23.979 45.352 0 .606-.086 1.296-.142 1.956l-4.15-.462a1.49 1.49 0 0 0-1.155.369 1.501 1.501 0 0 0-.496 1.11v2.971c0 .818.665 1.484 1.486 1.484h3.602c-.136.831-.273 1.685-.401 2.559l-3.383.426a1.488 1.488 0 0 0-1.304 1.474v2.971c0 .456.213.889.572 1.172.266.204.587.315.915.315.118 0 .241-.016.36-.047l2.262-.565c-.205 5.192.625 10.714 4.526 15.896 7.449 9.896 24.686 16.467 52.831 20.075-1.917.727-3.487 2.031-4.756 3.934-3.007 4.51-3.352 9.912-.919 14.456 2.941 5.497 9.146 8.653 17.012 8.653 1.274 0 2.793.021 4.519.047 2.295.033 4.961.073 7.914.073 36.232 0 62.538-6.895 80.405-21.079 8.404-2.765 14.082-2.812 14.081-2.812l70.418 2.815c-1.396 1.429-2.682 3.282-2.566 5.186.067 1.081.621 2.604 2.856 3.727 1.868.933 4.898 1.387 9.263 1.387 9.648 0 24.423-2.258 36.221-4.222 7.75-1.292 17.93-2.027 26.913-2.682 14.685-1.064 22.441-1.708 24.411-3.676 6.035-6.041 8.39-7.329 9.311-7.49.02.111.035.267.035.496 0 .6.03 1.228.063 1.875.122 2.647.249 5.385-1.716 7.441-2.57 2.691-8.512 4.055-17.661 4.055-22.775 0-59.521 5.488-62.445 5.935-.775-.071-3.808-.32-7.881-.32-10.958 0-24.901 1.746-29.063 10.064-3.094 6.187-3.33 12.758-.615 17.147 1.761 2.848 4.572 4.414 7.924 4.414 2.052 0 4.263-.587 6.57-1.738 10.028-5.013 48.593-15.169 63.528-15.169 2.069 0 3.146.212 3.683.391 3.077 1.027 7.882 1.241 11.372 1.241 12.654 0 31.181-2.714 40.278-7.266 14.545-7.267 21.489-16.825 18.576-25.566M395.347 730.9c-2.754 0-6.004-.978-9.147-1.922-1.212-.362-2.439-.731-3.662-1.053h29.321c-5.519 1.482-12.165 2.975-16.512 2.975" class="st43"></path><path fill="#FFF" d="m353.749 604.607-11.886 26.743s-23.772 29.715-23.772 44.574c0 14.856-17.828 41.6 56.459 50.514h47.544s-17.828 5.944-26.742 5.944c-8.915 0-20.802-8.915-26.745 0-5.942 8.912 0 20.8 14.858 20.8 14.857 0 62.4 2.972 92.116-20.8 8.916-2.971 14.859-2.971 14.859-2.971l74.289 2.971s-8.916 5.942-2.974 8.912c5.943 2.975 26.744 0 44.574-2.97 17.829-2.971 47.544-2.971 50.515-5.942 2.972-2.971 11.885-11.887 11.885-5.944 0 5.944 2.974 14.856-20.799 14.856-23.771 0-62.402 5.944-62.402 5.944s-29.715-2.97-35.658 8.915c-5.941 11.887 0 23.772 11.886 17.827 11.886-5.94 59.431-17.827 68.345-14.854 8.916 2.972 38.629 0 50.517-5.944 11.887-5.943 20.802-14.857 17.829-23.771-2.972-8.916-11.886-20.801-14.858-29.716-2.971-8.915-11.885-26.744-23.771-50.517-11.886-23.771-50.516-38.628-104.003-32.687s-71.316 14.857-83.202 14.857c-11.887 0-20.802 0-23.773-2.972-2.973-2.971-11.886-29.715-11.886-29.715l-23.773 20.8s-29.714-5.942-41.6 0c-11.89-11.883-8.917-17.826-17.832-14.854" class="st44"></path><path fill="#F09DC2" d="M347.248 683.707s10.874-1.553 9.318 1.553c-1.552 3.105-3.104 4.659-6.213 3.105-3.105-1.552-4.658-3.105-3.105-4.658" class="st45"></path><path fill="#FEC485" d="M659.815 649.18c-.887-1.774-1.975-3.478-3.156-5.152-12.771 4.229-31.618 11.256-35.474 17.038-5.942 8.916-14.856 20.8 0 29.716 14.856 8.915 20.801 14.857 38.63 5.942 6.751-3.374 13.927-5.049 19.756-6.949-4.376-9.828-11.309-23.7-19.756-40.595M514.211 643.238c17.83 5.941 35.658 11.886 53.487 5.941 17.829-5.941 41.602-11.886 44.573-26.745.244-1.229.433-2.429.599-3.618-16.046-3.67-35.293-4.739-57.058-2.323-23.723 2.636-40.423 5.854-52.704 8.622-.234 6.941 1.719 14.997 11.103 18.123" class="st46"></path><path fill="#19A1E7" d="M436.951 711.581c-8.914 5.943-24.999 14.857-24.999 14.857h10.141s-.472.158-1.239.401c5.597-.295 12.891-1.71 19.068-6.344 11.887-8.915 23.772-14.857 26.745-29.715 2.971-14.856 2.971-32.687 0-41.602-1.781-5.345-3.56-12.812-4.702-17.945-3.286-.11-6.096-.347-8.337-.807 2.432 11.393 6.21 32.084 4.125 42.524-2.972 14.859-11.889 32.689-20.802 38.631" class="st47"></path><path fill="#FEC485" d="M532.041 661.065s-17.83-5.941-17.83 2.972c0 8.915 11.887 14.857 14.857 8.915 2.973-5.943 2.973-11.887 2.973-11.887" class="st48"></path><path fill="#474747" d="M359.343 701.797c-3.165 0-5.238-1.636-6.747-2.831-.568-.451-1.162-.919-1.572-1.072-4.914 3.094-8.995 2.015-11.573.541-2.795-1.597-4.392-3.962-4.46-4.066l1.854-1.235c.218.32 5.447 7.908 13.314 2.662l.282-.186h.335c1.173 0 2.159.783 3.208 1.609 2.487 1.968 5.878 4.664 13.955-1.383l1.335 1.779c-4.186 3.14-7.406 4.182-9.931 4.182" class="st49"></path><path fill="#FDC0C2" d="m434.403 604.607-15.281 17.828 17.829 8.916zM353.749 607.578l-5.943 23.773 11.885-5.943z" class="st50"></path><path fill="#E5E5E5" d="M591.472 658.095s-17.831 5.942-17.831 20.8 2.973 26.744 5.944 32.687c2.971 5.943 2.971 14.857-2.972 14.857-5.944 0-8.915 2.974-8.915 2.974s8.915-2.974 8.915-8.916c0-5.941-8.915-20.8-8.915-29.715 0-8.917 0-29.717 23.774-32.687" class="st51"></path><path fill="#3A3A3A" d="M342.921 671.44a7.339 7.339 0 0 1-2.486-.421c-4.25-1.507-5.542-6.5-5.597-6.712l2.161-.543c.011.042 1.071 4.06 4.194 5.158 2.341.82 5.333-.121 8.917-2.805l1.334 1.783c-3.14 2.357-5.996 3.54-8.523 3.54M384.534 673.723c-.867 0-1.696-.14-2.486-.42-4.251-1.509-5.542-6.501-5.598-6.712l2.161-.544c.012.043 1.071 4.06 4.194 5.158 2.341.821 5.333-.121 8.917-2.805l1.335 1.781c-3.14 2.359-5.995 3.542-8.523 3.542" class="st52"></path><path fill="#6B6B6B" d="M383.464 684.838h29.714v2.971zM383.464 687.809l26.743 8.915-2.972 2.972zM338.892 681.865l-26.745-2.97v2.97zM335.919 684.838l-23.772 2.971v2.972z" class="st53"></path><path fill="#46A1C2" d="M460.106 558.112s20.804 2.972 20.804 8.914c0 5.945-17.831 8.916-17.831 8.916s17.831 11.887 11.887 11.887c-5.943 0-29.716-8.916-29.716-8.916l26.744-11.887s-17.828-5.942-11.888-8.914" class="st54"></path><path fill="#0F76A5" d="M495.768 513.54s20.801 2.972 23.771 8.915l2.971 5.943-23.772 5.944 17.831 20.799s-35.658-14.858-32.688-17.829c2.972-2.971 29.716-11.887 29.716-11.887s-26.744-11.885-17.829-11.885" class="st55"></path></g></svg>