<?xml version="1.0" encoding="UTF-8"?>
<svg width="11px" height="11px" viewBox="0 0 11 11" version="1.1" xmlns="http://www.w3.org/2000/svg" xmlns:xlink="http://www.w3.org/1999/xlink">
    <!-- Generator: Sketch 63 (92445) - https://sketch.com -->
    <title>形状</title>
    <desc>Created with Sketch.</desc>
    <g id="页面-1" stroke="none" stroke-width="1" fill="none" fill-rule="evenodd">
        <g id="右侧面板" transform="translate(-535.000000, -2042.000000)" fill="#1890ff" fill-rule="nonzero">
            <g id="编组-19" transform="translate(181.000000, 1240.000000)">
                <path d="M360.293012,812.07541 L358.071858,812.07541 C357.867096,812.07541 357.701666,811.914609 357.701666,811.715574 L357.701666,806.107754 L354.108487,802.61397 C354.002057,802.510517 353.970822,802.356463 354.028664,802.221524 C354.08535,802.08771 354.220701,802 354.369935,802 L363.994935,802 C364.144169,802 364.279521,802.08771 364.337363,802.222649 C364.395206,802.357587 364.362814,802.511642 364.25754,802.615095 L360.663204,806.107754 L360.663204,811.715574 C360.663204,811.914609 360.497775,812.07541 360.293012,812.07541 Z M359.92282,805.958197 C359.92282,805.862615 359.962153,805.771532 360.031564,805.704063 L363.100689,802.719672 L355.264181,802.719672 L358.334463,805.704063 C358.403875,805.771532 358.443207,805.862615 358.443207,805.958197 L358.443207,811.355738 L358.442051,811.355738 L359.92282,811.355738" id="形状"></path>
            </g>
        </g>
    </g>
</svg>