<svg width="16" height="16" viewBox="0 0 16 16" fill="none" xmlns="http://www.w3.org/2000/svg">
<g>
<path d="M10.1156 10.1156C10.2249 10.0063 10.3732 9.94496 10.5278 9.94496C10.6824 9.94496 10.8306 10.0063 10.94 10.1156L13.8333 13.0073V11.3056L13.8388 11.2262C13.8589 11.0798 13.9339 10.9465 14.0485 10.8532C14.1632 10.76 14.309 10.7137 14.4564 10.7238C14.6039 10.7338 14.742 10.7995 14.8429 10.9075C14.9438 11.0155 15 11.1578 15 11.3056V14.6111L14.9938 14.6811C14.9774 14.7706 14.9301 14.8516 14.8602 14.9099C14.7903 14.9681 14.7021 15 14.6111 15H11.3056L11.2262 14.9946C11.0866 14.9754 10.9586 14.9063 10.8659 14.8001C10.7733 14.6938 10.7222 14.5576 10.7222 14.4167L10.7277 14.3373C10.7468 14.1977 10.8159 14.0697 10.9222 13.977C11.0284 13.8844 11.1646 13.8333 11.3056 13.8333H13.0089L10.1156 10.94L10.0588 10.8747C9.97578 10.7623 9.93586 10.6239 9.94628 10.4846C9.9567 10.3453 10.0168 10.2143 10.1156 10.1156ZM5.88444 10.1156C5.98324 10.2143 6.0433 10.3453 6.05372 10.4846C6.06414 10.6239 6.02422 10.7623 5.94122 10.8747L5.88444 10.94L2.99111 13.8333H4.69444C4.83541 13.8333 4.9716 13.8844 5.07783 13.977C5.18407 14.0697 5.25316 14.1977 5.27233 14.3373L5.27778 14.4167C5.27777 14.5576 5.22672 14.6938 5.13407 14.8001C5.04142 14.9063 4.91343 14.9754 4.77378 14.9946L4.69444 15H1.38889C1.29787 15 1.20972 14.9681 1.1398 14.9099C1.06988 14.8516 1.02261 14.7706 1.00622 14.6811L1 14.6111V11.3056C1.00005 11.1578 1.05619 11.0155 1.15709 10.9075C1.25799 10.7995 1.39612 10.7338 1.54357 10.7238C1.69103 10.7137 1.8368 10.76 1.95145 10.8532C2.0661 10.9465 2.14108 11.0798 2.16122 11.2262L2.16667 11.3056V13.0073L5.06 10.1156C5.16937 10.0063 5.31764 9.94496 5.47222 9.94496C5.62681 9.94496 5.77507 10.0063 5.88444 10.1156ZM14.6111 1C14.7021 0.99997 14.7903 1.03187 14.8602 1.09014C14.9301 1.14841 14.9774 1.22936 14.9938 1.31889L15 1.38889V4.69444C15 4.84224 14.9438 4.98451 14.8429 5.0925C14.742 5.2005 14.6039 5.26617 14.4564 5.27624C14.309 5.28632 14.1632 5.24004 14.0485 5.14677C13.9339 5.05351 13.8589 4.92019 13.8388 4.77378L13.8333 4.69444V2.99267L10.94 5.88444C10.8358 5.98786 10.6964 6.04816 10.5497 6.05333C10.4029 6.0585 10.2597 6.00814 10.1484 5.91232C10.0372 5.8165 9.96616 5.68225 9.94955 5.53637C9.93293 5.3905 9.97194 5.24372 10.0588 5.12533L10.1156 5.06L13.0089 2.16667H11.3056C11.1646 2.16666 11.0284 2.11561 10.9222 2.02296C10.8159 1.93031 10.7468 1.80232 10.7277 1.66267L10.7222 1.58333C10.7222 1.44237 10.7733 1.30618 10.8659 1.19994C10.9586 1.09371 11.0866 1.02462 11.2262 1.00544L11.3056 1H14.6111ZM4.69444 1L4.77378 1.00544C4.91343 1.02462 5.04142 1.09371 5.13407 1.19994C5.22672 1.30618 5.27777 1.44237 5.27778 1.58333L5.27233 1.66267C5.25316 1.80232 5.18407 1.93031 5.07783 2.02296C4.9716 2.11561 4.83541 2.16666 4.69444 2.16667H2.99111L5.88444 5.06L5.94122 5.12533C6.02806 5.24372 6.06707 5.3905 6.05045 5.53637C6.03384 5.68225 5.96282 5.8165 5.85158 5.91232C5.74035 6.00814 5.59706 6.0585 5.45034 6.05333C5.30361 6.04816 5.16422 5.98786 5.06 5.88444L2.16667 2.99267V4.69444L2.16122 4.77378C2.14108 4.92019 2.0661 5.05351 1.95145 5.14677C1.8368 5.24004 1.69103 5.28632 1.54357 5.27624C1.39612 5.26617 1.25799 5.2005 1.15709 5.0925C1.05619 4.98451 1.00005 4.84224 1 4.69444V1.38889L1.00622 1.31889C1.02261 1.22936 1.06988 1.14841 1.1398 1.09014C1.20972 1.03187 1.29787 0.99997 1.38889 1H4.69444Z" fill="#B1B2B2"/>
</g>
</svg>
