<?xml version="1.0" encoding="UTF-8"?>
<svg width="30px" height="26px" viewBox="0 0 30 26" version="1.1" xmlns="http://www.w3.org/2000/svg" xmlns:xlink="http://www.w3.org/1999/xlink">
    <!-- Generator: Sketch 63 (92445) - https://sketch.com -->
    <title>仪表盘 (2)</title>
    <desc>Created with Sketch.</desc>
    <g id="页面-1" stroke="none" stroke-width="1" fill="none" fill-rule="evenodd">
        <g id="新建报告-默认看板-展开" transform="translate(-211.000000, -215.000000)" fill-rule="nonzero">
            <g id="图表" transform="translate(57.000000, 80.000000)">
                <g id="仪表盘-(2)" transform="translate(154.000000, 135.000000)">
                    <path d="M14.7292969,4.46967857 C14.6131537,4.4722416 14.5009999,4.42767139 14.418854,4.34630775 C14.336708,4.26494412 14.2917092,4.15385844 14.2942969,4.03882143 L14.2942969,2.62182143 C14.2942969,2.37667857 14.4799219,2.19096429 14.7292969,2.19096429 C14.9767969,2.19096429 15.1624219,2.37667857 15.1624219,2.62182143 L15.1624219,4.03882143 C15.1655311,4.1536841 15.1209603,4.26478685 15.0391071,4.34621151 C14.9572538,4.42763616 14.8452763,4.47226197 14.7292969,4.46967857 Z M7.17492188,7.54882143 C7.08117188,7.54882143 6.95742188,7.51910714 6.89554688,7.42625 L5.86804688,6.44010714 C5.71242188,6.25439286 5.71242188,5.97582143 5.86804688,5.82353571 C6.02367188,5.66939286 6.30304688,5.66939286 6.49054688,5.82353571 L7.48617188,6.84125 C7.57443644,6.91321652 7.62557359,7.02051517 7.62557359,7.13375 C7.62557359,7.24698483 7.57443644,7.35428348 7.48617188,7.42625 C7.40513908,7.5096776 7.29166805,7.55436292 7.17492188,7.54882143 L7.17492188,7.54882143 Z M4.06429688,15.03125 L2.63554688,15.03125 C2.51908251,15.034329 2.4064349,14.9899869 2.32387585,14.9085651 C2.2413168,14.8271432 2.19606419,14.7157602 2.19867188,14.6003929 C2.19867188,14.35525 2.38617188,14.1713929 2.63367188,14.1713929 L4.06429688,14.1713929 C4.31179688,14.1713929 4.49929688,14.3571071 4.49929688,14.6003929 C4.50188455,14.7154299 4.45688578,14.8265155 4.3747398,14.9078792 C4.29259382,14.9892428 4.18044001,15.033813 4.06429688,15.03125 L4.06429688,15.03125 Z M5.96179688,23.71525 C5.8450507,23.7207915 5.73157967,23.6761062 5.65054688,23.5926786 C5.46304688,23.4385357 5.49492188,23.1618214 5.65054688,23.0076786 L6.89367188,21.7763929 C7.04929688,21.5906786 7.32867188,21.5906786 7.48429688,21.7763929 C7.57256144,21.8483594 7.62369859,21.955658 7.62369859,22.0688929 C7.62369859,22.1821277 7.57256144,22.2894263 7.48429688,22.3613929 L6.23929688,23.5926786 C6.17929688,23.6836786 6.05554688,23.71525 5.96179688,23.71525 Z M23.4967969,23.6223929 C23.4030469,23.6223929 23.2792969,23.5908214 23.2174219,23.5295357 L21.9742969,22.3911071 C21.8186719,22.2053929 21.7867969,21.96025 21.9742969,21.7745357 C22.1280469,21.6203929 22.4074219,21.5888214 22.5630469,21.7429643 L23.8061719,22.8813929 C23.9617969,23.0671071 23.9617969,23.31225 23.8061719,23.4979643 C23.7124219,23.5908214 23.6186719,23.6223929 23.4967969,23.6223929 L23.4967969,23.6223929 Z M26.8230469,15.03125 L25.3924219,15.03125 C25.2759575,15.034329 25.1633099,14.9899869 25.0807508,14.9085651 C24.9981918,14.8271432 24.9529392,14.7157602 24.9555469,14.6003929 C24.9555469,14.35525 25.1430469,14.1713929 25.3924219,14.1713929 L26.8230469,14.1713929 C27.0705469,14.1713929 27.2561719,14.3571071 27.2561719,14.6003929 C27.2592811,14.7152555 27.2147103,14.8263583 27.1328571,14.9077829 C27.0510038,14.9892076 26.9390263,15.0338334 26.8230469,15.03125 L26.8230469,15.03125 Z M22.2836719,7.54882143 C22.1599219,7.54882143 22.0324219,7.51910714 21.9724219,7.42625 C21.8835362,7.35465977 21.8319342,7.24722272 21.8319342,7.13375 C21.8319342,7.02027728 21.8835362,6.91284023 21.9724219,6.84125 L22.9661719,5.82539286 C23.1536719,5.67125 23.4311719,5.67125 23.5886719,5.82539286 C23.7424219,5.97767857 23.7424219,6.25625 23.5886719,6.44196429 L22.5611719,7.42810714 C22.4992969,7.51910714 22.3755469,7.54882143 22.2836719,7.54882143 L22.2836719,7.54882143 Z" id="形状" fill="#3BA0FD"></path>
                    <path d="M14.996335,0 C23.2814023,0.00244148998 29.9971722,6.78164468 29.9995908,15.1449681 C30.0205237,19.1477799 28.449955,22.9917855 25.6397078,25.8158897 C25.4460628,25.9984775 25.1454115,25.9984775 24.9517664,25.8158897 C24.7326768,25.6323277 24.7326768,25.3005892 24.9517664,25.0838534 C25.156522,24.8759802 25.35415,24.6622954 25.5444938,24.4431854 C27.5220128,21.946348 28.1261017,18.1589549 28.1092601,14.9917561 C28.1130809,11.5140619 26.7330221,8.17770672 24.2734888,5.71860407 C21.8139556,3.25950143 18.4770161,1.87968423 14.9987129,1.88350438 C11.520054,1.87913835 8.18258632,3.25871455 5.72260842,5.71787647 C3.26263052,8.1770384 1.88228992,11.5137056 1.88611177,14.9917561 C1.88611177,18.157508 2.44560957,21.8410455 4.35619977,24.3558247 C4.58677647,24.6300605 4.82816381,24.8964392 5.08033961,25.1546243 C5.29942921,25.3381862 5.29942921,25.6677131 5.08033961,25.8512751 C5.00584915,25.9618546 4.86125001,25.9994516 4.75170521,25.9994516 C4.61528988,26.0060507 4.4827015,25.952837 4.38801647,25.8534867 C0.102097467,21.52051 -1.17846301,15.0091653 1.14275888,9.35212556 C3.46398077,3.69508582 8.93052432,0.00478944397 14.996335,0 Z" id="形状结合" fill="#3BA0FD"></path>
                    <polygon id="路径" fill="#3BA0FD" opacity="0.619582403" points="14 14 15.0009425 8 16 13.9710495"></polygon>
                    <polygon id="路径" fill="#3BA0FD" points="14.2428688 14 14 13.9669638 15.000815 7 16 13.9375983 15.7571312 13.9669638 15.000815 8.76376508"></polygon>
                    <path d="M15.714776,14.6967884 C15.5272813,14.887456 15.2703635,14.9965857 15.0009421,15 C14.7311921,14.9970765 14.4737895,14.8881623 14.2858878,14.6974406 C14.0979861,14.5067189 13.995137,14.2499747 14.0001769,13.9842154 C14.0001769,13.4605385 14.4374227,13 15.0009421,13 C15.5517503,13.0020365 15.9977559,13.441494 15.9998227,13.9842154 C16.0048626,14.2496567 15.9022706,14.5061207 15.714776,14.6967884 Z" id="路径" fill="#FF9E43"></path>
                    <path d="M15.000815,15 C14.7354006,15.0008571 14.480583,14.8959176 14.2927528,14.7083938 C14.1049225,14.52087 13.9995676,14.2662245 14.0000013,14.0008097 C14.0000013,13.4612852 14.4596592,13 15.000815,13 C15.5403409,13 16.0000013,13.4612852 16.0000013,14.0008097 C16.0004309,14.2659413 15.8952995,14.5203386 15.7078224,14.7078152 C15.5203452,14.8952918 15.2659473,15.000423 15.000815,15 L15.000815,15 Z M15.000815,13.2705772 C14.5949481,13.2705772 14.2428708,13.5965739 14.2428708,14.0008097 C14.2428708,14.4185094 14.5814842,14.7571219 14.999185,14.7571219 C15.4168858,14.7571219 15.7554992,14.4185094 15.7554992,14.0008097 C15.7448526,13.5924619 15.409293,13.2677744 15.000815,13.2705772 Z" id="形状" fill="#3BA0FD"></path>
                </g>
            </g>
        </g>
    </g>
</svg>