<?xml version="1.0" encoding="UTF-8"?>
<svg width="18px" height="18px" viewBox="0 0 18 18" version="1.1" xmlns="http://www.w3.org/2000/svg" xmlns:xlink="http://www.w3.org/1999/xlink">
    <!-- Generator: Sketch 63 (92445) - https://sketch.com -->
    <title>画画</title>
    <desc>Created with Sketch.</desc>
    <g id="页面-1" stroke="none" stroke-width="1" fill="none" fill-rule="evenodd">
        <g id="新建报告-默认看板-展开" transform="translate(-19.000000, -525.000000)" fill-rule="nonzero">
            <g id="画画" transform="translate(18.000000, 524.000000)">
                <rect id="矩形" fill="#000000" opacity="0" x="4.08562073e-14" y="-1.59872116e-14" width="20.16" height="20.16"></rect>
                <path d="M11.4325312,15.285375 C11.1470625,15.4842188 11.0742187,15.876 11.2730625,16.1614688 C11.395125,16.3386563 11.592,16.4331562 11.7908437,16.4331562 C11.914875,16.4331562 12.0389062,16.3977188 12.1491562,16.3209375 C12.55275,16.041375 12.781125,15.5649375 12.7456875,15.0766875 C12.7200937,14.7065625 12.5507812,14.3679375 12.26925,14.1238125 C11.9877187,13.8796875 11.6294062,13.7595937 11.2573125,13.7871562 C10.8871875,13.81275 10.5485625,13.9820625 10.3044375,14.2635938 C10.0603125,14.545125 9.94021875,14.9034375 9.96778125,15.2755313 C9.99140625,15.60825 10.2670312,15.86025 10.5958125,15.86025 C10.6115625,15.86025 10.6253437,15.86025 10.6410937,15.8582813 C10.9875937,15.8346562 11.2494375,15.5314688 11.2258125,15.1849687 C11.221875,15.1396875 11.2415625,15.1081875 11.2573125,15.0885 C11.2730625,15.0688125 11.3025937,15.0471562 11.347875,15.0432188 C11.3931562,15.04125 11.4246562,15.0589688 11.4443437,15.0747188 C11.4640312,15.0904687 11.4856875,15.12 11.489625,15.1652813 C11.4955312,15.2361563 11.4482812,15.2755313 11.4325312,15.285375 L11.4325312,15.285375 Z" id="路径" fill="#B1B5BC"></path>
                <path d="M16.96275,4.53796875 L18.1892812,2.4136875 C18.3625312,2.11246875 18.2601562,1.72659375 17.9589375,1.55334375 C17.6577187,1.38009375 17.2718437,1.48246875 17.0985937,1.7836875 L16.0630312,3.57721875 L15.4153125,4.69940625 L11.8125,10.9403438 C11.63925,11.2415625 11.741625,11.6274375 12.0428437,11.8006875 C12.3440625,11.9739375 12.7299375,11.8715625 12.9031875,11.5703438 L16.2795937,5.72315625 C17.2423125,7.0875 17.7226875,8.72353125 17.6498437,10.4225625 C17.6104687,11.3360625 17.388,12.23775 16.9883437,13.1020313 C16.5985312,13.9446563 16.0610625,14.7124688 15.3897187,15.3857813 C14.718375,16.0590938 13.9505625,16.5965625 13.1079375,16.986375 C12.245625,17.3860313 11.3439375,17.6104688 10.4284687,17.6498438 C10.3123125,17.65575 10.1961562,17.6577188 10.08,17.6577188 C9.2019375,17.6577188 8.34159375,17.5100625 7.5245625,17.2167188 C7.32178125,17.143875 7.23909375,16.986375 7.205625,16.89975 C7.174125,16.8111563 7.13475,16.6339688 7.245,16.4449688 L8.35734375,14.5175625 C9.001125,13.40325 8.61721875,11.9719688 7.50290625,11.3301563 C7.14853125,11.1254063 6.7449375,11.017125 6.33740625,11.017125 C5.50659375,11.017125 4.73090625,11.4640313 4.3155,12.1845938 L3.6855,13.2752813 C3.63234375,13.3678125 3.551625,13.4150625 3.4453125,13.4150625 C3.3665625,13.4150625 3.25828125,13.3875 3.19921875,13.2615 C2.7916875,12.3814688 2.56134375,11.442375 2.512125,10.4698125 C2.45896875,9.41259375 2.622375,8.38096875 2.9964375,7.40446875 C3.35671875,6.46340625 3.8941875,5.6109375 4.5950625,4.874625 C5.29790625,4.134375 6.12478125,3.55359375 7.05403125,3.14409375 C8.0128125,2.72278125 9.03065625,2.5081875 10.0819687,2.5081875 C10.2355312,2.5081875 10.3910625,2.512125 10.544625,2.52196875 C11.54475,2.583 12.5055,2.835 13.4012812,3.2720625 C13.4623125,3.30159375 13.5233437,3.33309375 13.5824062,3.362625 C13.8816562,3.520125 14.2517812,3.41578125 14.4210937,3.1224375 L14.4230625,3.12046875 C14.6022187,2.80940625 14.4860625,2.4136875 14.167125,2.2483125 C13.096125,1.6891875 11.8951875,1.3426875 10.6214062,1.26590625 C10.4402812,1.25409375 10.261125,1.25015625 10.0839375,1.25015625 C5.08134375,1.25015625 1.0040625,5.46721875 1.25803125,10.5347812 C1.315125,11.694375 1.59665625,12.7929375 2.0593125,13.7930625 C2.331,14.37975 2.88815625,14.679 3.44925,14.679 C3.9650625,14.679 4.48284375,14.4250313 4.780125,13.9092188 L5.410125,12.8185313 C5.60896875,12.474 5.96925,12.2810625 6.34134375,12.2810625 C6.51853125,12.2810625 6.6976875,12.324375 6.8630625,12.4169063 C7.38675,12.7082813 7.56196875,13.3875 7.26075,13.9052813 L6.15628125,15.8189063 C5.59715625,16.7875313 6.048,18.0298125 7.10128125,18.4078125 C8.0325,18.7425 9.0365625,18.923625 10.0819687,18.923625 C10.2158437,18.923625 10.3516875,18.9196875 10.4855625,18.9137813 C14.9014687,18.7169063 18.7149375,14.8995 18.9098437,10.4835938 C19.0063125,8.2254375 18.262125,6.150375 16.96275,4.53796875 L16.96275,4.53796875 Z" id="路径" stroke-width="0.5" stroke="#B1B5BC"></path>
            </g>
        </g>
    </g>
</svg>