<svg width="16" height="16" viewBox="0 0 16 16" fill="none" xmlns="http://www.w3.org/2000/svg">
<g clip-path="url(#clip0_420_1548)">
<path d="M9.36714 8.65761L9.66936 8.95895C9.82491 9.11426 10.0095 9.23742 10.2127 9.32138C10.4158 9.40535 10.6335 9.44848 10.8533 9.44831C11.0731 9.44815 11.2907 9.40469 11.4937 9.32042C11.6967 9.23615 11.8812 9.11272 12.0365 8.95717L15.0649 5.92873C15.2209 5.77358 15.3447 5.58916 15.4293 5.38604C15.5138 5.18292 15.5575 4.96511 15.5576 4.74509C15.5578 4.52508 15.5145 4.3072 15.4303 4.10396C15.346 3.90071 15.2225 3.71611 15.0667 3.56073L12.44 0.93317C12.2845 0.777724 12.0998 0.654456 11.8966 0.570412C11.6934 0.486368 11.4756 0.443195 11.2557 0.44336C11.0357 0.443525 10.818 0.487025 10.6149 0.571374C10.4118 0.655724 10.2274 0.779268 10.072 0.934948L7.04359 3.96339C6.38581 4.62117 6.38848 5.67806 7.04181 6.33139L7.34403 6.63184L8.22048 5.75539L8.09692 5.63095C7.76803 5.30295 7.76803 4.77139 8.09248 4.44695L10.6907 1.84873C10.8485 1.69228 11.0619 1.60487 11.2841 1.6057C11.5062 1.60654 11.719 1.69555 11.8756 1.85317L14.0107 3.99006C14.1681 4.14676 14.257 4.35948 14.2578 4.58158C14.2586 4.80369 14.1714 5.01707 14.0151 5.17495L11.4169 7.77317C11.2612 7.92765 11.0511 8.01493 10.8317 8.01626C10.6123 8.01759 10.4012 7.93287 10.2436 7.78028L9.36625 8.65761H9.36714ZM6.63381 7.34206L6.33336 7.04073C6.17781 6.88528 5.99314 6.76201 5.78992 6.67797C5.5867 6.59392 5.36891 6.55075 5.149 6.55092C4.92908 6.55108 4.71136 6.59458 4.50826 6.67893C4.30517 6.76328 4.12069 6.88682 3.96536 7.0425L0.936031 10.0709C0.279142 10.7287 0.281809 11.7856 0.935143 12.4389L3.56181 15.0656C3.71737 15.2211 3.90203 15.3443 4.10525 15.4284C4.30847 15.5124 4.52626 15.5556 4.74618 15.5554C4.96609 15.5553 5.18382 15.5118 5.38691 15.4274C5.59 15.3431 5.77448 15.2195 5.92981 15.0638L8.95825 12.0354C9.11419 11.8802 9.23795 11.6957 9.32242 11.4926C9.4069 11.2894 9.45042 11.0716 9.45051 10.8516C9.45059 10.6316 9.40722 10.4137 9.3229 10.2105C9.23858 10.0073 9.11496 9.82271 8.95914 9.66739L8.6587 9.36695L7.91559 10.1092C8.06796 10.2669 8.15254 10.478 8.15121 10.6973C8.14988 10.9166 8.06275 11.1266 7.90848 11.2825L5.31114 13.8798C5.15338 14.0363 4.93996 14.1237 4.71778 14.1229C4.4956 14.122 4.28284 14.033 4.12625 13.8754L1.99025 11.7394C1.66136 11.4105 1.66136 10.8798 1.98581 10.5545L4.58314 7.95717C4.74079 7.80061 4.95414 7.71304 5.17632 7.7137C5.3985 7.71437 5.61133 7.80322 5.76803 7.96073L5.89248 8.08517L6.63381 7.34206ZM9.56803 5.48784C9.63001 5.42579 9.70361 5.37657 9.78462 5.34297C9.86563 5.30937 9.95246 5.29205 10.0402 5.29201C10.1279 5.29197 10.2147 5.30921 10.2957 5.34273C10.3768 5.37625 10.4504 5.42541 10.5125 5.48739C10.5745 5.54938 10.6237 5.62297 10.6573 5.70398C10.6909 5.78499 10.7083 5.87182 10.7083 5.95952C10.7083 6.04722 10.6911 6.13407 10.6576 6.21511C10.6241 6.29615 10.5749 6.36979 10.5129 6.43184L6.87203 10.0727C6.80999 10.1347 6.73635 10.1839 6.65531 10.2174C6.57427 10.2509 6.48742 10.2681 6.39972 10.2681C6.31202 10.2681 6.22518 10.2507 6.14418 10.2171C6.06317 10.1835 5.98957 10.1343 5.92759 10.0723C5.8656 10.0102 5.81645 9.93659 5.78292 9.85556C5.7494 9.77452 5.73217 9.68767 5.73221 9.59997C5.73225 9.51227 5.74956 9.42543 5.78316 9.34443C5.81676 9.26342 5.86599 9.18982 5.92803 9.12784L9.56803 5.48784Z" fill="#B1B2B2"/>
</g>
<defs>
<clipPath id="clip0_420_1548">
<rect width="16" height="16" fill="white"/>
</clipPath>
</defs>
</svg>
