<svg width="192" height="24" viewBox="0 0 192 24" fill="none" xmlns="http://www.w3.org/2000/svg">
<g id="&#231;&#188;&#150;&#231;&#187;&#132; 24" clip-path="url(#clip0_311_629)">
<g id="&#230;&#142;&#146;&#232;&#161;&#140;">
<g id="Vector">
<path d="M17.2541 3.40907L22.2416 9.09344C22.4386 9.31813 22.5448 9.60817 22.5395 9.90695C22.5342 10.2057 22.4177 10.4918 22.2128 10.7093L12.8744 20.6226C12.7621 20.7418 12.6266 20.8367 12.4762 20.9016C12.3259 20.9665 12.1638 21 12.0001 21C11.8363 21 11.6743 20.9665 11.5239 20.9016C11.3736 20.8367 11.2381 20.7418 11.1258 20.6226L1.78737 10.7099C1.58246 10.4924 1.46597 10.2063 1.46064 9.90755C1.45531 9.60877 1.56152 9.31873 1.75854 9.09405L6.7461 3.40907C6.8589 3.28051 6.99784 3.17751 7.15364 3.10696C7.30945 3.03642 7.47852 2.99995 7.64955 3H16.3506C16.5215 3.00004 16.6905 3.03654 16.8462 3.10709C17.0019 3.17763 17.1407 3.28058 17.2534 3.40907H17.2541Z" fill="url(#paint0_linear_311_629)"/>
<path d="M7.6494 3.5H7.64955H16.3505C16.3505 3.5 16.3506 3.5 16.3506 3.5C16.4504 3.50003 16.549 3.52135 16.6398 3.56252C16.7307 3.6037 16.8118 3.66381 16.8776 3.73882L17.027 3.90907H17.0276L21.8657 9.42309C21.9807 9.55427 22.0427 9.7236 22.0396 9.89803C22.0365 10.0725 21.9685 10.2395 21.8488 10.3665L22.2128 10.7093L21.8488 10.3665L12.5105 20.2797C12.5105 20.2797 12.5105 20.2797 12.5104 20.2797C12.4449 20.3493 12.3658 20.4047 12.2781 20.4426C12.1903 20.4805 12.0957 20.5 12.0001 20.5C11.9045 20.5 11.8099 20.4805 11.7221 20.4426C11.6343 20.4047 11.5552 20.3492 11.4896 20.2797L2.15131 10.3671C2.15131 10.3671 2.15131 10.3671 2.15131 10.3671C2.03168 10.2401 1.96367 10.0731 1.96056 9.89863C1.95745 9.7242 2.01946 9.55487 2.13448 9.42369L7.12195 3.73882C7.12195 3.73882 7.12196 3.73882 7.12196 3.73882C7.18781 3.66376 7.26892 3.60363 7.35988 3.56245C7.45084 3.52126 7.54955 3.49997 7.6494 3.5Z" stroke="white" stroke-opacity="0.5"/>
</g>
<path id="1" d="M13.3495 14.176L14.5004 6.75H12.6804L10.4467 8.06415L10.2204 9.52432L12.4541 8.21017L11.5295 14.176H13.3495Z" fill="#530000"/>
</g>
<g id="&#230;&#142;&#146;&#232;&#161;&#140;_2">
<g id="Vector_2">
<path d="M45.2541 3.40907L50.2416 9.09344C50.4386 9.31813 50.5448 9.60817 50.5395 9.90695C50.5342 10.2057 50.4177 10.4918 50.2128 10.7093L40.8744 20.6226C40.7621 20.7418 40.6266 20.8367 40.4762 20.9016C40.3259 20.9665 40.1638 21 40.0001 21C39.8363 21 39.6743 20.9665 39.5239 20.9016C39.3736 20.8367 39.2381 20.7418 39.1258 20.6226L29.7874 10.7099C29.5825 10.4924 29.466 10.2063 29.4606 9.90755C29.4553 9.60877 29.5615 9.31873 29.7585 9.09405L34.7461 3.40907C34.8589 3.28051 34.9978 3.17751 35.1536 3.10696C35.3094 3.03642 35.4785 2.99995 35.6495 3H44.3506C44.5215 3.00004 44.6905 3.03654 44.8462 3.10709C45.0019 3.17763 45.1407 3.28058 45.2534 3.40907H45.2541Z" fill="url(#paint1_linear_311_629)"/>
<path d="M35.6494 3.5H35.6495H44.3505C44.3505 3.5 44.3506 3.5 44.3506 3.5C44.4504 3.50003 44.549 3.52135 44.6398 3.56252C44.7307 3.6037 44.8118 3.66381 44.8776 3.73882L45.027 3.90907H45.0276L49.8657 9.42309C49.9807 9.55427 50.0427 9.7236 50.0396 9.89803C50.0365 10.0725 49.9685 10.2395 49.8488 10.3665L50.2128 10.7093L49.8488 10.3665L40.5105 20.2797C40.5105 20.2797 40.5105 20.2797 40.5104 20.2797C40.4449 20.3493 40.3658 20.4047 40.2781 20.4426C40.1903 20.4805 40.0957 20.5 40.0001 20.5C39.9045 20.5 39.8099 20.4805 39.7221 20.4426C39.6343 20.4047 39.5552 20.3492 39.4896 20.2797L30.1513 10.3671C30.1513 10.3671 30.1513 10.3671 30.1513 10.3671C30.0317 10.2401 29.9637 10.0731 29.9606 9.89863C29.9574 9.7242 30.0195 9.55487 30.1345 9.42369L35.122 3.73882C35.122 3.73882 35.122 3.73882 35.122 3.73882C35.1878 3.66376 35.2689 3.60363 35.3599 3.56245C35.4508 3.52126 35.5495 3.49997 35.6494 3.5Z" stroke="white" stroke-opacity="0.5"/>
</g>
<path id="2" d="M42.4917 14.2455H36.4297L36.6054 13.0241L40.7936 9.7983C41.0033 9.63823 41.155 9.49208 41.2487 9.35984C41.3518 9.22761 41.4158 9.0745 41.4408 8.90051C41.4809 8.62213 41.4103 8.39942 41.229 8.23239C41.0487 8.0584 40.7625 7.97141 40.3705 7.97141C40.2212 7.97141 40.0694 7.98881 39.915 8.0236C39.771 8.05144 39.6328 8.10364 39.5005 8.18019C39.3785 8.24979 39.2711 8.34722 39.1784 8.4725C39.0961 8.59081 39.0419 8.74044 39.0158 8.92139H37.1958C37.2449 8.58037 37.3631 8.27763 37.5505 8.01316C37.7483 7.74174 37.996 7.51207 38.2937 7.32417C38.6007 7.13626 38.9432 6.99359 39.3213 6.89615C39.7086 6.79872 40.117 6.75 40.5463 6.75C40.985 6.75 41.3835 6.8022 41.7418 6.90659C42.1011 7.00403 42.3979 7.1467 42.6322 7.3346C42.8768 7.51555 43.0543 7.74174 43.1645 8.01316C43.2758 8.27763 43.3074 8.57689 43.2593 8.91095C43.2333 9.0919 43.1864 9.25545 43.1187 9.4016C43.052 9.54079 42.9625 9.6765 42.8501 9.80874C42.7471 9.94097 42.6161 10.0732 42.457 10.2054C42.3084 10.3307 42.1395 10.4664 41.9505 10.6126L38.8174 13.0241H42.6674L42.4917 14.2455Z" fill="#653D00"/>
</g>
<g id="&#230;&#142;&#146;&#232;&#161;&#140;_3">
<g id="Vector_3">
<path d="M73.2541 3.40907L78.2416 9.09344C78.4386 9.31813 78.5448 9.60817 78.5395 9.90695C78.5342 10.2057 78.4177 10.4918 78.2128 10.7093L68.8744 20.6226C68.7621 20.7418 68.6266 20.8367 68.4762 20.9016C68.3259 20.9665 68.1638 21 68.0001 21C67.8363 21 67.6743 20.9665 67.5239 20.9016C67.3736 20.8367 67.2381 20.7418 67.1258 20.6226L57.7874 10.7099C57.5825 10.4924 57.466 10.2063 57.4606 9.90755C57.4553 9.60877 57.5615 9.31873 57.7585 9.09405L62.7461 3.40907C62.8589 3.28051 62.9978 3.17751 63.1536 3.10696C63.3094 3.03642 63.4785 2.99995 63.6495 3H72.3506C72.5215 3.00004 72.6905 3.03654 72.8462 3.10709C73.0019 3.17763 73.1407 3.28058 73.2534 3.40907H73.2541Z" fill="url(#paint2_linear_311_629)"/>
<path d="M63.6494 3.5H63.6495H72.3505C72.3505 3.5 72.3506 3.5 72.3506 3.5C72.4504 3.50003 72.549 3.52135 72.6398 3.56252C72.7307 3.6037 72.8118 3.66381 72.8776 3.73882L73.027 3.90907H73.0276L77.8657 9.42309C77.9807 9.55427 78.0427 9.7236 78.0396 9.89803C78.0365 10.0725 77.9685 10.2395 77.8488 10.3665L78.2128 10.7093L77.8488 10.3665L68.5105 20.2797C68.5105 20.2797 68.5105 20.2797 68.5104 20.2797C68.4449 20.3493 68.3658 20.4047 68.2781 20.4426C68.1903 20.4805 68.0957 20.5 68.0001 20.5C67.9045 20.5 67.8099 20.4805 67.7221 20.4426C67.6343 20.4047 67.5552 20.3492 67.4896 20.2797L58.1513 10.3671C58.1513 10.3671 58.1513 10.3671 58.1513 10.3671C58.0317 10.2401 57.9637 10.0731 57.9606 9.89863C57.9574 9.7242 58.0195 9.55487 58.1345 9.42369L63.122 3.73882C63.122 3.73882 63.122 3.73882 63.122 3.73882C63.1878 3.66376 63.2689 3.60363 63.3599 3.56245C63.4508 3.52126 63.5495 3.49997 63.6494 3.5Z" stroke="white" stroke-opacity="0.5"/>
</g>
<path id="3" d="M70.9285 12.09C70.8714 12.4586 70.7372 12.7819 70.5261 13.06C70.315 13.3381 70.0503 13.5711 69.7318 13.7588C69.4145 13.9396 69.0575 14.0752 68.6608 14.1656C68.2641 14.256 67.8511 14.3012 67.4218 14.3012C67.0111 14.3012 66.6209 14.2594 66.2512 14.176C65.8908 14.0926 65.5747 13.9639 65.303 13.7901C65.0417 13.6093 64.8434 13.3833 64.7081 13.1122C64.5738 12.834 64.5322 12.5003 64.5832 12.1109H66.4032C66.3867 12.2778 66.4061 12.4238 66.4613 12.549C66.5177 12.6672 66.6001 12.768 66.7085 12.8514C66.8179 12.9279 66.9488 12.987 67.101 13.0287C67.2636 13.0635 67.4336 13.0809 67.6109 13.0809C68.0029 13.0809 68.3384 12.994 68.6173 12.8201C68.8973 12.6394 69.0632 12.3821 69.1149 12.0483C69.1634 11.7354 69.0803 11.4886 68.8657 11.3078C68.6521 11.1201 68.3213 11.0262 67.8733 11.0262H67.6073L67.79 9.84764H68.056C68.504 9.84764 68.8395 9.76073 69.0624 9.5869C69.2864 9.40612 69.4189 9.18362 69.4599 8.91939C69.5083 8.6065 69.4236 8.37009 69.2058 8.21017C68.9879 8.05025 68.7156 7.97028 68.3889 7.97028C68.0436 7.97028 67.7419 8.05025 67.4838 8.21017C67.2361 8.36314 67.0808 8.58216 67.0179 8.86725H65.1979C65.259 8.53349 65.3888 8.23798 65.5873 7.98071C65.7963 7.71649 66.0501 7.49399 66.3488 7.31321C66.6475 7.13243 66.9863 6.99336 67.3654 6.89602C67.7539 6.79867 68.1581 6.75 68.5781 6.75C69.0167 6.75 69.4146 6.80215 69.7718 6.90645C70.129 7.01074 70.4284 7.15676 70.6699 7.3445C70.9115 7.53223 71.0865 7.75821 71.1949 8.02243C71.3043 8.2797 71.3348 8.56478 71.2863 8.87768C71.2238 9.28096 71.0617 9.60428 70.8 9.84764C70.5487 10.0841 70.2495 10.2683 69.9023 10.4004C70.2354 10.5395 70.507 10.7446 70.717 11.0158C70.928 11.28 70.9985 11.6381 70.9285 12.09Z" fill="#3D2706"/>
</g>
<g id="Frame 7">
<path id="4" d="M99.2006 15.4918L98.2907 15.4799L98.0236 16.8684L96.2737 16.8455L96.5408 15.457L92.4672 15.4037L92.7925 13.7127L97.499 7.04841L99.4868 7.07443L94.7804 13.7387L96.8662 13.766L97.218 11.9375L98.9678 11.9604L98.616 13.7889L99.5259 13.8008L99.2006 15.4918Z" fill="#868D99"/>
</g>
<g id="Frame 2">
<path id="..." d="M120.782 12.8238L118.697 12.7965L119.088 10.7618L121.174 10.7891L120.782 12.8238ZM124.774 12.8761L122.688 12.8488L123.08 10.8141L125.166 10.8414L124.774 12.8761ZM128.766 12.9283L126.68 12.901L127.072 10.8663L129.158 10.8936L128.766 12.9283Z" fill="#868D99"/>
</g>
<g id="Frame 3">
<path id="9" d="M156.179 10.0308C156.092 10.4799 155.925 10.9141 155.675 11.3335C155.436 11.753 155.161 12.1859 154.85 12.6321L151.922 16.8387L149.948 16.8129L152.797 12.7981C152.667 12.8424 152.535 12.8728 152.401 12.8894C152.276 12.9062 152.153 12.9137 152.032 12.9122C151.696 12.9078 151.381 12.8393 151.089 12.7069C150.798 12.5652 150.555 12.3691 150.36 12.1185C150.165 11.8678 150.027 11.5628 149.947 11.2034C149.866 10.844 149.87 10.4352 149.958 9.9769C150.05 9.50031 150.211 9.07516 150.442 8.70147C150.675 8.3186 150.956 8.00069 151.285 7.74773C151.616 7.4856 151.982 7.28824 152.381 7.15565C152.79 7.02318 153.214 6.95981 153.653 6.96556C154.091 6.9713 154.484 7.04535 154.831 7.18772C155.189 7.32104 155.483 7.51785 155.714 7.77814C155.945 8.03843 156.103 8.3575 156.189 8.73536C156.276 9.11321 156.272 9.54501 156.179 10.0308ZM154.356 10.0207C154.444 9.56243 154.391 9.20798 154.196 8.95735C154.001 8.70671 153.717 8.57895 153.343 8.57406C152.97 8.56917 152.638 8.68887 152.348 8.93316C152.058 9.17744 151.869 9.52872 151.78 9.98698C151.696 10.4269 151.745 10.7767 151.929 11.0364C152.113 11.2961 152.401 11.4285 152.793 11.4336C153.167 11.4385 153.498 11.3188 153.789 11.0745C154.079 10.8302 154.268 10.479 154.356 10.0207Z" fill="#868D99"/>
</g>
<g id="Frame 4">
<path id="10" d="M177.423 16.8061L175.603 16.7823L177.116 8.91853L174.753 10.6242L175.123 8.69948L177.486 6.99382L179.306 7.01765L177.423 16.8061ZM187.108 14.0937C187.019 14.5612 186.854 14.9771 186.616 15.3415C186.388 15.6969 186.111 15.9964 185.783 16.2402C185.465 16.4842 185.107 16.6678 184.709 16.7913C184.32 16.9148 183.925 16.974 183.524 16.9687C183.113 16.9633 182.738 16.8941 182.399 16.761C182.06 16.6279 181.774 16.4358 181.542 16.1847C181.309 15.9336 181.144 15.6282 181.044 15.2686C180.956 14.8999 180.957 14.4818 181.047 14.0144L181.84 9.89002C181.93 9.42259 182.089 9.01119 182.317 8.65583C182.555 8.29142 182.838 7.98731 183.166 7.74351C183.493 7.49972 183.851 7.31604 184.24 7.1925C184.629 7.06895 185.028 7.00986 185.439 7.01523C185.84 7.02049 186.211 7.08965 186.55 7.22273C186.898 7.35593 187.184 7.54804 187.407 7.79904C187.64 8.05017 187.8 8.36007 187.888 8.72876C187.987 9.08841 187.992 9.50194 187.902 9.96937L187.108 14.0937ZM185.291 14.0562L186.077 9.97304C186.156 9.56061 186.107 9.23377 185.929 8.99254C185.751 8.75132 185.484 8.62838 185.13 8.62374C184.775 8.6191 184.458 8.7344 184.179 8.96964C183.909 9.205 183.734 9.5289 183.655 9.94134L182.87 14.0245C182.79 14.4369 182.84 14.7637 183.018 15.005C183.207 15.2371 183.479 15.3556 183.833 15.3602C184.188 15.3648 184.499 15.2541 184.768 15.0279C185.037 14.7925 185.212 14.4686 185.291 14.0562Z" fill="#868D99"/>
</g>
</g>
<defs>
<linearGradient id="paint0_linear_311_629" x1="12.4583" y1="21" x2="12.4583" y2="3" gradientUnits="userSpaceOnUse">
<stop stop-color="#FF5A5A"/>
<stop offset="1" stop-color="#FF903E"/>
</linearGradient>
<linearGradient id="paint1_linear_311_629" x1="40.4583" y1="21" x2="40.4583" y2="3" gradientUnits="userSpaceOnUse">
<stop stop-color="#FF903E"/>
<stop offset="1" stop-color="#FFD338"/>
</linearGradient>
<linearGradient id="paint2_linear_311_629" x1="68.0001" y1="3" x2="68.0001" y2="21" gradientUnits="userSpaceOnUse">
<stop stop-color="#E3B063"/>
<stop offset="1" stop-color="#725325"/>
</linearGradient>
<clipPath id="clip0_311_629">
<rect width="192" height="24" fill="white"/>
</clipPath>
</defs>
</svg>
