<svg width="24" height="24" viewBox="0 0 24 24" fill="none" xmlns="http://www.w3.org/2000/svg">
<g id="&#230;&#142;&#146;&#232;&#161;&#140;">
<g id="TOP2">
<path d="M6.11457 9.26701H4.30107V15H2.94582V9.26701H1.13232V8.05801H6.11457V9.26701Z" fill="url(#paint0_linear_311_331)"/>
<path d="M11.9232 11.529C11.9232 11.828 11.92 12.1075 11.9135 12.3675C11.907 12.6275 11.881 12.8713 11.8355 13.0988C11.7965 13.3263 11.7282 13.5408 11.6307 13.7423C11.5397 13.9373 11.4065 14.1225 11.231 14.298C10.984 14.545 10.7077 14.7335 10.4022 14.8635C10.1032 14.9935 9.75546 15.0585 9.35896 15.0585C8.96246 15.0585 8.61146 14.9935 8.30596 14.8635C8.00046 14.7335 7.72421 14.545 7.47721 14.298C7.30171 14.1225 7.16521 13.9373 7.06771 13.7423C6.97671 13.5408 6.91171 13.3263 6.87271 13.0988C6.83371 12.8713 6.81096 12.6275 6.80446 12.3675C6.79796 12.1075 6.79471 11.828 6.79471 11.529C6.79471 11.23 6.79796 10.9505 6.80446 10.6905C6.81096 10.4305 6.83371 10.1868 6.87271 9.95926C6.91171 9.73176 6.97671 9.52051 7.06771 9.32551C7.16521 9.12401 7.30171 8.93551 7.47721 8.76001C7.72421 8.51301 8.00046 8.32451 8.30596 8.19451C8.61146 8.06451 8.96246 7.99951 9.35896 7.99951C9.75546 7.99951 10.1032 8.06451 10.4022 8.19451C10.7077 8.32451 10.984 8.51301 11.231 8.76001C11.4065 8.93551 11.5397 9.12401 11.6307 9.32551C11.7282 9.52051 11.7965 9.73176 11.8355 9.95926C11.881 10.1868 11.907 10.4305 11.9135 10.6905C11.92 10.9505 11.9232 11.23 11.9232 11.529ZM10.568 11.529C10.568 11.1975 10.5615 10.9245 10.5485 10.71C10.542 10.489 10.5257 10.307 10.4997 10.164C10.4737 10.021 10.438 9.90726 10.3925 9.82276C10.347 9.73176 10.2917 9.65051 10.2267 9.57901C10.1292 9.46851 10.0057 9.38076 9.85621 9.31576C9.71321 9.24426 9.54746 9.20851 9.35896 9.20851C9.17046 9.20851 9.00146 9.24426 8.85196 9.31576C8.70246 9.38076 8.57896 9.46851 8.48146 9.57901C8.41646 9.65051 8.36121 9.73176 8.31571 9.82276C8.27671 9.90726 8.24421 10.021 8.21821 10.164C8.19221 10.307 8.17271 10.489 8.15971 10.71C8.15321 10.9245 8.14996 11.1975 8.14996 11.529C8.14996 11.8605 8.15321 12.1368 8.15971 12.3578C8.17271 12.5723 8.19221 12.751 8.21821 12.894C8.24421 13.037 8.27671 13.154 8.31571 13.245C8.36121 13.3295 8.41646 13.4075 8.48146 13.479C8.57896 13.5895 8.70246 13.6805 8.85196 13.752C9.00146 13.817 9.17046 13.8495 9.35896 13.8495C9.54746 13.8495 9.71321 13.817 9.85621 13.752C10.0057 13.6805 10.1292 13.5895 10.2267 13.479C10.2917 13.4075 10.347 13.3295 10.3925 13.245C10.438 13.154 10.4737 13.037 10.4997 12.894C10.5257 12.751 10.542 12.5723 10.5485 12.3578C10.5615 12.1368 10.568 11.8605 10.568 11.529Z" fill="url(#paint1_linear_311_331)"/>
<path d="M18.2856 10.2225C18.2856 10.515 18.2336 10.7945 18.1296 11.061C18.0256 11.321 17.8729 11.5518 17.6714 11.7533C17.4764 11.9483 17.2359 12.1043 16.9499 12.2213C16.6704 12.3318 16.3519 12.387 15.9944 12.387H14.6586V15H13.3034V8.05801H15.9944C16.3519 8.05801 16.6704 8.11651 16.9499 8.23351C17.2359 8.34401 17.4764 8.50001 17.6714 8.70151C17.8729 8.89651 18.0256 9.12726 18.1296 9.39376C18.2336 9.65376 18.2856 9.93001 18.2856 10.2225ZM16.9304 10.2225C16.9304 9.93651 16.8394 9.70576 16.6574 9.53026C16.4819 9.35476 16.2381 9.26701 15.9261 9.26701H14.6586V11.1683H15.9261C16.2381 11.1683 16.4819 11.0838 16.6574 10.9148C16.8394 10.7393 16.9304 10.5085 16.9304 10.2225Z" fill="url(#paint2_linear_311_331)"/>
<path d="M23.4134 15H19.1917V13.8593L21.7852 10.8465C21.9152 10.697 22.0062 10.5605 22.0582 10.437C22.1167 10.3135 22.1459 10.1705 22.1459 10.008C22.1459 9.74801 22.0744 9.54001 21.9314 9.38401C21.7884 9.22151 21.5804 9.14026 21.3074 9.14026C21.2034 9.14026 21.0994 9.15651 20.9954 9.18901C20.8979 9.21501 20.8069 9.26376 20.7224 9.33526C20.6444 9.40026 20.5794 9.49126 20.5274 9.60826C20.4819 9.71876 20.4592 9.85851 20.4592 10.0275H19.1917C19.1917 9.70901 19.2437 9.42626 19.3477 9.17926C19.4582 8.92576 19.6077 8.71126 19.7962 8.53576C19.9912 8.36026 20.2154 8.22701 20.4689 8.13601C20.7289 8.04501 21.0084 7.99951 21.3074 7.99951C21.6129 7.99951 21.8957 8.04826 22.1557 8.14576C22.4157 8.23676 22.6367 8.37001 22.8187 8.54551C23.0072 8.71451 23.1534 8.92576 23.2574 9.17926C23.3614 9.42626 23.4134 9.70576 23.4134 10.0178C23.4134 10.1868 23.3972 10.3395 23.3647 10.476C23.3322 10.606 23.2834 10.7328 23.2184 10.8563C23.1599 10.9798 23.0819 11.1033 22.9844 11.2268C22.8934 11.3438 22.7894 11.4705 22.6724 11.607L20.7322 13.8593H23.4134V15Z" fill="url(#paint3_linear_311_331)"/>
</g>
</g>
<defs>
<linearGradient id="paint0_linear_311_331" x1="12.8803" y1="17.25" x2="12.8803" y2="6.75001" gradientUnits="userSpaceOnUse">
<stop stop-color="#FF903E"/>
<stop offset="1" stop-color="#FFD338"/>
</linearGradient>
<linearGradient id="paint1_linear_311_331" x1="12.8803" y1="17.25" x2="12.8803" y2="6.75001" gradientUnits="userSpaceOnUse">
<stop stop-color="#FF903E"/>
<stop offset="1" stop-color="#FFD338"/>
</linearGradient>
<linearGradient id="paint2_linear_311_331" x1="12.8803" y1="17.25" x2="12.8803" y2="6.75001" gradientUnits="userSpaceOnUse">
<stop stop-color="#FF903E"/>
<stop offset="1" stop-color="#FFD338"/>
</linearGradient>
<linearGradient id="paint3_linear_311_331" x1="12.8803" y1="17.25" x2="12.8803" y2="6.75001" gradientUnits="userSpaceOnUse">
<stop stop-color="#FF903E"/>
<stop offset="1" stop-color="#FFD338"/>
</linearGradient>
</defs>
</svg>
