<svg width="192" height="24" viewBox="0 0 192 24" fill="none" xmlns="http://www.w3.org/2000/svg">
<g id="&#231;&#188;&#150;&#231;&#187;&#132; 27" clip-path="url(#clip0_311_840)">
<g id="&#230;&#142;&#146;&#232;&#161;&#140;">
<g id="TOP1">
<path d="M6.11409 9.26701H4.30059V15H2.94534V9.26701H1.13184V8.05801H6.11409V9.26701Z" fill="url(#paint0_linear_311_840)"/>
<path d="M11.9227 11.529C11.9227 11.828 11.9195 12.1075 11.913 12.3675C11.9065 12.6275 11.8805 12.8713 11.835 13.0988C11.796 13.3263 11.7277 13.5408 11.6302 13.7423C11.5392 13.9373 11.406 14.1225 11.2305 14.298C10.9835 14.545 10.7072 14.7335 10.4017 14.8635C10.1027 14.9935 9.75497 15.0585 9.35847 15.0585C8.96197 15.0585 8.61097 14.9935 8.30547 14.8635C7.99997 14.7335 7.72372 14.545 7.47672 14.298C7.30122 14.1225 7.16473 13.9373 7.06723 13.7423C6.97623 13.5408 6.91122 13.3263 6.87222 13.0988C6.83322 12.8713 6.81047 12.6275 6.80397 12.3675C6.79747 12.1075 6.79422 11.828 6.79422 11.529C6.79422 11.23 6.79747 10.9505 6.80397 10.6905C6.81047 10.4305 6.83322 10.1868 6.87222 9.95926C6.91122 9.73176 6.97623 9.52051 7.06723 9.32551C7.16473 9.12401 7.30122 8.93551 7.47672 8.76001C7.72372 8.51301 7.99997 8.32451 8.30547 8.19451C8.61097 8.06451 8.96197 7.99951 9.35847 7.99951C9.75497 7.99951 10.1027 8.06451 10.4017 8.19451C10.7072 8.32451 10.9835 8.51301 11.2305 8.76001C11.406 8.93551 11.5392 9.12401 11.6302 9.32551C11.7277 9.52051 11.796 9.73176 11.835 9.95926C11.8805 10.1868 11.9065 10.4305 11.913 10.6905C11.9195 10.9505 11.9227 11.23 11.9227 11.529ZM10.5675 11.529C10.5675 11.1975 10.561 10.9245 10.548 10.71C10.5415 10.489 10.5252 10.307 10.4992 10.164C10.4732 10.021 10.4375 9.90726 10.392 9.82276C10.3465 9.73176 10.2912 9.65051 10.2262 9.57901C10.1287 9.46851 10.0052 9.38076 9.85572 9.31576C9.71272 9.24426 9.54697 9.20851 9.35847 9.20851C9.16997 9.20851 9.00097 9.24426 8.85147 9.31576C8.70197 9.38076 8.57847 9.46851 8.48097 9.57901C8.41597 9.65051 8.36072 9.73176 8.31522 9.82276C8.27622 9.90726 8.24372 10.021 8.21772 10.164C8.19172 10.307 8.17222 10.489 8.15922 10.71C8.15272 10.9245 8.14947 11.1975 8.14947 11.529C8.14947 11.8605 8.15272 12.1368 8.15922 12.3578C8.17222 12.5723 8.19172 12.751 8.21772 12.894C8.24372 13.037 8.27622 13.154 8.31522 13.245C8.36072 13.3295 8.41597 13.4075 8.48097 13.479C8.57847 13.5895 8.70197 13.6805 8.85147 13.752C9.00097 13.817 9.16997 13.8495 9.35847 13.8495C9.54697 13.8495 9.71272 13.817 9.85572 13.752C10.0052 13.6805 10.1287 13.5895 10.2262 13.479C10.2912 13.4075 10.3465 13.3295 10.392 13.245C10.4375 13.154 10.4732 13.037 10.4992 12.894C10.5252 12.751 10.5415 12.5723 10.548 12.3578C10.561 12.1368 10.5675 11.8605 10.5675 11.529Z" fill="url(#paint1_linear_311_840)"/>
<path d="M18.2851 10.2225C18.2851 10.515 18.2331 10.7945 18.1291 11.061C18.0251 11.321 17.8724 11.5518 17.6709 11.7533C17.4759 11.9483 17.2354 12.1043 16.9494 12.2213C16.6699 12.3318 16.3514 12.387 15.9939 12.387H14.6581V15H13.3029V8.05801H15.9939C16.3514 8.05801 16.6699 8.11651 16.9494 8.23351C17.2354 8.34401 17.4759 8.50001 17.6709 8.70151C17.8724 8.89651 18.0251 9.12726 18.1291 9.39376C18.2331 9.65376 18.2851 9.93001 18.2851 10.2225ZM16.9299 10.2225C16.9299 9.93651 16.8389 9.70576 16.6569 9.53026C16.4814 9.35476 16.2376 9.26701 15.9256 9.26701H14.6581V11.1683H15.9256C16.2376 11.1683 16.4814 11.0838 16.6569 10.9148C16.8389 10.7393 16.9299 10.5085 16.9299 10.2225Z" fill="url(#paint2_linear_311_840)"/>
<path d="M22.3014 15H21.0339V9.42301L19.6202 10.6515V9.28651L21.0339 8.05801H22.3014V15Z" fill="url(#paint3_linear_311_840)"/>
</g>
</g>
<g id="&#230;&#142;&#146;&#232;&#161;&#140;_2">
<g id="TOP2">
<path d="M34.1146 9.26701H32.3011V15H30.9458V9.26701H29.1323V8.05801H34.1146V9.26701Z" fill="url(#paint4_linear_311_840)"/>
<path d="M39.9232 11.529C39.9232 11.828 39.92 12.1075 39.9135 12.3675C39.907 12.6275 39.881 12.8713 39.8355 13.0988C39.7965 13.3263 39.7282 13.5408 39.6307 13.7423C39.5397 13.9373 39.4065 14.1225 39.231 14.298C38.984 14.545 38.7077 14.7335 38.4022 14.8635C38.1032 14.9935 37.7555 15.0585 37.359 15.0585C36.9625 15.0585 36.6115 14.9935 36.306 14.8635C36.0005 14.7335 35.7242 14.545 35.4772 14.298C35.3017 14.1225 35.1652 13.9373 35.0677 13.7423C34.9767 13.5408 34.9117 13.3263 34.8727 13.0988C34.8337 12.8713 34.811 12.6275 34.8045 12.3675C34.798 12.1075 34.7947 11.828 34.7947 11.529C34.7947 11.23 34.798 10.9505 34.8045 10.6905C34.811 10.4305 34.8337 10.1868 34.8727 9.95926C34.9117 9.73176 34.9767 9.52051 35.0677 9.32551C35.1652 9.12401 35.3017 8.93551 35.4772 8.76001C35.7242 8.51301 36.0005 8.32451 36.306 8.19451C36.6115 8.06451 36.9625 7.99951 37.359 7.99951C37.7555 7.99951 38.1032 8.06451 38.4022 8.19451C38.7077 8.32451 38.984 8.51301 39.231 8.76001C39.4065 8.93551 39.5397 9.12401 39.6307 9.32551C39.7282 9.52051 39.7965 9.73176 39.8355 9.95926C39.881 10.1868 39.907 10.4305 39.9135 10.6905C39.92 10.9505 39.9232 11.23 39.9232 11.529ZM38.568 11.529C38.568 11.1975 38.5615 10.9245 38.5485 10.71C38.542 10.489 38.5257 10.307 38.4997 10.164C38.4737 10.021 38.438 9.90726 38.3925 9.82276C38.347 9.73176 38.2917 9.65051 38.2267 9.57901C38.1292 9.46851 38.0057 9.38076 37.8562 9.31576C37.7132 9.24426 37.5475 9.20851 37.359 9.20851C37.1705 9.20851 37.0015 9.24426 36.852 9.31576C36.7025 9.38076 36.579 9.46851 36.4815 9.57901C36.4165 9.65051 36.3612 9.73176 36.3157 9.82276C36.2767 9.90726 36.2442 10.021 36.2182 10.164C36.1922 10.307 36.1727 10.489 36.1597 10.71C36.1532 10.9245 36.15 11.1975 36.15 11.529C36.15 11.8605 36.1532 12.1368 36.1597 12.3578C36.1727 12.5723 36.1922 12.751 36.2182 12.894C36.2442 13.037 36.2767 13.154 36.3157 13.245C36.3612 13.3295 36.4165 13.4075 36.4815 13.479C36.579 13.5895 36.7025 13.6805 36.852 13.752C37.0015 13.817 37.1705 13.8495 37.359 13.8495C37.5475 13.8495 37.7132 13.817 37.8562 13.752C38.0057 13.6805 38.1292 13.5895 38.2267 13.479C38.2917 13.4075 38.347 13.3295 38.3925 13.245C38.438 13.154 38.4737 13.037 38.4997 12.894C38.5257 12.751 38.542 12.5723 38.5485 12.3578C38.5615 12.1368 38.568 11.8605 38.568 11.529Z" fill="url(#paint5_linear_311_840)"/>
<path d="M46.2856 10.2225C46.2856 10.515 46.2336 10.7945 46.1296 11.061C46.0256 11.321 45.8729 11.5518 45.6714 11.7533C45.4764 11.9483 45.2359 12.1043 44.9499 12.2213C44.6704 12.3318 44.3519 12.387 43.9944 12.387H42.6586V15H41.3034V8.05801H43.9944C44.3519 8.05801 44.6704 8.11651 44.9499 8.23351C45.2359 8.34401 45.4764 8.50001 45.6714 8.70151C45.8729 8.89651 46.0256 9.12726 46.1296 9.39376C46.2336 9.65376 46.2856 9.93001 46.2856 10.2225ZM44.9304 10.2225C44.9304 9.93651 44.8394 9.70576 44.6574 9.53026C44.4819 9.35476 44.2381 9.26701 43.9261 9.26701H42.6586V11.1683H43.9261C44.2381 11.1683 44.4819 11.0838 44.6574 10.9148C44.8394 10.7393 44.9304 10.5085 44.9304 10.2225Z" fill="url(#paint6_linear_311_840)"/>
<path d="M51.4134 15H47.1917V13.8593L49.7852 10.8465C49.9152 10.697 50.0062 10.5605 50.0582 10.437C50.1167 10.3135 50.1459 10.1705 50.1459 10.008C50.1459 9.74801 50.0744 9.54001 49.9314 9.38401C49.7884 9.22151 49.5804 9.14026 49.3074 9.14026C49.2034 9.14026 49.0994 9.15651 48.9954 9.18901C48.8979 9.21501 48.8069 9.26376 48.7224 9.33526C48.6444 9.40026 48.5794 9.49126 48.5274 9.60826C48.4819 9.71876 48.4592 9.85851 48.4592 10.0275H47.1917C47.1917 9.70901 47.2437 9.42626 47.3477 9.17926C47.4582 8.92576 47.6077 8.71126 47.7962 8.53576C47.9912 8.36026 48.2154 8.22701 48.4689 8.13601C48.7289 8.04501 49.0084 7.99951 49.3074 7.99951C49.6129 7.99951 49.8957 8.04826 50.1557 8.14576C50.4157 8.23676 50.6367 8.37001 50.8187 8.54551C51.0072 8.71451 51.1534 8.92576 51.2574 9.17926C51.3614 9.42626 51.4134 9.70576 51.4134 10.0178C51.4134 10.1868 51.3972 10.3395 51.3647 10.476C51.3322 10.606 51.2834 10.7328 51.2184 10.8563C51.1599 10.9798 51.0819 11.1033 50.9844 11.2268C50.8934 11.3438 50.7894 11.4705 50.6724 11.607L48.7322 13.8593H51.4134V15Z" fill="url(#paint7_linear_311_840)"/>
</g>
</g>
<g id="&#230;&#142;&#146;&#232;&#161;&#140;_3">
<g id="TOP3">
<path d="M62.1146 9.26701H60.3011V15H58.9458V9.26701H57.1323V8.05801H62.1146V9.26701Z" fill="url(#paint8_linear_311_840)"/>
<path d="M67.9232 11.529C67.9232 11.828 67.92 12.1075 67.9135 12.3675C67.907 12.6275 67.881 12.8713 67.8355 13.0988C67.7965 13.3263 67.7282 13.5408 67.6307 13.7423C67.5397 13.9373 67.4065 14.1225 67.231 14.298C66.984 14.545 66.7077 14.7335 66.4022 14.8635C66.1032 14.9935 65.7555 15.0585 65.359 15.0585C64.9625 15.0585 64.6115 14.9935 64.306 14.8635C64.0005 14.7335 63.7242 14.545 63.4772 14.298C63.3017 14.1225 63.1652 13.9373 63.0677 13.7423C62.9767 13.5408 62.9117 13.3263 62.8727 13.0988C62.8337 12.8713 62.811 12.6275 62.8045 12.3675C62.798 12.1075 62.7947 11.828 62.7947 11.529C62.7947 11.23 62.798 10.9505 62.8045 10.6905C62.811 10.4305 62.8337 10.1868 62.8727 9.95926C62.9117 9.73176 62.9767 9.52051 63.0677 9.32551C63.1652 9.12401 63.3017 8.93551 63.4772 8.76001C63.7242 8.51301 64.0005 8.32451 64.306 8.19451C64.6115 8.06451 64.9625 7.99951 65.359 7.99951C65.7555 7.99951 66.1032 8.06451 66.4022 8.19451C66.7077 8.32451 66.984 8.51301 67.231 8.76001C67.4065 8.93551 67.5397 9.12401 67.6307 9.32551C67.7282 9.52051 67.7965 9.73176 67.8355 9.95926C67.881 10.1868 67.907 10.4305 67.9135 10.6905C67.92 10.9505 67.9232 11.23 67.9232 11.529ZM66.568 11.529C66.568 11.1975 66.5615 10.9245 66.5485 10.71C66.542 10.489 66.5257 10.307 66.4997 10.164C66.4737 10.021 66.438 9.90726 66.3925 9.82276C66.347 9.73176 66.2917 9.65051 66.2267 9.57901C66.1292 9.46851 66.0057 9.38076 65.8562 9.31576C65.7132 9.24426 65.5475 9.20851 65.359 9.20851C65.1705 9.20851 65.0015 9.24426 64.852 9.31576C64.7025 9.38076 64.579 9.46851 64.4815 9.57901C64.4165 9.65051 64.3612 9.73176 64.3157 9.82276C64.2767 9.90726 64.2442 10.021 64.2182 10.164C64.1922 10.307 64.1727 10.489 64.1597 10.71C64.1532 10.9245 64.15 11.1975 64.15 11.529C64.15 11.8605 64.1532 12.1368 64.1597 12.3578C64.1727 12.5723 64.1922 12.751 64.2182 12.894C64.2442 13.037 64.2767 13.154 64.3157 13.245C64.3612 13.3295 64.4165 13.4075 64.4815 13.479C64.579 13.5895 64.7025 13.6805 64.852 13.752C65.0015 13.817 65.1705 13.8495 65.359 13.8495C65.5475 13.8495 65.7132 13.817 65.8562 13.752C66.0057 13.6805 66.1292 13.5895 66.2267 13.479C66.2917 13.4075 66.347 13.3295 66.3925 13.245C66.438 13.154 66.4737 13.037 66.4997 12.894C66.5257 12.751 66.542 12.5723 66.5485 12.3578C66.5615 12.1368 66.568 11.8605 66.568 11.529Z" fill="url(#paint9_linear_311_840)"/>
<path d="M74.2856 10.2225C74.2856 10.515 74.2336 10.7945 74.1296 11.061C74.0256 11.321 73.8729 11.5518 73.6714 11.7533C73.4764 11.9483 73.2359 12.1043 72.9499 12.2213C72.6704 12.3318 72.3519 12.387 71.9944 12.387H70.6586V15H69.3034V8.05801H71.9944C72.3519 8.05801 72.6704 8.11651 72.9499 8.23351C73.2359 8.34401 73.4764 8.50001 73.6714 8.70151C73.8729 8.89651 74.0256 9.12726 74.1296 9.39376C74.2336 9.65376 74.2856 9.93001 74.2856 10.2225ZM72.9304 10.2225C72.9304 9.93651 72.8394 9.70576 72.6574 9.53026C72.4819 9.35476 72.2381 9.26701 71.9261 9.26701H70.6586V11.1683H71.9261C72.2381 11.1683 72.4819 11.0838 72.6574 10.9148C72.8394 10.7393 72.9304 10.5085 72.9304 10.2225Z" fill="url(#paint10_linear_311_840)"/>
<path d="M79.4427 12.9915C79.4427 13.336 79.3842 13.6383 79.2672 13.8983C79.1502 14.1583 78.9909 14.376 78.7894 14.5515C78.5879 14.7205 78.3539 14.8473 78.0874 14.9318C77.8209 15.0163 77.5382 15.0585 77.2392 15.0585C76.9532 15.0585 76.6769 15.0195 76.4104 14.9415C76.1504 14.8635 75.9164 14.7433 75.7084 14.5808C75.5069 14.4118 75.3444 14.2005 75.2209 13.947C75.0974 13.687 75.0324 13.375 75.0259 13.011H76.2934C76.2999 13.167 76.3292 13.3035 76.3812 13.4205C76.4332 13.531 76.5014 13.6253 76.5859 13.7033C76.6704 13.7748 76.7679 13.83 76.8784 13.869C76.9954 13.9015 77.1157 13.9178 77.2392 13.9178C77.5122 13.9178 77.7364 13.8365 77.9119 13.674C78.0874 13.505 78.1752 13.2645 78.1752 12.9525C78.1752 12.66 78.0907 12.4293 77.9217 12.2603C77.7527 12.0848 77.5122 11.997 77.2002 11.997H77.0149V10.8953H77.2002C77.5122 10.8953 77.7364 10.814 77.8729 10.6515C78.0094 10.4825 78.0777 10.2745 78.0777 10.0275C78.0777 9.73501 77.9932 9.51401 77.8242 9.36451C77.6552 9.21501 77.4569 9.14026 77.2294 9.14026C76.9889 9.14026 76.7874 9.21501 76.6249 9.36451C76.4689 9.50751 76.3844 9.71226 76.3714 9.97876H75.1039C75.1104 9.66676 75.1689 9.39051 75.2794 9.15001C75.3964 8.90301 75.5492 8.69501 75.7377 8.52601C75.9262 8.35701 76.1472 8.22701 76.4007 8.13601C76.6607 8.04501 76.9369 7.99951 77.2294 7.99951C77.5349 7.99951 77.8177 8.04826 78.0777 8.14576C78.3377 8.24326 78.5619 8.37976 78.7504 8.55526C78.9389 8.73076 79.0852 8.94201 79.1892 9.18901C79.2932 9.42951 79.3452 9.69601 79.3452 9.98851C79.3452 10.3655 79.2672 10.6678 79.1112 10.8953C78.9617 11.1163 78.7732 11.2885 78.5457 11.412C78.7927 11.542 79.0039 11.7338 79.1794 11.9873C79.3549 12.2343 79.4427 12.569 79.4427 12.9915Z" fill="url(#paint11_linear_311_840)"/>
</g>
</g>
<g id="Frame 1">
<path id="4" d="M99.3672 15.586H98.4572V17H96.7072V15.586H92.6332V13.864L96.0492 7.032H98.0372L94.6212 13.864H96.7072V12.002H98.4572V13.864H99.3672V15.586Z" fill="#868D99"/>
</g>
<g id="Frame 2">
<path id="..." d="M121.05 13H118.964V10.928H121.05V13ZM125.042 13H122.956V10.928H125.042V13ZM129.034 13H126.948V10.928H129.034V13Z" fill="#868D99"/>
</g>
<g id="Frame 3">
<path id="9" d="M155.129 10.028C155.129 10.4853 155.045 10.9287 154.877 11.358C154.719 11.7873 154.527 12.2307 154.303 12.688L152.189 17H150.215L152.287 12.884C152.166 12.9307 152.04 12.9633 151.909 12.982C151.788 13.0007 151.667 13.01 151.545 13.01C151.209 13.01 150.883 12.9447 150.565 12.814C150.248 12.674 149.968 12.478 149.725 12.226C149.483 11.974 149.287 11.666 149.137 11.302C148.988 10.938 148.913 10.5227 148.913 10.056C148.913 9.57067 148.993 9.13667 149.151 8.754C149.31 8.362 149.529 8.03533 149.809 7.774C150.089 7.50333 150.416 7.298 150.789 7.158C151.172 7.018 151.583 6.948 152.021 6.948C152.46 6.948 152.866 7.018 153.239 7.158C153.622 7.28867 153.953 7.48467 154.233 7.746C154.513 8.00733 154.733 8.32933 154.891 8.712C155.05 9.09467 155.129 9.53333 155.129 10.028ZM153.309 10.042C153.309 9.57533 153.188 9.216 152.945 8.964C152.703 8.712 152.395 8.586 152.021 8.586C151.648 8.586 151.34 8.712 151.097 8.964C150.855 9.216 150.733 9.57533 150.733 10.042C150.733 10.49 150.85 10.8447 151.083 11.106C151.317 11.3673 151.629 11.498 152.021 11.498C152.395 11.498 152.703 11.372 152.945 11.12C153.188 10.868 153.309 10.5087 153.309 10.042Z" fill="#868D99"/>
</g>
<g id="Frame 4">
<path id="10" d="M177.69 16.9478H175.87V8.93975L173.84 10.7038V8.74375L175.87 6.97975H177.69V16.9478ZM186.832 14.0638C186.832 14.5398 186.748 14.9644 186.58 15.3378C186.421 15.7018 186.202 16.0098 185.922 16.2618C185.651 16.5138 185.329 16.7051 184.956 16.8358C184.592 16.9664 184.209 17.0318 183.808 17.0318C183.397 17.0318 183.01 16.9664 182.646 16.8358C182.282 16.7051 181.96 16.5138 181.68 16.2618C181.4 16.0098 181.176 15.7018 181.008 15.3378C180.849 14.9644 180.77 14.5398 180.77 14.0638V9.86375C180.77 9.38775 180.849 8.96775 181.008 8.60375C181.176 8.23042 181.4 7.91775 181.68 7.66575C181.96 7.41375 182.282 7.22242 182.646 7.09175C183.01 6.96109 183.397 6.89575 183.808 6.89575C184.209 6.89575 184.592 6.96109 184.956 7.09175C185.329 7.22242 185.651 7.41375 185.922 7.66575C186.202 7.91775 186.421 8.23042 186.58 8.60375C186.748 8.96775 186.832 9.38775 186.832 9.86375V14.0638ZM185.012 14.0498V9.89175C185.012 9.47175 184.9 9.14042 184.676 8.89775C184.452 8.65509 184.163 8.53375 183.808 8.53375C183.453 8.53375 183.159 8.65509 182.926 8.89775C182.702 9.14042 182.59 9.47175 182.59 9.89175V14.0498C182.59 14.4698 182.702 14.8011 182.926 15.0438C183.159 15.2771 183.453 15.3938 183.808 15.3938C184.163 15.3938 184.452 15.2771 184.676 15.0438C184.9 14.8011 185.012 14.4698 185.012 14.0498Z" fill="#868D99"/>
</g>
</g>
<defs>
<linearGradient id="paint0_linear_311_840" x1="12.1769" y1="15.0585" x2="12.1769" y2="7.99951" gradientUnits="userSpaceOnUse">
<stop stop-color="#FF5A5A"/>
<stop offset="1" stop-color="#FF903E"/>
</linearGradient>
<linearGradient id="paint1_linear_311_840" x1="12.1769" y1="15.0585" x2="12.1769" y2="7.99951" gradientUnits="userSpaceOnUse">
<stop stop-color="#FF5A5A"/>
<stop offset="1" stop-color="#FF903E"/>
</linearGradient>
<linearGradient id="paint2_linear_311_840" x1="12.1769" y1="15.0585" x2="12.1769" y2="7.99951" gradientUnits="userSpaceOnUse">
<stop stop-color="#FF5A5A"/>
<stop offset="1" stop-color="#FF903E"/>
</linearGradient>
<linearGradient id="paint3_linear_311_840" x1="12.1769" y1="15.0585" x2="12.1769" y2="7.99951" gradientUnits="userSpaceOnUse">
<stop stop-color="#FF5A5A"/>
<stop offset="1" stop-color="#FF903E"/>
</linearGradient>
<linearGradient id="paint4_linear_311_840" x1="40.8803" y1="17.25" x2="40.8803" y2="6.75001" gradientUnits="userSpaceOnUse">
<stop stop-color="#FF903E"/>
<stop offset="1" stop-color="#FFD338"/>
</linearGradient>
<linearGradient id="paint5_linear_311_840" x1="40.8803" y1="17.25" x2="40.8803" y2="6.75001" gradientUnits="userSpaceOnUse">
<stop stop-color="#FF903E"/>
<stop offset="1" stop-color="#FFD338"/>
</linearGradient>
<linearGradient id="paint6_linear_311_840" x1="40.8803" y1="17.25" x2="40.8803" y2="6.75001" gradientUnits="userSpaceOnUse">
<stop stop-color="#FF903E"/>
<stop offset="1" stop-color="#FFD338"/>
</linearGradient>
<linearGradient id="paint7_linear_311_840" x1="40.8803" y1="17.25" x2="40.8803" y2="6.75001" gradientUnits="userSpaceOnUse">
<stop stop-color="#FF903E"/>
<stop offset="1" stop-color="#FFD338"/>
</linearGradient>
<linearGradient id="paint8_linear_311_840" x1="68.3751" y1="6.75001" x2="68.3751" y2="17.25" gradientUnits="userSpaceOnUse">
<stop stop-color="#E3B063"/>
<stop offset="1" stop-color="#725325"/>
</linearGradient>
<linearGradient id="paint9_linear_311_840" x1="68.3751" y1="6.75001" x2="68.3751" y2="17.25" gradientUnits="userSpaceOnUse">
<stop stop-color="#E3B063"/>
<stop offset="1" stop-color="#725325"/>
</linearGradient>
<linearGradient id="paint10_linear_311_840" x1="68.3751" y1="6.75001" x2="68.3751" y2="17.25" gradientUnits="userSpaceOnUse">
<stop stop-color="#E3B063"/>
<stop offset="1" stop-color="#725325"/>
</linearGradient>
<linearGradient id="paint11_linear_311_840" x1="68.3751" y1="6.75001" x2="68.3751" y2="17.25" gradientUnits="userSpaceOnUse">
<stop stop-color="#E3B063"/>
<stop offset="1" stop-color="#725325"/>
</linearGradient>
<clipPath id="clip0_311_840">
<rect width="192" height="24" fill="white"/>
</clipPath>
</defs>
</svg>
