<svg width="24" height="24" viewBox="0 0 24 24" fill="none" xmlns="http://www.w3.org/2000/svg">
<g id="Frame 6">
<path id="Rectangle 78" d="M1 9H23V13V17H1V13V9Z" fill="url(#paint0_linear_311_661)"/>
<path id="3" d="M15.2404 14.0452C15.1469 14.5309 14.9809 14.956 14.7424 15.3204C14.5039 15.6848 14.2162 15.9889 13.8793 16.2325C13.5441 16.467 13.1737 16.6414 12.7682 16.7555C12.3626 16.8697 11.9452 16.9239 11.5159 16.9183C11.1053 16.9129 10.7192 16.8527 10.3577 16.7377C10.0056 16.6229 9.70225 16.4489 9.4477 16.2159C9.20423 15.9738 9.02823 15.6729 8.91968 15.3131C8.81289 14.9442 8.8042 14.503 8.89361 13.9896L10.7135 14.0135C10.6805 14.2335 10.6854 14.4266 10.7284 14.5925C10.773 14.7493 10.8455 14.8835 10.9456 14.9951C11.0476 15.0975 11.1726 15.1772 11.3206 15.2343C11.4798 15.2823 11.648 15.3075 11.8254 15.3098C12.2173 15.3149 12.5613 15.2046 12.8574 14.9787C13.1552 14.7437 13.3465 14.4063 13.4311 13.9663C13.5104 13.5539 13.4517 13.2269 13.2549 12.9855C13.0599 12.7348 12.7384 12.6066 12.2904 12.6007L12.0244 12.5972L12.3233 11.0437L12.5893 11.0472C13.0373 11.0531 13.3813 10.9427 13.6213 10.7162C13.8632 10.4804 14.0176 10.1884 14.0846 9.84014C14.1639 9.42771 14.1026 9.1145 13.9005 8.90052C13.6984 8.68654 13.434 8.57742 13.1074 8.57314C12.7621 8.56862 12.4525 8.67023 12.1786 8.87798C11.9159 9.07668 11.739 9.3638 11.648 9.73933L9.82818 9.71551C9.92215 9.2757 10.0811 8.88728 10.305 8.55024C10.54 8.20416 10.8157 7.91374 11.1322 7.67899C11.4487 7.44423 11.8013 7.26508 12.1899 7.14153C12.5879 7.01811 12.9969 6.95914 13.4168 6.96464C13.8555 6.97038 14.2482 7.04443 14.5951 7.1868C14.9419 7.32917 15.2269 7.52585 15.4499 7.77686C15.6729 8.02786 15.8256 8.32848 15.9079 8.67872C15.992 9.01978 15.9944 9.39654 15.915 9.80897C15.8127 10.3406 15.6188 10.7653 15.3331 11.0831C15.0585 11.3919 14.7411 11.6313 14.381 11.8011C14.7003 11.9891 14.9516 12.2634 15.1348 12.6242C15.3198 12.9758 15.355 13.4494 15.2404 14.0452Z" fill="white"/>
</g>
<defs>
<linearGradient id="paint0_linear_311_661" x1="21.5449" y1="13.0001" x2="2.53442" y2="13.0001" gradientUnits="userSpaceOnUse">
<stop stop-color="#A88551" stop-opacity="0"/>
<stop offset="0.474792" stop-color="#A88551"/>
<stop offset="1" stop-color="#A88551" stop-opacity="0"/>
</linearGradient>
</defs>
</svg>
