<svg width="24" height="24" viewBox="0 0 24 24" fill="none" xmlns="http://www.w3.org/2000/svg">
<g id="&#230;&#142;&#146;&#232;&#161;&#140;">
<path id="Vector" d="M19.3333 20.25C19.3333 20.25 13.925 17.1 13.3292 16.785C12.6417 16.425 12.4125 16.2 12 16.2C11.5417 16.2 11.3583 16.515 10.625 16.92C10.075 17.235 4.66667 20.25 4.66667 20.25C4.1625 20.25 3.75 19.845 3.75 19.35V5.1C3.75 4.335 4.34583 3.75 5.125 3.75H18.875C19.6542 3.75 20.25 4.335 20.25 5.1V19.35C20.25 19.845 19.8375 20.25 19.3333 20.25Z" fill="url(#paint0_linear_311_300)"/>
<path id="2" d="M14.3155 14.289H9.76904V13.0605L12.562 9.816C12.702 9.655 12.8 9.508 12.856 9.375C12.919 9.242 12.9505 9.088 12.9505 8.913C12.9505 8.633 12.8735 8.409 12.7195 8.241C12.5655 8.066 12.3415 7.9785 12.0475 7.9785C11.9355 7.9785 11.8235 7.996 11.7115 8.031C11.6065 8.059 11.5085 8.1115 11.4175 8.1885C11.3335 8.2585 11.2635 8.3565 11.2075 8.4825C11.1585 8.6015 11.134 8.752 11.134 8.934H9.76904C9.76904 8.591 9.82504 8.2865 9.93704 8.0205C10.056 7.7475 10.217 7.5165 10.42 7.3275C10.63 7.1385 10.8715 6.995 11.1445 6.897C11.4245 6.799 11.7255 6.75 12.0475 6.75C12.3765 6.75 12.681 6.8025 12.961 6.9075C13.241 7.0055 13.479 7.149 13.675 7.338C13.878 7.52 14.0355 7.7475 14.1475 8.0205C14.2595 8.2865 14.3155 8.5875 14.3155 8.9235C14.3155 9.1055 14.298 9.27 14.263 9.417C14.228 9.557 14.1755 9.6935 14.1055 9.8265C14.0425 9.9595 13.9585 10.0925 13.8535 10.2255C13.7555 10.3515 13.6435 10.488 13.5175 10.635L11.428 13.0605H14.3155V14.289Z" fill="#653D00"/>
</g>
<defs>
<linearGradient id="paint0_linear_311_300" x1="12.3587" y1="20.25" x2="12.3587" y2="3.75" gradientUnits="userSpaceOnUse">
<stop stop-color="#FF903E"/>
<stop offset="1" stop-color="#FFD338"/>
</linearGradient>
</defs>
</svg>
