<svg width="24" height="24" viewBox="0 0 24 24" fill="none" xmlns="http://www.w3.org/2000/svg">
<g id="&#230;&#142;&#146;&#232;&#161;&#140;">
<path id="Union" fill-rule="evenodd" clip-rule="evenodd" d="M18.558 13.669C17.5647 15.9969 15.3683 17.6883 12.7503 17.9623V19.8767H16.1258V21.0019H7.87417V19.8767H11.625V17.9916C8.8425 17.8473 6.48203 16.1071 5.43762 13.6687C3.70594 13.4891 2.34214 12.0689 2.25105 10.3122L2.24805 7.5014C2.24761 7.30408 2.28612 7.10862 2.36138 6.92622C2.43664 6.74382 2.54716 6.57807 2.68662 6.43847C2.82607 6.29888 2.99171 6.18819 3.17403 6.11275C3.35636 6.03731 3.55178 5.9986 3.7491 5.99885H4.8717H4.87362V4.50234C4.87362 3.67343 5.54463 2.99829 6.37204 2.99829H17.628C17.8252 2.99839 18.0204 3.03741 18.2024 3.11312C18.3844 3.18884 18.5497 3.29975 18.6887 3.43949C18.8278 3.57923 18.9378 3.74506 19.0126 3.92745C19.0874 4.10984 19.1255 4.30521 19.1246 4.50234L19.1229 5.99885H20.2494C20.4467 5.99865 20.6421 6.03739 20.8244 6.11286C21.0066 6.18832 21.1722 6.29902 21.3117 6.43861C21.4511 6.5782 21.5616 6.74393 21.6368 6.92631C21.712 7.10868 21.7505 7.30411 21.7501 7.5014L21.7471 10.3122C21.6559 12.0698 20.2912 13.4905 18.558 13.669ZM4.8717 7.12407H3.7491C3.69965 7.12382 3.65063 7.13339 3.6049 7.15221C3.55916 7.17103 3.51762 7.19874 3.48266 7.23373C3.44771 7.26872 3.42005 7.31029 3.40127 7.35604C3.38249 7.4018 3.37298 7.45082 3.37328 7.50027L3.37628 10.2796C3.40512 10.7337 3.56047 11.1706 3.82475 11.541C4.08902 11.9114 4.45168 12.2005 4.8717 12.3755V7.12407ZM20.6249 7.50027L20.6219 10.2796C20.593 10.7337 20.4377 11.1706 20.1734 11.541C19.9091 11.9114 19.5464 12.2005 19.1264 12.3755V7.12407H20.2494C20.2988 7.12387 20.3478 7.13347 20.3935 7.15232C20.4392 7.17116 20.4807 7.19888 20.5156 7.23386C20.5505 7.26884 20.5781 7.3104 20.5969 7.35613C20.6157 7.40186 20.6252 7.45085 20.6249 7.50027Z" fill="url(#paint0_linear_311_843)"/>
<path id="3" d="M14.3468 11.3369C14.3468 11.7079 14.2838 12.0334 14.1578 12.3134C14.0318 12.5934 13.8603 12.8279 13.6433 13.0169C13.4263 13.1989 13.1743 13.3354 12.8873 13.4264C12.6003 13.5174 12.2958 13.5629 11.9738 13.5629C11.6658 13.5629 11.3683 13.5209 11.0813 13.4369C10.8013 13.3529 10.5493 13.2234 10.3253 13.0484C10.1083 12.8664 9.93333 12.6389 9.80033 12.3659C9.66733 12.0859 9.59733 11.7499 9.59033 11.3579H10.9553C10.9623 11.5259 10.9938 11.6729 11.0498 11.7989C11.1058 11.9179 11.1793 12.0194 11.2703 12.1034C11.3613 12.1804 11.4663 12.2399 11.5853 12.2819C11.7113 12.3169 11.8408 12.3344 11.9738 12.3344C12.2678 12.3344 12.5093 12.2469 12.6983 12.0719C12.8873 11.8899 12.9818 11.6309 12.9818 11.2949C12.9818 10.9799 12.8908 10.7314 12.7088 10.5494C12.5268 10.3604 12.2678 10.2659 11.9318 10.2659H11.7323V9.07944H11.9318C12.2678 9.07944 12.5093 8.99194 12.6563 8.81694C12.8033 8.63494 12.8768 8.41094 12.8768 8.14494C12.8768 7.82994 12.7858 7.59194 12.6038 7.43094C12.4218 7.26994 12.2083 7.18944 11.9633 7.18944C11.7043 7.18944 11.4873 7.26994 11.3123 7.43094C11.1443 7.58494 11.0533 7.80544 11.0393 8.09244H9.67433C9.68133 7.75644 9.74433 7.45894 9.86333 7.19994C9.98933 6.93394 10.1538 6.70994 10.3568 6.52794C10.5598 6.34594 10.7978 6.20594 11.0708 6.10794C11.3508 6.00994 11.6483 5.96094 11.9633 5.96094C12.2923 5.96094 12.5968 6.01344 12.8768 6.11844C13.1568 6.22344 13.3983 6.37044 13.6013 6.55944C13.8043 6.74844 13.9618 6.97594 14.0738 7.24194C14.1858 7.50094 14.2418 7.78794 14.2418 8.10294C14.2418 8.50894 14.1578 8.83444 13.9898 9.07944C13.8288 9.31744 13.6258 9.50294 13.3808 9.63594C13.6468 9.77594 13.8743 9.98244 14.0633 10.2554C14.2523 10.5214 14.3468 10.8819 14.3468 11.3369Z" fill="#3D2706"/>
</g>
<defs>
<linearGradient id="paint0_linear_311_843" x1="11.9991" y1="2.99829" x2="11.9991" y2="21.0019" gradientUnits="userSpaceOnUse">
<stop stop-color="#E3B063"/>
<stop offset="1" stop-color="#725325"/>
</linearGradient>
</defs>
</svg>
