<svg width="24" height="25" viewBox="0 0 24 25" fill="none" xmlns="http://www.w3.org/2000/svg">
<g id="Frame 8">
<path id="8" d="M15.4787 14.1749C15.387 14.6515 15.2219 15.072 14.9834 15.4364C14.7466 15.7916 14.4598 16.0911 14.1228 16.3348C13.7859 16.5785 13.4091 16.7619 12.9925 16.8851C12.5852 17.0084 12.1622 17.0672 11.7236 17.0614C11.2849 17.0557 10.882 16.9861 10.5147 16.8526C10.1568 16.7193 9.85693 16.527 9.61523 16.2758C9.37353 16.0245 9.20308 15.7191 9.10386 15.3594C9.0064 14.9906 9.00352 14.5679 9.09521 14.0913C9.1534 13.7889 9.24187 13.5236 9.36061 13.2954C9.48869 13.0674 9.63014 12.8671 9.78496 12.6945C9.94155 12.5128 10.1022 12.3587 10.2669 12.2322C10.4409 12.1059 10.6067 11.9978 10.7643 11.908C10.6495 11.8238 10.5391 11.7167 10.4332 11.5866C10.3272 11.4566 10.2341 11.3084 10.1538 11.1419C10.0829 10.9756 10.0304 10.7866 9.9963 10.5748C9.97153 10.3631 9.98471 10.1244 10.0358 9.85863C10.1187 9.42787 10.2721 9.04396 10.496 8.70693C10.731 8.36084 11.0114 8.07049 11.3372 7.83586C11.6648 7.59206 12.0229 7.40839 12.4116 7.28484C12.8096 7.16141 13.2185 7.10245 13.6385 7.10794C14.0585 7.11344 14.4381 7.18273 14.7774 7.31581C15.126 7.44901 15.4118 7.64111 15.6348 7.89212C15.869 8.13408 16.0319 8.43024 16.1235 8.78059C16.2263 9.12191 16.2362 9.50795 16.1533 9.93871C16.1022 10.2045 16.019 10.4423 15.9038 10.6521C15.7979 10.8621 15.6731 11.0488 15.5294 11.2123C15.395 11.376 15.2454 11.521 15.0808 11.6475C14.9254 11.7741 14.7792 11.8778 14.642 11.9587C14.7643 12.0522 14.8831 12.164 14.9985 12.2942C15.1231 12.4245 15.2284 12.582 15.3145 12.7669C15.4116 12.9428 15.4755 13.1458 15.5061 13.3759C15.546 13.6061 15.5369 13.8724 15.4787 14.1749ZM14.3229 9.96988C14.3899 9.6216 14.3297 9.32679 14.1422 9.08544C13.9547 8.84409 13.6837 8.72109 13.329 8.71645C12.9744 8.7118 12.6528 8.82704 12.3644 9.06216C12.0852 9.29741 11.9121 9.58917 11.8451 9.93745C11.7763 10.2949 11.8357 10.5943 12.0232 10.8356C12.2217 11.0679 12.4983 11.1864 12.853 11.1911C13.2076 11.1957 13.5236 11.085 13.801 10.8589C14.0802 10.6237 14.2541 10.3273 14.3229 9.96988ZM13.6641 14.1236C13.7382 13.7386 13.6692 13.4161 13.4573 13.1561C13.2471 12.8869 12.946 12.7497 12.5541 12.7446C12.1621 12.7394 11.8099 12.8681 11.4975 13.1304C11.1868 13.3836 10.9944 13.7027 10.9203 14.0877C10.8463 14.4726 10.9152 14.7951 11.1272 15.0551C11.3391 15.3152 11.6411 15.4478 12.033 15.4529C12.425 15.458 12.7763 15.334 13.087 15.0808C13.3977 14.8276 13.5901 14.5085 13.6641 14.1236Z" fill="#868D99"/>
</g>
</svg>
