<?xml version="1.0" encoding="UTF-8"?><svg xmlns="http://www.w3.org/2000/svg" id="图层_1" x="0" y="0" version="1.1" viewBox="0 0 100 100" xml:space="preserve"><linearGradient id="SVGID_762_" x1="49.472" x2="49.654" y1="74.218" y2="85.731" gradientUnits="userSpaceOnUse"><stop offset=".094" stop-color="#fdaa65"></stop><stop offset=".979" stop-color="#ff4b38"></stop></linearGradient><path fill="url(#SVGID_762_)" d="M55.69 85.64H43.54c-1.43-.02-1.96-1.99-.81-2.88l1.05-.82c2.01-1.56 3.05-5.11 2.74-7.67h6.24c-.28 2.63.81 6.22 2.87 7.8l.91.7c1.15.88.63 2.85-.8 2.88-.03-.01-.04-.01-.05-.01z" class="st-0"></path><linearGradient id="SVGID_763_" x1="49.978" x2="49.596" y1="74.729" y2="64.59" gradientUnits="userSpaceOnUse"><stop offset=".169" stop-color="#fda03c"></stop><stop offset=".264" stop-color="#fda94f"></stop><stop offset=".615" stop-color="#fec992"></stop><stop offset=".869" stop-color="#fdb"></stop><stop offset="1" stop-color="#ffe5cb"></stop></linearGradient><path fill="url(#SVGID_763_)" d="M62.15 74.26H37.1c-3.77 0-7.13-2.47-8.35-6.14l-.9-2.72H71.4l-.9 2.72c-1.22 3.68-4.58 6.14-8.35 6.14z" class="st-1"></path><linearGradient id="SVGID_764_" x1="49.548" x2="49.706" y1="58.396" y2="66.041" gradientUnits="userSpaceOnUse"><stop offset=".094" stop-color="#fdaa65"></stop><stop offset=".979" stop-color="#ff4b38"></stop></linearGradient><path fill="url(#SVGID_764_)" d="M19.08 59.03h61.1v6.38h-61.1z" class="st-2"></path><linearGradient id="SVGID_765_" x1="65.41" x2="65.414" y1="16.653" y2="34.08" gradientUnits="userSpaceOnUse"><stop offset=".13" stop-color="#fff3ec"></stop><stop offset=".386" stop-color="#ffdcc8"></stop><stop offset=".98" stop-color="#ffa778"></stop></linearGradient><path fill="url(#SVGID_765_)" d="M69.21 28.02c-3.18 4.81-9.56 6.06-9.56 6.06s-1.22-6.56 1.96-11.37 9.56-6.06 9.56-6.06 1.22 6.56-1.96 11.37z" class="st-3"></path><linearGradient id="SVGID_766_" x1="34.122" x2="34.127" y1="16.65" y2="34.083" gradientUnits="userSpaceOnUse"><stop offset=".13" stop-color="#fff3ec"></stop><stop offset=".386" stop-color="#ffdcc8"></stop><stop offset=".98" stop-color="#ffa778"></stop></linearGradient><path fill="url(#SVGID_766_)" d="M30.33 28.02c3.18 4.81 9.56 6.06 9.56 6.06s1.22-6.56-1.96-11.37c-3.18-4.81-9.56-6.06-9.56-6.06s-1.22 6.56 1.96 11.37z" class="st-4"></path><linearGradient id="SVGID_767_" x1="49.617" x2="49.619" y1="13.636" y2="25.367" gradientUnits="userSpaceOnUse"><stop offset=".13" stop-color="#ffd5c3"></stop><stop offset=".405" stop-color="#fdaf9b"></stop><stop offset=".98" stop-color="#f9624b"></stop></linearGradient><ellipse cx="49.62" cy="19.5" fill="url(#SVGID_767_)" rx="5.7" ry="5.87" class="st-5"></ellipse><linearGradient id="SVGID_768_" x1="43.839" x2="43.989" y1="20.336" y2="32.066" gradientUnits="userSpaceOnUse"><stop offset=".13" stop-color="#ffcab8"></stop><stop offset=".349" stop-color="#fdaf9b"></stop><stop offset=".98" stop-color="#f9624b"></stop></linearGradient><ellipse cx="43.91" cy="26.2" fill="url(#SVGID_768_)" rx="5.7" ry="5.87" class="st-6"></ellipse><linearGradient id="SVGID_769_" x1="55.25" x2="55.393" y1="20.336" y2="32.066" gradientUnits="userSpaceOnUse"><stop offset=".13" stop-color="#ffc6b4"></stop><stop offset=".325" stop-color="#feae9b"></stop><stop offset=".98" stop-color="#f9624b"></stop></linearGradient><ellipse cx="55.32" cy="26.2" fill="url(#SVGID_769_)" rx="5.7" ry="5.87" class="st-7"></ellipse><linearGradient id="SVGID_770_" x1="20.342" x2="20.342" y1="48.435" y2="40.38" gradientUnits="userSpaceOnUse"><stop offset=".169" stop-color="#fda03c"></stop><stop offset=".264" stop-color="#fda94f"></stop><stop offset=".615" stop-color="#fec992"></stop><stop offset=".869" stop-color="#fdb"></stop><stop offset="1" stop-color="#ffe5cb"></stop></linearGradient><path fill="url(#SVGID_770_)" d="M18.67 46.97c3.1 2.14 7.28 1.3 7.28 1.3s-.84-4.3-3.94-6.43-7.28-1.3-7.28-1.3.84 4.3 3.94 6.43z" class="st-8"></path><linearGradient id="SVGID_771_" x1="79.015" x2="79.015" y1="48.435" y2="40.229" gradientUnits="userSpaceOnUse"><stop offset=".169" stop-color="#fda03c"></stop><stop offset=".264" stop-color="#fda94f"></stop><stop offset=".615" stop-color="#fec992"></stop><stop offset=".869" stop-color="#fdb"></stop><stop offset="1" stop-color="#ffe5cb"></stop></linearGradient><path fill="url(#SVGID_771_)" d="M80.72 46.95c-3.16 2.18-7.42 1.32-7.42 1.32s.86-4.38 4.01-6.55c3.16-2.18 7.42-1.32 7.42-1.32s-.85 4.37-4.01 6.55z" class="st-9"></path><linearGradient id="SVGID_772_" x1="31.564" x2="30.752" y1="29.631" y2="59.218" gradientUnits="userSpaceOnUse"><stop offset=".125" stop-color="#fdf0e7"></stop><stop offset=".958" stop-color="#f8cfb4"></stop></linearGradient><path fill="url(#SVGID_772_)" d="m24.59 49.67 1.09-13.88c0-3.4 2.68-6.15 5.98-6.15 3.31 0 5.98 2.76 5.98 6.15v23.24h-13.8" class="st-10"></path><linearGradient id="SVGID_773_" x1="43.97" x2="43.422" y1="29.641" y2="59.136" gradientUnits="userSpaceOnUse"><stop offset=".094" stop-color="#fdaa65"></stop><stop offset=".979" stop-color="#ff4b38"></stop></linearGradient><path fill="url(#SVGID_773_)" d="M49.63 59.03H37.66V35.62c0-3.31 2.68-5.98 5.98-5.98 3.31 0 5.98 2.68 5.98 5.98v23.41z" class="st-11"></path><linearGradient id="SVGID_774_" x1="55.927" x2="55.401" y1="29.641" y2="59.132" gradientUnits="userSpaceOnUse"><stop offset=".125" stop-color="#fdf0e7"></stop><stop offset=".958" stop-color="#f8cfb4"></stop></linearGradient><path fill="url(#SVGID_774_)" d="M61.6 59.03H49.63V35.62c0-3.31 2.68-5.98 5.98-5.98 3.31 0 5.98 2.68 5.98 5.98v23.41z" class="st-12"></path><linearGradient id="SVGID_775_" x1="68.296" x2="68.497" y1="29.631" y2="59.076" gradientUnits="userSpaceOnUse"><stop offset=".094" stop-color="#fdaa65"></stop><stop offset=".979" stop-color="#ff4b38"></stop></linearGradient><path fill="url(#SVGID_775_)" d="M75.4 59.03H61.6V35.79c0-3.4 2.68-6.15 5.98-6.15 3.31 0 5.98 2.76 5.98 6.15l1.09 13.89" class="st-13"></path><g><linearGradient id="SVGID_776_" x1="77.368" x2="77.368" y1="59.052" y2="47.9" gradientUnits="userSpaceOnUse"><stop offset=".169" stop-color="#fda03c"></stop><stop offset=".264" stop-color="#fda94f"></stop><stop offset=".615" stop-color="#fec992"></stop><stop offset=".869" stop-color="#fdb"></stop><stop offset="1" stop-color="#ffe5cb"></stop></linearGradient><ellipse cx="77.37" cy="53.48" fill="url(#SVGID_776_)" rx="5.42" ry="5.58" class="st-14"></ellipse></g><g><linearGradient id="SVGID_777_" x1="21.781" x2="21.781" y1="59.052" y2="47.9" gradientUnits="userSpaceOnUse"><stop offset=".169" stop-color="#fda03c"></stop><stop offset=".264" stop-color="#fda94f"></stop><stop offset=".615" stop-color="#fec992"></stop><stop offset=".869" stop-color="#fdb"></stop><stop offset="1" stop-color="#ffe5cb"></stop></linearGradient><path fill="url(#SVGID_777_)" d="M27.2 53.48c0 3.08-2.43 5.58-5.42 5.58s-5.42-2.5-5.42-5.58 2.43-5.58 5.42-5.58c1.24 0 2.37.43 3.29 1.14a5.621 5.621 0 0 1 2.13 4.44z" class="st-15"></path></g></svg>