<svg width="24" height="25" viewBox="0 0 24 25" fill="none" xmlns="http://www.w3.org/2000/svg">
<g id="Frame 8">
<path id="8" d="M15.1992 14.2756C15.1992 14.7609 15.1152 15.1903 14.9472 15.5636C14.7792 15.9276 14.5506 16.2356 14.2612 16.4876C13.9719 16.7396 13.6312 16.9309 13.2392 17.0616C12.8566 17.1923 12.4459 17.2576 12.0072 17.2576C11.5686 17.2576 11.1532 17.1923 10.7612 17.0616C10.3786 16.9309 10.0426 16.7396 9.75322 16.4876C9.46389 16.2356 9.23522 15.9276 9.06722 15.5636C8.89922 15.1903 8.81522 14.7609 8.81522 14.2756C8.81522 13.9676 8.85255 13.6969 8.92722 13.4636C9.01122 13.2303 9.11389 13.0249 9.23522 12.8476C9.35655 12.6609 9.48722 12.5023 9.62722 12.3716C9.77655 12.2409 9.92122 12.1289 10.0612 12.0356C9.93055 11.9516 9.79989 11.8443 9.66922 11.7136C9.53855 11.5829 9.41722 11.4336 9.30522 11.2656C9.20255 11.0976 9.11389 10.9063 9.03922 10.6916C8.97389 10.4769 8.94122 10.2343 8.94122 9.96358C8.94122 9.52492 9.02055 9.13292 9.17922 8.78758C9.34722 8.43292 9.57122 8.13425 9.85122 7.89158C10.1312 7.63958 10.4532 7.44825 10.8172 7.31758C11.1906 7.18692 11.5872 7.12158 12.0072 7.12158C12.4272 7.12158 12.8192 7.18692 13.1832 7.31758C13.5566 7.44825 13.8786 7.63958 14.1492 7.89158C14.4292 8.13425 14.6486 8.43292 14.8072 8.78758C14.9752 9.13292 15.0592 9.52492 15.0592 9.96358C15.0592 10.2343 15.0219 10.4769 14.9472 10.6916C14.8819 10.9063 14.7932 11.0976 14.6812 11.2656C14.5786 11.4336 14.4572 11.5829 14.3172 11.7136C14.1866 11.8443 14.0606 11.9516 13.9392 12.0356C14.0792 12.1289 14.2192 12.2409 14.3592 12.3716C14.5086 12.5023 14.6439 12.6609 14.7652 12.8476C14.8959 13.0249 14.9986 13.2303 15.0732 13.4636C15.1572 13.6969 15.1992 13.9676 15.1992 14.2756ZM13.2392 10.0196C13.2392 9.66492 13.1226 9.36625 12.8892 9.12358C12.6559 8.88092 12.3619 8.75958 12.0072 8.75958C11.6526 8.75958 11.3539 8.88092 11.1112 9.12358C10.8779 9.36625 10.7612 9.66492 10.7612 10.0196C10.7612 10.3836 10.8779 10.6869 11.1112 10.9296C11.3539 11.1629 11.6526 11.2796 12.0072 11.2796C12.3619 11.2796 12.6559 11.1629 12.8892 10.9296C13.1226 10.6869 13.2392 10.3836 13.2392 10.0196ZM13.3792 14.2476C13.3792 13.8556 13.2486 13.5289 12.9872 13.2676C12.7259 12.9969 12.3992 12.8616 12.0072 12.8616C11.6152 12.8616 11.2886 12.9969 11.0272 13.2676C10.7659 13.5289 10.6352 13.8556 10.6352 14.2476C10.6352 14.6396 10.7659 14.9663 11.0272 15.2276C11.2886 15.4889 11.6152 15.6196 12.0072 15.6196C12.3992 15.6196 12.7259 15.4889 12.9872 15.2276C13.2486 14.9663 13.3792 14.6396 13.3792 14.2476Z" fill="#868D99"/>
</g>
</svg>
