<svg width="24" height="25" viewBox="0 0 24 25" fill="none" xmlns="http://www.w3.org/2000/svg">
<g id="Frame 4">
<path id="10" d="M10.3503 15.6426H9.05031V9.92258L7.60031 11.1826V9.78258L9.05031 8.52258H10.3503V15.6426ZM16.88 13.5826C16.88 13.9226 16.82 14.2259 16.7 14.4926C16.5867 14.7526 16.43 14.9726 16.23 15.1526C16.0367 15.3326 15.8067 15.4692 15.54 15.5626C15.28 15.6559 15.0067 15.7026 14.72 15.7026C14.4267 15.7026 14.15 15.6559 13.89 15.5626C13.63 15.4692 13.4 15.3326 13.2 15.1526C13 14.9726 12.84 14.7526 12.72 14.4926C12.6067 14.2259 12.55 13.9226 12.55 13.5826V10.5826C12.55 10.2426 12.6067 9.94258 12.72 9.68258C12.84 9.41591 13 9.19258 13.2 9.01258C13.4 8.83258 13.63 8.69591 13.89 8.60258C14.15 8.50924 14.4267 8.46258 14.72 8.46258C15.0067 8.46258 15.28 8.50924 15.54 8.60258C15.8067 8.69591 16.0367 8.83258 16.23 9.01258C16.43 9.19258 16.5867 9.41591 16.7 9.68258C16.82 9.94258 16.88 10.2426 16.88 10.5826V13.5826ZM15.58 13.5726V10.6026C15.58 10.3026 15.5 10.0659 15.34 9.89258C15.18 9.71924 14.9733 9.63258 14.72 9.63258C14.4667 9.63258 14.2567 9.71924 14.09 9.89258C13.93 10.0659 13.85 10.3026 13.85 10.6026V13.5726C13.85 13.8726 13.93 14.1092 14.09 14.2826C14.2567 14.4492 14.4667 14.5326 14.72 14.5326C14.9733 14.5326 15.18 14.4492 15.34 14.2826C15.5 14.1092 15.58 13.8726 15.58 13.5726Z" fill="#868D99"/>
</g>
</svg>
