<svg width="24" height="25" viewBox="0 0 24 25" fill="none" xmlns="http://www.w3.org/2000/svg">
<g id="Frame 5">
<path id="5" d="M14.2252 13.1295C14.2252 13.5295 14.1852 13.8795 14.1052 14.1795C14.0252 14.4729 13.8552 14.7495 13.5952 15.0095C13.4352 15.1695 13.2252 15.3062 12.9652 15.4195C12.7118 15.5329 12.3985 15.5895 12.0252 15.5895C11.6518 15.5895 11.3318 15.5329 11.0652 15.4195C10.7985 15.3062 10.5885 15.1729 10.4352 15.0195C10.2152 14.7995 10.0685 14.5629 9.99516 14.3095C9.92182 14.0562 9.87516 13.7995 9.85516 13.5395H11.1552C11.1885 13.8195 11.2718 14.0362 11.4052 14.1895C11.5452 14.3429 11.7518 14.4195 12.0252 14.4195C12.2852 14.4195 12.4918 14.3429 12.6452 14.1895C12.7585 14.0762 12.8318 13.9295 12.8652 13.7495C12.9052 13.5629 12.9252 13.3562 12.9252 13.1295C12.9252 12.7162 12.8585 12.3995 12.7252 12.1795C12.5985 11.9595 12.3752 11.8495 12.0552 11.8495C11.7885 11.8495 11.5885 11.9129 11.4552 12.0395C11.3285 12.1595 11.2418 12.2895 11.1952 12.4295H10.0052V8.40954H14.0652V9.57954H11.1852V11.1095C11.2785 11.0162 11.4185 10.9329 11.6052 10.8595C11.7985 10.7862 12.0152 10.7495 12.2552 10.7495C12.5552 10.7495 12.8152 10.7929 13.0352 10.8795C13.2552 10.9662 13.4385 11.0829 13.5852 11.2295C13.8652 11.5095 14.0418 11.8129 14.1152 12.1395C14.1885 12.4595 14.2252 12.7895 14.2252 13.1295Z" fill="#868D99"/>
</g>
</svg>
