<svg width="24" height="25" viewBox="0 0 24 25" fill="none" xmlns="http://www.w3.org/2000/svg">
<g id="Frame 3">
<path id="9" d="M14.2352 10.6626C14.2352 10.9892 14.1752 11.3059 14.0552 11.6126C13.9418 11.9192 13.8052 12.2359 13.6452 12.5626L12.1352 15.6426H10.7252L12.2052 12.7026C12.1185 12.7359 12.0285 12.7592 11.9352 12.7726C11.8485 12.7859 11.7618 12.7926 11.6752 12.7926C11.4352 12.7926 11.2018 12.7459 10.9752 12.6526C10.7485 12.5526 10.5485 12.4126 10.3752 12.2326C10.2018 12.0526 10.0618 11.8326 9.95516 11.5726C9.84849 11.3126 9.79516 11.0159 9.79516 10.6826C9.79516 10.3359 9.85182 10.0259 9.96516 9.75258C10.0785 9.47258 10.2352 9.23924 10.4352 9.05258C10.6352 8.85924 10.8685 8.71258 11.1352 8.61258C11.4085 8.51258 11.7018 8.46258 12.0152 8.46258C12.3285 8.46258 12.6185 8.51258 12.8852 8.61258C13.1585 8.70591 13.3952 8.84591 13.5952 9.03258C13.7952 9.21924 13.9518 9.44924 14.0652 9.72258C14.1785 9.99591 14.2352 10.3092 14.2352 10.6626ZM12.9352 10.6726C12.9352 10.3392 12.8485 10.0826 12.6752 9.90258C12.5018 9.72258 12.2818 9.63258 12.0152 9.63258C11.7485 9.63258 11.5285 9.72258 11.3552 9.90258C11.1818 10.0826 11.0952 10.3392 11.0952 10.6726C11.0952 10.9926 11.1785 11.2459 11.3452 11.4326C11.5118 11.6192 11.7352 11.7126 12.0152 11.7126C12.2818 11.7126 12.5018 11.6226 12.6752 11.4426C12.8485 11.2626 12.9352 11.0059 12.9352 10.6726Z" fill="#868D99"/>
</g>
</svg>
