<?xml version="1.0" encoding="UTF-8"?><svg xmlns="http://www.w3.org/2000/svg" xmlns:xlink="http://www.w3.org/1999/xlink" viewBox="0 0 200 180"><path fill="#7194DA" fill-rule="nonzero" d="M168.929 24.974c36.523 31.154 41.506 81.943 11.487 118.355-29.027 35.222-82.02 46.302-125.268 26.756l-.209-.1-45.519 9.69-.066.012a7.525 7.525 0 0 1-1.863.176l-.165-.01-.122-.012a7.502 7.502 0 0 1-2.546-.617l-.121-.055-.089-.044a7.876 7.876 0 0 1-2.425-1.775l-.033-.044a7.633 7.633 0 0 1-1.61-2.811l-.044-.078a7.701 7.701 0 0 1-.33-2.557l.01-.177a7.722 7.722 0 0 1 .398-1.995l.022-.055 12.115-36.358-.165-.275C-10.666 95.187-.424 47.794 36.915 20.476l1.18-.849c38.992-27.66 94.785-25.4 130.834 5.347zM46.99 32.173c-32.455 23.03-40.878 63.223-20.24 94.785l.639.96a7.684 7.684 0 0 1 .959 6.614l-.033.121-9.073 27.23 35.024-7.452a7.772 7.772 0 0 1 4.84.54l.12.055c37.438 18.179 84.302 8.896 109.327-21.475 24.639-29.887 20.593-71.128-9.602-96.88-30.67-26.16-78.69-28.1-111.961-4.498zm53.015 46.367c6.295 0 11.41 5.016 11.509 11.245v.342c0 6.317-5.148 11.432-11.51 11.432-6.294 0-11.41-5.016-11.508-11.245v-.342c0-6.316 5.159-11.432 11.509-11.432zm-42.928 0c6.294 0 11.41 5.016 11.509 11.245v.342c0 6.317-5.148 11.432-11.51 11.432-6.294 0-11.41-5.016-11.508-11.245v-.342c0-6.316 5.159-11.432 11.509-11.432zm85.613 0c6.295 0 11.41 5.016 11.51 11.245v.342c0 6.317-5.149 11.432-11.51 11.432-6.295 0-11.41-5.016-11.509-11.245v-.342c0-6.316 5.16-11.432 11.51-11.432z" class="st0"></path></svg>