<?xml version="1.0" standalone="no"?><!DOCTYPE svg PUBLIC "-//W3C//DTD SVG 1.1//EN" "http://www.w3.org/Graphics/SVG/1.1/DTD/svg11.dtd"><svg t="1667455496570" class="icon" viewBox="0 0 1024 1024" version="1.1" xmlns="http://www.w3.org/2000/svg" p-id="21257" width="16" height="16" xmlns:xlink="http://www.w3.org/1999/xlink"><path d="M128 170.666667h85.333333v256h170.666667V170.666667h85.333333v597.333333H384v-256H213.333333v256H128V170.666667m512 0h170.666667a85.333333 85.333333 0 0 1 85.333333 85.333333v426.666667a85.333333 85.333333 0 0 1-85.333333 85.333333h-170.666667a85.333333 85.333333 0 0 1-85.333333-85.333333v-42.666667h85.333333v42.666667h170.666667v-170.666667h-170.666667v-85.333333h170.666667V256h-170.666667v42.666667h-85.333333V256a85.333333 85.333333 0 0 1 85.333333-85.333333z" fill="" p-id="21258"></path></svg>