<?xml version="1.0" encoding="UTF-8"?>
<svg width="29px" height="29px" viewBox="0 0 29 29" version="1.1" xmlns="http://www.w3.org/2000/svg" xmlns:xlink="http://www.w3.org/1999/xlink">
    <!-- Generator: Sketch 63 (92445) - https://sketch.com -->
    <title>编组 26</title>
    <desc>Created with Sketch.</desc>
    <g id="页面-1" stroke="none" stroke-width="1" fill="none" fill-rule="evenodd">
        <g id="新建报告-默认看板-展开" transform="translate(-82.000000, -215.000000)">
            <g id="图表" transform="translate(57.000000, 80.000000)">
                <g id="编组-26" transform="translate(25.000000, 135.000000)">
                    <g id="水球图" transform="translate(1.880000, 8.460000)" fill-rule="nonzero">
                        <path d="M4.39264682,7.34712812 L22.7995876,7.34712812 L22.7995876,3.96939478 L19.8426493,3.96939478 C19.1034147,4.19969478 18.3641802,4.27646143 17.5510222,4.27646147 C15.3333185,4.27646147 13.4113086,3.50879482 12.3024567,2.35729478 C12.3024567,2.28052812 12.2285333,2.28052812 12.1546098,2.20376147 C12.0806863,2.12699482 12.0067629,1.97346147 11.858916,1.81992812 C10.9718345,0.82196147 9.49336534,0.13106147 7.79312586,0.13106147 C5.87111597,0.13106147 4.17087649,1.05226147 3.35771845,2.28052812 L3.35771845,5.73502812 C3.50556538,6.04209478 3.72733575,6.27239478 4.02302956,6.57946147 C4.17087649,6.88652812 4.31872338,7.11682812 4.39264682,7.34712812 L4.39264682,7.34712812 Z" id="路径" fill="#255F93"></path>
                        <path d="M21.6168123,2.74112812 C20.8775777,2.97142812 20.28619,3.43202812 19.9165728,3.96939478 C19.7687258,4.04616143 19.6948024,4.12292812 19.5469555,4.19969478 C18.3641802,5.19766143 16.5900172,5.88856143 14.6680073,5.88856147 C12.3024567,5.88856147 10.3065234,4.96736147 9.12374808,3.58556147 C9.12374808,3.50879482 9.04982464,3.43202812 8.97590116,3.43202812 C8.90197771,3.27849478 8.75413079,3.12496147 8.68020734,3.04819478 C7.71920242,1.81992812 6.16680982,1.05226143 4.39264682,1.05226147 C2.98810116,1.05226147 1.64490118,0.877457015 0.844320899,2.28052812 C0.474703603,3.35526147 0.252933268,4.66029478 0.252933268,5.96532812 C0.252933268,7.73096147 0.622550563,9.41982812 1.28786164,10.8783948 C2.76633079,13.9490614 5.20580486,16.3288281 8.16274312,17.4803281 C8.23666657,17.4803281 8.31059005,17.5570948 8.38451349,17.5570948 C8.53236042,17.6338614 8.60628386,17.6338614 8.75413079,17.7106281 C9.78905919,18.0176948 10.9718345,18.2479948 12.0806863,18.2479948 C13.2634616,18.2479948 14.446237,18.0944614 15.5550888,17.7106281 C15.6290123,17.7106281 15.7029357,17.6338615 15.7768592,17.6338615 C15.9247061,17.5570948 16.1464765,17.4803281 16.2943234,17.4035615 C18.9555678,16.2520615 21.1732715,14.1025948 22.6517407,11.3389948 C23.3909752,9.72689478 23.834516,7.88449478 23.834516,5.96532812 C23.834516,4.81382812 23.686669,3.73909478 23.3909752,2.66436147 C22.9474345,2.51082812 22.2821234,2.51082812 21.6168123,2.74112812 L21.6168123,2.74112812 Z" id="路径" fill="#3BA0FD"></path>
                    </g>
                    <circle id="椭圆形" stroke="#285DB7" stroke-width="0.564" cx="14.1" cy="14.1" r="13.818"></circle>
                </g>
            </g>
        </g>
    </g>
</svg>