<?xml version="1.0" encoding="UTF-8"?>
<svg width="29px" height="29px" viewBox="0 0 29 29" version="1.1" xmlns="http://www.w3.org/2000/svg" xmlns:xlink="http://www.w3.org/1999/xlink">
    <!-- Generator: Sketch 63 (92445) - https://sketch.com -->
    <title>面积雷达图</title>
    <desc>Created with Sketch.</desc>
    <g id="页面-1" stroke="none" stroke-width="1" fill="none" fill-rule="evenodd">
        <g id="新建报告-默认看板-展开" transform="translate(-146.000000, -263.000000)" fill-rule="nonzero">
            <g id="图表" transform="translate(57.000000, 80.000000)">
                <g id="面积雷达图" transform="translate(90.000000, 184.000000)">
                    <path d="M22.2186997,27.4380815 L5.24551335,27.4380815 L0.00921405,10.4926882 L0.15784725,10.3790986 L13.7321065,0.00921405 L27.4549991,10.492084 L22.2186997,27.4380815 Z M5.64126435,26.9015519 L21.8229488,26.9015519 L26.8320689,10.6914701 L13.7321066,0.68440755 L0.63184215,10.6917722 L5.64126435,26.9015519 Z" id="形状" stroke="#3BA0FD" stroke-width="0.4" fill="#3BA0FD"></path>
                    <path d="M19.9807429,23.8168087 L7.48316805,23.8168087 L3.63018465,11.3473292 L13.7321066,3.63018465 L23.8340285,11.3473292 L19.9807429,23.8168087 Z M7.87801275,23.2805813 L19.5849919,23.2805813 L23.2101919,11.5467152 L13.7312002,4.30537815 L4.25281275,11.5467152 L7.87801275,23.2805813 Z" id="形状" fill="#255F93"></path>
                    <path d="M17.6600107,20.0620079 L9.80541075,20.0620079 L7.38679815,12.2342948 L13.7333149,7.38589185 L20.0798317,12.2342948 L17.6600107,20.0620079 Z M10.1996512,19.5254782 L17.2645618,19.5254782 L19.4559953,12.434285 L13.7321066,8.06078325 L8.00821785,12.4342849 L10.1996512,19.5254782 Z" id="形状" fill="#255F93"></path>
                    <path d="M15.6921313,16.8775718 L11.7720817,16.8775718 L10.5697237,12.9859196 L13.7321066,10.5691195 L16.8944894,12.9859196 L15.6921313,16.8775718 Z M12.1678327,16.3413442 L15.2963803,16.3413442 L16.2715591,13.1850034 L13.7318044,11.2452193 L11.1923518,13.1850034 L12.1678327,16.3413442 Z" id="形状" fill="#255F93"></path>
                    <polygon id="路径" fill="#285DB7" points="13.5979742 13.8650306 13.5979742 0.38804745 14.1345038 0.38804745 14.1345038 13.1970874 27.2202674 10.3183765 27.3356695 10.842218"></polygon>
                    <polygon id="路径" fill="#285DB7" points="5.78023035 27.3501704 5.32194465 27.0713321 13.8713746 13.008275 22.1458936 27.0746552 21.6833785 27.3465452 13.8641242 14.0541452"></polygon>
                    <polygon id="路径" fill="#285DB7" points="0.39711045 10.84252 0.51251265 10.3183765 13.92394 13.2689872 13.8085378 13.7928286"></polygon>
                    <polygon id="路径" fill-opacity="0.508140297" fill="#3BA0FD" points="13.8653327 5.48447445 21.107576 11.9219234 18.811616 21.9380489 10.6476656 19.1641667 2.86889265 11.1174311"></polygon>
                    <path d="M18.811616,22.2063137 C18.7822378,22.2062797 18.7530593,22.2014846 18.7252153,22.192115 L10.5612649,19.4182328 C10.5207825,19.4046024 10.4841959,19.381386 10.4546237,19.3505624 L2.67615285,11.3038268 C2.61717093,11.2427188 2.59060939,11.1572904 2.60454278,11.0735114 C2.61847617,10.9897325 2.6712585,10.9174999 2.74684425,10.8787721 L13.7432843,5.24581545 C13.8416932,5.19533444 13.9610164,5.21057995 14.0435716,5.28418215 L21.2858149,11.7216311 C21.3591369,11.7866562 21.3911124,11.8865217 21.3691945,11.9820413 L19.0732345,21.9981668 C19.0453539,22.1200594 18.9369586,22.2066158 18.811918,22.2066158 L18.811616,22.2063137 Z M10.7953925,18.9315496 L18.6164594,21.5900296 L20.811518,12.0182932 L13.8251534,5.80681515 L3.31207335,11.1911435 L10.7953925,18.9315496 Z" id="形状" fill="#3BA0FD"></path>
                    <polygon id="路径" fill-opacity="0.3" fill="#FF9E43" points="13.866239 7.89825345 16.5485849 12.9946804 15.7437905 16.4818208 11.4521579 17.55488 6.62399565 11.9216212"></polygon>
                    <path d="M11.4521578,17.8231448 C11.373824,17.8231448 11.2994418,17.7887354 11.2485424,17.7291917 L6.42038025,12.0962351 C6.3679735,12.0351189 6.34582288,11.9536784 6.36005461,11.8744376 C6.37428633,11.7951968 6.42339204,11.726554 6.49379055,11.6874938 L13.7360338,7.66412595 C13.7991115,7.62923544 13.8735671,7.62116642 13.9426549,7.64173368 C14.0117427,7.66230094 14.0696624,7.70977774 14.1033874,7.77348615 L16.7857333,12.8699132 C16.8154743,12.9269384 16.8240374,12.9926604 16.8099014,13.0554026 L16.005409,16.5422408 C15.9825372,16.6404446 15.9065857,16.7175627 15.8087419,16.7419289 L11.5171093,17.8149881 C11.4958753,17.8203602 11.4740609,17.8231448 11.4521578,17.8231448 Z M7.04149785,11.9968442 L11.5476214,17.2533842 L15.519028,16.2606836 L16.2646109,13.0315367 L13.7571809,8.26621125 L7.04149785,11.9968442 Z" id="形状" fill="#FF9E43"></path>
                </g>
            </g>
        </g>
    </g>
</svg>