<svg width="24" height="24" viewBox="0 0 24 24" fill="none" xmlns="http://www.w3.org/2000/svg">
<g id="&#230;&#142;&#146;&#232;&#161;&#140;">
<g id="Vector">
<path d="M17.2541 3.40907L22.2416 9.09344C22.4386 9.31813 22.5448 9.60817 22.5395 9.90695C22.5342 10.2057 22.4177 10.4918 22.2128 10.7093L12.8744 20.6226C12.7621 20.7418 12.6266 20.8367 12.4762 20.9016C12.3259 20.9665 12.1638 21 12.0001 21C11.8363 21 11.6743 20.9665 11.5239 20.9016C11.3736 20.8367 11.2381 20.7418 11.1258 20.6226L1.78737 10.7099C1.58246 10.4924 1.46597 10.2063 1.46064 9.90755C1.45531 9.60877 1.56152 9.31873 1.75854 9.09405L6.7461 3.40907C6.8589 3.28051 6.99784 3.17751 7.15364 3.10696C7.30945 3.03642 7.47852 2.99995 7.64955 3H16.3506C16.5215 3.00004 16.6905 3.03654 16.8462 3.10709C17.0019 3.17763 17.1407 3.28058 17.2534 3.40907H17.2541Z" fill="url(#paint0_linear_311_631)"/>
<path d="M7.64955 3.5H7.6494C7.54955 3.49997 7.45084 3.52126 7.35988 3.56245C7.26892 3.60363 7.18781 3.66376 7.12196 3.73882L7.64955 3.5ZM7.64955 3.5H16.3505C16.3505 3.5 16.3506 3.5 16.3506 3.5C16.4504 3.50003 16.549 3.52135 16.6398 3.56252C16.7307 3.6037 16.8118 3.66381 16.8776 3.73882L17.027 3.90907H17.0276L21.8657 9.42309C21.8657 9.42313 21.8657 9.42317 21.8658 9.42321C21.9807 9.55437 22.0427 9.72365 22.0396 9.89803C22.0365 10.0725 21.9685 10.2395 21.8488 10.3665L22.2128 10.7093L21.8488 10.3665L12.5105 20.2797C12.4449 20.3492 12.3658 20.4047 12.2781 20.4426C12.1903 20.4805 12.0957 20.5 12.0001 20.5C11.9045 20.5 11.8099 20.4805 11.7221 20.4426C11.6343 20.4047 11.5553 20.3493 11.4897 20.2797C11.4897 20.2797 11.4897 20.2797 11.4896 20.2797L2.15131 10.3671C2.03168 10.2401 1.96367 10.0731 1.96056 9.89863C1.95745 9.72424 2.01942 9.55495 2.13439 9.42379C2.13442 9.42376 2.13445 9.42373 2.13448 9.42369L7.12195 3.73882L7.64955 3.5Z" stroke="white" stroke-opacity="0.5"/>
</g>
<path id="2" d="M14.4917 14.2455H8.42967L8.60543 13.0241L12.7936 9.7983C13.0033 9.63823 13.155 9.49208 13.2487 9.35984C13.3518 9.22761 13.4158 9.0745 13.4408 8.90051C13.4809 8.62213 13.4103 8.39942 13.229 8.23239C13.0487 8.0584 12.7625 7.97141 12.3705 7.97141C12.2212 7.97141 12.0694 7.98881 11.915 8.0236C11.771 8.05144 11.6328 8.10364 11.5005 8.18019C11.3785 8.24979 11.2711 8.34722 11.1784 8.4725C11.0961 8.59081 11.0419 8.74044 11.0158 8.92139H9.19583C9.2449 8.58037 9.36313 8.27763 9.55053 8.01316C9.74825 7.74174 9.99597 7.51207 10.2937 7.32417C10.6007 7.13626 10.9432 6.99359 11.3213 6.89615C11.7086 6.79872 12.117 6.75 12.5463 6.75C12.985 6.75 13.3835 6.8022 13.7418 6.90659C14.1011 7.00403 14.3979 7.1467 14.6322 7.3346C14.8768 7.51555 15.0543 7.74174 15.1645 8.01316C15.2758 8.27763 15.3074 8.57689 15.2593 8.91095C15.2333 9.0919 15.1864 9.25545 15.1187 9.4016C15.052 9.54079 14.9625 9.6765 14.8501 9.80874C14.7471 9.94097 14.6161 10.0732 14.457 10.2054C14.3084 10.3307 14.1395 10.4664 13.9505 10.6126L10.8174 13.0241H14.6674L14.4917 14.2455Z" fill="#653D00"/>
</g>
<defs>
<linearGradient id="paint0_linear_311_631" x1="12.4583" y1="21" x2="12.4583" y2="3" gradientUnits="userSpaceOnUse">
<stop stop-color="#FF903E"/>
<stop offset="1" stop-color="#FFD338"/>
</linearGradient>
</defs>
</svg>
