<svg width="24" height="24" viewBox="0 0 24 24" fill="none" xmlns="http://www.w3.org/2000/svg">
<g id="&#230;&#142;&#146;&#232;&#161;&#140;">
<path id="Vector" opacity="0.7" d="M5.25 14.8771C5.25 14.7108 5.32112 14.5513 5.4477 14.4337C5.57429 14.3161 5.74598 14.25 5.925 14.25H18.075C18.254 14.25 18.4257 14.3161 18.5523 14.4337C18.6789 14.5513 18.75 14.7108 18.75 14.8771V20.4959C18.75 20.7096 18.6912 20.9198 18.5791 21.1065C18.4671 21.2932 18.3056 21.4502 18.1099 21.5626C17.9141 21.675 17.6908 21.7391 17.4609 21.7487C17.2311 21.7584 17.0024 21.7133 16.7966 21.6177L13.2076 19.9503C12.8326 19.7761 12.4192 19.6854 12 19.6854C11.5808 19.6854 11.1674 19.7761 10.7924 19.9503L7.20345 21.6177C6.99758 21.7133 6.76883 21.7584 6.53892 21.7487C6.30901 21.739 6.08559 21.6749 5.88986 21.5625C5.69413 21.45 5.5326 21.2929 5.42061 21.1061C5.30862 20.9193 5.24989 20.709 5.25 20.4952V14.8771Z" fill="url(#paint0_linear_311_599)"/>
<g id="Vector_2">
<path d="M20.25 10.5C20.25 15.0561 16.5561 18.75 12 18.75C7.44394 18.75 3.75 15.0561 3.75 10.5C3.75 5.94394 7.44394 2.25 12 2.25C16.5561 2.25 20.25 5.94394 20.25 10.5Z" fill="url(#paint1_linear_311_599)"/>
<path d="M19.75 10.5C19.75 14.7799 16.2799 18.25 12 18.25C7.72008 18.25 4.25 14.7799 4.25 10.5C4.25 6.22008 7.72008 2.75 12 2.75C16.2799 2.75 19.75 6.22008 19.75 10.5Z" stroke="white" stroke-opacity="0.5"/>
</g>
<path id="1" d="M13.0121 14.176L13.8753 6.75H12.5103L10.835 8.06415L10.6653 9.52432L12.3406 8.21017L11.6471 14.176H13.0121Z" fill="#530000"/>
</g>
<defs>
<linearGradient id="paint0_linear_311_599" x1="12.2935" y1="21.75" x2="12.2935" y2="14.25" gradientUnits="userSpaceOnUse">
<stop stop-color="#FF5A5A"/>
<stop offset="1" stop-color="#FF903E"/>
</linearGradient>
<linearGradient id="paint1_linear_311_599" x1="12.3587" y1="18.75" x2="12.3587" y2="2.25" gradientUnits="userSpaceOnUse">
<stop stop-color="#FF5A5A"/>
<stop offset="1" stop-color="#FF903E"/>
</linearGradient>
</defs>
</svg>
