<svg width="24" height="24" viewBox="0 0 24 24" fill="none" xmlns="http://www.w3.org/2000/svg">
<g id="&#230;&#142;&#146;&#232;&#161;&#140;">
<path id="Vector" opacity="0.7" d="M5.25 14.8771C5.25 14.7108 5.32112 14.5513 5.4477 14.4337C5.57429 14.3161 5.74598 14.25 5.925 14.25H18.075C18.254 14.25 18.4257 14.3161 18.5523 14.4337C18.6789 14.5513 18.75 14.7108 18.75 14.8771V20.4959C18.75 20.7096 18.6912 20.9198 18.5791 21.1065C18.4671 21.2932 18.3056 21.4502 18.1099 21.5626C17.9141 21.675 17.6908 21.7391 17.4609 21.7487C17.2311 21.7584 17.0024 21.7133 16.7966 21.6177L13.2076 19.9503C12.8326 19.7761 12.4192 19.6854 12 19.6854C11.5808 19.6854 11.1674 19.7761 10.7924 19.9503L7.20345 21.6177C6.99758 21.7133 6.76883 21.7584 6.53892 21.7487C6.30901 21.739 6.08559 21.6749 5.88986 21.5625C5.69413 21.45 5.5326 21.2929 5.42061 21.1061C5.30862 20.9193 5.24989 20.709 5.25 20.4952V14.8771Z" fill="url(#paint0_linear_311_600)"/>
<g id="Vector_2">
<path d="M20.25 10.5C20.25 15.0561 16.5561 18.75 12 18.75C7.44394 18.75 3.75 15.0561 3.75 10.5C3.75 5.94394 7.44394 2.25 12 2.25C16.5561 2.25 20.25 5.94394 20.25 10.5Z" fill="url(#paint1_linear_311_600)"/>
<path d="M19.75 10.5C19.75 14.7799 16.2799 18.25 12 18.25C7.72008 18.25 4.25 14.7799 4.25 10.5C4.25 6.22008 7.72008 2.75 12 2.75C16.2799 2.75 19.75 6.22008 19.75 10.5Z" stroke="white" stroke-opacity="0.5"/>
</g>
<path id="2" d="M13.8689 14.2455H9.32237L9.4542 13.0241L12.5953 9.7983C12.7526 9.63823 12.8664 9.49208 12.9367 9.35984C13.0139 9.22761 13.062 9.0745 13.0807 8.90051C13.1108 8.62213 13.0578 8.39942 12.9219 8.23239C12.7866 8.0584 12.572 7.97141 12.278 7.97141C12.166 7.97141 12.0521 7.98881 11.9364 8.0236C11.8284 8.05144 11.7248 8.10364 11.6255 8.18019C11.534 8.24979 11.4535 8.34722 11.3839 8.4725C11.3222 8.59081 11.2815 8.74044 11.262 8.92139H9.89699C9.9338 8.58037 10.0225 8.27763 10.163 8.01316C10.3113 7.74174 10.4971 7.51207 10.7204 7.32417C10.9507 7.13626 11.2076 6.99359 11.4911 6.89615C11.7816 6.79872 12.0878 6.75 12.4098 6.75C12.7388 6.75 13.0377 6.8022 13.3064 6.90659C13.5759 7.00403 13.7985 7.1467 13.9743 7.3346C14.1577 7.51555 14.2908 7.74174 14.3735 8.01316C14.457 8.27763 14.4807 8.57689 14.4446 8.91095C14.4251 9.0919 14.3899 9.25545 14.3392 9.4016C14.2891 9.54079 14.222 9.6765 14.1377 9.80874C14.0605 9.94097 13.9622 10.0732 13.8429 10.2054C13.7314 10.3307 13.6047 10.4664 13.463 10.6126L11.1132 13.0241H14.0007L13.8689 14.2455Z" fill="#653D00"/>
</g>
<defs>
<linearGradient id="paint0_linear_311_600" x1="12.2935" y1="21.75" x2="12.2935" y2="14.25" gradientUnits="userSpaceOnUse">
<stop stop-color="#FF903E"/>
<stop offset="1" stop-color="#FFD338"/>
</linearGradient>
<linearGradient id="paint1_linear_311_600" x1="12.3587" y1="18.75" x2="12.3587" y2="2.25" gradientUnits="userSpaceOnUse">
<stop stop-color="#FF903E"/>
<stop offset="1" stop-color="#FFD338"/>
</linearGradient>
</defs>
</svg>
