<svg width="192" height="24" viewBox="0 0 192 24" fill="none" xmlns="http://www.w3.org/2000/svg">
<g id="&#231;&#188;&#150;&#231;&#187;&#132; 20" clip-path="url(#clip0_311_481)">
<g id="&#230;&#142;&#146;&#232;&#161;&#140;">
<path id="Vector" d="M18.3973 14.2095C19.2036 16.1314 19.9799 18.0657 20.726 20.0117C20.5617 20.1666 20.5215 20.2564 20.4404 20.2879C20.4018 20.3024 20.359 20.3011 20.3214 20.2842L16.6602 18.6479L15.0392 21.5625C15.0048 21.6242 14.9533 21.6747 14.8909 21.7077C14.8284 21.7407 14.7577 21.7549 14.6874 21.7485C14.617 21.7422 14.55 21.7156 14.4945 21.6719C14.439 21.6283 14.3973 21.5695 14.3745 21.5027L12.9091 17.1884C15.2613 17.336 17.0897 16.3432 18.3973 14.2095ZM5.55973 14.1627C6.83077 16.3352 8.65771 17.3433 11.0406 17.1884L9.5752 21.5027C9.5524 21.5695 9.51071 21.6283 9.45517 21.6719C9.39963 21.7156 9.33263 21.7422 9.26229 21.7485C9.19194 21.7549 9.12126 21.7407 9.05882 21.7077C8.99637 21.6747 8.94484 21.6242 8.91046 21.5625L7.28878 18.6479L3.63417 20.282C3.59441 20.2997 3.54925 20.3011 3.50853 20.2857C3.42306 20.2535 3.37996 20.1586 3.2251 20.0022C3.86354 18.3097 4.64151 16.363 5.55973 14.1627ZM11.8324 2.25C15.5995 2.25 18.6544 5.34945 18.6544 9.17207C18.6544 12.9954 15.5995 16.0941 11.8317 16.0941C8.06456 16.0941 5.0104 12.9954 5.0104 9.17207C5.0104 5.34945 8.06456 2.25 11.8324 2.25Z" fill="url(#paint0_linear_311_481)"/>
<path id="1" d="M13.2 12.726V5.25H11.835L10.3125 6.573V8.043L11.835 6.72V12.726H13.2Z" fill="#530000"/>
</g>
<g id="&#230;&#142;&#146;&#232;&#161;&#140;_2">
<path id="Vector_2" d="M46.3968 14.2095C47.2031 16.1314 47.9794 18.0657 48.7256 20.0117C48.5612 20.1666 48.521 20.2564 48.4399 20.2879C48.4013 20.3024 48.3585 20.3011 48.3209 20.2842L44.6597 18.6479L43.0387 21.5625C43.0044 21.6242 42.9528 21.6747 42.8904 21.7077C42.8279 21.7407 42.7573 21.7549 42.6869 21.7485C42.6166 21.7422 42.5496 21.7156 42.494 21.6719C42.4385 21.6283 42.3968 21.5695 42.374 21.5027L40.9086 17.1884C43.2608 17.336 45.0892 16.3432 46.3968 14.2095ZM33.5592 14.1627C34.8303 16.3352 36.6572 17.3433 39.0401 17.1884L37.5747 21.5027C37.5519 21.5695 37.5102 21.6283 37.4547 21.6719C37.3991 21.7156 37.3321 21.7422 37.2618 21.7485C37.1915 21.7549 37.1208 21.7407 37.0583 21.7077C36.9959 21.6747 36.9444 21.6242 36.91 21.5625L35.2883 18.6479L31.6337 20.282C31.5939 20.2997 31.5488 20.3011 31.508 20.2857C31.4226 20.2535 31.3795 20.1586 31.2246 20.0022C31.8631 18.3097 32.641 16.363 33.5592 14.1627ZM39.8319 2.25C43.599 2.25 46.6539 5.34945 46.6539 9.17207C46.6539 12.9954 43.599 16.0941 39.8312 16.0941C36.0641 16.0941 33.0099 12.9954 33.0099 9.17207C33.0099 5.34945 36.0641 2.25 39.8319 2.25Z" fill="url(#paint1_linear_311_481)"/>
<path id="2" d="M42.3155 12.789H37.769V11.5605L40.562 8.316C40.702 8.155 40.8 8.008 40.856 7.875C40.919 7.742 40.9505 7.588 40.9505 7.413C40.9505 7.133 40.8735 6.909 40.7195 6.741C40.5655 6.566 40.3415 6.4785 40.0475 6.4785C39.9355 6.4785 39.8235 6.496 39.7115 6.531C39.6065 6.559 39.5085 6.6115 39.4175 6.6885C39.3335 6.7585 39.2635 6.8565 39.2075 6.9825C39.1585 7.1015 39.134 7.252 39.134 7.434H37.769C37.769 7.091 37.825 6.7865 37.937 6.5205C38.056 6.2475 38.217 6.0165 38.42 5.8275C38.63 5.6385 38.8715 5.495 39.1445 5.397C39.4245 5.299 39.7255 5.25 40.0475 5.25C40.3765 5.25 40.681 5.3025 40.961 5.4075C41.241 5.5055 41.479 5.649 41.675 5.838C41.878 6.02 42.0355 6.2475 42.1475 6.5205C42.2595 6.7865 42.3155 7.0875 42.3155 7.4235C42.3155 7.6055 42.298 7.77 42.263 7.917C42.228 8.057 42.1755 8.1935 42.1055 8.3265C42.0425 8.4595 41.9585 8.5925 41.8535 8.7255C41.7555 8.8515 41.6435 8.988 41.5175 9.135L39.428 11.5605H42.3155V12.789Z" fill="#653D00"/>
</g>
<g id="&#230;&#142;&#146;&#232;&#161;&#140;_3">
<path id="Vector_3" d="M74.3968 14.2095C75.2031 16.1314 75.9794 18.0657 76.7256 20.0117C76.5612 20.1666 76.521 20.2564 76.4399 20.2879C76.4013 20.3024 76.3585 20.3011 76.3209 20.2842L72.6597 18.6479L71.0387 21.5625C71.0044 21.6242 70.9528 21.6747 70.8904 21.7077C70.8279 21.7407 70.7573 21.7549 70.6869 21.7485C70.6166 21.7422 70.5496 21.7156 70.494 21.6719C70.4385 21.6283 70.3968 21.5695 70.374 21.5027L68.9086 17.1884C71.2608 17.336 73.0892 16.3432 74.3968 14.2095ZM61.5592 14.1627C62.8303 16.3352 64.6572 17.3433 67.0401 17.1884L65.5747 21.5027C65.5519 21.5695 65.5102 21.6283 65.4547 21.6719C65.3991 21.7156 65.3321 21.7422 65.2618 21.7485C65.1915 21.7549 65.1208 21.7407 65.0583 21.7077C64.9959 21.6747 64.9444 21.6242 64.91 21.5625L63.2883 18.6479L59.6337 20.282C59.5939 20.2997 59.5488 20.3011 59.508 20.2857C59.4226 20.2535 59.3795 20.1586 59.2246 20.0022C59.8631 18.3097 60.641 16.363 61.5592 14.1627ZM67.8319 2.25C71.599 2.25 74.6539 5.34945 74.6539 9.17207C74.6539 12.9954 71.599 16.0941 67.8312 16.0941C64.0641 16.0941 61.0099 12.9954 61.0099 9.17207C61.0099 5.34945 64.0641 2.25 67.8319 2.25Z" fill="url(#paint2_linear_311_481)"/>
<path id="3" d="M70.3468 10.5869C70.3468 10.9579 70.2838 11.2834 70.1578 11.5634C70.0318 11.8434 69.8603 12.0779 69.6433 12.2669C69.4263 12.4489 69.1743 12.5854 68.8873 12.6764C68.6003 12.7674 68.2958 12.8129 67.9738 12.8129C67.6658 12.8129 67.3683 12.7709 67.0813 12.6869C66.8013 12.6029 66.5493 12.4734 66.3253 12.2984C66.1083 12.1164 65.9333 11.8889 65.8003 11.6159C65.6673 11.3359 65.5973 10.9999 65.5903 10.6079H66.9553C66.9623 10.7759 66.9938 10.9229 67.0498 11.0489C67.1058 11.1679 67.1793 11.2694 67.2703 11.3534C67.3613 11.4304 67.4663 11.4899 67.5853 11.5319C67.7113 11.5669 67.8408 11.5844 67.9738 11.5844C68.2678 11.5844 68.5093 11.4969 68.6983 11.3219C68.8873 11.1399 68.9818 10.8809 68.9818 10.5449C68.9818 10.2299 68.8908 9.98144 68.7088 9.79944C68.5268 9.61044 68.2678 9.51594 67.9318 9.51594H67.7323V8.32944H67.9318C68.2678 8.32944 68.5093 8.24194 68.6563 8.06694C68.8033 7.88494 68.8768 7.66094 68.8768 7.39494C68.8768 7.07994 68.7858 6.84194 68.6038 6.68094C68.4218 6.51994 68.2083 6.43944 67.9633 6.43944C67.7043 6.43944 67.4873 6.51994 67.3123 6.68094C67.1443 6.83494 67.0533 7.05544 67.0393 7.34244H65.6743C65.6813 7.00644 65.7443 6.70894 65.8633 6.44994C65.9893 6.18394 66.1538 5.95994 66.3568 5.77794C66.5598 5.59594 66.7978 5.45594 67.0708 5.35794C67.3508 5.25994 67.6483 5.21094 67.9633 5.21094C68.2923 5.21094 68.5968 5.26344 68.8768 5.36844C69.1568 5.47344 69.3983 5.62044 69.6013 5.80944C69.8043 5.99844 69.9618 6.22594 70.0738 6.49194C70.1858 6.75094 70.2418 7.03794 70.2418 7.35294C70.2418 7.75894 70.1578 8.08444 69.9898 8.32944C69.8288 8.56744 69.6258 8.75294 69.3808 8.88594C69.6468 9.02594 69.8743 9.23244 70.0633 9.50544C70.2523 9.77144 70.3468 10.1319 70.3468 10.5869Z" fill="#3D2706"/>
</g>
<g id="Frame 1">
<path id="4" d="M99.3672 15.586H98.4572V17H96.7072V15.586H92.6332V13.864L96.0492 7.032H98.0372L94.6212 13.864H96.7072V12.002H98.4572V13.864H99.3672V15.586Z" fill="#868D99"/>
</g>
<g id="Frame 2">
<path id="..." d="M121.05 13H118.964V10.928H121.05V13ZM125.042 13H122.956V10.928H125.042V13ZM129.034 13H126.948V10.928H129.034V13Z" fill="#868D99"/>
</g>
<g id="Frame 3">
<path id="9" d="M155.129 10.028C155.129 10.4853 155.045 10.9287 154.877 11.358C154.719 11.7873 154.527 12.2307 154.303 12.688L152.189 17H150.215L152.287 12.884C152.166 12.9307 152.04 12.9633 151.909 12.982C151.788 13.0007 151.667 13.01 151.545 13.01C151.209 13.01 150.883 12.9447 150.565 12.814C150.248 12.674 149.968 12.478 149.725 12.226C149.483 11.974 149.287 11.666 149.137 11.302C148.988 10.938 148.913 10.5227 148.913 10.056C148.913 9.57067 148.993 9.13667 149.151 8.754C149.31 8.362 149.529 8.03533 149.809 7.774C150.089 7.50333 150.416 7.298 150.789 7.158C151.172 7.018 151.583 6.948 152.021 6.948C152.46 6.948 152.866 7.018 153.239 7.158C153.622 7.28867 153.953 7.48467 154.233 7.746C154.513 8.00733 154.733 8.32933 154.891 8.712C155.05 9.09467 155.129 9.53333 155.129 10.028ZM153.309 10.042C153.309 9.57533 153.188 9.216 152.945 8.964C152.703 8.712 152.395 8.586 152.021 8.586C151.648 8.586 151.34 8.712 151.097 8.964C150.855 9.216 150.733 9.57533 150.733 10.042C150.733 10.49 150.85 10.8447 151.083 11.106C151.317 11.3673 151.629 11.498 152.021 11.498C152.395 11.498 152.703 11.372 152.945 11.12C153.188 10.868 153.309 10.5087 153.309 10.042Z" fill="#868D99"/>
</g>
<g id="Frame 4">
<path id="10" d="M177.69 16.9478H175.87V8.93975L173.84 10.7038V8.74375L175.87 6.97975H177.69V16.9478ZM186.832 14.0638C186.832 14.5398 186.748 14.9644 186.58 15.3378C186.421 15.7018 186.202 16.0098 185.922 16.2618C185.651 16.5138 185.329 16.7051 184.956 16.8358C184.592 16.9664 184.209 17.0318 183.808 17.0318C183.397 17.0318 183.01 16.9664 182.646 16.8358C182.282 16.7051 181.96 16.5138 181.68 16.2618C181.4 16.0098 181.176 15.7018 181.008 15.3378C180.849 14.9644 180.77 14.5398 180.77 14.0638V9.86375C180.77 9.38775 180.849 8.96775 181.008 8.60375C181.176 8.23042 181.4 7.91775 181.68 7.66575C181.96 7.41375 182.282 7.22242 182.646 7.09175C183.01 6.96109 183.397 6.89575 183.808 6.89575C184.209 6.89575 184.592 6.96109 184.956 7.09175C185.329 7.22242 185.651 7.41375 185.922 7.66575C186.202 7.91775 186.421 8.23042 186.58 8.60375C186.748 8.96775 186.832 9.38775 186.832 9.86375V14.0638ZM185.012 14.0498V9.89175C185.012 9.47175 184.9 9.14042 184.676 8.89775C184.452 8.65509 184.163 8.53375 183.808 8.53375C183.453 8.53375 183.159 8.65509 182.926 8.89775C182.702 9.14042 182.59 9.47175 182.59 9.89175V14.0498C182.59 14.4698 182.702 14.8011 182.926 15.0438C183.159 15.2771 183.453 15.3938 183.808 15.3938C184.163 15.3938 184.452 15.2771 184.676 15.0438C184.9 14.8011 185.012 14.4698 185.012 14.0498Z" fill="#868D99"/>
</g>
</g>
<defs>
<linearGradient id="paint0_linear_311_481" x1="12.356" y1="21.75" x2="12.356" y2="2.25" gradientUnits="userSpaceOnUse">
<stop stop-color="#FF5A5A"/>
<stop offset="1" stop-color="#FF903E"/>
</linearGradient>
<linearGradient id="paint1_linear_311_481" x1="40.3555" y1="21.75" x2="40.3555" y2="2.25" gradientUnits="userSpaceOnUse">
<stop stop-color="#FF903E"/>
<stop offset="1" stop-color="#FFD338"/>
</linearGradient>
<linearGradient id="paint2_linear_311_481" x1="67.9751" y1="2.25" x2="67.9751" y2="21.75" gradientUnits="userSpaceOnUse">
<stop stop-color="#E3B063"/>
<stop offset="1" stop-color="#725325"/>
</linearGradient>
<clipPath id="clip0_311_481">
<rect width="192" height="24" fill="white"/>
</clipPath>
</defs>
</svg>
