<svg width="24" height="24" viewBox="0 0 24 24" fill="none" xmlns="http://www.w3.org/2000/svg">
<g id="icon_paiming">
<path id="Vector" d="M8.50488 20.9978C10.349 20.9978 12.5265 20.9989 14.9142 20.9989C24.8548 15.8107 17.387 8.04706 16.0867 7.17264C16.5198 8.04708 16.6027 9.52715 15.7262 10.2464C14.2439 5.06249 10.5803 4 10.5803 4C11.0133 6.67324 9.00934 9.59723 7.07676 11.7817C7.00881 10.716 6.93624 9.97975 6.32929 8.95975C6.19338 10.8967 4.58903 12.4756 4.15366 14.4157C3.56512 17.0432 4.59478 18.9674 8.50372 21L8.50488 20.9978Z" fill="url(#paint0_linear_311_684)"/>
<path id="3" d="M13.8689 19.9054H9.32237L9.4542 18.684L12.5953 15.4582C12.7526 15.2981 12.8664 15.152 12.9367 15.0198C13.0139 14.8875 13.062 14.7344 13.0807 14.5604C13.1108 14.282 13.0578 14.0593 12.9219 13.8923C12.7866 13.7183 12.572 13.6313 12.278 13.6313C12.166 13.6313 12.0521 13.6487 11.9364 13.6835C11.8284 13.7114 11.7248 13.7636 11.6255 13.8401C11.534 13.9097 11.4535 14.0071 11.3839 14.1324C11.3222 14.2507 11.2815 14.4004 11.262 14.5813H9.89699C9.9338 14.2403 10.0225 13.9375 10.163 13.6731C10.3113 13.4017 10.4971 13.172 10.7204 12.9841C10.9507 12.7962 11.2076 12.6535 11.4911 12.5561C11.7816 12.4586 12.0878 12.4099 12.4098 12.4099C12.7388 12.4099 13.0377 12.4621 13.3064 12.5665C13.5759 12.6639 13.7985 12.8066 13.9743 12.9945C14.1577 13.1755 14.2908 13.4017 14.3735 13.6731C14.457 13.9375 14.4807 14.2368 14.4446 14.5709C14.4251 14.7518 14.3899 14.9154 14.3392 15.0615C14.2891 15.2007 14.222 15.3364 14.1377 15.4686C14.0605 15.6009 13.9622 15.7331 13.8429 15.8653C13.7314 15.9906 13.6047 16.1263 13.463 16.2725L11.1132 18.684H14.0007L13.8689 19.9054Z" fill="#653D00"/>
</g>
<defs>
<linearGradient id="paint0_linear_311_684" x1="12.3478" y1="21" x2="12.3478" y2="4" gradientUnits="userSpaceOnUse">
<stop stop-color="#FF903E"/>
<stop offset="1" stop-color="#FBE947"/>
</linearGradient>
</defs>
</svg>
