<svg width="24" height="24" viewBox="0 0 24 24" fill="none" xmlns="http://www.w3.org/2000/svg">
<g id="&#230;&#142;&#146;&#232;&#161;&#140;">
<g id="TOP3">
<path d="M6.11457 9.26701H4.30107V15H2.94582V9.26701H1.13232V8.05801H6.11457V9.26701Z" fill="url(#paint0_linear_311_332)"/>
<path d="M11.9232 11.529C11.9232 11.828 11.92 12.1075 11.9135 12.3675C11.907 12.6275 11.881 12.8713 11.8355 13.0988C11.7965 13.3263 11.7282 13.5408 11.6307 13.7423C11.5397 13.9373 11.4065 14.1225 11.231 14.298C10.984 14.545 10.7077 14.7335 10.4022 14.8635C10.1032 14.9935 9.75546 15.0585 9.35896 15.0585C8.96246 15.0585 8.61146 14.9935 8.30596 14.8635C8.00046 14.7335 7.72421 14.545 7.47721 14.298C7.30171 14.1225 7.16521 13.9373 7.06771 13.7423C6.97671 13.5408 6.91171 13.3263 6.87271 13.0988C6.83371 12.8713 6.81096 12.6275 6.80446 12.3675C6.79796 12.1075 6.79471 11.828 6.79471 11.529C6.79471 11.23 6.79796 10.9505 6.80446 10.6905C6.81096 10.4305 6.83371 10.1868 6.87271 9.95926C6.91171 9.73176 6.97671 9.52051 7.06771 9.32551C7.16521 9.12401 7.30171 8.93551 7.47721 8.76001C7.72421 8.51301 8.00046 8.32451 8.30596 8.19451C8.61146 8.06451 8.96246 7.99951 9.35896 7.99951C9.75546 7.99951 10.1032 8.06451 10.4022 8.19451C10.7077 8.32451 10.984 8.51301 11.231 8.76001C11.4065 8.93551 11.5397 9.12401 11.6307 9.32551C11.7282 9.52051 11.7965 9.73176 11.8355 9.95926C11.881 10.1868 11.907 10.4305 11.9135 10.6905C11.92 10.9505 11.9232 11.23 11.9232 11.529ZM10.568 11.529C10.568 11.1975 10.5615 10.9245 10.5485 10.71C10.542 10.489 10.5257 10.307 10.4997 10.164C10.4737 10.021 10.438 9.90726 10.3925 9.82276C10.347 9.73176 10.2917 9.65051 10.2267 9.57901C10.1292 9.46851 10.0057 9.38076 9.85621 9.31576C9.71321 9.24426 9.54746 9.20851 9.35896 9.20851C9.17046 9.20851 9.00146 9.24426 8.85196 9.31576C8.70246 9.38076 8.57896 9.46851 8.48146 9.57901C8.41646 9.65051 8.36121 9.73176 8.31571 9.82276C8.27671 9.90726 8.24421 10.021 8.21821 10.164C8.19221 10.307 8.17271 10.489 8.15971 10.71C8.15321 10.9245 8.14996 11.1975 8.14996 11.529C8.14996 11.8605 8.15321 12.1368 8.15971 12.3578C8.17271 12.5723 8.19221 12.751 8.21821 12.894C8.24421 13.037 8.27671 13.154 8.31571 13.245C8.36121 13.3295 8.41646 13.4075 8.48146 13.479C8.57896 13.5895 8.70246 13.6805 8.85196 13.752C9.00146 13.817 9.17046 13.8495 9.35896 13.8495C9.54746 13.8495 9.71321 13.817 9.85621 13.752C10.0057 13.6805 10.1292 13.5895 10.2267 13.479C10.2917 13.4075 10.347 13.3295 10.3925 13.245C10.438 13.154 10.4737 13.037 10.4997 12.894C10.5257 12.751 10.542 12.5723 10.5485 12.3578C10.5615 12.1368 10.568 11.8605 10.568 11.529Z" fill="url(#paint1_linear_311_332)"/>
<path d="M18.2856 10.2225C18.2856 10.515 18.2336 10.7945 18.1296 11.061C18.0256 11.321 17.8729 11.5518 17.6714 11.7533C17.4764 11.9483 17.2359 12.1043 16.9499 12.2213C16.6704 12.3318 16.3519 12.387 15.9944 12.387H14.6586V15H13.3034V8.05801H15.9944C16.3519 8.05801 16.6704 8.11651 16.9499 8.23351C17.2359 8.34401 17.4764 8.50001 17.6714 8.70151C17.8729 8.89651 18.0256 9.12726 18.1296 9.39376C18.2336 9.65376 18.2856 9.93001 18.2856 10.2225ZM16.9304 10.2225C16.9304 9.93651 16.8394 9.70576 16.6574 9.53026C16.4819 9.35476 16.2381 9.26701 15.9261 9.26701H14.6586V11.1683H15.9261C16.2381 11.1683 16.4819 11.0838 16.6574 10.9148C16.8394 10.7393 16.9304 10.5085 16.9304 10.2225Z" fill="url(#paint2_linear_311_332)"/>
<path d="M23.4427 12.9915C23.4427 13.336 23.3842 13.6383 23.2672 13.8983C23.1502 14.1583 22.9909 14.376 22.7894 14.5515C22.5879 14.7205 22.3539 14.8473 22.0874 14.9318C21.8209 15.0163 21.5382 15.0585 21.2392 15.0585C20.9532 15.0585 20.6769 15.0195 20.4104 14.9415C20.1504 14.8635 19.9164 14.7433 19.7084 14.5808C19.5069 14.4118 19.3444 14.2005 19.2209 13.947C19.0974 13.687 19.0324 13.375 19.0259 13.011H20.2934C20.2999 13.167 20.3292 13.3035 20.3812 13.4205C20.4332 13.531 20.5014 13.6253 20.5859 13.7033C20.6704 13.7748 20.7679 13.83 20.8784 13.869C20.9954 13.9015 21.1157 13.9178 21.2392 13.9178C21.5122 13.9178 21.7364 13.8365 21.9119 13.674C22.0874 13.505 22.1752 13.2645 22.1752 12.9525C22.1752 12.66 22.0907 12.4293 21.9217 12.2603C21.7527 12.0848 21.5122 11.997 21.2002 11.997H21.0149V10.8953H21.2002C21.5122 10.8953 21.7364 10.814 21.8729 10.6515C22.0094 10.4825 22.0777 10.2745 22.0777 10.0275C22.0777 9.73501 21.9932 9.51401 21.8242 9.36451C21.6552 9.21501 21.4569 9.14026 21.2294 9.14026C20.9889 9.14026 20.7874 9.21501 20.6249 9.36451C20.4689 9.50751 20.3844 9.71226 20.3714 9.97876H19.1039C19.1104 9.66676 19.1689 9.39051 19.2794 9.15001C19.3964 8.90301 19.5492 8.69501 19.7377 8.52601C19.9262 8.35701 20.1472 8.22701 20.4007 8.13601C20.6607 8.04501 20.9369 7.99951 21.2294 7.99951C21.5349 7.99951 21.8177 8.04826 22.0777 8.14576C22.3377 8.24326 22.5619 8.37976 22.7504 8.55526C22.9389 8.73076 23.0852 8.94201 23.1892 9.18901C23.2932 9.42951 23.3452 9.69601 23.3452 9.98851C23.3452 10.3655 23.2672 10.6678 23.1112 10.8953C22.9617 11.1163 22.7732 11.2885 22.5457 11.412C22.7927 11.542 23.0039 11.7338 23.1794 11.9873C23.3549 12.2343 23.4427 12.569 23.4427 12.9915Z" fill="url(#paint3_linear_311_332)"/>
</g>
</g>
<defs>
<linearGradient id="paint0_linear_311_332" x1="12.3751" y1="6.75001" x2="12.3751" y2="17.25" gradientUnits="userSpaceOnUse">
<stop stop-color="#E3B063"/>
<stop offset="1" stop-color="#725325"/>
</linearGradient>
<linearGradient id="paint1_linear_311_332" x1="12.3751" y1="6.75001" x2="12.3751" y2="17.25" gradientUnits="userSpaceOnUse">
<stop stop-color="#E3B063"/>
<stop offset="1" stop-color="#725325"/>
</linearGradient>
<linearGradient id="paint2_linear_311_332" x1="12.3751" y1="6.75001" x2="12.3751" y2="17.25" gradientUnits="userSpaceOnUse">
<stop stop-color="#E3B063"/>
<stop offset="1" stop-color="#725325"/>
</linearGradient>
<linearGradient id="paint3_linear_311_332" x1="12.3751" y1="6.75001" x2="12.3751" y2="17.25" gradientUnits="userSpaceOnUse">
<stop stop-color="#E3B063"/>
<stop offset="1" stop-color="#725325"/>
</linearGradient>
</defs>
</svg>
