<svg width="24" height="24" viewBox="0 0 24 24" fill="none" xmlns="http://www.w3.org/2000/svg">
<g id="&#230;&#142;&#146;&#232;&#161;&#140;">
<path id="Vector" d="M19.3333 20.25C19.3333 20.25 13.925 17.1 13.3292 16.785C12.6417 16.425 12.4125 16.2 12 16.2C11.5417 16.2 11.3583 16.515 10.625 16.92C10.075 17.235 4.66667 20.25 4.66667 20.25C4.1625 20.25 3.75 19.845 3.75 19.35V5.1C3.75 4.335 4.34583 3.75 5.125 3.75H18.875C19.6542 3.75 20.25 4.335 20.25 5.1V19.35C20.25 19.845 19.8375 20.25 19.3333 20.25Z" fill="url(#paint0_linear_311_303)"/>
<path id="3" d="M14.3468 12.126C14.3468 12.497 14.2838 12.8225 14.1578 13.1025C14.0318 13.3825 13.8603 13.617 13.6433 13.806C13.4263 13.988 13.1743 14.1245 12.8873 14.2155C12.6003 14.3065 12.2958 14.352 11.9738 14.352C11.6658 14.352 11.3683 14.31 11.0813 14.226C10.8013 14.142 10.5493 14.0125 10.3253 13.8375C10.1083 13.6555 9.93333 13.428 9.80033 13.155C9.66733 12.875 9.59733 12.539 9.59033 12.147H10.9553C10.9623 12.315 10.9938 12.462 11.0498 12.588C11.1058 12.707 11.1793 12.8085 11.2703 12.8925C11.3613 12.9695 11.4663 13.029 11.5853 13.071C11.7113 13.106 11.8408 13.1235 11.9738 13.1235C12.2678 13.1235 12.5093 13.036 12.6983 12.861C12.8873 12.679 12.9818 12.42 12.9818 12.084C12.9818 11.769 12.8908 11.5205 12.7088 11.3385C12.5268 11.1495 12.2678 11.055 11.9318 11.055H11.7323V9.8685H11.9318C12.2678 9.8685 12.5093 9.781 12.6563 9.606C12.8033 9.424 12.8768 9.2 12.8768 8.934C12.8768 8.619 12.7858 8.381 12.6038 8.22C12.4218 8.059 12.2083 7.9785 11.9633 7.9785C11.7043 7.9785 11.4873 8.059 11.3123 8.22C11.1443 8.374 11.0533 8.5945 11.0393 8.8815H9.67433C9.68133 8.5455 9.74433 8.248 9.86333 7.989C9.98933 7.723 10.1538 7.499 10.3568 7.317C10.5598 7.135 10.7978 6.995 11.0708 6.897C11.3508 6.799 11.6483 6.75 11.9633 6.75C12.2923 6.75 12.5968 6.8025 12.8768 6.9075C13.1568 7.0125 13.3983 7.1595 13.6013 7.3485C13.8043 7.5375 13.9618 7.765 14.0738 8.031C14.1858 8.29 14.2418 8.577 14.2418 8.892C14.2418 9.298 14.1578 9.6235 13.9898 9.8685C13.8288 10.1065 13.6258 10.292 13.3808 10.425C13.6468 10.565 13.8743 10.7715 14.0633 11.0445C14.2523 11.3105 14.3468 11.671 14.3468 12.126Z" fill="#3D2706"/>
</g>
<defs>
<linearGradient id="paint0_linear_311_303" x1="12" y1="3.75" x2="12" y2="20.25" gradientUnits="userSpaceOnUse">
<stop stop-color="#E3B063"/>
<stop offset="1" stop-color="#725325"/>
</linearGradient>
</defs>
</svg>
