<?xml version="1.0" standalone="no"?><!DOCTYPE svg PUBLIC "-//W3C//DTD SVG 1.1//EN" "http://www.w3.org/Graphics/SVG/1.1/DTD/svg11.dtd"><svg t="1660987259938" class="icon" viewBox="0 0 1024 1024" version="1.1" xmlns="http://www.w3.org/2000/svg" p-id="2373" xmlns:xlink="http://www.w3.org/1999/xlink" width="200" height="200"><defs><style type="text/css">@font-face { font-family: feedback-iconfont; src: url("//at.alicdn.com/t/font_1031158_u69w8yhxdu.woff2?t=1630033759944") format("woff2"), url("//at.alicdn.com/t/font_1031158_u69w8yhxdu.woff?t=1630033759944") format("woff"), url("//at.alicdn.com/t/font_1031158_u69w8yhxdu.ttf?t=1630033759944") format("truetype"); }
</style></defs><path d="M508.5 889.1c-51.1 0-100.7-10-147.4-29.8-45.1-19.1-85.6-46.4-120.3-81.1-34.8-34.8-62.1-75.3-81.1-120.3-19.7-46.7-29.8-96.3-29.8-147.4 0-54.2 11.2-106.5 33.3-155.6l36.5 16.5c-19.8 43.8-29.8 90.6-29.8 139.1 0 186.7 151.9 338.6 338.6 338.6 69.7 0 136.7-21 193.7-60.8l22.9 32.8c-63.7 44.4-138.6 68-216.6 68zM858.1 656.1l-36.9-15.4c17.2-41.3 25.9-85.1 25.9-130.2 0-186.7-151.9-338.6-338.6-338.6-69.3 0-135.9 20.8-192.6 60.1l-22.8-33c63.4-44 137.9-67.2 215.4-67.2 51.1 0 100.7 10 147.4 29.8 45.1 19.1 85.6 46.4 120.3 81.1C811 277.5 838.3 318 857.3 363c19.7 46.7 29.8 96.3 29.8 147.4 0 50.5-9.7 99.5-29 145.7z" p-id="2374" fill="#c9c9c9"></path><path d="M271 454.9L166.6 318.1 57.5 453.9zM965.5 554.6L861 691.4 752 555.5z" p-id="2375" fill="#c9c9c9"></path></svg>