<?xml version="1.0" encoding="UTF-8"?>
<svg width="60px" height="49px" viewBox="0 0 60 49" version="1.1" xmlns="http://www.w3.org/2000/svg" xmlns:xlink="http://www.w3.org/1999/xlink">
    <!-- Generator: Sketch 63 (92445) - https://sketch.com -->
    <title>桑基图</title>
    <desc>Created with Sketch.</desc>
    <g id="页面-1" stroke="none" stroke-width="1" fill="none" fill-rule="evenodd">
        <g id="图表缩略图" transform="translate(-1334.000000, -862.000000)" fill-rule="nonzero">
            <g id="桑基图" transform="translate(1334.000000, 862.000000)">
                <polygon id="路径" fill="#54D6FE" points="35.8469 24.3012063 57.9404 24.3012063 57.9404 48.5893062 35.8469 48.5893062"></polygon>
                <path d="M28.7965,0.00840626953 L58.2115,0.00840626953 L58.2115,7.77520623 L28.7965,7.77520623 L28.7965,0.00840626953 Z M1.86040002,0.00840626953 L27.0235,0.00840626953 L27.0235,18.5258062 L1.86040002,18.5258062 L1.86040002,0.00840626953 Z" id="形状" fill="#4386FF"></path>
                <polygon id="路径" fill="#54D6FE" points="1.86040002 41.6518062 34.4836 41.6518062 34.4836 48.5893062 1.86040002 48.5893062"></polygon>
                <path d="M33.9877,24.3012063 C17.0029,24.3012063 17.064,18.5258062 2.11849998,18.5258062 L2.11849998,35.9514063 C15.6721,35.9514063 15.6551,41.5297063 33.9877,41.6518062 L33.9877,24.3012063 Z" id="路径" fill="#54D6FE"></path>
                <path d="M57.9086,24.3012063 L57.9086,13.5586062 C43.236,13.5586062 43.5014,7.77520623 29.0325,7.77520623 L29.0325,18.5219063 C41.8406,18.5219063 41.7833,24.1660062 57.9086,24.3012063 Z" id="路径" fill="#4386FF"></path>
                <path d="M57.8831,0.00840626953 L60,0.00840626953 L60,7.77520623 L57.8831,7.77520623 L57.8831,0.00840626953 Z M33.9667,24.3012063 L36.0875,24.3012063 L36.0875,48.5893062 L33.9667,48.5893062 L33.9667,24.3012063 Z M26.9303,0.00840626953 L29.0458,0.00840626953 L29.0458,18.5258062 L26.9303,18.5258062 L26.9303,0.00840626953 Z" id="形状" fill="#3264BE"></path>
                <polygon id="路径" fill="#0CAAB5" points="0 0.00840626953 2.1186 0.00840626953 2.1186 35.9514063 0 35.9514063"></polygon>
                <polygon id="路径" fill="#3264BE" points="0 41.6518062 2.1186 41.6518062 2.1186 48.5893062 0 48.5893062"></polygon>
                <polygon id="路径" fill="#0CAAB5" points="57.8831 13.5586062 60 13.5586062 60 48.5893062 57.8831 48.5893062"></polygon>
            </g>
        </g>
    </g>
</svg>