<?xml version="1.0" encoding="UTF-8"?>
<svg width="154px" height="160px" viewBox="0 0 154 160" version="1.1" xmlns="http://www.w3.org/2000/svg" xmlns:xlink="http://www.w3.org/1999/xlink">
    <!-- Generator: Sketch 63 (92445) - https://sketch.com -->
    <title>图标</title>
    <desc>Created with Sketch.</desc>
    <defs>
        <linearGradient x1="-44.8136523%" y1="-185.963888%" x2="68.4399347%" y2="100%" id="linearGradient-1">
            <stop stop-color="#F2F4F8" offset="0%"></stop>
            <stop stop-color="#D2D2D2" stop-opacity="0" offset="100%"></stop>
        </linearGradient>
        <linearGradient x1="121.384387%" y1="-110.864112%" x2="54.6574359%" y2="55.5871768%" id="linearGradient-2">
            <stop stop-color="#D2D2D2" offset="0%"></stop>
            <stop stop-color="#D2D2D2" stop-opacity="0" offset="100%"></stop>
        </linearGradient>
        <linearGradient x1="98.851826%" y1="-97.780461%" x2="39.1005411%" y2="104.736078%" id="linearGradient-3">
            <stop stop-color="#D2D2D2" offset="0%"></stop>
            <stop stop-color="#D2D2D2" stop-opacity="0" offset="100%"></stop>
        </linearGradient>
        <linearGradient x1="50%" y1="-230.116303%" x2="50%" y2="100%" id="linearGradient-4">
            <stop stop-color="#D2D2D2" offset="0%"></stop>
            <stop stop-color="#D2D2D2" stop-opacity="0" offset="100%"></stop>
        </linearGradient>
        <linearGradient x1="50%" y1="-169.203289%" x2="50%" y2="100%" id="linearGradient-5">
            <stop stop-color="#D2D2D2" offset="0%"></stop>
            <stop stop-color="#D2D2D2" stop-opacity="0" offset="100%"></stop>
        </linearGradient>
        <linearGradient x1="51.7913951%" y1="23.4547157%" x2="53.8956042%" y2="67.1799155%" id="linearGradient-6">
            <stop stop-color="#E4E4E4" offset="0%"></stop>
            <stop stop-color="#E5E5E5" offset="100%"></stop>
        </linearGradient>
        <linearGradient x1="51.7913951%" y1="23.4547157%" x2="53.8956042%" y2="67.1799155%" id="linearGradient-7">
            <stop stop-color="#EFEFEF" offset="0%"></stop>
            <stop stop-color="#F9F9F9" offset="100%"></stop>
        </linearGradient>
        <linearGradient x1="50%" y1="7.70186176%" x2="50%" y2="100%" id="linearGradient-8">
            <stop stop-color="#F2F4F8" offset="0%"></stop>
            <stop stop-color="#E3E9F0" offset="100%"></stop>
        </linearGradient>
        <polygon id="path-9" points="64.5633185 4.14312977 88.1774196 11.1211377 73.2028047 82.1720738 43.7243402 71.1660947 54.8256553 56.9544093 49.4345302 27.5898357"></polygon>
        <linearGradient x1="52.4288343%" y1="23.4547157%" x2="55.2817923%" y2="67.1799155%" id="linearGradient-10">
            <stop stop-color="#ECECEC" offset="0%"></stop>
            <stop stop-color="#E9E9E9" offset="100%"></stop>
        </linearGradient>
        <linearGradient x1="50%" y1="7.70186176%" x2="50%" y2="100%" id="linearGradient-11">
            <stop stop-color="#F2F4F8" offset="0%"></stop>
            <stop stop-color="#E3E9F0" offset="100%"></stop>
        </linearGradient>
        <linearGradient x1="50%" y1="0%" x2="50%" y2="91.4439886%" id="linearGradient-12">
            <stop stop-color="#DCE3EC" offset="0%"></stop>
            <stop stop-color="#DCE3EC" offset="100%"></stop>
        </linearGradient>
        <linearGradient x1="55.1984079%" y1="67.993202%" x2="38.5679811%" y2="1.15686333%" id="linearGradient-13">
            <stop stop-color="#FFFFFF" stop-opacity="0" offset="0%"></stop>
            <stop stop-color="#D6E1ED" offset="100%"></stop>
        </linearGradient>
        <linearGradient x1="50.0064447%" y1="99.9896619%" x2="50.0064447%" y2="-0.0255016974%" id="linearGradient-14">
            <stop stop-color="#F2A319" offset="0%"></stop>
            <stop stop-color="#FFC552" offset="47.96%"></stop>
        </linearGradient>
        <linearGradient x1="50.052052%" y1="99.9745374%" x2="50.052052%" y2="-0.0681449279%" id="linearGradient-15">
            <stop stop-color="#F2A319" offset="0%"></stop>
            <stop stop-color="#FFC552" offset="47.96%"></stop>
        </linearGradient>
        <linearGradient x1="50.0144316%" y1="100.017153%" x2="50.0144316%" y2="-0.00417798177%" id="linearGradient-16">
            <stop stop-color="#78C8FF" offset="0%"></stop>
            <stop stop-color="#2A80E2" offset="69.03%"></stop>
        </linearGradient>
        <linearGradient x1="49.9747127%" y1="100.008866%" x2="49.9747127%" y2="0.0014265534%" id="linearGradient-17">
            <stop stop-color="#78C8FF" offset="0%"></stop>
            <stop stop-color="#2A80E2" offset="69.03%"></stop>
        </linearGradient>
        <linearGradient x1="49.9777923%" y1="99.9898053%" x2="49.9777923%" y2="-0.00735417561%" id="linearGradient-18">
            <stop stop-color="#F2A319" offset="0%"></stop>
            <stop stop-color="#FFC552" offset="47.96%"></stop>
        </linearGradient>
    </defs>
    <g id="页面-1" stroke="none" stroke-width="1" fill="none" fill-rule="evenodd">
        <g id="数据已删除-缺省页2" transform="translate(-878.000000, -414.000000)" fill-rule="nonzero">
            <g id="图标" transform="translate(878.000000, 414.000000)">
                <g id="编组-2">
                    <g id="编组-2备份-5">
                        <path d="M8.13472415,89.874192 C3.68952648,87.8398497 -1.13014959,82.3822005 0.236003214,77.2472393 C0.91930745,77.0703297 1.63823082,77.3522042 2.02517788,77.9487367 C2.02517788,77.9487367 9.73665962,90.133746 7.57300651,78.9238184 C6.55359296,73.6555733 4.79909222,68.5627025 4.6603965,63.1190831 C4.43154857,53.2279704 13.4051613,50.4851158 15.9849016,61.4144445 C16.3247061,62.8595291 17.6284458,74.6096095 20.596534,73.2627348 C20.978833,73.059339 21.2890666,72.7406142 21.4841867,72.3507884 C22.9890351,69.8534577 23.4397963,66.1846266 26.1998409,65.3358149 C28.6200811,64.5641677 31.0056476,66.6897048 32.309387,68.8853912 C34.9515405,73.3469144 38.4882811,84.4375871 33.0791486,88.1976129 C27.6700155,91.9576388 14.0223572,92.5539117 8.18326762,89.9232964 L8.13472415,89.874192 Z" id="路径" fill="url(#linearGradient-1)"></path>
                        <path d="M121.414174,101.467549 C119.426099,96.9969436 119.475447,89.7677319 123.987392,86.9120891 C124.62507,87.2490631 124.969473,87.9514517 124.840432,88.6518129 C124.840432,88.6518129 122.436412,102.756747 128.365389,93.0877629 C131.185354,88.5339833 133.300328,83.6336451 136.825285,79.5511851 C143.304155,72.1071071 151.940299,76.1479796 146.518915,85.8862755 C145.813924,87.1754738 138.86271,96.6573164 142.006971,97.6692673 C142.43265,97.7721889 142.880083,97.7456015 143.290055,97.5930242 C146.110021,96.775146 148.929986,94.3908233 151.594853,95.5968471 C153.935424,96.6573164 154.30202,99.8040681 153.808526,102.292359 C152.793338,107.33132 147.817223,112.96637 141.204404,112.093042 C134.450588,111.19199 124.036742,107.359045 121.435324,101.516068 L121.414174,101.467549 Z" id="路径" fill="url(#linearGradient-2)"></path>
                        <path d="M132.397458,57.8122044 C130.745622,59.9115611 129.68817,62.8856507 130.676507,65.5448364 C131.360741,67.378275 133.420352,67.3922705 133.275212,69.9394904 C133.133099,71.2113656 132.702603,72.4327808 132.017328,73.508398 C130.8496,75.5764138 129.41816,77.4798436 127.759875,79.1696642 C129.142156,80.2613691 129.845347,82.0159911 129.605232,83.7742544 C129.334136,85.5194517 128.517838,87.1307653 127.276074,88.3718465 C126.910446,88.8245418 126.433773,89.1720376 125.893784,89.379538 C125.370791,89.5018456 124.827144,89.5018456 124.304151,89.379538 C121.732704,88.937656 119.235956,88.1295559 116.888165,86.979273 C115.422937,86.2724891 113.930064,85.3067847 113.43244,83.7672563 C112.862245,82.0002974 113.768833,81.4388286 114.758439,80.8852188 L115.013861,80.7422811 C115.524855,80.4537353 116.026208,80.140117 116.328337,79.6385204 C117.054039,78.4348894 117.074774,76.8253818 117.330498,75.4817934 C117.703716,73.5013999 117.1508,69.8905059 119.597453,69.1137433 C120.544321,68.8128356 121.574127,68.8828143 122.520996,68.5749085 C124.577921,67.912056 125.429458,65.9529582 126.253894,63.9720823 L126.403755,63.6119667 C126.87903,62.4726377 127.368994,61.3516942 128.098536,60.4923836 C129.135254,59.2677585 131.706313,58.6659425 132.397458,57.8122044 Z M126.425965,69.5616065 C126.425965,69.5616065 118.982334,78.3509146 119.224235,86.4754272 L121.629419,86.4754272 C121.629419,86.4754272 122.500262,76.6784269 126.425965,69.5616065 Z" id="形状结合" fill="url(#linearGradient-3)"></path>
                        <path d="M25.1313903,12.5452404 L25.1313903,12.5452404 C25.1703866,9.80269356 23.2294776,7.43788543 20.5523639,6.9661431 C17.8752502,6.49440077 15.2552067,8.05550968 14.3711107,10.6491388 C12.6843917,10.6157687 11.1141828,11.5144519 10.2766765,12.9925206 C9.43917025,14.4705893 9.46799334,16.2922132 10.3518348,17.7425376 C11.2356763,19.1928621 12.8335166,20.0404833 14.5183197,19.9527717 L24.6757433,19.9527717 C26.6043161,19.9268081 28.1872051,18.4051437 28.3067153,16.4622414 C28.426226,14.5193391 27.0419722,12.8117588 25.1313903,12.5452404 L25.1313903,12.5452404 Z" id="路径" fill="url(#linearGradient-4)"></path>
                        <path d="M67.1838047,6.80592017 L67.1838047,6.77150792 C67.1797263,3.47395339 64.7901579,0.657631775 61.5221341,0.0987194111 C58.2541109,-0.460192951 55.0556942,1.40044586 53.9440375,4.50718228 C50.8001691,4.55659621 48.2918427,7.13108692 48.3415329,10.2574682 C48.391223,13.3838495 50.9801138,15.8782244 54.1239822,15.8288105 L66.5816825,15.8288105 C68.981863,15.833064 70.9707143,13.9787857 71.1210041,11.5966353 C71.2712938,9.21448491 69.531094,7.12755072 67.1492001,6.83344996 L67.1838047,6.80592017 Z" id="路径" fill="url(#linearGradient-5)"></path>
                    </g>
                    <g id="编组-9" transform="translate(31.818182, 22.946565)">
                        <polygon id="路径-87" fill="url(#linearGradient-6)" points="66.7495355 4.8336514 90.3636364 11.8116593 75.3890215 82.8625954 45.9105572 71.8566163 57.0118723 57.6449309 51.6207472 28.2803573"></polygon>
                        <g id="路径-87备份">
                            <use fill="url(#linearGradient-7)" xlink:href="#path-9"></use>
                            <use fill="url(#linearGradient-8)" xlink:href="#path-9"></use>
                        </g>
                        <ellipse id="椭圆形" fill="#DCE3EC" cx="69.2302053" cy="26.2398219" rx="7.28739005" ry="8.28625954"></ellipse>
                        <polygon id="路径-15" fill="url(#linearGradient-10)" points="2.18621701 0.690521628 50.2829912 0.690521628 40.2431823 25.7716876 50.2829912 54.1335562 42.8664143 73.1952926 2.18621701 73.1952926"></polygon>
                        <polygon id="路径-15备份" fill="url(#linearGradient-11)" points="1.65696065e-13 0 48.0967742 0 38.0569653 25.081166 48.0967742 53.4430345 40.6801972 72.504771 1.65696065e-13 72.504771"></polygon>
                        <polygon id="路径-65" fill="url(#linearGradient-12)" points="1.65696065e-13 61.3893347 28.733864 26.2398219 49.5542522 53.4218177 42.1734783 72.257442 1.65696065e-13 72.504771"></polygon>
                        <polygon id="路径-88" fill="#DCE3EC" points="74.3313784 75.4002911 57.6084623 44.1933842 52.2069373 46.9110317 54.181626 57.6239048 42.9956012 71.4582889 72.6990038 82.1720738"></polygon>
                    </g>
                    <g id="编组" transform="translate(15.272727, 80.740458)">
                        <polygon id="路径" fill="url(#linearGradient-13)" points="14.937799 48.5699026 42.7272727 87.7205187 26.2580998 92.259542 2.72727273 49.194275 7.68767373 47.259542 9.24757348 47.7113905 10.6992026 50.225311"></polygon>
                        <path d="M10.169229,2.31671281 C10.169229,2.31671281 11.2636051,3.24802594 10.3872493,5.9024735 C10.1606792,6.41120843 9.89136007,8.03998073 8.69866109,7.37534317 C8.59606333,7.35072696 8.52766482,7.5025269 8.50201538,7.64612144 C8.47636594,7.78561327 8.15574794,10.2390285 8.15574794,10.2390285 L4.72727273,10.259542 C4.72727273,10.259542 6.31326313,4.19574988 6.28761369,3.00596658 C6.27478897,2.39466413 6.91602498,1.31975647 8.18994719,1.26231865 C9.45531959,1.19667543 10.169229,2.31671281 10.169229,2.31671281 Z" id="路径" fill="#FFBE92"></path>
                        <path d="M8.69536897,1.23134539 C8.69536897,1.23134539 9.00619571,0.578245228 9.8696033,1.05396016 C10.7330109,1.52967509 10.3185752,2.37628642 10.2878763,2.58995499 C10.2571774,2.79959208 10.3761358,2.96488286 10.629402,2.85200135 C10.8826682,2.73508836 11.3354775,2.65445871 11.6501416,3.2994959 C11.9609684,3.9445331 11.2971039,5.64985019 10.2917137,5.48052793 C9.2863235,5.31120566 9.72378335,5.6014724 9.2172509,5.71032243 C8.75676685,5.81110949 8.86805049,6.83107456 8.54187429,7.16568761 C8.15046285,7.56480437 8.11976391,6.51661893 7.33310366,7.23422281 C7.18344634,7.37129321 6.51574447,6.67787823 6.31236401,6.92379866 C6.10514619,7.17375057 5.64466214,6.98830238 5.47581799,6.62546895 C5.30697384,6.26263553 5.10743075,5.40796124 5.27243753,3.94856458 C5.34151014,3.53735337 5.22638913,3.51316448 5.03452078,3.28336997 C4.84265242,3.05357547 4.56636199,2.69074205 4.84648979,2.16261784 C5.12661759,1.63852512 5.39139591,1.70302884 5.74059632,1.71915477 C6.08979672,1.7352807 6.07444725,1.59417881 6.07828462,1.36438431 C6.08212199,1.13458981 6.33538822,0.243632182 7.02611429,0.259758111 C7.71684037,0.275884041 8.01231763,0.71128415 8.18883652,1.07814906 C8.3653554,1.44904544 8.58408533,1.35228986 8.69536897,1.23134539 Z" id="路径" fill="#171C61"></path>
                        <path d="M1.73505452,12.8453408 C1.73505452,12.8453408 1.64090812,15.9627737 2.1075468,16.9950905 C2.57418548,18.0274073 4.08462121,21.259542 4.08462121,21.259542 L4.72727273,16.1716949 L3.5934226,12.259542 L1.73505452,12.8453408 Z" id="路径" fill="#FFBE92"></path>
                        <path d="M11.8019106,14.5134822 L16.6044024,11.2832703 C16.6350893,11.2626957 16.6734478,11.2544658 16.7118064,11.2626957 L20.6052003,12.1638631 C20.7356194,12.1926675 20.7701421,12.3819538 20.666574,12.4724821 L16.2553395,16.2252888 C16.216981,16.2582081 16.1671148,16.266438 16.1210845,16.2540932 L11.8364333,14.830331 C11.7098501,14.7850669 11.6868349,14.5916657 11.8019106,14.5134822 Z" id="路径" fill="#171C61"></path>
                        <path d="M11.7935736,14.8832678 L16.1227967,12.2753001 C16.1555938,12.2713606 16.1883909,12.2634815 16.2211881,12.259542 L19.6525894,12.9725966 C19.7304826,12.9883547 19.7550804,13.0907824 19.6894861,13.1419963 L15.6349391,16.2305865 C15.602142,16.2581631 15.5570459,16.2660422 15.5160495,16.2542236 L11.8263707,15.1432767 C11.7115807,15.1038814 11.6910825,14.9463002 11.7935736,14.8832678 Z" id="路径" fill="#E3F0FC"></path>
                        <path d="M3.64392867,47.779296 C3.64392867,47.779296 2.75476531,48.1968483 2.7282796,49.2470556 C2.70179388,50.2972629 3.19745515,51.2884224 4.2606675,51.2588985 C5.32387985,51.2293746 5.76656969,51.111279 6.40979424,50.5587603 C7.0530188,50.0062416 8.80485978,49.0403883 9.2513333,48.8084148 C9.69780681,48.5764413 10.148064,46.7333065 9.00917817,46.3832374 C7.87029234,46.0331683 6.80329632,46.4760268 5.29739413,47.0875933 C4.45741854,47.2478659 4.4347165,47.1213349 3.64392867,47.779296 Z" id="路径" fill="url(#linearGradient-14)"></path>
                        <path d="M2.94593517,49.3604714 C2.94593517,49.3604714 3.43734521,51.0452167 6.1085998,50.2488644 C6.84781491,49.9887493 7.1166204,49.7646502 7.44002701,49.5805687 C7.89783636,49.3164519 8.59505061,48.9402855 9.60307121,48.5361067 C10.2078836,48.3800377 10.7328943,47.6036942 10.6404924,47.259542 C10.8462966,47.6036942 10.6824933,48.3480235 10.1868831,48.652158 C9.69127301,48.9522908 8.09104031,49.6485988 7.78023396,49.8686962 C7.47362769,50.0847918 7.23002272,50.220852 7.23002272,50.220852 L7.26782349,50.5529989 C7.26782349,50.5529989 5.14258006,51.6774964 3.82795319,51.0892361 C2.91233448,50.6650485 2.71913053,50.0967971 2.7275307,49.8166732 C2.73173079,49.6926183 2.7569313,49.1963988 2.87873379,49.036328 C2.90393431,49.1723882 2.94593517,49.3604714 2.94593517,49.3604714 Z" id="路径" fill="#E6E8E8"></path>
                        <path d="M8.48328148,49.8267068 C8.48328148,49.8267068 7.75657253,50.3809394 7.72877492,51.4031907 C7.70097731,52.425442 8.05440407,53.2875816 9.17027955,53.2588436 C10.286155,53.2301056 10.6792927,52.9878854 11.425857,52.5773428 C12.5695301,51.9492125 14.0348613,51.0829674 14.3048952,50.6149488 C14.5789002,50.1428247 15.2261874,48.9686726 14.0308902,48.41444 C12.8951593,47.8889454 11.8666477,48.8208772 10.286155,49.4161641 C9.40854478,49.5680649 9.31323868,49.1862602 8.48328148,49.8267068 Z" id="路径" fill="url(#linearGradient-15)"></path>
                        <path d="M7.92474632,51.6119253 C7.92474632,51.6119253 8.21633199,53.0697403 10.6928663,52.3334701 C11.3771207,52.0941823 11.695921,51.9285215 11.9952823,51.755498 C12.4190535,51.5125288 12.9633468,51.1848886 13.8225526,50.6989502 C14.2540994,50.4522997 14.7439633,49.5761382 14.6584315,49.259542 C14.8489342,49.5761382 14.627329,50.5627402 14.19967,50.8830178 C13.7253573,51.2401088 13.0294395,51.6266507 12.6562099,51.8364877 C12.3529608,52.0058298 11.7347991,52.3040193 11.7347991,52.3040193 L11.7697894,52.6095714 C11.7697894,52.6095714 9.80255807,53.644031 8.58567385,53.1028724 C7.86254137,52.6868798 7.74979491,52.1935787 7.73035587,52.0242366 C7.71480463,51.9101147 7.75757053,51.4536272 7.87031699,51.3063731 C7.88586823,51.4389018 7.92474632,51.6119253 7.92474632,51.6119253 Z" id="路径" fill="#E6E8E8"></path>
                        <path d="M3.65627144,22.259542 C3.65627144,22.259542 2.1077198,24.7130618 3.00924429,29.5878712 C3.91076878,34.4667094 4.60955809,37.5245445 4.35506075,40.0022369 C4.10056341,42.483958 3.56568764,48.6076856 3.56568764,48.6076856 C3.56568764,48.6076856 4.7001419,49.8163161 6.29614218,48.9420734 C7.16747207,45.6263972 8.63406693,36.9363443 8.7160237,35.8485769 C8.78935345,34.9300178 8.49603447,31.9527581 8.07331007,28.9432683 C7.65058567,25.9337785 7.48235861,23.9838547 7.48235861,23.9838547 L3.65627144,22.259542 Z" id="路径" fill="url(#linearGradient-16)"></path>
                        <path d="M11.6753976,24.4667862 C11.6753976,24.5524954 12.7303348,25.0585876 12.6475946,29.0420232 C12.5648545,33.0254588 12.8627191,35.1967577 12.6475946,37.1435802 C12.4324702,39.0904028 11.4064921,51.7631154 11.4064921,51.7631154 C11.4064921,51.7631154 10.1860746,52.8854974 8.68020354,51.7549526 C8.56023029,47.0980878 9.15595951,37.519068 8.73398465,35.8416172 C7.70800656,31.7479841 4.54733212,30.4215327 6.19386147,24.6341232 C9.08149335,23.9035545 11.6753976,24.4667862 11.6753976,24.4667862 Z" id="路径" fill="url(#linearGradient-17)"></path>
                        <path d="M7.77756665,9.21883718 C7.77756665,9.21883718 5.79063001,10.4695787 4.99899056,8.39867882 C3.8742355,8.17313528 2.54177305,8.05831311 1.87946084,9.39107043 C1.21322962,10.7238277 0.727272727,13.4467535 0.727272727,13.4467535 L2.92583576,14.2423071 C2.92583576,14.2423071 3.64301407,17.3917151 3.20800428,19.7168641 C2.77299448,22.042013 1.50715516,24.5516975 1.99311205,25.1504131 C2.47906894,25.7450279 6.77821982,27.8610365 11.5868416,27.0941884 C12.3588861,26.9178544 11.9395523,25.6343066 11.5045425,23.5059957 C11.0695327,21.3776847 12.4411852,18.6137511 12.4411852,18.6137511 L12.7272727,18.5850455 C12.7272727,18.5850455 12.6763256,13.8199255 11.6260317,11.6629091 C10.5757378,9.5058926 8.16162936,8.82106038 7.77756665,9.21883718 Z" id="路径" fill="url(#linearGradient-18)"></path>
                        <path d="M17.0698833,15.9749044 C17.0698833,15.9749044 16.7069882,16.0966564 16.6352531,15.8053211 C16.6352531,15.8053211 16.6352531,15.8053211 16.6352531,15.8053211 C16.6141546,15.7661865 16.5972757,15.7183553 16.5846166,15.653131 C16.4453661,15.0226292 16.7365262,13.8485913 16.0613725,14.4051722 C15.3862188,14.9617531 15.5929847,15.9401181 15.398878,16.557575 C15.2047713,17.175032 13.3354396,20.1623062 13.2383863,19.9101055 C13.1539921,19.7579154 13.1033555,19.1752447 13.1033555,19.1752447 C13.1033555,19.1752447 9.68960987,19.6709496 9.72758726,19.7187808 C9.76978437,19.7622637 11.4196911,25.7759467 12.9641051,25.223714 C14.5085191,24.6671331 16.1204484,18.4838668 16.5297604,18.2621041 C16.943292,18.0359931 19.01095,17.5881194 18.6944718,14.748687 L17.0698833,15.9749044 Z" id="路径" fill="#FFBE92"></path>
                    </g>
                </g>
            </g>
        </g>
    </g>
</svg>