<?xml version="1.0" encoding="UTF-8"?><svg xmlns="http://www.w3.org/2000/svg" xmlns:xlink="http://www.w3.org/1999/xlink" viewBox="0 0 176 176"><path fill="#7194DA" fill-rule="nonzero" d="M115.5 92.375C129.25 83.625 138 68 138 50.5c0-27.5-22.5-50-50-50S38 23 38 50.5c0 17.5 8.75 33.125 22.5 41.875-35 11.25-60 44.375-60 83.125H13c0-41.25 33.75-75 75-75s75 33.75 75 75h12.5c0-38.75-25-71.875-60-83.125zM88 88c-20.625 0-37.5-16.875-37.5-37.5S67.375 13 88 13s37.5 16.875 37.5 37.5S108.625 88 88 88z" class="st0"></path></svg>