<svg width="24" height="25" viewBox="0 0 24 25" fill="none" xmlns="http://www.w3.org/2000/svg">
<g id="Frame 9">
<path id="9" d="M16.1785 10.1733C16.0921 10.6224 15.9244 11.0566 15.6753 11.476C15.4355 11.8956 15.1604 12.3284 14.85 12.7746L11.9216 16.9812L9.94775 16.9554L12.7972 12.9407C12.667 12.9849 12.5349 13.0153 12.4007 13.0319C12.2758 13.0487 12.1528 13.0563 12.0314 13.0547C11.6955 13.0503 11.3812 12.9818 11.0886 12.8494C10.7977 12.7077 10.5547 12.5116 10.3597 12.261C10.1647 12.0103 10.0269 11.7053 9.94633 11.3459C9.86577 10.9865 9.86958 10.5777 9.95775 10.1194C10.0494 9.64282 10.2108 9.21767 10.4417 8.84398C10.6744 8.46111 10.9554 8.1432 11.2848 7.89024C11.6159 7.62811 11.9813 7.43075 12.3811 7.29816C12.7902 7.16569 13.214 7.10232 13.6527 7.10807C14.0913 7.11381 14.484 7.18786 14.8309 7.33023C15.1888 7.46355 15.4831 7.66036 15.7137 7.92065C15.9443 8.18094 16.1028 8.50001 16.1891 8.87787C16.2755 9.25572 16.272 9.68752 16.1785 10.1733ZM14.356 10.1632C14.4442 9.70494 14.3907 9.35049 14.1957 9.09986C14.0007 8.84922 13.7165 8.72146 13.3432 8.71657C12.9699 8.71168 12.6381 8.83138 12.3479 9.07567C12.0576 9.31995 11.8684 9.67123 11.7802 10.1295C11.6956 10.5694 11.7452 10.9192 11.9292 11.1789C12.1131 11.4386 12.4011 11.571 12.7931 11.5761C13.1664 11.581 13.4981 11.4613 13.7884 11.217C14.0786 10.9727 14.2678 10.6215 14.356 10.1632Z" fill="#868D99"/>
</g>
</svg>
