<?xml version="1.0" encoding="UTF-8"?><svg xmlns="http://www.w3.org/2000/svg" xmlns:xlink="http://www.w3.org/1999/xlink" xml:space="preserve" viewBox="0 0 750 1125"><path fill="#212121" d="M709.729 675.185s-49.84-19.169-61.341-30.67c-11.502-11.501-83.065-58.785-90.733-60.063-7.667-1.278-37.06-23.003-39.615-23.003 0 0-43.45-20.447-60.063-28.114-16.612-7.668-30.67-15.335-37.06-26.837-6.39-11.501-29.393-47.283-29.393-47.283s-17.891-40.894-17.891-47.284c0-6.39 3.834-24.28 6.39-34.504s5.111-16.613 2.556-29.393-6.39-21.725-5.111-26.836c1.277-5.112 5.111-16.613 5.111-17.891 0-1.278-7.667 1.278-8.946 3.834-1.278 2.556-2.556 19.169-1.278 29.393 1.278 10.223-3.833 29.392-3.833 33.226 0 3.833 0 14.057-1.278 17.891-1.278 3.833-3.833 3.833-5.111 2.556-1.278-1.278-11.501-8.945-11.501-8.945l-2.556 8.945s14.058 11.501 12.779 16.613c-1.278 5.111 1.278 24.281 2.556 31.948s10.223 19.169 11.501 25.559c1.278 6.39 3.833 10.223 2.556 11.501-1.278 1.278-6.39-7.668-7.668-12.779-1.278-5.112-11.501-28.115-15.335-30.67-3.833-2.556-21.725-20.447-26.836-19.169-5.112 1.278-14.057 7.667-19.169 8.945s-6.39 8.946-19.169 5.112-49.839-23.003-67.73-24.281c-17.891-1.278-23.003 5.112-29.393 5.112s-11.501-1.278-16.613-3.834c-5.111-2.556-15.335-12.779-31.948-10.223-16.613 2.556-25.559 6.39-31.948 6.39s-21.725-5.112-35.782-14.058c-14.058-8.945-31.948-21.725-33.227-21.725-1.278 0-7.667-1.278-7.667-1.278l-1.278 5.112s56.229 37.06 61.341 37.06c5.111 0 19.169 5.112 29.392 2.556 10.224-2.556 15.335-5.112 23.003-3.834s25.559 17.891 30.67 21.725c5.112 3.833 14.057 10.223 34.504 7.667s40.894-3.834 46.005 1.278c5.112 5.112 15.335 14.057 24.281 16.613 8.946 2.556 26.836-2.556 33.226 0 6.39 2.556 29.393 16.613 33.227 23.002 3.833 6.39 7.667 3.834 7.667 14.058 0 10.223 0 17.891 3.833 24.28 3.834 6.39 6.39 11.501 12.779 15.335 6.39 3.833 5.112 2.556 7.667 11.501 2.557 8.945 7.668 25.559 16.613 26.836 8.945 1.278 35.782 1.278 44.728 7.668s57.507 25.559 69.009 35.782c11.501 10.224 29.392 31.948 40.894 43.449 11.501 11.502 21.725 24.281 33.226 33.227 11.502 8.945 46.006 37.06 46.006 37.06h62.618l20.447-37.06-5.112-11.5z" class="st-0"></path><path fill="#E60012" d="M389.31 514.805a7.004 7.004 0 0 0 2.214-5.112 7.028 7.028 0 0 0-10.362-6.187c.087-.481.139-.973.139-1.48a8.307 8.307 0 1 0-15.974 3.195c-4.588 0-8.307 3.719-8.307 8.307a8.307 8.307 0 0 0 9.232 8.253 6.96 6.96 0 0 0-.286 1.97 7.028 7.028 0 0 0 13.906 1.45 6.99 6.99 0 0 0 4.624 1.745 7.028 7.028 0 0 0 7.028-7.029 7.006 7.006 0 0 0-2.214-5.112" class="st-1"></path><path fill="#FFD74C" d="M380.599 514.363a1.916 1.916 0 0 0-2.209.008l-2.899-2.044 3.136-1.66a1.908 1.908 0 0 0 2.188.288 1.917 1.917 0 0 0-1.793-3.388 1.912 1.912 0 0 0-.992 1.972l-3.12 1.65v-3.529a1.913 1.913 0 0 0 1.278-1.799 1.917 1.917 0 0 0-3.834 0c0 .833.536 1.535 1.278 1.799v3.358l-2.744-1.934a1.913 1.913 0 0 0-3.406-1.619 1.917 1.917 0 0 0 .462 2.671 1.916 1.916 0 0 0 2.208-.007l2.9 2.044-3.136 1.659a1.914 1.914 0 0 0-2.189-.288 1.918 1.918 0 0 0 1.794 3.389 1.91 1.91 0 0 0 .992-1.972l3.12-1.65v3.529a1.913 1.913 0 0 0-1.278 1.8 1.918 1.918 0 0 0 3.834 0c0-.834-.536-1.535-1.278-1.8v-3.357l2.744 1.934a1.911 1.911 0 0 0 3.406 1.618c.61-.866.403-2.06-.462-2.672" class="st-2"></path><path fill="#E60012" d="M401.591 542.637a5.304 5.304 0 0 0-.273-4.216 5.33 5.33 0 0 0-9.136-.595 6.394 6.394 0 0 0-.419-1.044 6.303 6.303 0 0 0-8.482-2.737 6.303 6.303 0 0 0-1.197 10.418 6.303 6.303 0 0 0 5.746 11.218c.213-.11.412-.231.605-.358a5.332 5.332 0 1 0 10.38-2.402 5.308 5.308 0 0 0 3.727-.42 5.333 5.333 0 0 0 2.313-7.177 5.322 5.322 0 0 0-3.264-2.687" class="st-3"></path><path fill="#FFD74C" d="M395.557 545.353a1.454 1.454 0 0 0-1.487.769l-2.666-.377 1.544-2.205a1.45 1.45 0 0 0 1.22-2.587 1.45 1.45 0 0 0-2.013 2.032l-1.534 2.192-1.221-2.382a1.453 1.453 0 0 0 .239-1.657 1.455 1.455 0 0 0-2.588 1.327c.288.563.892.851 1.484.772l1.162 2.268-2.523-.357a1.449 1.449 0 0 0-2.858.084 1.453 1.453 0 0 0 1.235 1.644c.626.09 1.211-.24 1.487-.769l2.666.377-1.544 2.204a1.456 1.456 0 0 0-1.577.564c-.461.659-.3 1.565.358 2.027a1.456 1.456 0 0 0 2.025-.359 1.455 1.455 0 0 0-.013-1.675l1.536-2.193 1.221 2.382a1.45 1.45 0 0 0-.241 1.657 1.454 1.454 0 1 0 2.589-1.325 1.45 1.45 0 0 0-1.485-.774l-1.162-2.266 2.522.357c.119.586.59 1.061 1.217 1.149a1.455 1.455 0 1 0 .407-2.879" class="st-4"></path><path fill="#E60012" d="M547.26 572.91a4.032 4.032 0 0 0 1.887-2.593 4.048 4.048 0 0 0-5.045-4.782c.109-.26.2-.531.265-.815a4.785 4.785 0 1 0-9.382-.212 4.784 4.784 0 1 0-1.563 9.423 4.048 4.048 0 1 0 7.226 3.636 4.032 4.032 0 0 0 2.378 1.561 4.048 4.048 0 0 0 4.836-3.067 4.038 4.038 0 0 0-.602-3.151" class="st-5"></path><path fill="#FFD74C" d="M542.419 571.567a1.095 1.095 0 0 0-1.241-.271l-1.373-1.516 1.972-.537a1.1 1.1 0 0 0 1.193.436 1.103 1.103 0 1 0-1.388-1.145l-1.961.533.443-1.981a1.103 1.103 0 1 0-.718-.162l-.422 1.888-1.301-1.433c.215-.4.171-.907-.15-1.263a1.106 1.106 0 0 0-1.637 1.485c.323.354.824.449 1.242.273l1.374 1.514-1.972.539a1.1 1.1 0 0 0-1.194-.438 1.105 1.105 0 0 0 .581 2.129c.463-.126.772-.529.807-.982l1.962-.535-.444 1.982a1.102 1.102 0 0 0-.108 2.169 1.101 1.101 0 0 0 .827-2.009l.422-1.887 1.299 1.431a1.103 1.103 0 0 0 1.71 1.341 1.105 1.105 0 0 0 .077-1.561" class="st-6"></path><path fill="#E60012" d="M392.673 366.656a4.037 4.037 0 0 0 1.889-2.595 4.047 4.047 0 0 0-3.068-4.833 4.017 4.017 0 0 0-1.979.052c.108-.26.2-.53.265-.814a4.784 4.784 0 0 0-3.627-5.713 4.782 4.782 0 0 0-5.755 5.501 4.784 4.784 0 1 0-1.563 9.423 4.046 4.046 0 0 0 2.658 5.907 4.05 4.05 0 0 0 4.568-2.271 4.032 4.032 0 0 0 2.38 1.562 4.048 4.048 0 0 0 4.834-3.067 4.03 4.03 0 0 0-.602-3.152" class="st-7"></path><path fill="#FFD74C" d="M387.833 365.313a1.1 1.1 0 0 0-1.241-.273l-1.374-1.513 1.972-.539a1.102 1.102 0 0 0 1.967-.919 1.102 1.102 0 0 0-2.161.21l-1.961.534.443-1.983a1.101 1.101 0 0 0 .108-2.169 1.103 1.103 0 0 0-.826 2.009l-.423 1.887-1.3-1.433a1.102 1.102 0 0 0-1.711-1.338 1.102 1.102 0 0 0 1.166 1.832l1.373 1.513-1.971.54a1.102 1.102 0 0 0-1.194-.438 1.104 1.104 0 0 0 .581 2.13c.464-.127.772-.53.807-.983l1.961-.537-.443 1.984a1.102 1.102 0 0 0-.108 2.169 1.105 1.105 0 0 0 1.319-.836 1.105 1.105 0 0 0-.493-1.173l.423-1.887 1.299 1.433a1.1 1.1 0 0 0 1.711 1.338 1.102 1.102 0 0 0 .076-1.558" class="st-8"></path><path fill="#E60012" d="M330.687 418.528a5.291 5.291 0 0 0-.081-4.211 5.312 5.312 0 0 0-9.069-1.003 6.22 6.22 0 0 0-.37-1.061 6.279 6.279 0 0 0-8.32-3.105 6.278 6.278 0 0 0-1.664 10.317 6.28 6.28 0 1 0 5.834 11.098 5.312 5.312 0 0 0 7.462 4.072 5.313 5.313 0 0 0 2.979-5.994c1.19.355 2.51.304 3.729-.253a5.313 5.313 0 0 0 2.627-7.039 5.292 5.292 0 0 0-3.127-2.821" class="st-9"></path><path fill="#FFD74C" d="M324.558 420.958a1.453 1.453 0 0 0-1.518.698l-2.634-.494 1.636-2.126c.566.184 1.21.01 1.595-.488a1.449 1.449 0 1 0-2.297-1.769 1.447 1.447 0 0 0-.065 1.668l-1.627 2.114-1.107-2.427a1.445 1.445 0 0 0-1.607-2.355 1.447 1.447 0 0 0-.716 1.919c.261.573.85.889 1.443.836l1.054 2.31-2.495-.469a1.444 1.444 0 0 0-1.158-1.2 1.448 1.448 0 1 0-.535 2.848 1.446 1.446 0 0 0 1.515-.699l2.637.496-1.637 2.125a1.448 1.448 0 0 0-1.595.49 1.45 1.45 0 1 0 2.296 1.768c.385-.5.388-1.168.065-1.667l1.627-2.115 1.108 2.426a1.445 1.445 0 0 0-.314 1.64 1.448 1.448 0 1 0 2.636-1.203 1.445 1.445 0 0 0-1.444-.837l-1.055-2.309 2.495.47a1.45 1.45 0 0 0 1.16 1.2 1.45 1.45 0 0 0 .537-2.85" class="st-10"></path><path fill="#E60012" d="M191.725 435.766a7.056 7.056 0 0 0 2.04-5.232 7.083 7.083 0 0 0-7.343-6.814 7.025 7.025 0 0 0-3.327.971c.069-.488.104-.986.084-1.495a8.372 8.372 0 0 0-8.677-8.056 8.372 8.372 0 0 0-7.293 11.87 8.373 8.373 0 0 0-8.055 8.679 8.373 8.373 0 0 0 8.677 8.056 8.57 8.57 0 0 0 .929-.091 7.057 7.057 0 0 0-.213 1.997 7.084 7.084 0 0 0 14.06.94 7.047 7.047 0 0 0 4.723 1.584 7.084 7.084 0 0 0 6.816-7.343 7.058 7.058 0 0 0-2.421-5.066" class="st-11"></path><path fill="#FFD74C" d="M182.935 435.647a1.924 1.924 0 0 0-2.222.09l-2.998-1.951 3.096-1.788a1.928 1.928 0 0 0 2.922-2.432 1.928 1.928 0 0 0-3.567 1.316l-3.08 1.779-.133-3.554a1.93 1.93 0 0 0 1.221-1.86 1.933 1.933 0 0 0-3.861.142 1.93 1.93 0 0 0 1.354 1.765l.126 3.383-2.837-1.847a1.93 1.93 0 0 0-.818-2.069 1.932 1.932 0 0 0-2.109 3.24 1.928 1.928 0 0 0 2.224-.091l2.998 1.952-3.098 1.789a1.924 1.924 0 0 0-2.214-.209 1.934 1.934 0 0 0 1.934 3.347 1.928 1.928 0 0 0 .925-2.023l3.081-1.779.132 3.553a1.93 1.93 0 0 0-1.221 1.861 1.931 1.931 0 1 0 3.862-.143 1.926 1.926 0 0 0-1.355-1.765l-.125-3.382 2.836 1.846a1.926 1.926 0 0 0 .818 2.069 1.932 1.932 0 0 0 2.109-3.239" class="st-12"></path><path fill="#FFF" d="M564.044 581.896s-20.446-1.278-24.28 3.833c-3.834 5.112-6.39 14.058 3.834 20.447 10.223 6.39 21.725 16.613 26.836 21.725 5.112 5.112 21.725 6.39 29.393 7.668 7.668 1.277 30.67 15.335 33.227 16.613 2.556 1.277 8.945 8.945 20.446 6.39 11.502-2.557 25.559 3.833 19.169-6.39-6.39-10.224-21.725-26.837-30.67-26.837s-40.894-8.945-43.45-12.779c-2.557-3.834-24.281-29.392-34.505-30.67" class="st-13"></path><path fill="#D6DEE6" d="M671.375 650.205c-.063 1.957-.433 4.006-2.541 4.533-5.111 1.277-6.39-1.278-12.779 0-6.39 1.277-17.891-2.556-21.131-7.254-3.239-4.699-27.43-14.471-35.098-15.749s-19.169-3.834-23.003-8.945c-3.834-5.112-8.945-7.668-14.057-7.668s-17.892-16.613-21.726-21.725c-1.942-2.591-.676-6.325 1.046-9.38-1.007.472-1.814 1.034-2.323 1.712-3.834 5.112-6.39 14.058 3.834 20.447 10.223 6.39 21.725 16.613 26.836 21.725 5.112 5.112 21.725 6.39 29.393 7.668 7.668 1.277 30.67 15.335 33.227 16.613 2.556 1.277 8.945 8.945 20.446 6.39 11.502-2.557 25.559 3.833 19.169-6.39a61.857 61.857 0 0 0-1.293-1.977" class="st-14"></path><path fill="#FFF" d="M399.496 471.706c-3.071 1.095-2.86 9.233-2.86 18.179 0 8.945 5.111 12.779 10.223 17.891 5.112 5.111 6.39 8.945 10.224 19.169 3.834 10.223 2.556 16.613 11.502 19.169 8.945 2.556 19.169-2.556 24.28-2.556s1.278 2.556 5.111 5.112c3.834 2.556 6.39-2.556 8.946 1.278s1.277 7.667 11.501 10.224c10.224 2.556 20.447-2.556 24.28 0 3.834 2.556 17.892 6.389 15.336 1.278-2.557-5.112-8.946-15.335-37.061-24.281-28.114-8.945-26.836-7.667-34.504-11.501-7.668-3.833-14.058-7.667-17.891-14.057-3.834-6.39-11.502-14.057-12.779-17.891-1.278-3.835-8.335-24.858-16.308-22.014" class="st-15"></path><path fill="#D6DEE6" d="M457.976 548.67c3.834 2.556 6.39-2.556 8.946 1.278s1.277 7.667 11.501 10.224c10.224 2.556 20.447-2.556 24.28 0 3.834 2.556 17.892 6.389 15.336 1.278a27.942 27.942 0 0 0-3.412-5.318c-2.494.436-5.308.735-8.284.372-9.141-1.109-11.307-.166-24.086-2.722-12.779-2.556-12.779-6.39-20.447-10.224-7.667-3.833-17.891-1.278-24.28-1.278s-8.945-2.556-14.058-11.501c0-11.501-7.667-19.169-12.779-26.836-5.111-7.667-7.667-12.779-10.224-20.447-1.159-3.479-1.002-8.007-.486-11.919-.162.04-.323.072-.486.129-3.071 1.097-2.86 9.234-2.86 18.18 0 8.945 5.111 12.779 10.223 17.891 5.112 5.111 6.39 8.945 10.224 19.169 3.834 10.223 2.556 16.613 11.502 19.169 8.945 2.556 19.169-2.556 24.28-2.556s1.277 2.555 5.11 5.111" class="st-16"></path><path fill="#FFF" d="M510.371 570.395c-1.278 0-6.39-1.277-6.39 1.278s2.556 3.834 7.668 6.39c5.111 2.556 5.111 2.556 5.111 0s-2.555-7.668-6.389-7.668M367.243 378.705s-2.556-1.278-5.111 2.556c-2.556 3.833-3.834 3.833-5.112 3.833s-2.556 1.278-1.278 3.834 3.833 7.667 6.39 7.667c2.556 0 5.111-1.278 7.667-5.112 2.556-3.833 2.556-6.39 2.556-8.945-.001-2.555-3.834-3.833-5.112-3.833M344.24 431.101c-4.041 0-7.667 1.278-6.39 3.833 1.278 2.556 7.667 5.112 10.223 2.556 2.557-2.556-1.277-6.389-3.833-6.389M283.989 425.387c-2.695-5.135-12.592-9.622-22.815-13.455-10.223-3.834-29.392-11.501-37.06-11.501-7.667 0-10.223-5.112-12.779 0-2.556 5.112-1.278 8.945 2.556 11.501 3.833 2.556 15.335 1.278 16.613 5.112 1.278 3.833 5.112 10.223 8.946 8.945 3.833-1.278 10.223-6.39 14.057-5.112s6.39 3.834 10.224 7.667c3.833 3.834 5.111 5.112 6.39 1.278 1.278-3.834 1.278-5.112 5.111-3.834 3.832 1.279 11.125 3.909 8.757-.601" class="st-17"></path><path fill="#D6DEE6" d="M284.307 426.114c-.469.216-.938.684-1.408 1.152-1.278 1.278-5.112-1.278-7.667-2.556-2.556-1.278-3.834 0-5.112 1.278s-3.833 1.278-6.39 0c-2.556-1.278-7.667-6.39-11.501-6.39-3.833 0-10.223 1.278-12.779 2.556-2.556 1.278-5.111-5.112-6.39-7.667-1.278-2.556-8.945-2.556-16.613-5.112-3.453-1.151-5.344-3.078-6.387-4.851-.323 3.116 1.102 5.587 3.831 7.407 3.834 2.556 15.335 1.278 16.613 5.112 1.278 3.834 5.112 10.224 8.945 8.946 3.834-1.278 10.224-6.39 14.058-5.112 3.833 1.278 6.39 3.834 10.223 7.667 3.834 3.834 5.112 5.112 6.39 1.278 1.278-3.833 1.278-5.111 5.112-3.833 3.605 1.201 10.266 3.595 9.075.125" class="st-18"></path><path fill="#FFF" d="M41.371 367.204s5.112-5.111 14.057-1.278c8.946 3.834 14.058 11.501 23.003 15.335 8.945 3.833 19.169 2.556 20.447 7.667s3.315 7.227-1.538 8.087c-4.852.858-6.13 3.415-11.242-.419s-23.002-14.057-26.836-16.613c-3.834-2.556-23.003-6.39-17.891-12.779M103.989 396.596c-2.857 0-7.667 1.278-3.834 3.834 3.834 2.556 11.501 6.39 11.501 2.556s-3.833-6.39-7.667-6.39" class="st-19"></path><path fill="#E60012" d="M636.773 635.718a7.446 7.446 0 0 0 2.626-5.32 7.484 7.484 0 0 0-10.693-7.13 8.955 8.955 0 0 0 .226-1.566c.243-4.879-3.515-9.031-8.394-9.274s-9.032 3.515-9.273 8.394a8.768 8.768 0 0 0 .509 3.432 8.847 8.847 0 0 0-.88 17.669c.333.017.661.012.988-.007a7.316 7.316 0 0 0-.409 2.079 7.484 7.484 0 0 0 14.712 2.281 7.444 7.444 0 0 0 4.825 2.102 7.486 7.486 0 0 0 7.848-7.103 7.455 7.455 0 0 0-2.085-5.557" class="st-20"></path><path fill="#FFD74C" d="M627.532 634.785a2.032 2.032 0 0 0-2.347-.107l-2.977-2.328 3.424-1.599c.59.598 1.508.797 2.312.42a2.041 2.041 0 1 0-1.728-3.697 2.033 2.033 0 0 0-1.159 2.043l-3.405 1.593.187-3.755a2.036 2.036 0 0 0 1.454-1.847 2.041 2.041 0 1 0-4.078-.203 2.032 2.032 0 0 0 1.265 1.979l-.179 3.573-2.816-2.203a2.037 2.037 0 0 0-3.537-1.904 2.043 2.043 0 0 0 .352 2.868 2.033 2.033 0 0 0 2.347.107l2.978 2.328-3.425 1.599a2.036 2.036 0 0 0-3.298 2.29 2.035 2.035 0 0 0 3.874-1.056l3.405-1.593-.188 3.754a2.037 2.037 0 0 0 .483 3.988 2.042 2.042 0 0 0 2.14-1.938 2.03 2.03 0 0 0-1.263-1.979l.177-3.573 2.817 2.203a2.04 2.04 0 0 0 .671 2.254 2.041 2.041 0 0 0 2.514-3.217" class="st-21"></path><path fill="#E60012" d="M42.913 371.922a3.929 3.929 0 0 0 1.637-2.657 3.937 3.937 0 0 0-5.25-4.259 4.66 4.66 0 0 0 .196-.809 4.654 4.654 0 0 0-3.939-5.269 4.65 4.65 0 0 0-5.171 5.762 4.652 4.652 0 1 0-.811 9.254c-.152.331-.262.69-.316 1.068a3.937 3.937 0 0 0 7.592 1.916 3.91 3.91 0 0 0 2.423 1.338 3.937 3.937 0 0 0 4.459-3.334 3.926 3.926 0 0 0-.82-3.01" class="st-22"></path><path fill="#FFD74C" d="M38.121 370.981a1.07 1.07 0 0 0-1.225-.171l-1.444-1.366 1.871-.67c.28.342.75.492 1.191.336a1.074 1.074 0 0 0-.724-2.023 1.073 1.073 0 0 0-.708 1.014l-1.862.666.283-1.957a1.071 1.071 0 0 0-.056-2.111 1.073 1.073 0 0 0-1.216.91c-.067.461.173.894.564 1.099l-.268 1.862-1.367-1.292a1.074 1.074 0 0 0-.24-1.213 1.073 1.073 0 1 0-.252 1.733l1.445 1.365-1.872.669a1.072 1.072 0 0 0-1.839 1.038 1.073 1.073 0 0 0 2.081-.364l1.861-.666-.281 1.957A1.072 1.072 0 1 0 35.334 373a1.067 1.067 0 0 0-.563-1.1l.269-1.861 1.366 1.291c-.177.403-.097.892.242 1.213.431.407 1.11.388 1.518-.042a1.08 1.08 0 0 0-.045-1.52" class="st-23"></path><path fill="#F25864" d="M169.164 494.997s30.67-21.725 70.286-1.278l-5.111 14.058 5.111 12.779-6.39 10.223 7.668 15.335-7.668 8.945 6.39 14.058-6.39 6.39-52.395 1.277-7.667-7.667 6.39-12.78-10.224-7.667 10.224-16.613-8.945-11.501 8.945-11.501-10.224-14.058z" class="st-24"></path><path fill="#E21A2B" d="M197.433 406.939s3.679-5.231 7.513-3.954 6.39 2.556 7.667 12.779-2.556 60.063-2.556 60.063v2.556h-3.834s2.556-20.447 2.556-25.559 2.556-37.06 1.278-40.894c-1.277-3.832-6.079-9.982-12.624-4.991" class="st-25"></path><path fill="#E21A2B" d="M199.774 434.106h2.949l3.501 44.278h-5.112z" class="st-26"></path><path fill="#F22F3F" d="M190.889 479.662s14.057-5.112 29.392-1.278l1.278 1.278v8.946l-30.67 1.278v-10.224z" class="st-27"></path><g opacity=".51"><defs><path id="a" d="M169.164 546.012h70.623v10.326h-70.623z"></path></defs><clipPath id="b"><use overflow="visible" xlink:href="#a"></use></clipPath><path fill="#CE4253" d="m233.38 554.687 6.408-7.477c-9.038-.697-44.115-2.958-70.625 1.46l10.224 7.667s22.585-4.751 53.993-1.65" clip-path="url(#b)" class="st-28"></path></g><g opacity=".51"><defs><path id="c" d="M170.442 516.885h68.766v15.082h-68.766z"></path></defs><clipPath id="d"><use overflow="visible" xlink:href="#c"></use></clipPath><path fill="#CE4253" d="m233.344 530.325 5.865-9.382c-7.947-2.28-32.461-7.647-68.768-.387l8.876 11.411c7.044-.521 42.958-3.055 54.027-1.642" clip-path="url(#d)" class="st-29"></path></g><g opacity=".51"><defs><path id="e" d="M169.164 492.339h70.286v14.823h-70.286z"></path></defs><clipPath id="f"><use overflow="visible" xlink:href="#e"></use></clipPath><path fill="#CE4253" d="m234.562 507.162 4.888-13.443c-.398-.206-.789-.379-1.186-.578-17.036-.833-51.306-1.891-69.101 1.856l8.677 11.931c15.144-.777 39.58-1.555 56.722.234" clip-path="url(#f)" class="st-30"></path></g><g opacity=".51"><defs><path id="g" d="M174.121 568.48h65.329v8.304h-65.329z"></path></defs><clipPath id="h"><use overflow="visible" xlink:href="#g"></use></clipPath><path fill="#CE4253" d="m239.45 569.117-.028-.063c-6.92-.316-40.102-1.61-65.301 1.186l6.544 6.544 52.395-1.277 6.39-6.39z" clip-path="url(#h)" class="st-31"></path></g><path fill="#DE4949" d="M206.224 585.729s-3.833 3.834-3.833 11.502c0 7.667 2.556 10.224 2.556 17.891 0 7.668 0 19.169-2.556 21.725l-2.556 2.557 6.39 3.833 3.834-3.833v5.111l6.39-1.278s1.278-16.612-1.278-26.836-5.112-16.613-5.112-21.725c0-5.112-1.278-8.946-1.278-8.946h-2.557z" class="st-32"></path><path fill="#FFC000" d="M204.946 576.192s-5.112.592-3.834 5.704c1.278 5.111 1.278 3.833 2.556 5.111s2.556 1.278 2.556 1.278h2.556c1.278 0 2.556 0 3.833-2.557 1.278-2.556 2.556-3.833 1.278-6.39-1.278-2.554-6.39-5.015-8.945-3.146" class="st-33"></path><path fill="#DE4949" d="M290.817 427.334s1.028-3.902 7.418-1.346c6.39 2.556 7.667 1.278 8.945 14.057s0 58.785 0 58.785h-2.556s1.278-54.951 0-60.063c-1.278-5.112-3.834-10.224-5.112-10.224s-7.166.139-8.695-1.209" class="st-34"></path><path fill="#DE4949" d="m298.245 451.766 3.823 45.787-1.277 1.278-6.39-47.284z" class="st-35"></path><path fill="#32B16C" d="M313.57 504.581a8.307 8.307 0 1 1-16.614 0 8.307 8.307 0 0 1 16.614 0" class="st-36"></path><path fill="#FF9B4B" d="M309.736 517.36a4.473 4.473 0 1 1-8.946 0 4.473 4.473 0 0 1 8.946 0" class="st-37"></path><path fill="#AA2731" d="M304.625 599.787s-3.834 7.668-2.556 19.169 2.556 31.948 1.278 33.227l-1.278 1.277 5.112 1.278s1.278 2.556 1.278-5.112c0-7.667-2.556-31.948-1.278-40.894s0-5.111 0-7.667c-.001-2.556-2.556-1.278-2.556-1.278M309.736 601.065l2.556 39.615h6.39s-7.357-32.091-6.234-38.41c1.122-6.317-1.434-2.483-1.434-2.483l-1.278 1.278z" class="st-38"></path><path fill="#DA4652" d="M300.791 594.676v6.39s6.39 3.833 15.335 0v-7.668l-15.335 1.278z" class="st-39"></path><path fill="#F37E17" d="M345.518 558.894c0 20.467-16.592 37.06-37.06 37.06-20.468 0-37.06-16.593-37.06-37.06s16.592-37.06 37.06-37.06c20.468-.001 37.06 16.593 37.06 37.06" class="st-40"></path><path fill="#FFA13D" d="M336.439 554.355c0 17.328-14.046 31.374-31.373 31.374s-31.374-14.046-31.374-31.374c0-17.327 14.047-31.372 31.374-31.372 17.327.001 31.373 14.046 31.373 31.372" class="st-41"></path></svg>