<?xml version="1.0" encoding="UTF-8"?><svg xmlns="http://www.w3.org/2000/svg" viewBox="0 0 400 400" xml:space="preserve"><g fill="#B1B2FF" fill-rule="evenodd" clip-rule="evenodd"><path d="M263.7 261.9s-11.6-28.8-42.2-33.5c0 0-17 1.9-12.4 17.4 0 0 2.9 8.8 15 7.3 0 0 31.8-4.5 39.6 8.8zM206.7 192s-22.3-21.6-52.2-13.3c0 0-14.7 8.7-4.3 20.9 0 0 6.2 6.9 16.7.5 0 0 27.2-17.1 39.8-8.1zM170.8 163.6s-23.1-20.7-52.7-11.3c0 0-14.4 9.3-3.5 21.1 0 0 6.5 6.7 16.7-.1 0-.1 26.6-18.2 39.5-9.7z" class="st0"></path><path d="M158.6 154.4s-21.8-6.4-27.4-28.4c0 0 .2-12.5 11.8-10.3 0 0 6.6 1.5 6.4 10.4 0 0-1 23.5 9.2 28.3zM244.1 234.3s-15.2-14.1-10.8-34.3c0 0 5.3-10.1 13.8-3.6 0 0 4.8 3.9 1 11.1 0 0-10.4 18.8-4 26.8zM231.4 220.1s-15.8-18-39.3-13.6c0 0-11.9 5.8-4.6 15.8 0 0 4.3 5.7 12.8 1.5-.1 0 22-11.4 31.1-3.7zM251.6 242.2s-4.5-29.1 8.2-35.5c0 0 10.9-3.7 14.7 4.7 0 0 3.3 7.7-1.5 16.3 0 0-13 2.7-13.2 29 0 0-5.7-5.6-8.2-14.5zM190.6 174.5s-12.3-31.6.3-42.1c0 0 11.3-6.9 17.8 1.6 0 0 5.6 7.9 2.4 18.7 0 0-13.9 6.2-7.6 36 0 .1-7.7-4.8-12.9-14.2z" class="st1"></path><path d="M167.6 157.9s-16.6-29.6-5.5-41.7c0 0 10.2-8.4 17.8-.9 0 0 6.7 7 5 18.2 0 0-12.9 8.1-2.5 36.7 0 .1-8.4-3.7-14.8-12.3zM218.9 204.2s-10-24.2-.4-32.5c0 0 8.6-5.5 13.8 1 0 0 4.5 6 2.1 14.4 0 0-10.7 5-5.3 27.9 0 0-6.1-3.7-10.2-10.8z" class="st2"></path><path d="M141 145.6c-6.1-2.2 72.1 22.1 134.6 137.6-7.5-3.1-39.9-85-134.6-137.6z" class="st3"></path><path d="M145.9 148.5s-21.5-17.6-32.1-21c-5.3-1.7-11.1 1.2-12.8 6.6-1.7 5.3 1.2 11.1 6.6 12.8 10.6 3.4 38.3 1.6 38.3 1.6z" class="st4"></path></g></svg>