<?xml version="1.0" encoding="UTF-8"?><svg xmlns="http://www.w3.org/2000/svg" xmlns:xlink="http://www.w3.org/1999/xlink" viewBox="0 0 167 167"><g fill="#7194DA" fill-rule="nonzero"><path d="M41.732 66.473a8.933 8.933 0 1 0 17.858.546 8.933 8.933 0 0 0-17.858-.546zm65.475 0a8.93 8.93 0 1 0 17.858 0 8.93 8.93 0 0 0-17.858 0z" class="st0"></path><path d="M83.398.065C37.382.065.065 37.382.065 83.398c0 46.017 37.317 83.334 83.333 83.334 46.017 0 83.334-37.317 83.334-83.334 0-46.016-37.317-83.333-83.334-83.333zm48.917 132.25a69.208 69.208 0 0 1-22 14.85 68.509 68.509 0 0 1-26.917 5.434 68.902 68.902 0 0 1-48.941-20.276 68.819 68.819 0 0 1-20.25-48.925 68.902 68.902 0 0 1 20.275-48.941 68.819 68.819 0 0 1 48.916-20.25 68.902 68.902 0 0 1 48.942 20.275 68.819 68.819 0 0 1 20.25 48.916c0 9.35-1.817 18.409-5.425 26.925a68.608 68.608 0 0 1-14.85 21.992z" class="st1"></path><path d="M111.673 87.307h-8.95a1.5 1.5 0 0 0-1.5 1.375c-.726 9.304-8.488 16.484-17.82 16.484-9.333 0-17.095-7.18-17.821-16.484a1.5 1.5 0 0 0-1.509-1.375h-8.95a1.484 1.484 0 0 0-1.483 1.558c.867 15.807 13.928 28.184 29.758 28.2 15.83-.016 28.892-12.393 29.759-28.2a1.483 1.483 0 0 0-1.484-1.558z" class="st2"></path></g></svg>