<?xml version="1.0" standalone="no"?>
<!DOCTYPE svg PUBLIC "-//W3C//DTD SVG 1.1//EN" "http://www.w3.org/Graphics/SVG/1.1/DTD/svg11.dtd">
<svg t="1670312089822" class="icon" viewBox="0 0 1024 1024" version="1.1" xmlns="http://www.w3.org/2000/svg" p-id="58723" width="16" height="16" xmlns:xlink="http://www.w3.org/1999/xlink">

	<path d="M568.553 954.182a86.342 86.342 0 0 1-41.426-10.473l-114.269-62.836a86.575 86.575 0 0 1-44.916-76.102V442.18a16.99 16.99 0 0 0-6.982-13.73L97.047 218.298l-3.956-3.49a85.876 85.876 0 0 1 62.836-144.99h711.215a86.575 86.575 0 0 1 63.767 144.99l-3.49 3.49-266.24 213.411a17.455 17.455 0 0 0-6.052 13.731v422.4a86.342 86.342 0 0 1-86.574 86.342z M920.67 512H731.695a34.444 34.444 0 0 1 0-69.818h188.974a34.444 34.444 0 0 1 0 69.818z m0 128.93H731.695a34.444 34.444 0 0 1 0-69.817h188.974a34.444 34.444 0 0 1 0 69.818z m0 128H731.695a34.444 34.444 0 0 1 0-69.817h188.974a34.444 34.444 0 0 1 0 69.818z" p-id="58724" data-spm-anchor-id="a313x.7781069.0.i0" class="">
	</path>

</svg>