<?xml version="1.0" encoding="UTF-8"?>
<svg width="19px" height="14px" viewBox="0 0 19 14" version="1.1" xmlns="http://www.w3.org/2000/svg" xmlns:xlink="http://www.w3.org/1999/xlink">
    <!-- Generator: Sketch 63 (92445) - https://sketch.com -->
    <title>233键盘-线性</title>
    <desc>Created with Sketch.</desc>
    <g id="页面-1" stroke="none" stroke-width="1" fill="none" fill-rule="evenodd">
        <g id="新建报告-默认看板-展开" transform="translate(-728.000000, -19.000000)" fill-rule="nonzero">
            <g id="233键盘-线性" transform="translate(727.000000, 18.000000)">
                <rect id="矩形" fill="#000000" opacity="0" x="0" y="0" width="20.352" height="15"></rect>
                <path d="M18.444,1.816 L1.908,1.816 C1.5582,1.816 1.272,2.1022 1.272,2.452 L1.272,13.9 C1.272,14.2498 1.5582,14.536 1.908,14.536 L18.444,14.536 C18.7938,14.536 19.08,14.2498 19.08,13.9 L19.08,2.452 C19.08,2.1022 18.7938,1.816 18.444,1.816 Z M17.808,13.264 L2.544,13.264 L2.544,3.088 L17.808,3.088 L17.808,13.264 Z M6.36,5.632 L3.816,5.632 L3.816,4.36 L6.36,4.36 L6.36,5.632 Z M15.264,9.448 L15.264,6.904 L16.536,6.904 L16.536,10.72 L12.72,10.72 L12.72,9.448 L15.264,9.448 Z M11.448,10.72 L3.816,10.72 L3.816,9.448 L11.448,9.448 L11.448,10.72 Z M8.904,5.632 L7.632,5.632 L7.632,4.36 L8.904,4.36 L8.904,5.632 Z M11.448,5.632 L10.176,5.632 L10.176,4.36 L11.448,4.36 L11.448,5.632 Z M13.992,5.632 L12.72,5.632 L12.72,4.36 L13.992,4.36 L13.992,5.632 Z M16.536,5.632 L15.264,5.632 L15.264,4.36 L16.536,4.36 L16.536,5.632 Z M5.088,8.176 L3.816,8.176 L3.816,6.904 L5.088,6.904 L5.088,8.176 Z M6.36,6.904 L7.632,6.904 L7.632,8.176 L6.36,8.176 L6.36,6.904 Z M8.904,6.904 L10.176,6.904 L10.176,8.176 L8.904,8.176 L8.904,6.904 Z M11.448,6.904 L12.72,6.904 L12.72,8.176 L11.448,8.176 L11.448,6.904 Z" id="形状" fill="#E7E7E7"></path>
            </g>
        </g>
    </g>
</svg>