<?xml version="1.0" encoding="UTF-8"?>
<svg viewBox="0 0 256 256" version="1.1" xmlns="http://www.w3.org/2000/svg" xmlns:xlink="http://www.w3.org/1999/xlink">
	<g fill="#262626" fill-rule="nonzero"><path d="M135.012 43.64c1.121-5.408 6.414-8.883 11.822-7.762 5.316 1.102 8.765 6.235 7.815 11.546l-.053.275-33.998 164.017c-1.121 5.408-6.414 8.883-11.822 7.762-5.316-1.102-8.765-6.235-7.815-11.547l.053-.275L135.012 43.64Z"></path><path d="M186 29.25c5.523 0 10 4.477 10 10 0 5.43-4.327 9.848-9.72 9.996l-.28.004h-80c-5.523 0-10-4.477-10-10 0-5.43 4.327-9.848 9.72-9.996l.28-.004h80ZM150 226.75c5.523 0 10-4.477 10-10 0-5.43-4.327-9.848-9.72-9.996l-.28-.004H70c-5.523 0-10 4.477-10 10 0 5.43 4.327 9.848 9.72 9.996l.28.004h80Z"></path></g>
</svg>