<svg width="16" height="16" viewBox="0 0 16 16" fill="none" xmlns="http://www.w3.org/2000/svg">
<g>
<path d="M9.5041 11.2321H7.6881C7.3601 11.2321 7.0881 10.9601 7.0881 10.6321C7.0881 10.3041 7.3601 10.0321 7.6881 10.0321H9.5041C9.5841 10.0321 9.6561 9.96808 9.6561 9.88008V2.43208C9.6561 2.35208 9.5921 2.28008 9.5041 2.28008H2.0561C1.9761 2.28008 1.9041 2.34408 1.9041 2.43208V9.88808C1.9041 9.96808 1.9681 10.0401 2.0561 10.0401H3.8721C4.2001 10.0401 4.4721 10.3121 4.4721 10.6401C4.4721 10.9681 4.2001 11.2401 3.8721 11.2401H2.0561C1.3121 11.2401 0.704102 10.6321 0.704102 9.88808V2.43208C0.704102 1.68808 1.3121 1.08008 2.0561 1.08008H9.5121C10.2561 1.08008 10.8641 1.68808 10.8641 2.43208V9.88808C10.8561 10.6241 10.2481 11.2321 9.5041 11.2321Z" fill="#B1B2B2"/>
<path d="M13.9758 14.8322H6.52778C5.78378 14.8322 5.17578 14.2242 5.17578 13.4802V6.03218C5.17578 5.28818 5.78378 4.68018 6.52778 4.68018H8.34378C8.67178 4.68018 8.94378 4.95218 8.94378 5.28018C8.94378 5.60818 8.67178 5.88018 8.34378 5.88018H6.52778C6.44778 5.88018 6.37578 5.94418 6.37578 6.03218V13.4882C6.37578 13.5682 6.43978 13.6402 6.52778 13.6402H13.9838C14.0638 13.6402 14.1358 13.5762 14.1358 13.4882V6.03218C14.1358 5.95218 14.0718 5.88018 13.9838 5.88018H12.1598C11.8318 5.88018 11.5598 5.60818 11.5598 5.28018C11.5598 4.95218 11.8318 4.68018 12.1598 4.68018H13.9758C14.7198 4.68018 15.3278 5.28818 15.3278 6.03218V13.4882C15.3278 14.2322 14.7198 14.8322 13.9758 14.8322Z" fill="#B1B2B2"/>
</g>
</svg>
