<svg width="24" height="24" viewBox="0 0 24 24" fill="none" xmlns="http://www.w3.org/2000/svg">
<g id="&#230;&#142;&#146;&#232;&#161;&#140;">
<path id="Vector" d="M18.3968 14.2095C19.2031 16.1314 19.9794 18.0657 20.7256 20.0117C20.5612 20.1666 20.521 20.2564 20.4399 20.2879C20.4013 20.3024 20.3585 20.3011 20.3209 20.2842L16.6597 18.6479L15.0387 21.5626C15.0044 21.6242 14.9528 21.6747 14.8904 21.7077C14.8279 21.7407 14.7573 21.7549 14.6869 21.7485C14.6166 21.7422 14.5496 21.7156 14.494 21.6719C14.4385 21.6283 14.3968 21.5695 14.374 21.5027L12.9086 17.1884C15.2608 17.336 17.0892 16.3432 18.3968 14.2095ZM5.55924 14.1627C6.83028 16.3352 8.65722 17.3433 11.0401 17.1884L9.57471 21.5027C9.55191 21.5695 9.51022 21.6283 9.45468 21.6719C9.39914 21.7156 9.33214 21.7422 9.2618 21.7485C9.19145 21.7549 9.12078 21.7407 9.05833 21.7077C8.99589 21.6747 8.94435 21.6242 8.90997 21.5626L7.28829 18.6479L3.63368 20.282C3.59392 20.2997 3.54876 20.3011 3.50804 20.2857C3.42257 20.2535 3.37947 20.1586 3.22461 20.0022C3.86305 18.3097 4.64102 16.363 5.55924 14.1627ZM11.8319 2.25C15.599 2.25 18.6539 5.34945 18.6539 9.17207C18.6539 12.9954 15.599 16.0941 11.8312 16.0941C8.06407 16.0941 5.00991 12.9954 5.00991 9.17207C5.00991 5.34945 8.06407 2.25 11.8319 2.25Z" fill="url(#paint0_linear_311_484)"/>
<path id="3" d="M14.3468 10.5869C14.3468 10.9579 14.2838 11.2834 14.1578 11.5634C14.0318 11.8434 13.8603 12.0779 13.6433 12.2669C13.4263 12.4489 13.1743 12.5854 12.8873 12.6764C12.6003 12.7674 12.2958 12.8129 11.9738 12.8129C11.6658 12.8129 11.3683 12.7709 11.0813 12.6869C10.8013 12.6029 10.5493 12.4734 10.3253 12.2984C10.1083 12.1164 9.93333 11.8889 9.80033 11.6159C9.66733 11.3359 9.59733 10.9999 9.59033 10.6079H10.9553C10.9623 10.7759 10.9938 10.9229 11.0498 11.0489C11.1058 11.1679 11.1793 11.2694 11.2703 11.3534C11.3613 11.4304 11.4663 11.4899 11.5853 11.5319C11.7113 11.5669 11.8408 11.5844 11.9738 11.5844C12.2678 11.5844 12.5093 11.4969 12.6983 11.3219C12.8873 11.1399 12.9818 10.8809 12.9818 10.5449C12.9818 10.2299 12.8908 9.98144 12.7088 9.79944C12.5268 9.61044 12.2678 9.51594 11.9318 9.51594H11.7323V8.32944H11.9318C12.2678 8.32944 12.5093 8.24194 12.6563 8.06694C12.8033 7.88494 12.8768 7.66094 12.8768 7.39494C12.8768 7.07994 12.7858 6.84194 12.6038 6.68094C12.4218 6.51994 12.2083 6.43944 11.9633 6.43944C11.7043 6.43944 11.4873 6.51994 11.3123 6.68094C11.1443 6.83494 11.0533 7.05544 11.0393 7.34244H9.67433C9.68133 7.00644 9.74433 6.70894 9.86333 6.44994C9.98933 6.18394 10.1538 5.95994 10.3568 5.77794C10.5598 5.59594 10.7978 5.45594 11.0708 5.35794C11.3508 5.25994 11.6483 5.21094 11.9633 5.21094C12.2923 5.21094 12.5968 5.26344 12.8768 5.36844C13.1568 5.47344 13.3983 5.62044 13.6013 5.80944C13.8043 5.99844 13.9618 6.22594 14.0738 6.49194C14.1858 6.75094 14.2418 7.03794 14.2418 7.35294C14.2418 7.75894 14.1578 8.08444 13.9898 8.32944C13.8288 8.56744 13.6258 8.75294 13.3808 8.88594C13.6468 9.02594 13.8743 9.23244 14.0633 9.50544C14.2523 9.77144 14.3468 10.1319 14.3468 10.5869Z" fill="#3D2706"/>
</g>
<defs>
<linearGradient id="paint0_linear_311_484" x1="11.9751" y1="2.25" x2="11.9751" y2="21.75" gradientUnits="userSpaceOnUse">
<stop stop-color="#E3B063"/>
<stop offset="1" stop-color="#725325"/>
</linearGradient>
</defs>
</svg>
