<svg width="192" height="24" viewBox="0 0 192 24" fill="none" xmlns="http://www.w3.org/2000/svg">
<g id="&#231;&#188;&#150;&#231;&#187;&#132; 18" clip-path="url(#clip0_311_242)">
<g id="&#230;&#142;&#146;&#232;&#161;&#140;">
<path id="Vector" d="M19.3333 20.25C19.3333 20.25 13.925 17.1 13.3292 16.785C12.6417 16.425 12.4125 16.2 12 16.2C11.5417 16.2 11.3583 16.515 10.625 16.92C10.075 17.235 4.66667 20.25 4.66667 20.25C4.1625 20.25 3.75 19.845 3.75 19.35V5.1C3.75 4.335 4.34583 3.75 5.125 3.75H18.875C19.6542 3.75 20.25 4.335 20.25 5.1V19.35C20.25 19.845 19.8375 20.25 19.3333 20.25Z" fill="url(#paint0_linear_311_242)"/>
<path id="1" d="M13.1185 14.226V6.75H11.7535L10.231 8.073V9.543L11.7535 8.22V14.226H13.1185Z" fill="#530000"/>
</g>
<g id="&#230;&#142;&#146;&#232;&#161;&#140;_2">
<path id="Vector_2" d="M47.3333 20.25C47.3333 20.25 41.925 17.1 41.3292 16.785C40.6417 16.425 40.4125 16.2 40 16.2C39.5417 16.2 39.3583 16.515 38.625 16.92C38.075 17.235 32.6667 20.25 32.6667 20.25C32.1625 20.25 31.75 19.845 31.75 19.35V5.1C31.75 4.335 32.3458 3.75 33.125 3.75H46.875C47.6542 3.75 48.25 4.335 48.25 5.1V19.35C48.25 19.845 47.8375 20.25 47.3333 20.25Z" fill="url(#paint1_linear_311_242)"/>
<path id="2" d="M42.3155 14.289H37.769V13.0605L40.562 9.816C40.702 9.655 40.8 9.508 40.856 9.375C40.919 9.242 40.9505 9.088 40.9505 8.913C40.9505 8.633 40.8735 8.409 40.7195 8.241C40.5655 8.066 40.3415 7.9785 40.0475 7.9785C39.9355 7.9785 39.8235 7.996 39.7115 8.031C39.6065 8.059 39.5085 8.1115 39.4175 8.1885C39.3335 8.2585 39.2635 8.3565 39.2075 8.4825C39.1585 8.6015 39.134 8.752 39.134 8.934H37.769C37.769 8.591 37.825 8.2865 37.937 8.0205C38.056 7.7475 38.217 7.5165 38.42 7.3275C38.63 7.1385 38.8715 6.995 39.1445 6.897C39.4245 6.799 39.7255 6.75 40.0475 6.75C40.3765 6.75 40.681 6.8025 40.961 6.9075C41.241 7.0055 41.479 7.149 41.675 7.338C41.878 7.52 42.0355 7.7475 42.1475 8.0205C42.2595 8.2865 42.3155 8.5875 42.3155 8.9235C42.3155 9.1055 42.298 9.27 42.263 9.417C42.228 9.557 42.1755 9.6935 42.1055 9.8265C42.0425 9.9595 41.9585 10.0925 41.8535 10.2255C41.7555 10.3515 41.6435 10.488 41.5175 10.635L39.428 13.0605H42.3155V14.289Z" fill="#653D00"/>
</g>
<g id="&#230;&#142;&#146;&#232;&#161;&#140;_3">
<path id="Vector_3" d="M75.3333 20.25C75.3333 20.25 69.925 17.1 69.3292 16.785C68.6417 16.425 68.4125 16.2 68 16.2C67.5417 16.2 67.3583 16.515 66.625 16.92C66.075 17.235 60.6667 20.25 60.6667 20.25C60.1625 20.25 59.75 19.845 59.75 19.35V5.1C59.75 4.335 60.3458 3.75 61.125 3.75H74.875C75.6542 3.75 76.25 4.335 76.25 5.1V19.35C76.25 19.845 75.8375 20.25 75.3333 20.25Z" fill="url(#paint2_linear_311_242)"/>
<path id="3" d="M70.3468 12.126C70.3468 12.497 70.2838 12.8225 70.1578 13.1025C70.0318 13.3825 69.8603 13.617 69.6433 13.806C69.4263 13.988 69.1743 14.1245 68.8873 14.2155C68.6003 14.3065 68.2958 14.352 67.9738 14.352C67.6658 14.352 67.3683 14.31 67.0813 14.226C66.8013 14.142 66.5493 14.0125 66.3253 13.8375C66.1083 13.6555 65.9333 13.428 65.8003 13.155C65.6673 12.875 65.5973 12.539 65.5903 12.147H66.9553C66.9623 12.315 66.9938 12.462 67.0498 12.588C67.1058 12.707 67.1793 12.8085 67.2703 12.8925C67.3613 12.9695 67.4663 13.029 67.5853 13.071C67.7113 13.106 67.8408 13.1235 67.9738 13.1235C68.2678 13.1235 68.5093 13.036 68.6983 12.861C68.8873 12.679 68.9818 12.42 68.9818 12.084C68.9818 11.769 68.8908 11.5205 68.7088 11.3385C68.5268 11.1495 68.2678 11.055 67.9318 11.055H67.7323V9.8685H67.9318C68.2678 9.8685 68.5093 9.781 68.6563 9.606C68.8033 9.424 68.8768 9.2 68.8768 8.934C68.8768 8.619 68.7858 8.381 68.6038 8.22C68.4218 8.059 68.2083 7.9785 67.9633 7.9785C67.7043 7.9785 67.4873 8.059 67.3123 8.22C67.1443 8.374 67.0533 8.5945 67.0393 8.8815H65.6743C65.6813 8.5455 65.7443 8.248 65.8633 7.989C65.9893 7.723 66.1538 7.499 66.3568 7.317C66.5598 7.135 66.7978 6.995 67.0708 6.897C67.3508 6.799 67.6483 6.75 67.9633 6.75C68.2923 6.75 68.5968 6.8025 68.8768 6.9075C69.1568 7.0125 69.3983 7.1595 69.6013 7.3485C69.8043 7.5375 69.9618 7.765 70.0738 8.031C70.1858 8.29 70.2418 8.577 70.2418 8.892C70.2418 9.298 70.1578 9.6235 69.9898 9.8685C69.8288 10.1065 69.6258 10.292 69.3808 10.425C69.6468 10.565 69.8743 10.7715 70.0633 11.0445C70.2523 11.3105 70.3468 11.671 70.3468 12.126Z" fill="#3D2706"/>
</g>
<g id="Frame 1">
<path id="4" d="M99.3672 15.586H98.4572V17H96.7072V15.586H92.6332V13.864L96.0492 7.032H98.0372L94.6212 13.864H96.7072V12.002H98.4572V13.864H99.3672V15.586Z" fill="#868D99"/>
</g>
<g id="Frame 2">
<path id="..." d="M121.05 13H118.964V10.928H121.05V13ZM125.042 13H122.956V10.928H125.042V13ZM129.034 13H126.948V10.928H129.034V13Z" fill="#868D99"/>
</g>
<g id="Frame 3">
<path id="9" d="M155.129 10.028C155.129 10.4853 155.045 10.9287 154.877 11.358C154.719 11.7873 154.527 12.2307 154.303 12.688L152.189 17H150.215L152.287 12.884C152.166 12.9307 152.04 12.9633 151.909 12.982C151.788 13.0007 151.667 13.01 151.545 13.01C151.209 13.01 150.883 12.9447 150.565 12.814C150.248 12.674 149.968 12.478 149.725 12.226C149.483 11.974 149.287 11.666 149.137 11.302C148.988 10.938 148.913 10.5227 148.913 10.056C148.913 9.57067 148.993 9.13667 149.151 8.754C149.31 8.362 149.529 8.03533 149.809 7.774C150.089 7.50333 150.416 7.298 150.789 7.158C151.172 7.018 151.583 6.948 152.021 6.948C152.46 6.948 152.866 7.018 153.239 7.158C153.622 7.28867 153.953 7.48467 154.233 7.746C154.513 8.00733 154.733 8.32933 154.891 8.712C155.05 9.09467 155.129 9.53333 155.129 10.028ZM153.309 10.042C153.309 9.57533 153.188 9.216 152.945 8.964C152.703 8.712 152.395 8.586 152.021 8.586C151.648 8.586 151.34 8.712 151.097 8.964C150.855 9.216 150.733 9.57533 150.733 10.042C150.733 10.49 150.85 10.8447 151.083 11.106C151.317 11.3673 151.629 11.498 152.021 11.498C152.395 11.498 152.703 11.372 152.945 11.12C153.188 10.868 153.309 10.5087 153.309 10.042Z" fill="#868D99"/>
</g>
<g id="Frame 4">
<path id="10" d="M177.69 16.9478H175.87V8.93975L173.84 10.7038V8.74375L175.87 6.97975H177.69V16.9478ZM186.832 14.0638C186.832 14.5398 186.748 14.9644 186.58 15.3378C186.421 15.7018 186.202 16.0098 185.922 16.2618C185.651 16.5138 185.329 16.7051 184.956 16.8358C184.592 16.9664 184.209 17.0318 183.808 17.0318C183.397 17.0318 183.01 16.9664 182.646 16.8358C182.282 16.7051 181.96 16.5138 181.68 16.2618C181.4 16.0098 181.176 15.7018 181.008 15.3378C180.849 14.9644 180.77 14.5398 180.77 14.0638V9.86375C180.77 9.38775 180.849 8.96775 181.008 8.60375C181.176 8.23042 181.4 7.91775 181.68 7.66575C181.96 7.41375 182.282 7.22242 182.646 7.09175C183.01 6.96109 183.397 6.89575 183.808 6.89575C184.209 6.89575 184.592 6.96109 184.956 7.09175C185.329 7.22242 185.651 7.41375 185.922 7.66575C186.202 7.91775 186.421 8.23042 186.58 8.60375C186.748 8.96775 186.832 9.38775 186.832 9.86375V14.0638ZM185.012 14.0498V9.89175C185.012 9.47175 184.9 9.14042 184.676 8.89775C184.452 8.65509 184.163 8.53375 183.808 8.53375C183.453 8.53375 183.159 8.65509 182.926 8.89775C182.702 9.14042 182.59 9.47175 182.59 9.89175V14.0498C182.59 14.4698 182.702 14.8011 182.926 15.0438C183.159 15.2771 183.453 15.3938 183.808 15.3938C184.163 15.3938 184.452 15.2771 184.676 15.0438C184.9 14.8011 185.012 14.4698 185.012 14.0498Z" fill="#868D99"/>
</g>
</g>
<defs>
<linearGradient id="paint0_linear_311_242" x1="12.3587" y1="20.25" x2="12.3587" y2="3.75" gradientUnits="userSpaceOnUse">
<stop stop-color="#FF5A5A"/>
<stop offset="1" stop-color="#FF903E"/>
</linearGradient>
<linearGradient id="paint1_linear_311_242" x1="40.3587" y1="20.25" x2="40.3587" y2="3.75" gradientUnits="userSpaceOnUse">
<stop stop-color="#FF903E"/>
<stop offset="1" stop-color="#FFD338"/>
</linearGradient>
<linearGradient id="paint2_linear_311_242" x1="68" y1="3.75" x2="68" y2="20.25" gradientUnits="userSpaceOnUse">
<stop stop-color="#E3B063"/>
<stop offset="1" stop-color="#725325"/>
</linearGradient>
<clipPath id="clip0_311_242">
<rect width="192" height="24" fill="white"/>
</clipPath>
</defs>
</svg>
