<svg width="192" height="24" viewBox="0 0 192 24" fill="none" xmlns="http://www.w3.org/2000/svg">
<g id="&#231;&#188;&#150;&#231;&#187;&#132; 23" clip-path="url(#clip0_311_584)">
<g id="&#230;&#142;&#146;&#232;&#161;&#140;">
<path id="Vector" opacity="0.7" d="M5.25 14.8771C5.25 14.7108 5.32112 14.5513 5.4477 14.4337C5.57429 14.3161 5.74598 14.25 5.925 14.25H18.075C18.254 14.25 18.4257 14.3161 18.5523 14.4337C18.6789 14.5513 18.75 14.7108 18.75 14.8771V20.4959C18.75 20.7096 18.6912 20.9198 18.5791 21.1065C18.4671 21.2932 18.3056 21.4502 18.1099 21.5626C17.9141 21.675 17.6908 21.7391 17.4609 21.7487C17.2311 21.7584 17.0024 21.7133 16.7965 21.6177L13.2076 19.9503C12.8326 19.7761 12.4192 19.6854 12 19.6854C11.5808 19.6854 11.1674 19.7761 10.7924 19.9503L7.20345 21.6177C6.99758 21.7133 6.76883 21.7584 6.53892 21.7487C6.30901 21.739 6.08559 21.6749 5.88986 21.5625C5.69413 21.45 5.5326 21.2929 5.42061 21.1061C5.30862 20.9193 5.24989 20.709 5.25 20.4952V14.8771Z" fill="url(#paint0_linear_311_584)"/>
<g id="Vector_2">
<path d="M20.25 10.5C20.25 15.0561 16.5561 18.75 12 18.75C7.44394 18.75 3.75 15.0561 3.75 10.5C3.75 5.94394 7.44394 2.25 12 2.25C16.5561 2.25 20.25 5.94394 20.25 10.5Z" fill="url(#paint1_linear_311_584)"/>
<path d="M19.75 10.5C19.75 14.7799 16.2799 18.25 12 18.25C7.72008 18.25 4.25 14.7799 4.25 10.5C4.25 6.22008 7.72008 2.75 12 2.75C16.2799 2.75 19.75 6.22008 19.75 10.5Z" stroke="white" stroke-opacity="0.5"/>
</g>
<path id="1" d="M13.0121 14.176L13.8753 6.75H12.5103L10.835 8.06415L10.6653 9.52432L12.3406 8.21017L11.6471 14.176H13.0121Z" fill="#530000"/>
</g>
<g id="&#230;&#142;&#146;&#232;&#161;&#140;_2">
<path id="Vector_3" opacity="0.7" d="M33.25 14.8771C33.25 14.7108 33.3211 14.5513 33.4477 14.4337C33.5743 14.3161 33.746 14.25 33.925 14.25H46.075C46.254 14.25 46.4257 14.3161 46.5523 14.4337C46.6789 14.5513 46.75 14.7108 46.75 14.8771V20.4959C46.75 20.7096 46.6912 20.9198 46.5791 21.1065C46.4671 21.2932 46.3056 21.4502 46.1099 21.5626C45.9141 21.675 45.6908 21.7391 45.4609 21.7487C45.2311 21.7584 45.0024 21.7133 44.7965 21.6177L41.2076 19.9503C40.8326 19.7761 40.4192 19.6854 40 19.6854C39.5808 19.6854 39.1674 19.7761 38.7924 19.9503L35.2035 21.6177C34.9976 21.7133 34.7688 21.7584 34.5389 21.7487C34.309 21.739 34.0856 21.6749 33.8899 21.5625C33.6941 21.45 33.5326 21.2929 33.4206 21.1061C33.3086 20.9193 33.2499 20.709 33.25 20.4952V14.8771Z" fill="url(#paint2_linear_311_584)"/>
<g id="Vector_4">
<path d="M48.25 10.5C48.25 15.0561 44.5561 18.75 40 18.75C35.4439 18.75 31.75 15.0561 31.75 10.5C31.75 5.94394 35.4439 2.25 40 2.25C44.5561 2.25 48.25 5.94394 48.25 10.5Z" fill="url(#paint3_linear_311_584)"/>
<path d="M47.75 10.5C47.75 14.7799 44.2799 18.25 40 18.25C35.7201 18.25 32.25 14.7799 32.25 10.5C32.25 6.22008 35.7201 2.75 40 2.75C44.2799 2.75 47.75 6.22008 47.75 10.5Z" stroke="white" stroke-opacity="0.5"/>
</g>
<path id="2" d="M41.8689 14.2455H37.3224L37.4542 13.0241L40.5953 9.7983C40.7526 9.63823 40.8664 9.49208 40.9367 9.35984C41.0139 9.22761 41.062 9.0745 41.0807 8.90051C41.1108 8.62213 41.0578 8.39942 40.9219 8.23239C40.7866 8.0584 40.572 7.97141 40.278 7.97141C40.166 7.97141 40.0521 7.98881 39.9364 8.0236C39.8284 8.05144 39.7248 8.10364 39.6255 8.18019C39.534 8.24979 39.4535 8.34722 39.3839 8.4725C39.3222 8.59081 39.2815 8.74044 39.262 8.92139H37.897C37.9338 8.58037 38.0225 8.27763 38.163 8.01316C38.3113 7.74174 38.4971 7.51207 38.7204 7.32417C38.9507 7.13626 39.2076 6.99359 39.4911 6.89615C39.7816 6.79872 40.0878 6.75 40.4098 6.75C40.7388 6.75 41.0377 6.8022 41.3064 6.90659C41.5759 7.00403 41.7985 7.1467 41.9743 7.3346C42.1577 7.51555 42.2908 7.74174 42.3735 8.01316C42.457 8.27763 42.4807 8.57689 42.4446 8.91095C42.4251 9.0919 42.3899 9.25545 42.3392 9.4016C42.2891 9.54079 42.222 9.6765 42.1377 9.80874C42.0605 9.94097 41.9622 10.0732 41.8429 10.2054C41.7314 10.3307 41.6047 10.4664 41.463 10.6126L39.1132 13.0241H42.0007L41.8689 14.2455Z" fill="#653D00"/>
</g>
<g id="&#230;&#142;&#146;&#232;&#161;&#140;_3">
<path id="Vector_5" opacity="0.7" d="M61.25 14.8771C61.25 14.7108 61.3211 14.5513 61.4477 14.4337C61.5743 14.3161 61.746 14.25 61.925 14.25H74.075C74.254 14.25 74.4257 14.3161 74.5523 14.4337C74.6789 14.5513 74.75 14.7108 74.75 14.8771V20.4959C74.75 20.7096 74.6912 20.9198 74.5791 21.1065C74.4671 21.2932 74.3056 21.4502 74.1099 21.5626C73.9141 21.675 73.6908 21.7391 73.4609 21.7487C73.2311 21.7584 73.0024 21.7133 72.7965 21.6177L69.2076 19.9503C68.8326 19.7761 68.4192 19.6854 68 19.6854C67.5808 19.6854 67.1674 19.7761 66.7924 19.9503L63.2035 21.6177C62.9976 21.7133 62.7688 21.7584 62.5389 21.7487C62.309 21.739 62.0856 21.6749 61.8899 21.5625C61.6941 21.45 61.5326 21.2929 61.4206 21.1061C61.3086 20.9193 61.2499 20.709 61.25 20.4952V14.8771Z" fill="url(#paint4_linear_311_584)"/>
<g id="Vector_6">
<path d="M76.25 10.5C76.25 15.0561 72.5561 18.75 68 18.75C63.4439 18.75 59.75 15.0561 59.75 10.5C59.75 5.94394 63.4439 2.25 68 2.25C72.5561 2.25 76.25 5.94394 76.25 10.5Z" fill="url(#paint5_linear_311_584)"/>
<path d="M75.75 10.5C75.75 14.7799 72.2799 18.25 68 18.25C63.7201 18.25 60.25 14.7799 60.25 10.5C60.25 6.22008 63.7201 2.75 68 2.75C72.2799 2.75 75.75 6.22008 75.75 10.5Z" stroke="white" stroke-opacity="0.5"/>
</g>
<path id="3" d="M70.1963 12.09C70.1535 12.4586 70.0529 12.7819 69.8946 13.06C69.7363 13.3381 69.5377 13.5711 69.2989 13.7588C69.0609 13.9396 68.7931 14.0752 68.4956 14.1656C68.1981 14.256 67.8883 14.3012 67.5663 14.3012C67.2583 14.3012 66.9657 14.2594 66.6884 14.176C66.4181 14.0926 66.181 13.9639 65.9772 13.7901C65.7813 13.6093 65.6325 13.3833 65.531 13.1122C65.4304 12.834 65.3992 12.5003 65.4374 12.1109H66.8024C66.79 12.2778 66.8046 12.4238 66.846 12.549C66.8883 12.6672 66.95 12.768 67.0314 12.8514C67.1135 12.9279 67.2116 12.987 67.3257 13.0287C67.4477 13.0635 67.5752 13.0809 67.7082 13.0809C68.0022 13.0809 68.2538 12.994 68.463 12.8201C68.673 12.6393 68.7974 12.3821 68.8362 12.0483C68.8726 11.7354 68.8103 11.4886 68.6493 11.3078C68.4891 11.1201 68.241 11.0262 67.905 11.0262H67.7055L67.8425 9.84764H68.042C68.378 9.84764 68.6296 9.76073 68.7968 9.5869C68.9648 9.40612 69.0642 9.18362 69.0949 8.91939C69.1313 8.6065 69.0677 8.37009 68.9043 8.21017C68.7409 8.05025 68.5367 7.97028 68.2917 7.97028C68.0327 7.97028 67.8064 8.05025 67.6128 8.21017C67.427 8.36314 67.3106 8.58216 67.2634 8.86725H65.8984C65.9442 8.53349 66.0416 8.23798 66.1905 7.98071C66.3472 7.71649 66.5376 7.49399 66.7616 7.31321C66.9856 7.13243 67.2398 6.99336 67.5241 6.89602C67.8154 6.79867 68.1185 6.75 68.4335 6.75C68.7625 6.75 69.061 6.80215 69.3289 6.90645C69.5967 7.01074 69.8213 7.15676 70.0024 7.3445C70.1836 7.53223 70.3149 7.75821 70.3961 8.02243C70.4782 8.2797 70.5011 8.56478 70.4647 8.87768C70.4179 9.28096 70.2963 9.60428 70.1 9.84764C69.9115 10.0841 69.6871 10.2683 69.4267 10.4004C69.6766 10.5395 69.8802 10.7446 70.0377 11.0158C70.196 11.28 70.2489 11.6381 70.1963 12.09Z" fill="#3D2706"/>
</g>
<g id="Frame 7">
<path id="4" d="M99.2006 15.4918L98.2907 15.4799L98.0236 16.8684L96.2737 16.8455L96.5408 15.457L92.4672 15.4037L92.7925 13.7127L97.499 7.04841L99.4868 7.07443L94.7804 13.7387L96.8662 13.766L97.218 11.9375L98.9678 11.9604L98.616 13.7889L99.5259 13.8008L99.2006 15.4918Z" fill="#868D99"/>
</g>
<g id="Frame 2">
<path id="..." d="M120.782 12.8238L118.697 12.7965L119.088 10.7618L121.174 10.7891L120.782 12.8238ZM124.774 12.8761L122.688 12.8488L123.08 10.8141L125.166 10.8414L124.774 12.8761ZM128.766 12.9283L126.68 12.901L127.072 10.8663L129.158 10.8936L128.766 12.9283Z" fill="#868D99"/>
</g>
<g id="Frame 3">
<path id="9" d="M156.179 10.0308C156.092 10.4799 155.925 10.9141 155.675 11.3335C155.436 11.753 155.161 12.1859 154.85 12.6321L151.922 16.8387L149.948 16.8129L152.797 12.7981C152.667 12.8424 152.535 12.8728 152.401 12.8894C152.276 12.9062 152.153 12.9137 152.032 12.9122C151.696 12.9078 151.381 12.8393 151.089 12.7069C150.798 12.5652 150.555 12.3691 150.36 12.1185C150.165 11.8678 150.027 11.5628 149.947 11.2034C149.866 10.844 149.87 10.4352 149.958 9.9769C150.05 9.50031 150.211 9.07516 150.442 8.70147C150.675 8.3186 150.956 8.00069 151.285 7.74773C151.616 7.4856 151.982 7.28824 152.381 7.15565C152.79 7.02318 153.214 6.95981 153.653 6.96556C154.091 6.9713 154.484 7.04535 154.831 7.18772C155.189 7.32104 155.483 7.51785 155.714 7.77814C155.945 8.03843 156.103 8.3575 156.189 8.73536C156.276 9.11321 156.272 9.54501 156.179 10.0308ZM154.356 10.0207C154.444 9.56243 154.391 9.20798 154.196 8.95735C154.001 8.70671 153.717 8.57895 153.343 8.57406C152.97 8.56917 152.638 8.68887 152.348 8.93316C152.058 9.17744 151.869 9.52872 151.78 9.98698C151.696 10.4269 151.745 10.7767 151.929 11.0364C152.113 11.2961 152.401 11.4285 152.793 11.4336C153.167 11.4385 153.498 11.3188 153.789 11.0745C154.079 10.8302 154.268 10.479 154.356 10.0207Z" fill="#868D99"/>
</g>
<g id="Frame 4">
<path id="10" d="M177.423 16.8061L175.603 16.7823L177.116 8.91853L174.753 10.6242L175.123 8.69948L177.486 6.99382L179.306 7.01765L177.423 16.8061ZM187.108 14.0937C187.019 14.5612 186.854 14.9771 186.616 15.3415C186.388 15.6969 186.111 15.9964 185.783 16.2402C185.465 16.4842 185.107 16.6678 184.709 16.7913C184.32 16.9148 183.925 16.974 183.524 16.9687C183.113 16.9633 182.738 16.8941 182.399 16.761C182.06 16.6279 181.774 16.4358 181.542 16.1847C181.309 15.9336 181.144 15.6282 181.044 15.2686C180.956 14.8999 180.957 14.4818 181.047 14.0144L181.84 9.89002C181.93 9.42259 182.089 9.01119 182.317 8.65583C182.555 8.29142 182.838 7.98731 183.166 7.74351C183.493 7.49972 183.851 7.31604 184.24 7.1925C184.629 7.06895 185.028 7.00986 185.439 7.01523C185.84 7.02049 186.211 7.08965 186.55 7.22273C186.898 7.35593 187.184 7.54804 187.407 7.79904C187.64 8.05017 187.8 8.36007 187.888 8.72876C187.987 9.08841 187.992 9.50194 187.902 9.96937L187.108 14.0937ZM185.291 14.0562L186.077 9.97304C186.156 9.56061 186.107 9.23377 185.929 8.99254C185.751 8.75132 185.484 8.62838 185.13 8.62374C184.775 8.6191 184.458 8.7344 184.179 8.96964C183.909 9.205 183.734 9.5289 183.655 9.94134L182.87 14.0245C182.79 14.4369 182.84 14.7637 183.018 15.005C183.207 15.2371 183.479 15.3556 183.833 15.3602C184.188 15.3648 184.499 15.2541 184.768 15.0279C185.037 14.7925 185.212 14.4686 185.291 14.0562Z" fill="#868D99"/>
</g>
</g>
<defs>
<linearGradient id="paint0_linear_311_584" x1="12.2935" y1="21.75" x2="12.2935" y2="14.25" gradientUnits="userSpaceOnUse">
<stop stop-color="#FF5A5A"/>
<stop offset="1" stop-color="#FF903E"/>
</linearGradient>
<linearGradient id="paint1_linear_311_584" x1="12.3587" y1="18.75" x2="12.3587" y2="2.25" gradientUnits="userSpaceOnUse">
<stop stop-color="#FF5A5A"/>
<stop offset="1" stop-color="#FF903E"/>
</linearGradient>
<linearGradient id="paint2_linear_311_584" x1="40.2935" y1="21.75" x2="40.2935" y2="14.25" gradientUnits="userSpaceOnUse">
<stop stop-color="#FF903E"/>
<stop offset="1" stop-color="#FFD338"/>
</linearGradient>
<linearGradient id="paint3_linear_311_584" x1="40.3587" y1="18.75" x2="40.3587" y2="2.25" gradientUnits="userSpaceOnUse">
<stop stop-color="#FF903E"/>
<stop offset="1" stop-color="#FFD338"/>
</linearGradient>
<linearGradient id="paint4_linear_311_584" x1="68" y1="14.25" x2="68" y2="21.75" gradientUnits="userSpaceOnUse">
<stop stop-color="#E3B063"/>
<stop offset="1" stop-color="#725325"/>
</linearGradient>
<linearGradient id="paint5_linear_311_584" x1="68" y1="2.25" x2="68" y2="18.75" gradientUnits="userSpaceOnUse">
<stop stop-color="#E3B063"/>
<stop offset="1" stop-color="#725325"/>
</linearGradient>
<clipPath id="clip0_311_584">
<rect width="192" height="24" fill="white"/>
</clipPath>
</defs>
</svg>
