<svg width="24" height="24" viewBox="0 0 24 24" fill="none" xmlns="http://www.w3.org/2000/svg">
<g id="&#230;&#142;&#146;&#232;&#161;&#140;">
<path id="Vector" d="M19.3333 20.25C19.3333 20.25 13.925 17.1 13.3292 16.785C12.6417 16.425 12.4125 16.2 12 16.2C11.5417 16.2 11.3583 16.515 10.625 16.92C10.075 17.235 4.66667 20.25 4.66667 20.25C4.1625 20.25 3.75 19.845 3.75 19.35V5.1C3.75 4.335 4.34583 3.75 5.125 3.75H18.875C19.6542 3.75 20.25 4.335 20.25 5.1V19.35C20.25 19.845 19.8375 20.25 19.3333 20.25Z" fill="url(#paint0_linear_311_280)"/>
<path id="1" d="M13.1185 14.226V6.75H11.7535L10.231 8.073V9.543L11.7535 8.22V14.226H13.1185Z" fill="#530000"/>
</g>
<defs>
<linearGradient id="paint0_linear_311_280" x1="12.3587" y1="20.25" x2="12.3587" y2="3.75" gradientUnits="userSpaceOnUse">
<stop stop-color="#FF5A5A"/>
<stop offset="1" stop-color="#FF903E"/>
</linearGradient>
</defs>
</svg>
