<svg width="192" height="24" viewBox="0 0 192 24" fill="none" xmlns="http://www.w3.org/2000/svg">
<g id="&#231;&#188;&#150;&#231;&#187;&#132; 27" clip-path="url(#clip0_311_840)">
<g id="&#230;&#142;&#146;&#232;&#161;&#140;">
<path id="Union" fill-rule="evenodd" clip-rule="evenodd" d="M18.558 13.669C17.5647 15.9969 15.3683 17.6883 12.7503 17.9623V19.8767H16.1258V21.0019H7.87417V19.8767H11.625V17.9916C8.8425 17.8473 6.48203 16.1071 5.43762 13.6687C3.70594 13.4891 2.34214 12.0689 2.25105 10.3122L2.24805 7.5014C2.24761 7.30408 2.28612 7.10862 2.36138 6.92622C2.43664 6.74382 2.54716 6.57807 2.68662 6.43847C2.82607 6.29888 2.99171 6.18819 3.17403 6.11275C3.35636 6.03731 3.55178 5.9986 3.7491 5.99885H4.8717H4.87362V4.50234C4.87362 3.67343 5.54463 2.99829 6.37204 2.99829H17.628C17.8252 2.99839 18.0204 3.03741 18.2024 3.11312C18.3844 3.18884 18.5497 3.29975 18.6887 3.43949C18.8278 3.57923 18.9378 3.74506 19.0126 3.92745C19.0874 4.10984 19.1255 4.30521 19.1246 4.50234L19.1229 5.99885H20.2494C20.4467 5.99865 20.6421 6.03739 20.8244 6.11286C21.0066 6.18832 21.1722 6.29902 21.3117 6.43861C21.4511 6.5782 21.5616 6.74393 21.6368 6.92631C21.712 7.10868 21.7505 7.30411 21.7501 7.5014L21.7471 10.3122C21.6559 12.0698 20.2912 13.4905 18.558 13.669ZM4.8717 7.12407H3.7491C3.69965 7.12382 3.65063 7.13339 3.6049 7.15221C3.55916 7.17103 3.51762 7.19874 3.48266 7.23373C3.44771 7.26872 3.42005 7.31029 3.40127 7.35604C3.38249 7.4018 3.37298 7.45082 3.37328 7.50027L3.37628 10.2796C3.40512 10.7337 3.56047 11.1706 3.82475 11.541C4.08902 11.9114 4.45168 12.2005 4.8717 12.3755V7.12407ZM20.6249 7.50027L20.6219 10.2796C20.593 10.7337 20.4377 11.1706 20.1734 11.541C19.9091 11.9114 19.5464 12.2005 19.1264 12.3755V7.12407H20.2494C20.2988 7.12387 20.3478 7.13347 20.3935 7.15232C20.4392 7.17116 20.4807 7.19888 20.5156 7.23386C20.5505 7.26884 20.5781 7.3104 20.5969 7.35613C20.6157 7.40186 20.6252 7.45085 20.6249 7.50027Z" fill="url(#paint0_linear_311_840)"/>
<path id="1" d="M13.3875 14.226V6.75H12.0225L10.5 8.073V9.543L12.0225 8.22V14.226H13.3875Z" fill="#8A4200"/>
</g>
<g id="&#230;&#142;&#146;&#232;&#161;&#140;_2">
<path id="Union_2" fill-rule="evenodd" clip-rule="evenodd" d="M46.558 13.669C45.5647 15.9969 43.3683 17.6883 40.7503 17.9623V19.8767H44.1258V21.0019H35.8742V19.8767H39.625V17.9916C36.8425 17.8473 34.482 16.1071 33.4376 13.6687C31.7059 13.4891 30.3421 12.0689 30.2511 10.3122L30.2481 7.5014C30.2476 7.30408 30.2861 7.10862 30.3614 6.92622C30.4366 6.74382 30.5472 6.57807 30.6866 6.43847C30.8261 6.29888 30.9917 6.18819 31.174 6.11275C31.3564 6.03731 31.5518 5.9986 31.7491 5.99885H32.8717H32.8736V4.50234C32.8736 3.67343 33.5446 2.99829 34.372 2.99829H45.628C45.8252 2.99839 46.0204 3.03741 46.2024 3.11312C46.3844 3.18884 46.5497 3.29975 46.6887 3.43949C46.8278 3.57923 46.9378 3.74506 47.0126 3.92745C47.0874 4.10984 47.1255 4.30521 47.1246 4.50234L47.1229 5.99885H48.2494C48.4467 5.99865 48.6421 6.03739 48.8244 6.11286C49.0066 6.18832 49.1722 6.29902 49.3117 6.43861C49.4511 6.5782 49.5616 6.74393 49.6368 6.92631C49.712 7.10868 49.7505 7.30411 49.7501 7.5014L49.7471 10.3122C49.6559 12.0698 48.2912 13.4905 46.558 13.669ZM32.8717 7.12407H31.7491C31.6996 7.12382 31.6506 7.13339 31.6049 7.15221C31.5592 7.17103 31.5176 7.19874 31.4827 7.23373C31.4477 7.26872 31.42 7.31029 31.4013 7.35604C31.3825 7.4018 31.373 7.45082 31.3733 7.50027L31.3763 10.2796C31.4051 10.7337 31.5605 11.1706 31.8247 11.541C32.089 11.9114 32.4517 12.2005 32.8717 12.3755V7.12407ZM48.6249 7.50027L48.6219 10.2796C48.593 10.7337 48.4377 11.1706 48.1734 11.541C47.9091 11.9114 47.5464 12.2005 47.1264 12.3755V7.12407H48.2494C48.2988 7.12387 48.3478 7.13347 48.3935 7.15232C48.4392 7.17116 48.4807 7.19888 48.5156 7.23386C48.5505 7.26884 48.5781 7.3104 48.5969 7.35613C48.6157 7.40186 48.6252 7.45085 48.6249 7.50027Z" fill="url(#paint1_linear_311_840)"/>
<path id="2" d="M42.3155 13.4999H37.769V12.2714L40.562 9.02694C40.702 8.86594 40.8 8.71894 40.856 8.58594C40.919 8.45294 40.9505 8.29894 40.9505 8.12394C40.9505 7.84394 40.8735 7.61994 40.7195 7.45194C40.5655 7.27694 40.3415 7.18944 40.0475 7.18944C39.9355 7.18944 39.8235 7.20694 39.7115 7.24194C39.6065 7.26994 39.5085 7.32244 39.4175 7.39944C39.3335 7.46944 39.2635 7.56744 39.2075 7.69344C39.1585 7.81244 39.134 7.96294 39.134 8.14494H37.769C37.769 7.80194 37.825 7.49744 37.937 7.23144C38.056 6.95844 38.217 6.72744 38.42 6.53844C38.63 6.34944 38.8715 6.20594 39.1445 6.10794C39.4245 6.00994 39.7255 5.96094 40.0475 5.96094C40.3765 5.96094 40.681 6.01344 40.961 6.11844C41.241 6.21644 41.479 6.35994 41.675 6.54894C41.878 6.73094 42.0355 6.95844 42.1475 7.23144C42.2595 7.49744 42.3155 7.79844 42.3155 8.13444C42.3155 8.31644 42.298 8.48094 42.263 8.62794C42.228 8.76794 42.1755 8.90444 42.1055 9.03744C42.0425 9.17044 41.9585 9.30344 41.8535 9.43644C41.7555 9.56244 41.6435 9.69894 41.5175 9.84594L39.428 12.2714H42.3155V13.4999Z" fill="#494949"/>
</g>
<g id="&#230;&#142;&#146;&#232;&#161;&#140;_3">
<path id="Union_3" fill-rule="evenodd" clip-rule="evenodd" d="M74.558 13.669C73.5647 15.9969 71.3683 17.6883 68.7503 17.9623V19.8767H72.1258V21.0019H63.8742V19.8767H67.625V17.9916C64.8425 17.8473 62.482 16.1071 61.4376 13.6687C59.7059 13.4891 58.3421 12.0689 58.2511 10.3122L58.2481 7.5014C58.2476 7.30408 58.2861 7.10862 58.3614 6.92622C58.4366 6.74382 58.5472 6.57807 58.6866 6.43847C58.8261 6.29888 58.9917 6.18819 59.174 6.11275C59.3564 6.03731 59.5518 5.9986 59.7491 5.99885H60.8717H60.8736V4.50234C60.8736 3.67343 61.5446 2.99829 62.372 2.99829H73.628C73.8252 2.99839 74.0204 3.03741 74.2024 3.11312C74.3844 3.18884 74.5497 3.29975 74.6887 3.43949C74.8278 3.57923 74.9378 3.74506 75.0126 3.92745C75.0874 4.10984 75.1255 4.30521 75.1246 4.50234L75.1229 5.99885H76.2494C76.4467 5.99865 76.6421 6.03739 76.8244 6.11286C77.0066 6.18832 77.1722 6.29902 77.3117 6.43861C77.4511 6.5782 77.5616 6.74393 77.6368 6.92631C77.712 7.10868 77.7505 7.30411 77.7501 7.5014L77.7471 10.3122C77.6559 12.0698 76.2912 13.4905 74.558 13.669ZM60.8717 7.12407H59.7491C59.6996 7.12382 59.6506 7.13339 59.6049 7.15221C59.5592 7.17103 59.5176 7.19874 59.4827 7.23373C59.4477 7.26872 59.42 7.31029 59.4013 7.35604C59.3825 7.4018 59.373 7.45082 59.3733 7.50027L59.3763 10.2796C59.4051 10.7337 59.5605 11.1706 59.8247 11.541C60.089 11.9114 60.4517 12.2005 60.8717 12.3755V7.12407ZM76.6249 7.50027L76.6219 10.2796C76.593 10.7337 76.4377 11.1706 76.1734 11.541C75.9091 11.9114 75.5464 12.2005 75.1264 12.3755V7.12407H76.2494C76.2988 7.12387 76.3478 7.13347 76.3935 7.15232C76.4392 7.17116 76.4807 7.19888 76.5156 7.23386C76.5505 7.26884 76.5781 7.3104 76.5969 7.35613C76.6157 7.40186 76.6252 7.45085 76.6249 7.50027Z" fill="url(#paint2_linear_311_840)"/>
<path id="3" d="M70.3468 11.3369C70.3468 11.7079 70.2838 12.0334 70.1578 12.3134C70.0318 12.5934 69.8603 12.8279 69.6433 13.0169C69.4263 13.1989 69.1743 13.3354 68.8873 13.4264C68.6003 13.5174 68.2958 13.5629 67.9738 13.5629C67.6658 13.5629 67.3683 13.5209 67.0813 13.4369C66.8013 13.3529 66.5493 13.2234 66.3253 13.0484C66.1083 12.8664 65.9333 12.6389 65.8003 12.3659C65.6673 12.0859 65.5973 11.7499 65.5903 11.3579H66.9553C66.9623 11.5259 66.9938 11.6729 67.0498 11.7989C67.1058 11.9179 67.1793 12.0194 67.2703 12.1034C67.3613 12.1804 67.4663 12.2399 67.5853 12.2819C67.7113 12.3169 67.8408 12.3344 67.9738 12.3344C68.2678 12.3344 68.5093 12.2469 68.6983 12.0719C68.8873 11.8899 68.9818 11.6309 68.9818 11.2949C68.9818 10.9799 68.8908 10.7314 68.7088 10.5494C68.5268 10.3604 68.2678 10.2659 67.9318 10.2659H67.7323V9.07944H67.9318C68.2678 9.07944 68.5093 8.99194 68.6563 8.81694C68.8033 8.63494 68.8768 8.41094 68.8768 8.14494C68.8768 7.82994 68.7858 7.59194 68.6038 7.43094C68.4218 7.26994 68.2083 7.18944 67.9633 7.18944C67.7043 7.18944 67.4873 7.26994 67.3123 7.43094C67.1443 7.58494 67.0533 7.80544 67.0393 8.09244H65.6743C65.6813 7.75644 65.7443 7.45894 65.8633 7.19994C65.9893 6.93394 66.1538 6.70994 66.3568 6.52794C66.5598 6.34594 66.7978 6.20594 67.0708 6.10794C67.3508 6.00994 67.6483 5.96094 67.9633 5.96094C68.2923 5.96094 68.5968 6.01344 68.8768 6.11844C69.1568 6.22344 69.3983 6.37044 69.6013 6.55944C69.8043 6.74844 69.9618 6.97594 70.0738 7.24194C70.1858 7.50094 70.2418 7.78794 70.2418 8.10294C70.2418 8.50894 70.1578 8.83444 69.9898 9.07944C69.8288 9.31744 69.6258 9.50294 69.3808 9.63594C69.6468 9.77594 69.8743 9.98244 70.0633 10.2554C70.2523 10.5214 70.3468 10.8819 70.3468 11.3369Z" fill="#3D2706"/>
</g>
<g id="Frame 1">
<path id="4" d="M99.3672 15.586H98.4572V17H96.7072V15.586H92.6332V13.864L96.0492 7.032H98.0372L94.6212 13.864H96.7072V12.002H98.4572V13.864H99.3672V15.586Z" fill="#868D99"/>
</g>
<g id="Frame 2">
<path id="..." d="M121.05 13H118.964V10.928H121.05V13ZM125.042 13H122.956V10.928H125.042V13ZM129.034 13H126.948V10.928H129.034V13Z" fill="#868D99"/>
</g>
<g id="Frame 3">
<path id="9" d="M155.129 10.028C155.129 10.4853 155.045 10.9287 154.877 11.358C154.719 11.7873 154.527 12.2307 154.303 12.688L152.189 17H150.215L152.287 12.884C152.166 12.9307 152.04 12.9633 151.909 12.982C151.788 13.0007 151.667 13.01 151.545 13.01C151.209 13.01 150.883 12.9447 150.565 12.814C150.248 12.674 149.968 12.478 149.725 12.226C149.483 11.974 149.287 11.666 149.137 11.302C148.988 10.938 148.913 10.5227 148.913 10.056C148.913 9.57067 148.993 9.13667 149.151 8.754C149.31 8.362 149.529 8.03533 149.809 7.774C150.089 7.50333 150.416 7.298 150.789 7.158C151.172 7.018 151.583 6.948 152.021 6.948C152.46 6.948 152.866 7.018 153.239 7.158C153.622 7.28867 153.953 7.48467 154.233 7.746C154.513 8.00733 154.733 8.32933 154.891 8.712C155.05 9.09467 155.129 9.53333 155.129 10.028ZM153.309 10.042C153.309 9.57533 153.188 9.216 152.945 8.964C152.703 8.712 152.395 8.586 152.021 8.586C151.648 8.586 151.34 8.712 151.097 8.964C150.855 9.216 150.733 9.57533 150.733 10.042C150.733 10.49 150.85 10.8447 151.083 11.106C151.317 11.3673 151.629 11.498 152.021 11.498C152.395 11.498 152.703 11.372 152.945 11.12C153.188 10.868 153.309 10.5087 153.309 10.042Z" fill="#868D99"/>
</g>
<g id="Frame 4">
<path id="10" d="M177.69 16.9478H175.87V8.93975L173.84 10.7038V8.74375L175.87 6.97975H177.69V16.9478ZM186.832 14.0638C186.832 14.5398 186.748 14.9644 186.58 15.3378C186.421 15.7018 186.202 16.0098 185.922 16.2618C185.651 16.5138 185.329 16.7051 184.956 16.8358C184.592 16.9664 184.209 17.0318 183.808 17.0318C183.397 17.0318 183.01 16.9664 182.646 16.8358C182.282 16.7051 181.96 16.5138 181.68 16.2618C181.4 16.0098 181.176 15.7018 181.008 15.3378C180.849 14.9644 180.77 14.5398 180.77 14.0638V9.86375C180.77 9.38775 180.849 8.96775 181.008 8.60375C181.176 8.23042 181.4 7.91775 181.68 7.66575C181.96 7.41375 182.282 7.22242 182.646 7.09175C183.01 6.96109 183.397 6.89575 183.808 6.89575C184.209 6.89575 184.592 6.96109 184.956 7.09175C185.329 7.22242 185.651 7.41375 185.922 7.66575C186.202 7.91775 186.421 8.23042 186.58 8.60375C186.748 8.96775 186.832 9.38775 186.832 9.86375V14.0638ZM185.012 14.0498V9.89175C185.012 9.47175 184.9 9.14042 184.676 8.89775C184.452 8.65509 184.163 8.53375 183.808 8.53375C183.453 8.53375 183.159 8.65509 182.926 8.89775C182.702 9.14042 182.59 9.47175 182.59 9.89175V14.0498C182.59 14.4698 182.702 14.8011 182.926 15.0438C183.159 15.2771 183.453 15.3938 183.808 15.3938C184.163 15.3938 184.452 15.2771 184.676 15.0438C184.9 14.8011 185.012 14.4698 185.012 14.0498Z" fill="#868D99"/>
</g>
</g>
<defs>
<linearGradient id="paint0_linear_311_840" x1="12.423" y1="21.0019" x2="12.423" y2="2.99829" gradientUnits="userSpaceOnUse">
<stop stop-color="#FF903E"/>
<stop offset="1" stop-color="#FFE55A"/>
</linearGradient>
<linearGradient id="paint1_linear_311_840" x1="40.423" y1="21.0019" x2="40.423" y2="2.99829" gradientUnits="userSpaceOnUse">
<stop stop-color="#737373"/>
<stop offset="1" stop-color="#C1C2C3"/>
</linearGradient>
<linearGradient id="paint2_linear_311_840" x1="67.9991" y1="2.99829" x2="67.9991" y2="21.0019" gradientUnits="userSpaceOnUse">
<stop stop-color="#E3B063"/>
<stop offset="1" stop-color="#725325"/>
</linearGradient>
<clipPath id="clip0_311_840">
<rect width="192" height="24" fill="white"/>
</clipPath>
</defs>
</svg>
